<?xml version="1.0" encoding="UTF-8"?>
<svg width="29px" height="17px" viewBox="0 0 29 17" version="1.1" xmlns="http://www.w3.org/2000/svg" xmlns:xlink="http://www.w3.org/1999/xlink">
    <!-- Generator: Sketch 52.6 (67491) - http://www.bohemiancoding.com/sketch -->
    <title>iconfinder_273_Ensign_Flag_Nation_kingdom_2634450</title>
    <desc>Created with Sketch.</desc>
    <g id="Page-1" stroke="none" stroke-width="1" fill="none" fill-rule="evenodd">
        <g id="Extra-large:-Desktops---12-col" transform="translate(-1251.000000, -27.000000)">
            <g id="Navbar">
                <g id="lang-selector" transform="translate(1198.000000, 23.000000)">
                    <g id="iconfinder_273_Ensign_Flag_Nation_kingdom_2634450" transform="translate(53.000000, 4.000000)">
                        <rect id="Rectangle" fill="#FFFFFF" x="0" y="0.0386822917" width="28.2933333" height="16.5062865"></rect>
                        <polygon id="Path" fill="#BD0034" points="18.9432708 6.00680729 28.2933333 0.768119792 28.2933333 0.0386822917 27.6467865 0.0386822917 16.9870521 6.00680729"></polygon>
                        <polygon id="Path" fill="#BD0034" points="18.5011875 10.9084063 28.2933333 16.3847135 28.2933333 15.2905573 20.4574063 10.9084063"></polygon>
                        <polygon id="Path" fill="#BD0034" points="0 1.29309375 8.37195313 6.00680729 10.3336979 6.00680729 0 0.193411458"></polygon>
                        <polygon id="Path" fill="#BD0034" points="9.88608854 10.9084063 0 16.4455 0 16.5449687 1.78491146 16.5449687 11.8478333 10.9084063"></polygon>
                        <polygon id="Path" fill="#1A237B" points="26.3592188 0.0386822917 16.451026 0.0386822917 16.451026 5.58682813"></polygon>
                        <polygon id="Path" fill="#1A237B" points="12.074401 0.0386822917 2.21041667 0.0386822917 12.074401 5.58682813"></polygon>
                        <polygon id="Path" fill="#1A237B" points="28.2933333 6.00680729 28.2933333 2.21594271 21.5736667 6.00680729"></polygon>
                        <polygon id="Path" fill="#1A237B" points="28.2933333 14.6495365 28.2933333 10.9084063 21.5736667 10.9084063"></polygon>
                        <polygon id="Path" fill="#1A237B" points="2.76854688 16.5449687 12.074401 16.5449687 12.074401 11.3228594"></polygon>
                        <polygon id="Path" fill="#1A237B" points="16.451026 16.5449687 25.7845104 16.5449687 16.451026 11.3228594"></polygon>
                        <polygon id="Path" fill="#1A237B" points="0 10.9084063 0 14.8208438 6.95176042 10.9084063"></polygon>
                        <polygon id="Path" fill="#1A237B" points="0 6.00680729 6.95176042 6.00680729 0 2.08331771"></polygon>
                        <polygon id="Path" fill="#BD0034" points="12.9530417 0.0386822917 12.9530417 6.98491667 0 6.98491667 0 9.92477083 12.9530417 9.92477083 12.9530417 16.5449687 15.5779115 16.5449687 15.5779115 9.92477083 28.2933333 9.92477083 28.2933333 6.98491667 15.5779115 6.98491667 15.5779115 0.0386822917"></polygon>
                    </g>
                </g>
            </g>
        </g>
    </g>
</svg>