<svg width="368" height="48" viewBox="0 0 368 48" fill="none" xmlns="http://www.w3.org/2000/svg">
<path d="M13.5996 14.71C11.7767 14.71 10.3525 15.5807 9.32715 17.3223C8.30176 19.0638 7.78906 21.5052 7.78906 24.6465C7.78906 27.8366 8.29362 30.3187 9.30273 32.0928C10.3281 33.8669 11.7441 34.7539 13.5508 34.7539C15.4388 34.7539 16.8955 33.8913 17.9209 32.166C18.9463 30.4408 19.459 27.9831 19.459 24.793C19.459 21.6191 18.9382 19.1452 17.8965 17.3711C16.8711 15.597 15.4388 14.71 13.5996 14.71ZM13.7949 12.0488C17.6361 12.0488 20.6878 13.2126 22.9502 15.54C25.2126 17.8512 26.3438 20.9844 26.3438 24.9395C26.3438 28.6829 25.1637 31.694 22.8037 33.9727C20.4437 36.2513 17.3105 37.3906 13.4043 37.3906C9.64453 37.3906 6.60905 36.2432 4.29785 33.9482C2.00293 31.637 0.855469 28.6016 0.855469 24.8418C0.855469 20.9844 2.03548 17.8919 4.39551 15.5645C6.75553 13.2207 9.88867 12.0488 13.7949 12.0488Z" fill="black"/>
<path d="M29.2979 37V34.7539L31.959 34.5586L32.667 33.8018V16.541H29.0537V14.5391L36.4023 12.1953H38.8193L38.5996 17.2979C39.4622 16.3864 40.3818 15.5075 41.3584 14.6611C42.335 13.7985 43.3604 12.9847 44.4346 12.2197C44.7113 12.1709 44.931 12.1383 45.0938 12.1221C45.2728 12.1058 45.4274 12.0977 45.5576 12.0977C46.0947 12.0977 46.6318 12.1709 47.1689 12.3174C47.7223 12.4476 48.2839 12.6592 48.8535 12.9521L48.2188 19.8613H45.6064C45.2321 19.2428 44.7764 18.7871 44.2393 18.4941C43.7184 18.2012 43.0918 18.0547 42.3594 18.0547C41.9362 18.0547 41.4235 18.1768 40.8213 18.4209C40.2354 18.6488 39.568 18.9906 38.8193 19.4463V33.8018L39.5518 34.5586L43.1162 34.7539V37H29.2979Z" fill="black"/>
<path d="M59.5469 33.9971C60.084 34.111 60.613 34.2005 61.1338 34.2656C61.6709 34.3145 62.208 34.3389 62.7451 34.3389C64.9912 34.3389 66.7734 33.4681 68.0918 31.7266C69.4264 29.985 70.0938 27.6413 70.0938 24.6953C70.0938 22.0749 69.5078 20.0322 68.3359 18.5674C67.1803 17.0863 65.569 16.3457 63.502 16.3457C62.9648 16.3457 62.3708 16.4271 61.7197 16.5898C61.085 16.7363 60.3607 16.9723 59.5469 17.2979V33.9971ZM50.0498 47.9619V45.6426L52.7598 45.3984L53.4434 44.6416V16.541H50.0498V14.5391L57.3008 12.1953H59.5469V15.1982C61.1257 14.1077 62.5498 13.3102 63.8193 12.8057C65.0889 12.3011 66.3014 12.0488 67.457 12.0488C70.1751 12.0488 72.4294 13.1637 74.2197 15.3936C76.0101 17.6071 76.9053 20.4229 76.9053 23.8408C76.9053 27.8447 75.709 31.043 73.3164 33.4355C70.9238 35.8118 67.7012 37 63.6484 37C62.9648 37 62.2812 36.9837 61.5977 36.9512C60.9303 36.9023 60.2549 36.8372 59.5713 36.7559L59.5469 44.7393L60.3037 45.4473L63.4043 45.6426V47.9619H50.0498Z" fill="black"/>
<path d="M86.6465 0.0615234H89.0391V15.1494C91.041 14.0589 92.7093 13.2777 94.0439 12.8057C95.3949 12.3337 96.5749 12.0977 97.584 12.0977C99.8952 12.0977 101.612 12.7894 102.735 14.1729C103.875 15.54 104.444 17.6152 104.444 20.3984V33.8018L105.104 34.5586L107.74 34.7539V37H95.4844V34.7539L97.6328 34.5586L98.3408 33.8018V21.8389C98.3408 19.9834 97.9746 18.6243 97.2422 17.7617C96.526 16.8828 95.3949 16.4434 93.8486 16.4434C93.2139 16.4434 92.4977 16.5166 91.7002 16.6631C90.9189 16.8096 90.0319 17.0212 89.0391 17.2979V33.8018L89.7959 34.5586L91.9932 34.7539V37H79.6396V34.7539L82.2031 34.5586L82.8867 33.8018V4.3584H79.249V2.40527L86.6465 0.0615234Z" fill="black"/>
<path d="M125.465 32.0928V23.9385C122.177 24.6709 119.931 25.4684 118.727 26.3311C117.522 27.1937 116.92 28.3656 116.92 29.8467C116.92 31.0023 117.254 31.9219 117.921 32.6055C118.588 33.2728 119.492 33.6064 120.631 33.6064C121.266 33.6064 121.982 33.4844 122.779 33.2402C123.593 32.9798 124.488 32.5973 125.465 32.0928ZM125.465 34.1436C123.772 35.2992 122.234 36.1374 120.851 36.6582C119.467 37.179 118.141 37.4395 116.871 37.4395C114.951 37.4395 113.38 36.8372 112.159 35.6328C110.938 34.4121 110.328 32.8496 110.328 30.9453C110.328 28.6016 111.223 26.7949 113.014 25.5254C114.804 24.2559 118.979 22.8805 125.538 21.3994V19.9102C125.538 18.1035 125.156 16.7852 124.391 15.9551C123.626 15.125 122.421 14.71 120.777 14.71C120.419 14.71 120.045 14.7344 119.654 14.7832C119.264 14.832 118.84 14.9053 118.385 15.0029V19.6904H113.771C112.973 19.6904 112.387 19.5439 112.013 19.251C111.655 18.958 111.476 18.4941 111.476 17.8594C111.476 16.2969 112.525 14.9378 114.625 13.7822C116.725 12.6266 119.304 12.0488 122.364 12.0488C125.799 12.0488 128.215 12.708 129.615 14.0264C131.015 15.3447 131.715 17.6396 131.715 20.9111V33.8506L132.374 34.5586L135.035 34.8027V37H126.124L125.465 34.1436Z" fill="black"/>
<path d="M137.062 37V34.7539L139.625 34.5586L140.333 33.8018V16.541H136.915V14.5391L144.117 12.1953H146.534V15.1494C148.438 14.0915 150.082 13.3184 151.466 12.8301C152.849 12.3418 154.054 12.0977 155.079 12.0977C157.358 12.0977 159.059 12.7812 160.182 14.1484C161.305 15.5156 161.866 17.599 161.866 20.3984V33.8018L162.525 34.5586L165.162 34.7539V37H152.931V34.7539L155.079 34.5586L155.763 33.8018V21.8389C155.763 19.9834 155.405 18.6243 154.688 17.7617C153.972 16.8828 152.833 16.4434 151.271 16.4434C150.668 16.4434 149.968 16.5166 149.171 16.6631C148.39 16.8096 147.511 17.0212 146.534 17.2979V33.8018L147.218 34.5586L149.415 34.7539V37H137.062Z" fill="black"/>
<path d="M185.548 13.2451V19.9102H182.545L182.057 16.1504L181.446 15.5889C180.893 15.3285 180.34 15.1331 179.786 15.0029C179.233 14.8727 178.688 14.8076 178.15 14.8076C176.946 14.8076 176.01 15.0762 175.343 15.6133C174.675 16.1341 174.342 16.8665 174.342 17.8105C174.342 18.5918 174.602 19.2673 175.123 19.8369C175.644 20.4066 176.938 21.196 179.005 22.2051L179.103 22.2539C183.904 24.5651 186.305 26.917 186.305 29.3096C186.305 31.8649 185.393 33.8831 183.57 35.3643C181.764 36.8291 179.273 37.5615 176.1 37.5615C174.863 37.5615 173.552 37.4557 172.169 37.2441C170.802 37.0326 169.361 36.7152 167.848 36.292V28.8945H170.851L171.437 33.1914L171.949 33.7529C172.6 34.0947 173.276 34.3551 173.976 34.5342C174.675 34.7132 175.4 34.8027 176.148 34.8027C177.467 34.8027 178.5 34.4854 179.249 33.8506C180.014 33.1995 180.396 32.3125 180.396 31.1895C180.396 29.7734 178.956 28.4144 176.075 27.1123C175.099 26.6729 174.342 26.3148 173.805 26.0381C171.738 25.0127 170.281 24.0036 169.435 23.0107C168.604 22.0016 168.189 20.8135 168.189 19.4463C168.189 17.2165 169.076 15.418 170.851 14.0508C172.641 12.6836 175.025 12 178.004 12C179.273 12 180.535 12.1058 181.788 12.3174C183.041 12.5127 184.295 12.8219 185.548 13.2451Z" fill="black"/>
<path d="M191.603 17.249L190.553 15.7598C192.083 14.832 193.238 13.7904 194.02 12.6348C194.817 11.4792 195.216 10.234 195.216 8.89941C195.216 8.68783 195.208 8.5332 195.191 8.43555C195.191 8.32161 195.183 8.21582 195.167 8.11816L192.164 8.09375C191.839 7.70312 191.594 7.29622 191.432 6.87305C191.285 6.44987 191.212 6.01042 191.212 5.55469C191.212 4.51302 191.521 3.6748 192.14 3.04004C192.774 2.40527 193.613 2.08789 194.654 2.08789C196.005 2.08789 197.088 2.56803 197.901 3.52832C198.715 4.47233 199.122 5.72559 199.122 7.28809C199.122 9.40397 198.463 11.3327 197.145 13.0742C195.842 14.8158 193.995 16.2074 191.603 17.249Z" fill="black"/>
<path d="M235.206 13.2451V19.9102H232.203L231.715 16.1504L231.104 15.5889C230.551 15.3285 229.998 15.1331 229.444 15.0029C228.891 14.8727 228.346 14.8076 227.809 14.8076C226.604 14.8076 225.668 15.0762 225.001 15.6133C224.334 16.1341 224 16.8665 224 17.8105C224 18.5918 224.26 19.2673 224.781 19.8369C225.302 20.4066 226.596 21.196 228.663 22.2051L228.761 22.2539C233.562 24.5651 235.963 26.917 235.963 29.3096C235.963 31.8649 235.051 33.8831 233.229 35.3643C231.422 36.8291 228.932 37.5615 225.758 37.5615C224.521 37.5615 223.211 37.4557 221.827 37.2441C220.46 37.0326 219.02 36.7152 217.506 36.292V28.8945H220.509L221.095 33.1914L221.607 33.7529C222.258 34.0947 222.934 34.3551 223.634 34.5342C224.334 34.7132 225.058 34.8027 225.807 34.8027C227.125 34.8027 228.159 34.4854 228.907 33.8506C229.672 33.1995 230.055 32.3125 230.055 31.1895C230.055 29.7734 228.614 28.4144 225.733 27.1123C224.757 26.6729 224 26.3148 223.463 26.0381C221.396 25.0127 219.939 24.0036 219.093 23.0107C218.263 22.0016 217.848 20.8135 217.848 19.4463C217.848 17.2165 218.735 15.418 220.509 14.0508C222.299 12.6836 224.684 12 227.662 12C228.932 12 230.193 12.1058 231.446 12.3174C232.7 12.5127 233.953 12.8219 235.206 13.2451Z" fill="black"/>
<path d="M242.018 16.2969H238.771V14.3926L242.457 12.293L245.069 7.09277H248.219V13.2939H255.616V16.2969H248.219V28.748C248.219 30.6198 248.52 31.8975 249.122 32.5811C249.724 33.2646 250.807 33.6064 252.369 33.6064C252.988 33.6064 253.557 33.582 254.078 33.5332C254.615 33.4681 255.128 33.3786 255.616 33.2646V35.6572C254.184 36.1781 252.817 36.5768 251.515 36.8535C250.229 37.1139 249.049 37.2441 247.975 37.2441C247.096 37.2441 246.314 37.1546 245.631 36.9756C244.964 36.7965 244.361 36.5199 243.824 36.1455C243.157 35.7061 242.685 35.1608 242.408 34.5098C242.148 33.8424 242.018 32.6217 242.018 30.8477V16.2969Z" fill="black"/>
<path d="M270.338 14.71C268.515 14.71 267.091 15.5807 266.065 17.3223C265.04 19.0638 264.527 21.5052 264.527 24.6465C264.527 27.8366 265.032 30.3187 266.041 32.0928C267.066 33.8669 268.482 34.7539 270.289 34.7539C272.177 34.7539 273.634 33.8913 274.659 32.166C275.685 30.4408 276.197 27.9831 276.197 24.793C276.197 21.6191 275.676 19.1452 274.635 17.3711C273.609 15.597 272.177 14.71 270.338 14.71ZM270.533 12.0488C274.374 12.0488 277.426 13.2126 279.688 15.54C281.951 17.8512 283.082 20.9844 283.082 24.9395C283.082 28.6829 281.902 31.694 279.542 33.9727C277.182 36.2513 274.049 37.3906 270.143 37.3906C266.383 37.3906 263.347 36.2432 261.036 33.9482C258.741 31.637 257.594 28.6016 257.594 24.8418C257.594 20.9844 258.774 17.8919 261.134 15.5645C263.494 13.2207 266.627 12.0488 270.533 12.0488Z" fill="black"/>
<path d="M286.036 37V34.7539L288.697 34.5586L289.405 33.8018V16.541H285.792V14.5391L293.141 12.1953H295.558L295.338 17.2979C296.201 16.3864 297.12 15.5075 298.097 14.6611C299.073 13.7985 300.099 12.9847 301.173 12.2197C301.45 12.1709 301.669 12.1383 301.832 12.1221C302.011 12.1058 302.166 12.0977 302.296 12.0977C302.833 12.0977 303.37 12.1709 303.907 12.3174C304.461 12.4476 305.022 12.6592 305.592 12.9521L304.957 19.8613H302.345C301.97 19.2428 301.515 18.7871 300.978 18.4941C300.457 18.2012 299.83 18.0547 299.098 18.0547C298.674 18.0547 298.162 18.1768 297.56 18.4209C296.974 18.6488 296.306 18.9906 295.558 19.4463V33.8018L296.29 34.5586L299.854 34.7539V37H286.036Z" fill="black"/>
<path d="M314.283 12.1953H316.7V33.8018L317.433 34.5586L320.24 34.7539V37H307.13V34.7539L309.84 34.5586L310.548 33.8018V16.541H307.252V14.5391L314.283 12.1953ZM313.746 0.793945C314.837 0.793945 315.732 1.14388 316.432 1.84375C317.132 2.52734 317.481 3.39811 317.481 4.45605C317.481 5.56283 317.132 6.47428 316.432 7.19043C315.748 7.8903 314.869 8.24023 313.795 8.24023C312.753 8.24023 311.882 7.8903 311.183 7.19043C310.483 6.49056 310.133 5.61165 310.133 4.55371C310.133 3.47949 310.475 2.58431 311.158 1.86816C311.858 1.15202 312.721 0.793945 313.746 0.793945Z" fill="black"/>
<path d="M338.966 21.5947V21.0576C338.966 19.0231 338.591 17.4688 337.843 16.3945C337.094 15.304 336.02 14.7588 334.62 14.7588C333.09 14.7588 331.861 15.3691 330.934 16.5898C330.006 17.7943 329.501 19.4626 329.42 21.5947H338.966ZM345.533 30.7988V34.5098C343.824 35.4863 342.099 36.2188 340.357 36.707C338.616 37.1953 336.874 37.4395 335.133 37.4395C331.406 37.4395 328.411 36.292 326.148 33.9971C323.902 31.7021 322.779 28.6667 322.779 24.8906C322.779 21.0983 323.927 18.0059 326.222 15.6133C328.533 13.2044 331.503 12 335.133 12C338.421 12 340.976 12.9928 342.799 14.9785C344.622 16.9479 345.533 19.723 345.533 23.3037V24.2559H329.176V24.4023C329.176 27.2507 329.892 29.4886 331.324 31.1162C332.757 32.7438 334.726 33.5576 337.232 33.5576C338.551 33.5576 339.894 33.3298 341.261 32.874C342.628 32.4183 344.052 31.7266 345.533 30.7988Z" fill="black"/>
<path d="M366.896 13.2451V19.9102H363.893L363.404 16.1504L362.794 15.5889C362.241 15.3285 361.687 15.1331 361.134 15.0029C360.58 14.8727 360.035 14.8076 359.498 14.8076C358.294 14.8076 357.358 15.0762 356.69 15.6133C356.023 16.1341 355.689 16.8665 355.689 17.8105C355.689 18.5918 355.95 19.2673 356.471 19.8369C356.992 20.4066 358.285 21.196 360.353 22.2051L360.45 22.2539C365.252 24.5651 367.652 26.917 367.652 29.3096C367.652 31.8649 366.741 33.8831 364.918 35.3643C363.111 36.8291 360.621 37.5615 357.447 37.5615C356.21 37.5615 354.9 37.4557 353.517 37.2441C352.149 37.0326 350.709 36.7152 349.195 36.292V28.8945H352.198L352.784 33.1914L353.297 33.7529C353.948 34.0947 354.623 34.3551 355.323 34.5342C356.023 34.7132 356.747 34.8027 357.496 34.8027C358.814 34.8027 359.848 34.4854 360.597 33.8506C361.362 33.1995 361.744 32.3125 361.744 31.1895C361.744 29.7734 360.304 28.4144 357.423 27.1123C356.446 26.6729 355.689 26.3148 355.152 26.0381C353.085 25.0127 351.629 24.0036 350.782 23.0107C349.952 22.0016 349.537 20.8135 349.537 19.4463C349.537 17.2165 350.424 15.418 352.198 14.0508C353.989 12.6836 356.373 12 359.352 12C360.621 12 361.882 12.1058 363.136 12.3174C364.389 12.5127 365.642 12.8219 366.896 13.2451Z" fill="black"/>
</svg>
