<?xml version="1.0" encoding="UTF-8"?>
<svg width="251px" height="38px" viewBox="0 0 251 38" version="1.1" xmlns="http://www.w3.org/2000/svg" xmlns:xlink="http://www.w3.org/1999/xlink">
    <!-- Generator: Sketch 52.6 (67491) - http://www.bohemiancoding.com/sketch -->
    <title>Orphans Map</title>
    <desc>Created with Sketch.</desc>
    <g id="Page-1" stroke="none" stroke-width="1" fill="none" fill-rule="evenodd">
        <g id="Artboard" transform="translate(-592.000000, -355.000000)" fill="#FFFFFF">
            <path d="M592.521,371.35 C592.521,369.32199 592.806997,367.443509 593.379,365.7145 C593.951003,363.985491 594.795994,362.490506 595.914,361.2295 C597.032006,359.968494 598.409992,358.987004 600.048,358.285 C601.686008,357.582996 603.570989,357.232 605.703,357.232 C607.835011,357.232 609.719992,357.582996 611.358,358.285 C612.996008,358.987004 614.367494,359.968494 615.4725,361.2295 C616.577506,362.490506 617.415997,363.985491 617.988,365.7145 C618.560003,367.443509 618.846,369.32199 618.846,371.35 C618.846,373.37801 618.560003,375.256491 617.988,376.9855 C617.415997,378.714509 616.577506,380.209494 615.4725,381.4705 C614.367494,382.731506 612.996008,383.712996 611.358,384.415 C609.719992,385.117004 607.835011,385.468 605.703,385.468 C603.570989,385.468 601.686008,385.117004 600.048,384.415 C598.409992,383.712996 597.032006,382.731506 595.914,381.4705 C594.795994,380.209494 593.951003,378.714509 593.379,376.9855 C592.806997,375.256491 592.521,373.37801 592.521,371.35 Z M599.151,371.35 C599.151,373.014008 599.280999,374.554493 599.541,375.9715 C599.801001,377.388507 600.210497,378.610495 600.7695,379.6375 C601.328503,380.664505 602.043496,381.470497 602.9145,382.0555 C603.785504,382.640503 604.831994,382.933 606.054,382.933 C607.172006,382.933 608.120996,382.640503 608.901,382.0555 C609.681004,381.470497 610.317998,380.664505 610.812,379.6375 C611.306002,378.610495 611.663499,377.388507 611.8845,375.9715 C612.105501,374.554493 612.216,373.014008 612.216,371.35 C612.216,369.685992 612.092501,368.145507 611.8455,366.7285 C611.598499,365.311493 611.208503,364.089505 610.6755,363.0625 C610.142497,362.035495 609.440504,361.229503 608.5695,360.6445 C607.698496,360.059497 606.639006,359.767 605.391,359.767 C604.194994,359.767 603.194004,360.059497 602.388,360.6445 C601.581996,361.229503 600.938502,362.035495 600.4575,363.0625 C599.976498,364.089505 599.638501,365.311493 599.4435,366.7285 C599.248499,368.145507 599.151,369.685992 599.151,371.35 Z M631.916,369.985 C631.603998,370.141001 631.240002,370.400998 630.824,370.765 C630.407998,371.129002 630.031002,371.726996 629.693,372.559 L629.693,382.543 C630.213003,382.595 630.732997,382.692499 631.253,382.8355 C631.773003,382.978501 632.292997,383.192999 632.813,383.479 L632.813,385 L621.503,385 L621.503,383.479 C621.971002,383.218999 622.412998,383.024001 622.829,382.894 C623.245002,382.763999 623.660998,382.647001 624.077,382.543 L624.077,368.269 L621.503,367.957 L621.503,366.436 C621.919002,366.253999 622.432497,366.085001 623.0435,365.929 C623.654503,365.772999 624.284997,365.636501 624.935,365.5195 C625.585003,365.402499 626.215497,365.305 626.8265,365.227 C627.437503,365.149 627.950998,365.084 628.367,365.032 L629.693,365.032 L629.693,370.219 L629.849,370.219 C630.057001,369.646997 630.362498,369.049003 630.7655,368.425 C631.168502,367.800997 631.642997,367.229003 632.189,366.709 C632.735003,366.188997 633.332997,365.773002 633.983,365.461 C634.633003,365.148998 635.308996,365.006 636.011,365.032 C636.297001,365.396002 636.543999,365.909497 636.752,366.5725 C636.960001,367.235503 637.128999,367.865997 637.259,368.464 L637.259,369.985 L631.916,369.985 Z M649.198,392.8 L638.434,392.8 L638.434,391.279 C639.318004,390.862998 640.175996,390.551001 641.008,390.343 L641.008,368.269 L638.434,367.957 L638.434,366.436 C638.850002,366.253999 639.363497,366.085001 639.9745,365.929 C640.585503,365.772999 641.215997,365.636501 641.866,365.5195 C642.516003,365.402499 643.146497,365.305 643.7575,365.227 C644.368503,365.149 644.881998,365.084 645.298,365.032 L646.624,365.032 L646.624,369.4 L646.663,369.4 C647.105002,368.151994 647.800495,367.112004 648.7495,366.28 C649.698505,365.447996 651.017992,365.032 652.708,365.032 C653.852006,365.032 654.885495,365.220498 655.8085,365.5975 C656.731505,365.974502 657.511497,366.559496 658.1485,367.3525 C658.785503,368.145504 659.279498,369.159494 659.6305,370.3945 C659.981502,371.629506 660.157,373.104991 660.157,374.821 C660.157,376.459008 659.929502,377.940993 659.4745,379.267 C659.019498,380.593007 658.369504,381.710995 657.5245,382.621 C656.679496,383.531005 655.652506,384.232998 654.4435,384.727 C653.234494,385.221002 651.863008,385.468 650.329,385.468 C649.444996,385.468 648.749503,385.409501 648.2425,385.2925 C647.735497,385.175499 647.196003,384.974001 646.624,384.688 L646.624,390.343 C647.040002,390.395 647.455998,390.492499 647.872,390.6355 C648.288002,390.778501 648.729998,390.992999 649.198,391.279 L649.198,392.8 Z M650.446,368.152 C649.561996,368.152 648.775503,368.463997 648.0865,369.088 C647.397497,369.712003 646.910001,370.673993 646.624,371.974 L646.624,382.348 C647.040002,382.660002 647.481998,382.887499 647.95,383.0305 C648.418002,383.173501 649.028996,383.245 649.783,383.245 C651.265007,383.245 652.356996,382.530007 653.059,381.1 C653.761004,379.669993 654.112,377.577014 654.112,374.821 C654.112,372.688989 653.845503,371.044506 653.3125,369.8875 C652.779497,368.730494 651.824007,368.152 650.446,368.152 Z M686.058,385 L675.723,385 L675.723,383.479 C676.035002,383.296999 676.359998,383.128001 676.698,382.972 C677.036002,382.815999 677.425998,382.673001 677.868,382.543 L677.868,374.665 C677.868,372.428989 677.653502,370.784505 677.2245,369.7315 C676.795498,368.678495 675.957006,368.152 674.709,368.152 C673.668995,368.152 672.785004,368.509496 672.057,369.2245 C671.328996,369.939504 670.809002,370.764995 670.497,371.701 L670.497,382.543 C670.913002,382.647001 671.283498,382.763999 671.6085,382.894 C671.933502,383.024001 672.277998,383.218999 672.642,383.479 L672.642,385 L662.307,385 L662.307,383.479 C663.113004,383.062998 663.970995,382.751001 664.881,382.543 L664.881,358.909 L661.917,358.597 L661.917,357.076 C662.307002,356.919999 662.807497,356.764001 663.4185,356.608 C664.029503,356.451999 664.672997,356.315501 665.349,356.1985 C666.025003,356.081499 666.700997,355.9775 667.377,355.8865 C668.053003,355.7955 668.650997,355.724 669.171,355.672 L670.497,355.672 L670.497,369.439 L670.536,369.439 C670.796001,368.840997 671.146998,368.275503 671.589,367.7425 C672.031002,367.209497 672.531497,366.741502 673.0905,366.3385 C673.649503,365.935498 674.253997,365.617001 674.904,365.383 C675.554003,365.148999 676.242996,365.032 676.971,365.032 C678.011005,365.032 678.940496,365.155499 679.7595,365.4025 C680.578504,365.649501 681.260997,366.084997 681.807,366.709 C682.353003,367.333003 682.768999,368.171495 683.055,369.2245 C683.341001,370.277505 683.484,371.609992 683.484,373.222 L683.484,382.543 C683.926002,382.647001 684.367998,382.763999 684.81,382.894 C685.252002,383.024001 685.667998,383.218999 686.058,383.479 L686.058,385 Z M705.056,379.345 C705.056,379.917003 705.0625,380.410998 705.0755,380.827 C705.0885,381.243002 705.121,381.684998 705.173,382.153 L707.864,382.543 L707.864,383.908 C707.551998,384.064001 707.129503,384.219999 706.5965,384.376 C706.063497,384.532001 705.504503,384.681499 704.9195,384.8245 C704.334497,384.967501 703.756003,385.0845 703.184,385.1755 C702.611997,385.2665 702.105002,385.338 701.663,385.39 L700.337,385.39 C700.076999,384.791997 699.921,384.194003 699.869,383.596 C699.817,382.997997 699.778,382.270004 699.752,381.412 L699.557,381.412 C699.426999,381.932003 699.206002,382.432498 698.894,382.9135 C698.581998,383.394502 698.185502,383.823498 697.7045,384.2005 C697.223498,384.577502 696.658003,384.882999 696.008,385.117 C695.357997,385.351001 694.630004,385.468 693.824,385.468 C692.965996,385.468 692.173004,385.338001 691.445,385.078 C690.716996,384.817999 690.080003,384.454002 689.534,383.986 C688.987997,383.517998 688.559002,382.952503 688.247,382.2895 C687.934998,381.626497 687.779,380.879004 687.779,380.047 C687.779,378.876994 687.999998,377.915004 688.442,377.161 C688.884002,376.406996 689.579495,375.789502 690.5285,375.3085 C691.477505,374.827498 692.699493,374.470001 694.1945,374.236 C695.689507,374.001999 697.502989,373.833001 699.635,373.729 C699.843001,371.492989 699.752002,369.855005 699.362,368.815 C698.971998,367.774995 698.127007,367.255 696.827,367.255 C696.020996,367.255 695.280003,367.384999 694.604,367.645 L692.771,372.325 L691.055,372.325 C690.846999,372.012998 690.645501,371.655502 690.4505,371.2525 C690.255499,370.849498 690.073501,370.420502 689.9045,369.9655 C689.735499,369.510498 689.592501,369.049002 689.4755,368.581 C689.358499,368.112998 689.274,367.658002 689.222,367.216 C690.210005,366.539997 691.483992,366.007002 693.044,365.617 C694.604008,365.226998 696.254991,365.032 697.997,365.032 C699.479007,365.032 700.687995,365.194498 701.624,365.5195 C702.560005,365.844502 703.294497,366.286497 703.8275,366.8455 C704.360503,367.404503 704.730999,368.060996 704.939,368.815 C705.147001,369.569004 705.251,370.374996 705.251,371.233 C705.251,372.793008 705.2185,374.203494 705.1535,375.4645 C705.0885,376.725506 705.056,378.018993 705.056,379.345 Z M696.281,382.348 C696.827003,382.348 697.294998,382.244001 697.685,382.036 C698.075002,381.827999 698.406499,381.581001 698.6795,381.295 C698.952501,381.008999 699.160499,380.697002 699.3035,380.359 C699.446501,380.020998 699.557,379.722001 699.635,379.462 L699.635,375.562 C698.412994,375.588 697.412004,375.665999 696.632,375.796 C695.851996,375.926001 695.241002,376.140499 694.799,376.4395 C694.356998,376.738501 694.051501,377.115498 693.8825,377.5705 C693.713499,378.025502 693.629,378.577997 693.629,379.228 C693.629,380.216005 693.862998,380.982997 694.331,381.529 C694.799002,382.075003 695.448996,382.348 696.281,382.348 Z M733.297,385 L722.962,385 L722.962,383.479 C723.300002,383.296999 723.631498,383.134501 723.9565,382.9915 C724.281502,382.848499 724.664998,382.699001 725.107,382.543 L725.107,373.378 C725.107,371.739992 724.873002,370.459505 724.405,369.5365 C723.936998,368.613495 723.105006,368.152 721.909,368.152 C720.920995,368.152 720.069504,368.470497 719.3545,369.1075 C718.639496,369.744503 718.100002,370.608995 717.736,371.701 L717.736,382.543 C718.152002,382.647001 718.522498,382.770499 718.8475,382.9135 C719.172502,383.056501 719.516998,383.244999 719.881,383.479 L719.881,385 L709.546,385 L709.546,383.479 C710.196003,383.140998 711.053995,382.829001 712.12,382.543 L712.12,368.269 L709.546,367.957 L709.546,366.436 C709.884002,366.279999 710.325997,366.130501 710.872,365.9875 C711.418003,365.844499 712.009497,365.708001 712.6465,365.578 C713.283503,365.447999 713.933497,365.3375 714.5965,365.2465 C715.259503,365.1555 715.863997,365.084 716.41,365.032 L717.736,365.032 L717.736,369.049 L717.775,369.049 C718.321003,367.956995 719.139995,367.014504 720.232,366.2215 C721.324005,365.428496 722.649992,365.032 724.21,365.032 C725.224005,365.032 726.133996,365.155499 726.94,365.4025 C727.746004,365.649501 728.428497,366.084997 728.9875,366.709 C729.546503,367.333003 729.975499,368.171495 730.2745,369.2245 C730.573502,370.277505 730.723,371.609992 730.723,373.222 L730.723,382.543 C731.763005,382.725001 732.620997,383.036998 733.297,383.479 L733.297,385 Z M745.197,380.749 C745.197,380.072997 744.956502,379.488002 744.4755,378.994 C743.994498,378.499998 743.396504,378.045002 742.6815,377.629 C741.966496,377.212998 741.186504,376.797002 740.3415,376.381 C739.496496,375.964998 738.716504,375.477503 738.0015,374.9185 C737.286496,374.359497 736.688502,373.703004 736.2075,372.949 C735.726498,372.194996 735.486,371.272005 735.486,370.18 C735.486,369.399996 735.667998,368.691503 736.032,368.0545 C736.396002,367.417497 736.889997,366.878002 737.514,366.436 C738.138003,365.993998 738.885496,365.649501 739.7565,365.4025 C740.627504,365.155499 741.569995,365.032 742.584,365.032 C743.988007,365.032 745.294494,365.142499 746.5035,365.3635 C747.712506,365.584501 748.771995,365.889998 749.682,366.28 C749.577999,367.112004 749.370002,368.002495 749.058,368.9515 C748.745998,369.900505 748.447001,370.764996 748.161,371.545 L746.835,371.545 L745.197,367.567 C744.884998,367.436999 744.560002,367.3525 744.222,367.3135 C743.883998,367.2745 743.507002,367.255 743.091,367.255 C742.310996,367.255 741.719502,367.482498 741.3165,367.9375 C740.913498,368.392502 740.712,368.905997 740.712,369.478 C740.712,370.128003 740.952498,370.693498 741.4335,371.1745 C741.914502,371.655502 742.512496,372.103998 743.2275,372.52 C743.942504,372.936002 744.722496,373.351998 745.5675,373.768 C746.412504,374.184002 747.192496,374.658497 747.9075,375.1915 C748.622504,375.724503 749.220498,376.354996 749.7015,377.083 C750.182502,377.811004 750.423,378.681995 750.423,379.696 C750.423,381.490009 749.695007,382.900495 748.239,383.9275 C746.782993,384.954505 744.833012,385.468 742.389,385.468 C741.140994,385.468 739.854007,385.338001 738.528,385.078 C737.201993,384.817999 736.058005,384.454002 735.096,383.986 C735.148,383.049995 735.368998,382.101005 735.759,381.139 C736.149002,380.176995 736.564998,379.319004 737.007,378.565 L738.333,378.565 L740.244,382.816 C740.530001,383.024001 740.848498,383.1475 741.1995,383.1865 C741.550502,383.2255 741.881998,383.245 742.194,383.245 C742.948004,383.245 743.636997,383.024002 744.261,382.582 C744.885003,382.139998 745.197,381.529004 745.197,380.749 Z M797.574,385 L785.913,385 L785.913,383.518 C786.433003,383.257999 786.939998,383.037001 787.434,382.855 C787.928002,382.672999 788.460997,382.517001 789.033,382.387 L789.033,366.085 L789.228,361.522 L788.916,361.522 L787.629,365.695 L780.102,385 L778.308,385 L770.82,365.851 L769.416,361.288 L769.065,361.288 L769.104,366.241 L769.104,382.231 C769.598002,382.335001 770.143997,382.503999 770.742,382.738 C771.340003,382.972001 771.898997,383.231999 772.419,383.518 L772.419,385 L762.903,385 L762.903,383.518 C763.319002,383.309999 763.832497,383.063001 764.4435,382.777 C765.054503,382.490999 765.632997,382.296001 766.179,382.192 L766.179,360.313 C765.658997,360.208999 765.106503,360.066001 764.5215,359.884 C763.936497,359.701999 763.423002,359.468001 762.981,359.182 L762.981,357.7 L773.55,357.7 L779.517,373.573 L780.648,377.317 L780.687,377.317 L781.857,373.495 L787.941,357.7 L797.613,357.7 L797.613,359.182 C797.170998,359.442001 796.696503,359.669499 796.1895,359.8645 C795.682497,360.059501 795.169003,360.208999 794.649,360.313 L794.649,382.426 C795.195003,382.530001 795.721497,382.685999 796.2285,382.894 C796.735503,383.102001 797.183998,383.309999 797.574,383.518 L797.574,385 Z M816.723,379.345 C816.723,379.917003 816.7295,380.410998 816.7425,380.827 C816.7555,381.243002 816.788,381.684998 816.84,382.153 L819.531,382.543 L819.531,383.908 C819.218998,384.064001 818.796503,384.219999 818.2635,384.376 C817.730497,384.532001 817.171503,384.681499 816.5865,384.8245 C816.001497,384.967501 815.423003,385.0845 814.851,385.1755 C814.278997,385.2665 813.772002,385.338 813.33,385.39 L812.004,385.39 C811.743999,384.791997 811.588,384.194003 811.536,383.596 C811.484,382.997997 811.445,382.270004 811.419,381.412 L811.224,381.412 C811.093999,381.932003 810.873002,382.432498 810.561,382.9135 C810.248998,383.394502 809.852502,383.823498 809.3715,384.2005 C808.890498,384.577502 808.325003,384.882999 807.675,385.117 C807.024997,385.351001 806.297004,385.468 805.491,385.468 C804.632996,385.468 803.840004,385.338001 803.112,385.078 C802.383996,384.817999 801.747003,384.454002 801.201,383.986 C800.654997,383.517998 800.226002,382.952503 799.914,382.2895 C799.601998,381.626497 799.446,380.879004 799.446,380.047 C799.446,378.876994 799.666998,377.915004 800.109,377.161 C800.551002,376.406996 801.246495,375.789502 802.1955,375.3085 C803.144505,374.827498 804.366493,374.470001 805.8615,374.236 C807.356507,374.001999 809.169989,373.833001 811.302,373.729 C811.510001,371.492989 811.419002,369.855005 811.029,368.815 C810.638998,367.774995 809.794007,367.255 808.494,367.255 C807.687996,367.255 806.947003,367.384999 806.271,367.645 L804.438,372.325 L802.722,372.325 C802.513999,372.012998 802.312501,371.655502 802.1175,371.2525 C801.922499,370.849498 801.740501,370.420502 801.5715,369.9655 C801.402499,369.510498 801.259501,369.049002 801.1425,368.581 C801.025499,368.112998 800.941,367.658002 800.889,367.216 C801.877005,366.539997 803.150992,366.007002 804.711,365.617 C806.271008,365.226998 807.921991,365.032 809.664,365.032 C811.146007,365.032 812.354995,365.194498 813.291,365.5195 C814.227005,365.844502 814.961497,366.286497 815.4945,366.8455 C816.027503,367.404503 816.397999,368.060996 816.606,368.815 C816.814001,369.569004 816.918,370.374996 816.918,371.233 C816.918,372.793008 816.8855,374.203494 816.8205,375.4645 C816.7555,376.725506 816.723,378.018993 816.723,379.345 Z M807.948,382.348 C808.494003,382.348 808.961998,382.244001 809.352,382.036 C809.742002,381.827999 810.073499,381.581001 810.3465,381.295 C810.619501,381.008999 810.827499,380.697002 810.9705,380.359 C811.113501,380.020998 811.224,379.722001 811.302,379.462 L811.302,375.562 C810.079994,375.588 809.079004,375.665999 808.299,375.796 C807.518996,375.926001 806.908002,376.140499 806.466,376.4395 C806.023998,376.738501 805.718501,377.115498 805.5495,377.5705 C805.380499,378.025502 805.296,378.577997 805.296,379.228 C805.296,380.216005 805.529998,380.982997 805.998,381.529 C806.466002,382.075003 807.115996,382.348 807.948,382.348 Z M831.699,392.8 L820.935,392.8 L820.935,391.279 C821.819004,390.862998 822.676996,390.551001 823.509,390.343 L823.509,368.269 L820.935,367.957 L820.935,366.436 C821.351002,366.253999 821.864497,366.085001 822.4755,365.929 C823.086503,365.772999 823.716997,365.636501 824.367,365.5195 C825.017003,365.402499 825.647497,365.305 826.2585,365.227 C826.869503,365.149 827.382998,365.084 827.799,365.032 L829.125,365.032 L829.125,369.4 L829.164,369.4 C829.606002,368.151994 830.301495,367.112004 831.2505,366.28 C832.199505,365.447996 833.518992,365.032 835.209,365.032 C836.353006,365.032 837.386495,365.220498 838.3095,365.5975 C839.232505,365.974502 840.012497,366.559496 840.6495,367.3525 C841.286503,368.145504 841.780498,369.159494 842.1315,370.3945 C842.482502,371.629506 842.658,373.104991 842.658,374.821 C842.658,376.459008 842.430502,377.940993 841.9755,379.267 C841.520498,380.593007 840.870504,381.710995 840.0255,382.621 C839.180496,383.531005 838.153506,384.232998 836.9445,384.727 C835.735494,385.221002 834.364008,385.468 832.83,385.468 C831.945996,385.468 831.250503,385.409501 830.7435,385.2925 C830.236497,385.175499 829.697003,384.974001 829.125,384.688 L829.125,390.343 C829.541002,390.395 829.956998,390.492499 830.373,390.6355 C830.789002,390.778501 831.230998,390.992999 831.699,391.279 L831.699,392.8 Z M832.947,368.152 C832.062996,368.152 831.276503,368.463997 830.5875,369.088 C829.898497,369.712003 829.411001,370.673993 829.125,371.974 L829.125,382.348 C829.541002,382.660002 829.982998,382.887499 830.451,383.0305 C830.919002,383.173501 831.529996,383.245 832.284,383.245 C833.766007,383.245 834.857997,382.530007 835.56,381.1 C836.262004,379.669993 836.613,377.577014 836.613,374.821 C836.613,372.688989 836.346503,371.044506 835.8135,369.8875 C835.280497,368.730494 834.325007,368.152 832.947,368.152 Z" id="Orphans-Map"></path>
        </g>
    </g>
</svg>