<?xml version="1.0" encoding="UTF-8"?>
<svg width="159px" height="38px" viewBox="0 0 159 38" version="1.1" xmlns="http://www.w3.org/2000/svg" xmlns:xlink="http://www.w3.org/1999/xlink">
    <!-- Generator: Sketch 52.6 (67491) - http://www.bohemiancoding.com/sketch -->
    <title>Orphans</title>
    <desc>Created with Sketch.</desc>
    <g id="Page-1" stroke="none" stroke-width="1" fill="none" fill-rule="evenodd">
        <g id="Extra-large:-Desktops---12-col" transform="translate(-166.000000, -16.000000)" fill="#FFFFFF">
            <g id="Navbar">
                <path d="M166.521,32.35 C166.521,30.3219899 166.806997,28.4435086 167.379,26.7145 C167.951003,24.9854914 168.795994,23.4905063 169.914,22.2295 C171.032006,20.9684937 172.409992,19.9870035 174.048,19.285 C175.686008,18.5829965 177.570989,18.232 179.703,18.232 C181.835011,18.232 183.719992,18.5829965 185.358,19.285 C186.996008,19.9870035 188.367494,20.9684937 189.4725,22.2295 C190.577506,23.4905063 191.415997,24.9854914 191.988,26.7145 C192.560003,28.4435086 192.846,30.3219899 192.846,32.35 C192.846,34.3780101 192.560003,36.2564914 191.988,37.9855 C191.415997,39.7145086 190.577506,41.2094937 189.4725,42.4705 C188.367494,43.7315063 186.996008,44.7129965 185.358,45.415 C183.719992,46.1170035 181.835011,46.468 179.703,46.468 C177.570989,46.468 175.686008,46.1170035 174.048,45.415 C172.409992,44.7129965 171.032006,43.7315063 169.914,42.4705 C168.795994,41.2094937 167.951003,39.7145086 167.379,37.9855 C166.806997,36.2564914 166.521,34.3780101 166.521,32.35 Z M205.916,30.985 C205.603998,31.1410008 205.240002,31.4009982 204.824,31.765 C204.407998,32.1290018 204.031002,32.7269958 203.693,33.559 L203.693,43.543 C204.213003,43.5950003 204.732997,43.6924993 205.253,43.8355 C205.773003,43.9785007 206.292997,44.1929986 206.813,44.479 L206.813,46 L195.503,46 L195.503,44.479 C195.971002,44.2189987 196.412998,44.0240007 196.829,43.894 C197.245002,43.7639993 197.660998,43.6470005 198.077,43.543 L198.077,29.269 L195.503,28.957 L195.503,27.436 C195.919002,27.2539991 196.432497,27.0850008 197.0435,26.929 C197.654503,26.7729992 198.284997,26.6365006 198.935,26.5195 C199.585003,26.4024994 200.215497,26.3050004 200.8265,26.227 C201.437503,26.1489996 201.950998,26.0840003 202.367,26.032 L203.693,26.032 L203.693,31.219 L203.849,31.219 C204.057001,30.6469971 204.362498,30.0490031 204.7655,29.425 C205.168502,28.8009969 205.642997,28.2290026 206.189,27.709 C206.735003,27.1889974 207.332997,26.7730016 207.983,26.461 C208.633003,26.1489984 209.308996,26.0059999 210.011,26.032 C210.297001,26.3960018 210.543999,26.9094967 210.752,27.5725 C210.960001,28.2355033 211.128999,28.865997 211.259,29.464 L211.259,30.985 L205.916,30.985 Z M223.198,53.8 L212.434,53.8 L212.434,52.279 C213.318004,51.8629979 214.175996,51.551001 215.008,51.343 L215.008,29.269 L212.434,28.957 L212.434,27.436 C212.850002,27.2539991 213.363497,27.0850008 213.9745,26.929 C214.585503,26.7729992 215.215997,26.6365006 215.866,26.5195 C216.516003,26.4024994 217.146497,26.3050004 217.7575,26.227 C218.368503,26.1489996 218.881998,26.0840003 219.298,26.032 L220.624,26.032 L220.624,30.4 L220.663,30.4 C221.105002,29.1519938 221.800495,28.1120042 222.7495,27.28 C223.698505,26.4479958 225.017992,26.032 226.708,26.032 C227.852006,26.032 228.885495,26.2204981 229.8085,26.5975 C230.731505,26.9745019 231.511497,27.559496 232.1485,28.3525 C232.785503,29.145504 233.279498,30.1594938 233.6305,31.3945 C233.981502,32.6295062 234.157,34.1049914 234.157,35.821 C234.157,37.4590082 233.929502,38.9409934 233.4745,40.267 C233.019498,41.5930066 232.369504,42.7109954 231.5245,43.621 C230.679496,44.5310045 229.652506,45.2329975 228.4435,45.727 C227.234494,46.2210025 225.863008,46.468 224.329,46.468 C223.444996,46.468 222.749503,46.4095006 222.2425,46.2925 C221.735497,46.1754994 221.196003,45.9740014 220.624,45.688 L220.624,51.343 C221.040002,51.3950003 221.455998,51.4924993 221.872,51.6355 C222.288002,51.7785007 222.729998,51.9929986 223.198,52.279 L223.198,53.8 Z M260.058,46 L249.723,46 L249.723,44.479 C250.035002,44.2969991 250.359998,44.1280008 250.698,43.972 C251.036002,43.8159992 251.425998,43.6730006 251.868,43.543 L251.868,35.665 C251.868,33.4289888 251.653502,31.7845053 251.2245,30.7315 C250.795498,29.6784947 249.957006,29.152 248.709,29.152 C247.668995,29.152 246.785004,29.5094964 246.057,30.2245 C245.328996,30.9395036 244.809002,31.7649953 244.497,32.701 L244.497,43.543 C244.913002,43.6470005 245.283498,43.7639993 245.6085,43.894 C245.933502,44.0240007 246.277998,44.2189987 246.642,44.479 L246.642,46 L236.307,46 L236.307,44.479 C237.113004,44.0629979 237.970995,43.751001 238.881,43.543 L238.881,19.909 L235.917,19.597 L235.917,18.076 C236.307002,17.9199992 236.807497,17.7640008 237.4185,17.608 C238.029503,17.4519992 238.672997,17.3155006 239.349,17.1985 C240.025003,17.0814994 240.700997,16.9775005 241.377,16.8865 C242.053003,16.7954995 242.650997,16.7240003 243.171,16.672 L244.497,16.672 L244.497,30.439 L244.536,30.439 C244.796001,29.840997 245.146998,29.2755027 245.589,28.7425 C246.031002,28.2094973 246.531497,27.741502 247.0905,27.3385 C247.649503,26.935498 248.253997,26.6170012 248.904,26.383 C249.554003,26.1489988 250.242996,26.032 250.971,26.032 C252.011005,26.032 252.940496,26.1554988 253.7595,26.4025 C254.578504,26.6495012 255.260997,27.0849969 255.807,27.709 C256.353003,28.3330031 256.768999,29.1714947 257.055,30.2245 C257.341001,31.2775053 257.484,32.6099919 257.484,34.222 L257.484,43.543 C257.926002,43.6470005 258.367998,43.7639993 258.81,43.894 C259.252002,44.0240007 259.667998,44.2189987 260.058,44.479 L260.058,46 Z M279.056,40.345 C279.056,40.9170029 279.0625,41.4109979 279.0755,41.827 C279.0885,42.2430021 279.121,42.6849977 279.173,43.153 L281.864,43.543 L281.864,44.908 C281.551998,45.0640008 281.129503,45.2199992 280.5965,45.376 C280.063497,45.5320008 279.504503,45.6814993 278.9195,45.8245 C278.334497,45.9675007 277.756003,46.0844995 277.184,46.1755 C276.611997,46.2665005 276.105002,46.3379997 275.663,46.39 L274.337,46.39 C274.076999,45.791997 273.921,45.194003 273.869,44.596 C273.817,43.997997 273.778,43.2700043 273.752,42.412 L273.557,42.412 C273.426999,42.9320026 273.206002,43.4324976 272.894,43.9135 C272.581998,44.3945024 272.185502,44.8234981 271.7045,45.2005 C271.223498,45.5775019 270.658003,45.8829988 270.008,46.117 C269.357997,46.3510012 268.630004,46.468 267.824,46.468 C266.965996,46.468 266.173004,46.3380013 265.445,46.078 C264.716996,45.8179987 264.080003,45.4540023 263.534,44.986 C262.987997,44.5179977 262.559002,43.9525033 262.247,43.2895 C261.934998,42.6264967 261.779,41.8790042 261.779,41.047 C261.779,39.8769942 261.999998,38.9150038 262.442,38.161 C262.884002,37.4069962 263.579495,36.7895024 264.5285,36.3085 C265.477505,35.8274976 266.699493,35.4700012 268.1945,35.236 C269.689507,35.0019988 271.502989,34.8330005 273.635,34.729 C273.843001,32.4929888 273.752002,30.8550052 273.362,29.815 C272.971998,28.7749948 272.127007,28.255 270.827,28.255 C270.020996,28.255 269.280003,28.3849987 268.604,28.645 L266.771,33.325 L265.055,33.325 C264.846999,33.0129984 264.645501,32.655502 264.4505,32.2525 C264.255499,31.849498 264.073501,31.4205023 263.9045,30.9655 C263.735499,30.5104977 263.592501,30.0490023 263.4755,29.581 C263.358499,29.1129977 263.274,28.6580022 263.222,28.216 C264.210005,27.5399966 265.483992,27.0070019 267.044,26.617 C268.604008,26.226998 270.254991,26.032 271.997,26.032 C273.479007,26.032 274.687995,26.1944984 275.624,26.5195 C276.560005,26.8445016 277.294497,27.2864972 277.8275,27.8455 C278.360503,28.4045028 278.730999,29.0609962 278.939,29.815 C279.147001,30.5690038 279.251,31.3749957 279.251,32.233 C279.251,33.7930078 279.2185,35.2034937 279.1535,36.4645 C279.0885,37.7255063 279.056,39.0189934 279.056,40.345 Z M307.297,46 L296.962,46 L296.962,44.479 C297.300002,44.2969991 297.631498,44.1345007 297.9565,43.9915 C298.281502,43.8484993 298.664998,43.6990008 299.107,43.543 L299.107,34.378 C299.107,32.7399918 298.873002,31.4595046 298.405,30.5365 C297.936998,29.6134954 297.105006,29.152 295.909,29.152 C294.920995,29.152 294.069504,29.4704968 293.3545,30.1075 C292.639496,30.7445032 292.100002,31.6089945 291.736,32.701 L291.736,43.543 C292.152002,43.6470005 292.522498,43.7704993 292.8475,43.9135 C293.172502,44.0565007 293.516998,44.2449988 293.881,44.479 L293.881,46 L283.546,46 L283.546,44.479 C284.196003,44.1409983 285.053995,43.8290014 286.12,43.543 L286.12,29.269 L283.546,28.957 L283.546,27.436 C283.884002,27.2799992 284.325997,27.1305007 284.872,26.9875 C285.418003,26.8444993 286.009497,26.7080007 286.6465,26.578 C287.283503,26.4479993 287.933497,26.3375005 288.5965,26.2465 C289.259503,26.1554995 289.863997,26.0840003 290.41,26.032 L291.736,26.032 L291.736,30.049 L291.775,30.049 C292.321003,28.9569945 293.139995,28.014504 294.232,27.2215 C295.324005,26.428496 296.649992,26.032 298.21,26.032 C299.224005,26.032 300.133996,26.1554988 300.94,26.4025 C301.746004,26.6495012 302.428497,27.0849969 302.9875,27.709 C303.546503,28.3330031 303.975499,29.1714947 304.2745,30.2245 C304.573502,31.2775053 304.723,32.6099919 304.723,34.222 L304.723,43.543 C305.763005,43.7250009 306.620997,44.0369978 307.297,44.479 L307.297,46 Z M319.197,41.749 C319.197,41.0729966 318.956502,40.4880025 318.4755,39.994 C317.994498,39.4999975 317.396504,39.0450021 316.6815,38.629 C315.966496,38.2129979 315.186504,37.7970021 314.3415,37.381 C313.496496,36.9649979 312.716504,36.4775028 312.0015,35.9185 C311.286496,35.3594972 310.688502,34.7030038 310.2075,33.949 C309.726498,33.1949962 309.486,32.2720055 309.486,31.18 C309.486,30.3999961 309.667998,29.6915032 310.032,29.0545 C310.396002,28.4174968 310.889997,27.8780022 311.514,27.436 C312.138003,26.9939978 312.885496,26.6495012 313.7565,26.4025 C314.627504,26.1554988 315.569995,26.032 316.584,26.032 C317.988007,26.032 319.294494,26.1424989 320.5035,26.3635 C321.712506,26.5845011 322.771995,26.8899981 323.682,27.28 C323.577999,28.1120042 323.370002,29.0024953 323.058,29.9515 C322.745998,30.9005047 322.447001,31.7649961 322.161,32.545 L320.835,32.545 L319.197,28.567 C318.884998,28.4369994 318.560002,28.3525002 318.222,28.3135 C317.883998,28.2744998 317.507002,28.255 317.091,28.255 C316.310996,28.255 315.719502,28.4824977 315.3165,28.9375 C314.913498,29.3925023 314.712,29.9059971 314.712,30.478 C314.712,31.1280032 314.952498,31.6934976 315.4335,32.1745 C315.914502,32.6555024 316.512496,33.1039979 317.2275,33.52 C317.942504,33.9360021 318.722496,34.3519979 319.5675,34.768 C320.412504,35.1840021 321.192496,35.6584973 321.9075,36.1915 C322.622504,36.7245027 323.220498,37.3549964 323.7015,38.083 C324.182502,38.8110036 324.423,39.6819949 324.423,40.696 C324.423,42.490009 323.695007,43.9004949 322.239,44.9275 C320.782993,45.9545051 318.833012,46.468 316.389,46.468 C315.140994,46.468 313.854007,46.3380013 312.528,46.078 C311.201993,45.8179987 310.058005,45.4540023 309.096,44.986 C309.148,44.0499953 309.368998,43.1010048 309.759,42.139 C310.149002,41.1769952 310.564998,40.3190038 311.007,39.565 L312.333,39.565 L314.244,43.816 C314.530001,44.024001 314.848498,44.1474998 315.1995,44.1865 C315.550502,44.2255002 315.881998,44.245 316.194,44.245 C316.948004,44.245 317.636997,44.0240022 318.261,43.582 C318.885003,43.1399978 319.197,42.5290039 319.197,41.749 Z" id="Orphans"></path>
            </g>
        </g>
    </g>
</svg>