<?xml version="1.0" encoding="UTF-8"?>
<svg width="251px" height="38px" viewBox="0 0 251 38" version="1.1" xmlns="http://www.w3.org/2000/svg" xmlns:xlink="http://www.w3.org/1999/xlink">
    <!-- Generator: Sketch 52.6 (67491) - http://www.bohemiancoding.com/sketch -->
    <title>Orphans map</title>
    <desc>Created with Sketch.</desc>
    <g id="Page-1" stroke="none" stroke-width="1" fill="none" fill-rule="evenodd">
        <g id="Artboard" transform="translate(-781.000000, -74.000000)" fill="#000000">
            <path d="M781.521,90.35 C781.521,88.3219899 781.806997,86.4435086 782.379,84.7145 C782.951003,82.9854914 783.795994,81.4905063 784.914,80.2295 C786.032006,78.9684937 787.409992,77.9870035 789.048,77.285 C790.686008,76.5829965 792.570989,76.232 794.703,76.232 C796.835011,76.232 798.719992,76.5829965 800.358,77.285 C801.996008,77.9870035 803.367494,78.9684937 804.4725,80.2295 C805.577506,81.4905063 806.415997,82.9854914 806.988,84.7145 C807.560003,86.4435086 807.846,88.3219899 807.846,90.35 C807.846,92.3780101 807.560003,94.2564914 806.988,95.9855 C806.415997,97.7145086 805.577506,99.2094937 804.4725,100.4705 C803.367494,101.731506 801.996008,102.712996 800.358,103.415 C798.719992,104.117004 796.835011,104.468 794.703,104.468 C792.570989,104.468 790.686008,104.117004 789.048,103.415 C787.409992,102.712996 786.032006,101.731506 784.914,100.4705 C783.795994,99.2094937 782.951003,97.7145086 782.379,95.9855 C781.806997,94.2564914 781.521,92.3780101 781.521,90.35 Z M788.151,90.35 C788.151,92.0140083 788.280999,93.5544929 788.541,94.9715 C788.801001,96.3885071 789.210497,97.6104949 789.7695,98.6375 C790.328503,99.6645051 791.043496,100.470497 791.9145,101.0555 C792.785504,101.640503 793.831994,101.933 795.054,101.933 C796.172006,101.933 797.120996,101.640503 797.901,101.0555 C798.681004,100.470497 799.317998,99.6645051 799.812,98.6375 C800.306002,97.6104949 800.663499,96.3885071 800.8845,94.9715 C801.105501,93.5544929 801.216,92.0140083 801.216,90.35 C801.216,88.6859917 801.092501,87.1455071 800.8455,85.7285 C800.598499,84.3114929 800.208503,83.0895051 799.6755,82.0625 C799.142497,81.0354949 798.440504,80.2295029 797.5695,79.6445 C796.698496,79.0594971 795.639006,78.767 794.391,78.767 C793.194994,78.767 792.194004,79.0594971 791.388,79.6445 C790.581996,80.2295029 789.938502,81.0354949 789.4575,82.0625 C788.976498,83.0895051 788.638501,84.3114929 788.4435,85.7285 C788.248499,87.1455071 788.151,88.6859917 788.151,90.35 Z M820.916,88.985 C820.603998,89.1410008 820.240002,89.4009982 819.824,89.765 C819.407998,90.1290018 819.031002,90.7269958 818.693,91.559 L818.693,101.543 C819.213003,101.595 819.732997,101.692499 820.253,101.8355 C820.773003,101.978501 821.292997,102.192999 821.813,102.479 L821.813,104 L810.503,104 L810.503,102.479 C810.971002,102.218999 811.412998,102.024001 811.829,101.894 C812.245002,101.763999 812.660998,101.647001 813.077,101.543 L813.077,87.269 L810.503,86.957 L810.503,85.436 C810.919002,85.2539991 811.432497,85.0850008 812.0435,84.929 C812.654503,84.7729992 813.284997,84.6365006 813.935,84.5195 C814.585003,84.4024994 815.215497,84.3050004 815.8265,84.227 C816.437503,84.1489996 816.950998,84.0840003 817.367,84.032 L818.693,84.032 L818.693,89.219 L818.849,89.219 C819.057001,88.6469971 819.362498,88.0490031 819.7655,87.425 C820.168502,86.8009969 820.642997,86.2290026 821.189,85.709 C821.735003,85.1889974 822.332997,84.7730016 822.983,84.461 C823.633003,84.1489984 824.308996,84.0059999 825.011,84.032 C825.297001,84.3960018 825.543999,84.9094967 825.752,85.5725 C825.960001,86.2355033 826.128999,86.865997 826.259,87.464 L826.259,88.985 L820.916,88.985 Z M838.198,111.8 L827.434,111.8 L827.434,110.279 C828.318004,109.862998 829.175996,109.551001 830.008,109.343 L830.008,87.269 L827.434,86.957 L827.434,85.436 C827.850002,85.2539991 828.363497,85.0850008 828.9745,84.929 C829.585503,84.7729992 830.215997,84.6365006 830.866,84.5195 C831.516003,84.4024994 832.146497,84.3050004 832.7575,84.227 C833.368503,84.1489996 833.881998,84.0840003 834.298,84.032 L835.624,84.032 L835.624,88.4 L835.663,88.4 C836.105002,87.1519938 836.800495,86.1120042 837.7495,85.28 C838.698505,84.4479958 840.017992,84.032 841.708,84.032 C842.852006,84.032 843.885495,84.2204981 844.8085,84.5975 C845.731505,84.9745019 846.511497,85.559496 847.1485,86.3525 C847.785503,87.145504 848.279498,88.1594938 848.6305,89.3945 C848.981502,90.6295062 849.157,92.1049914 849.157,93.821 C849.157,95.4590082 848.929502,96.9409934 848.4745,98.267 C848.019498,99.5930066 847.369504,100.710995 846.5245,101.621 C845.679496,102.531005 844.652506,103.232998 843.4435,103.727 C842.234494,104.221002 840.863008,104.468 839.329,104.468 C838.444996,104.468 837.749503,104.409501 837.2425,104.2925 C836.735497,104.175499 836.196003,103.974001 835.624,103.688 L835.624,109.343 C836.040002,109.395 836.455998,109.492499 836.872,109.6355 C837.288002,109.778501 837.729998,109.992999 838.198,110.279 L838.198,111.8 Z M839.446,87.152 C838.561996,87.152 837.775503,87.4639969 837.0865,88.088 C836.397497,88.7120031 835.910001,89.6739935 835.624,90.974 L835.624,101.348 C836.040002,101.660002 836.481998,101.887499 836.95,102.0305 C837.418002,102.173501 838.028996,102.245 838.783,102.245 C840.265007,102.245 841.356996,101.530007 842.059,100.1 C842.761004,98.6699928 843.112,96.5770138 843.112,93.821 C843.112,91.6889893 842.845503,90.0445058 842.3125,88.8875 C841.779497,87.7304942 840.824007,87.152 839.446,87.152 Z M875.058,104 L864.723,104 L864.723,102.479 C865.035002,102.296999 865.359998,102.128001 865.698,101.972 C866.036002,101.815999 866.425998,101.673001 866.868,101.543 L866.868,93.665 C866.868,91.4289888 866.653502,89.7845053 866.2245,88.7315 C865.795498,87.6784947 864.957006,87.152 863.709,87.152 C862.668995,87.152 861.785004,87.5094964 861.057,88.2245 C860.328996,88.9395036 859.809002,89.7649953 859.497,90.701 L859.497,101.543 C859.913002,101.647001 860.283498,101.763999 860.6085,101.894 C860.933502,102.024001 861.277998,102.218999 861.642,102.479 L861.642,104 L851.307,104 L851.307,102.479 C852.113004,102.062998 852.970995,101.751001 853.881,101.543 L853.881,77.909 L850.917,77.597 L850.917,76.076 C851.307002,75.9199992 851.807497,75.7640008 852.4185,75.608 C853.029503,75.4519992 853.672997,75.3155006 854.349,75.1985 C855.025003,75.0814994 855.700997,74.9775005 856.377,74.8865 C857.053003,74.7954995 857.650997,74.7240003 858.171,74.672 L859.497,74.672 L859.497,88.439 L859.536,88.439 C859.796001,87.840997 860.146998,87.2755027 860.589,86.7425 C861.031002,86.2094973 861.531497,85.741502 862.0905,85.3385 C862.649503,84.935498 863.253997,84.6170012 863.904,84.383 C864.554003,84.1489988 865.242996,84.032 865.971,84.032 C867.011005,84.032 867.940496,84.1554988 868.7595,84.4025 C869.578504,84.6495012 870.260997,85.0849969 870.807,85.709 C871.353003,86.3330031 871.768999,87.1714947 872.055,88.2245 C872.341001,89.2775053 872.484,90.6099919 872.484,92.222 L872.484,101.543 C872.926002,101.647001 873.367998,101.763999 873.81,101.894 C874.252002,102.024001 874.667998,102.218999 875.058,102.479 L875.058,104 Z M894.056,98.345 C894.056,98.9170029 894.0625,99.4109979 894.0755,99.827 C894.0885,100.243002 894.121,100.684998 894.173,101.153 L896.864,101.543 L896.864,102.908 C896.551998,103.064001 896.129503,103.219999 895.5965,103.376 C895.063497,103.532001 894.504503,103.681499 893.9195,103.8245 C893.334497,103.967501 892.756003,104.0845 892.184,104.1755 C891.611997,104.2665 891.105002,104.338 890.663,104.39 L889.337,104.39 C889.076999,103.791997 888.921,103.194003 888.869,102.596 C888.817,101.997997 888.778,101.270004 888.752,100.412 L888.557,100.412 C888.426999,100.932003 888.206002,101.432498 887.894,101.9135 C887.581998,102.394502 887.185502,102.823498 886.7045,103.2005 C886.223498,103.577502 885.658003,103.882999 885.008,104.117 C884.357997,104.351001 883.630004,104.468 882.824,104.468 C881.965996,104.468 881.173004,104.338001 880.445,104.078 C879.716996,103.817999 879.080003,103.454002 878.534,102.986 C877.987997,102.517998 877.559002,101.952503 877.247,101.2895 C876.934998,100.626497 876.779,99.8790042 876.779,99.047 C876.779,97.8769942 876.999998,96.9150038 877.442,96.161 C877.884002,95.4069962 878.579495,94.7895024 879.5285,94.3085 C880.477505,93.8274976 881.699493,93.4700012 883.1945,93.236 C884.689507,93.0019988 886.502989,92.8330005 888.635,92.729 C888.843001,90.4929888 888.752002,88.8550052 888.362,87.815 C887.971998,86.7749948 887.127007,86.255 885.827,86.255 C885.020996,86.255 884.280003,86.3849987 883.604,86.645 L881.771,91.325 L880.055,91.325 C879.846999,91.0129984 879.645501,90.655502 879.4505,90.2525 C879.255499,89.849498 879.073501,89.4205023 878.9045,88.9655 C878.735499,88.5104977 878.592501,88.0490023 878.4755,87.581 C878.358499,87.1129977 878.274,86.6580022 878.222,86.216 C879.210005,85.5399966 880.483992,85.007002 882.044,84.617 C883.604008,84.226998 885.254991,84.032 886.997,84.032 C888.479007,84.032 889.687995,84.1944984 890.624,84.5195 C891.560005,84.8445016 892.294497,85.2864972 892.8275,85.8455 C893.360503,86.4045028 893.730999,87.0609962 893.939,87.815 C894.147001,88.5690038 894.251,89.3749957 894.251,90.233 C894.251,91.7930078 894.2185,93.2034937 894.1535,94.4645 C894.0885,95.7255063 894.056,97.0189934 894.056,98.345 Z M885.281,101.348 C885.827003,101.348 886.294998,101.244001 886.685,101.036 C887.075002,100.827999 887.406499,100.581001 887.6795,100.295 C887.952501,100.008999 888.160499,99.6970017 888.3035,99.359 C888.446501,99.0209983 888.557,98.7220013 888.635,98.462 L888.635,94.562 C887.412994,94.5880001 886.412004,94.6659993 885.632,94.796 C884.851996,94.9260006 884.241002,95.1404985 883.799,95.4395 C883.356998,95.7385015 883.051501,96.1154977 882.8825,96.5705 C882.713499,97.0255023 882.629,97.5779967 882.629,98.228 C882.629,99.2160049 882.862998,99.9829973 883.331,100.529 C883.799002,101.075003 884.448996,101.348 885.281,101.348 Z M922.297,104 L911.962,104 L911.962,102.479 C912.300002,102.296999 912.631498,102.134501 912.9565,101.9915 C913.281502,101.848499 913.664998,101.699001 914.107,101.543 L914.107,92.378 C914.107,90.7399918 913.873002,89.4595046 913.405,88.5365 C912.936998,87.6134954 912.105006,87.152 910.909,87.152 C909.920995,87.152 909.069504,87.4704968 908.3545,88.1075 C907.639496,88.7445032 907.100002,89.6089945 906.736,90.701 L906.736,101.543 C907.152002,101.647001 907.522498,101.770499 907.8475,101.9135 C908.172502,102.056501 908.516998,102.244999 908.881,102.479 L908.881,104 L898.546,104 L898.546,102.479 C899.196003,102.140998 900.053995,101.829001 901.12,101.543 L901.12,87.269 L898.546,86.957 L898.546,85.436 C898.884002,85.2799992 899.325997,85.1305007 899.872,84.9875 C900.418003,84.8444993 901.009497,84.7080007 901.6465,84.578 C902.283503,84.4479994 902.933497,84.3375005 903.5965,84.2465 C904.259503,84.1554995 904.863997,84.0840003 905.41,84.032 L906.736,84.032 L906.736,88.049 L906.775,88.049 C907.321003,86.9569945 908.139995,86.014504 909.232,85.2215 C910.324005,84.428496 911.649992,84.032 913.21,84.032 C914.224005,84.032 915.133996,84.1554988 915.94,84.4025 C916.746004,84.6495012 917.428497,85.0849969 917.9875,85.709 C918.546503,86.3330031 918.975499,87.1714947 919.2745,88.2245 C919.573502,89.2775053 919.723,90.6099919 919.723,92.222 L919.723,101.543 C920.763005,101.725001 921.620997,102.036998 922.297,102.479 L922.297,104 Z M934.197,99.749 C934.197,99.0729966 933.956502,98.4880025 933.4755,97.994 C932.994498,97.4999975 932.396504,97.0450021 931.6815,96.629 C930.966496,96.2129979 930.186504,95.7970021 929.3415,95.381 C928.496496,94.9649979 927.716504,94.4775028 927.0015,93.9185 C926.286496,93.3594972 925.688502,92.7030038 925.2075,91.949 C924.726498,91.1949962 924.486,90.2720055 924.486,89.18 C924.486,88.3999961 924.667998,87.6915032 925.032,87.0545 C925.396002,86.4174968 925.889997,85.8780022 926.514,85.436 C927.138003,84.9939978 927.885496,84.6495012 928.7565,84.4025 C929.627504,84.1554988 930.569995,84.032 931.584,84.032 C932.988007,84.032 934.294494,84.1424989 935.5035,84.3635 C936.712506,84.5845011 937.771995,84.8899981 938.682,85.28 C938.577999,86.1120042 938.370002,87.0024953 938.058,87.9515 C937.745998,88.9005047 937.447001,89.7649961 937.161,90.545 L935.835,90.545 L934.197,86.567 C933.884998,86.4369994 933.560002,86.3525002 933.222,86.3135 C932.883998,86.2744998 932.507002,86.255 932.091,86.255 C931.310996,86.255 930.719502,86.4824977 930.3165,86.9375 C929.913498,87.3925023 929.712,87.9059971 929.712,88.478 C929.712,89.1280033 929.952498,89.6934976 930.4335,90.1745 C930.914502,90.6555024 931.512496,91.1039979 932.2275,91.52 C932.942504,91.9360021 933.722496,92.3519979 934.5675,92.768 C935.412504,93.1840021 936.192496,93.6584973 936.9075,94.1915 C937.622504,94.7245027 938.220498,95.3549964 938.7015,96.083 C939.182502,96.8110036 939.423,97.6819949 939.423,98.696 C939.423,100.490009 938.695007,101.900495 937.239,102.9275 C935.782993,103.954505 933.833012,104.468 931.389,104.468 C930.140994,104.468 928.854007,104.338001 927.528,104.078 C926.201993,103.817999 925.058005,103.454002 924.096,102.986 C924.148,102.049995 924.368998,101.101005 924.759,100.139 C925.149002,99.1769952 925.564998,98.3190038 926.007,97.565 L927.333,97.565 L929.244,101.816 C929.530001,102.024001 929.848498,102.1475 930.1995,102.1865 C930.550502,102.2255 930.881998,102.245 931.194,102.245 C931.948004,102.245 932.636997,102.024002 933.261,101.582 C933.885003,101.139998 934.197,100.529004 934.197,99.749 Z M974.289,104 L964.539,104 L964.539,102.479 C964.799001,102.322999 965.091498,102.160501 965.4165,101.9915 C965.741502,101.822499 966.098998,101.673001 966.489,101.543 L966.489,93.782 C966.489,92.585994 966.4565,91.5720042 966.3915,90.74 C966.3265,89.9079958 966.190001,89.2255027 965.982,88.6925 C965.773999,88.1594973 965.488002,87.7695012 965.124,87.5225 C964.759998,87.2754988 964.292003,87.152 963.72,87.152 C962.887996,87.152 962.166503,87.4704968 961.5555,88.1075 C960.944497,88.7445032 960.496001,89.5829948 960.21,90.623 L960.21,101.543 C960.912004,101.751001 961.561997,102.062998 962.16,102.479 L962.16,104 L952.02,104 L952.02,102.479 C952.384002,102.296999 952.786998,102.128001 953.229,101.972 C953.671002,101.815999 954.125998,101.673001 954.594,101.543 L954.594,87.269 L952.02,86.957 L952.02,85.436 C952.436002,85.2539991 952.949497,85.0850008 953.5605,84.929 C954.171503,84.7729992 954.801997,84.6365006 955.452,84.5195 C956.102003,84.4024994 956.732497,84.3050004 957.3435,84.227 C957.954503,84.1489996 958.467998,84.0840003 958.884,84.032 L960.21,84.032 L960.21,88.439 L960.249,88.439 C960.665002,87.2169939 961.399495,86.1770043 962.4525,85.319 C963.505505,84.4609957 964.772993,84.032 966.255,84.032 C966.879003,84.032 967.489997,84.0969994 968.088,84.227 C968.686003,84.3570007 969.238497,84.5974982 969.7455,84.9485 C970.252503,85.2995018 970.687998,85.7869969 971.052,86.411 C971.416002,87.0350031 971.675999,87.8409951 971.832,88.829 C972.300002,87.3989928 973.079995,86.2420044 974.172,85.358 C975.264005,84.4739956 976.589992,84.032 978.15,84.032 C979.112005,84.032 979.963496,84.1554988 980.7045,84.4025 C981.445504,84.6495012 982.069497,85.0849969 982.5765,85.709 C983.083503,86.3330031 983.466999,87.1779947 983.727,88.244 C983.987001,89.3100053 984.117,90.6619918 984.117,92.3 L984.117,101.543 C985.001004,101.699001 985.858996,102.010998 986.691,102.479 L986.691,104 L976.551,104 L976.551,102.479 C977.149003,102.088998 977.798997,101.777001 978.501,101.543 L978.501,93.08 C978.501,91.0519899 978.312502,89.5570048 977.9355,88.595 C977.558498,87.6329952 976.746006,87.152 975.498,87.152 C974.561995,87.152 973.827503,87.5029965 973.2945,88.205 C972.761497,88.9070035 972.365001,89.8429941 972.105,91.013 L972.105,101.543 C972.547002,101.673001 972.943498,101.815999 973.2945,101.972 C973.645502,102.128001 973.976998,102.296999 974.289,102.479 L974.289,104 Z M1005.489,98.345 C1005.489,98.9170029 1005.4955,99.4109979 1005.5085,99.827 C1005.5215,100.243002 1005.554,100.684998 1005.606,101.153 L1008.297,101.543 L1008.297,102.908 C1007.985,103.064001 1007.5625,103.219999 1007.0295,103.376 C1006.4965,103.532001 1005.9375,103.681499 1005.3525,103.8245 C1004.7675,103.967501 1004.189,104.0845 1003.617,104.1755 C1003.045,104.2665 1002.538,104.338 1002.096,104.39 L1000.77,104.39 C1000.51,103.791997 1000.354,103.194003 1000.302,102.596 C1000.25,101.997997 1000.211,101.270004 1000.185,100.412 L999.99,100.412 C999.859999,100.932003 999.639002,101.432498 999.327,101.9135 C999.014998,102.394502 998.618502,102.823498 998.1375,103.2005 C997.656498,103.577502 997.091003,103.882999 996.441,104.117 C995.790997,104.351001 995.063004,104.468 994.257,104.468 C993.398996,104.468 992.606004,104.338001 991.878,104.078 C991.149996,103.817999 990.513003,103.454002 989.967,102.986 C989.420997,102.517998 988.992002,101.952503 988.68,101.2895 C988.367998,100.626497 988.212,99.8790042 988.212,99.047 C988.212,97.8769942 988.432998,96.9150038 988.875,96.161 C989.317002,95.4069962 990.012495,94.7895024 990.9615,94.3085 C991.910505,93.8274976 993.132493,93.4700012 994.6275,93.236 C996.122507,93.0019988 997.935989,92.8330005 1000.068,92.729 C1000.276,90.4929888 1000.185,88.8550052 999.795,87.815 C999.404998,86.7749948 998.560007,86.255 997.26,86.255 C996.453996,86.255 995.713003,86.3849987 995.037,86.645 L993.204,91.325 L991.488,91.325 C991.279999,91.0129984 991.078501,90.655502 990.8835,90.2525 C990.688499,89.849498 990.506501,89.4205023 990.3375,88.9655 C990.168499,88.5104977 990.025501,88.0490023 989.9085,87.581 C989.791499,87.1129977 989.707,86.6580022 989.655,86.216 C990.643005,85.5399966 991.916992,85.007002 993.477,84.617 C995.037008,84.226998 996.687991,84.032 998.43,84.032 C999.912007,84.032 1001.121,84.1944984 1002.057,84.5195 C1002.993,84.8445016 1003.7275,85.2864972 1004.2605,85.8455 C1004.7935,86.4045028 1005.164,87.0609962 1005.372,87.815 C1005.58,88.5690038 1005.684,89.3749957 1005.684,90.233 C1005.684,91.7930078 1005.6515,93.2034937 1005.5865,94.4645 C1005.5215,95.7255063 1005.489,97.0189934 1005.489,98.345 Z M996.714,101.348 C997.260003,101.348 997.727998,101.244001 998.118,101.036 C998.508002,100.827999 998.839499,100.581001 999.1125,100.295 C999.385501,100.008999 999.593499,99.6970017 999.7365,99.359 C999.879501,99.0209983 999.99,98.7220013 1000.068,98.462 L1000.068,94.562 C998.845994,94.5880001 997.845004,94.6659993 997.065,94.796 C996.284996,94.9260006 995.674002,95.1404985 995.232,95.4395 C994.789998,95.7385015 994.484501,96.1154977 994.3155,96.5705 C994.146499,97.0255023 994.062,97.5779967 994.062,98.228 C994.062,99.2160049 994.295998,99.9829973 994.764,100.529 C995.232002,101.075003 995.881996,101.348 996.714,101.348 Z M1020.465,111.8 L1009.701,111.8 L1009.701,110.279 C1010.585,109.862998 1011.443,109.551001 1012.275,109.343 L1012.275,87.269 L1009.701,86.957 L1009.701,85.436 C1010.117,85.2539991 1010.6305,85.0850008 1011.2415,84.929 C1011.8525,84.7729992 1012.483,84.6365006 1013.133,84.5195 C1013.783,84.4024994 1014.4135,84.3050004 1015.0245,84.227 C1015.6355,84.1489996 1016.149,84.0840003 1016.565,84.032 L1017.891,84.032 L1017.891,88.4 L1017.93,88.4 C1018.372,87.1519938 1019.0675,86.1120042 1020.0165,85.28 C1020.9655,84.4479958 1022.28499,84.032 1023.975,84.032 C1025.11901,84.032 1026.1525,84.2204981 1027.0755,84.5975 C1027.9985,84.9745019 1028.7785,85.559496 1029.4155,86.3525 C1030.0525,87.145504 1030.5465,88.1594938 1030.8975,89.3945 C1031.2485,90.6295062 1031.424,92.1049914 1031.424,93.821 C1031.424,95.4590082 1031.1965,96.9409934 1030.7415,98.267 C1030.2865,99.5930066 1029.6365,100.710995 1028.7915,101.621 C1027.9465,102.531005 1026.91951,103.232998 1025.7105,103.727 C1024.50149,104.221002 1023.13001,104.468 1021.596,104.468 C1020.712,104.468 1020.0165,104.409501 1019.5095,104.2925 C1019.0025,104.175499 1018.463,103.974001 1017.891,103.688 L1017.891,109.343 C1018.307,109.395 1018.723,109.492499 1019.139,109.6355 C1019.555,109.778501 1019.997,109.992999 1020.465,110.279 L1020.465,111.8 Z M1021.713,87.152 C1020.829,87.152 1020.0425,87.4639969 1019.3535,88.088 C1018.6645,88.7120031 1018.177,89.6739935 1017.891,90.974 L1017.891,101.348 C1018.307,101.660002 1018.749,101.887499 1019.217,102.0305 C1019.685,102.173501 1020.296,102.245 1021.05,102.245 C1022.53201,102.245 1023.624,101.530007 1024.326,100.1 C1025.028,98.6699928 1025.379,96.5770138 1025.379,93.821 C1025.379,91.6889893 1025.1125,90.0445058 1024.5795,88.8875 C1024.0465,87.7304942 1023.09101,87.152 1021.713,87.152 Z" id="Orphans-map"></path>
        </g>
    </g>
</svg>