<svg width="504" height="332" viewBox="0 0 504 332" fill="none" xmlns="http://www.w3.org/2000/svg">
<path d="M176.701 39.0195C175.594 41.0378 174.764 42.8932 174.211 44.5859C173.69 46.2786 173.43 47.8574 173.43 49.3223C173.43 53.2611 174.667 56.6139 177.141 59.3809C179.647 62.1152 182.674 63.4824 186.223 63.4824C189.087 63.4824 191.496 62.6198 193.449 60.8945C195.435 59.1693 196.428 57.0697 196.428 54.5957C196.428 51.9915 195.093 49.599 192.424 47.418C189.787 45.2044 184.546 42.4049 176.701 39.0195ZM197.6 32.8184C203.133 34.9017 207.072 37.3105 209.416 40.0449C211.76 42.7467 212.932 46.2298 212.932 50.4941C212.932 56.7441 210.409 61.6432 205.363 65.1914C200.35 68.7396 193.4 70.5137 184.514 70.5137C176.343 70.5137 169.8 68.7233 164.885 65.1426C159.969 61.5618 157.512 56.8418 157.512 50.9824C157.512 47.1413 158.684 44 161.027 41.5586C163.371 39.0846 166.838 37.3594 171.428 36.3828C167.619 34.625 164.787 32.444 162.932 29.8398C161.109 27.2357 160.197 24.1595 160.197 20.6113C160.197 14.3939 162.606 9.49479 167.424 5.91406C172.242 2.30078 178.833 0.494141 187.199 0.494141C194.263 0.494141 199.895 2.13802 204.094 5.42578C208.293 8.68099 210.393 13.043 210.393 18.5117C210.393 21.6367 209.302 24.4199 207.121 26.8613C204.973 29.2702 201.799 31.2559 197.6 32.8184ZM192.229 30.084C193.205 28.4889 193.921 26.9264 194.377 25.3965C194.865 23.8665 195.109 22.304 195.109 20.709C195.109 16.7376 194.198 13.5638 192.375 11.1875C190.552 8.8112 188.127 7.62305 185.1 7.62305C182.821 7.62305 180.949 8.42057 179.484 10.0156C178.02 11.5781 177.287 13.6126 177.287 16.1191C177.287 18.821 178.426 21.2461 180.705 23.3945C182.984 25.543 186.825 27.7728 192.229 30.084Z" fill="#B10007"/>
<path d="M227.385 1.91016H271.77V14.8008H237.346V28.7168C240.015 27.7728 242.57 27.0729 245.012 26.6172C247.453 26.1289 249.797 25.8848 252.043 25.8848C259.302 25.8848 265.145 27.7402 269.572 31.4512C274.032 35.1621 276.262 40.0449 276.262 46.0996C276.262 53.4564 273.43 59.3158 267.766 63.6777C262.102 68.0397 254.436 70.2207 244.768 70.2207C238.225 70.2207 232.919 68.9837 228.85 66.5098C224.781 64.0033 222.746 60.8294 222.746 56.9883C222.746 54.3516 223.641 52.1706 225.432 50.4453C227.222 48.6875 229.501 47.8086 232.268 47.8086C233.146 47.8086 234.09 47.9062 235.1 48.1016C236.109 48.2969 237.232 48.5898 238.469 48.9805L241.447 62.9941C241.545 62.9941 241.708 63.0104 241.936 63.043C242.88 63.1406 243.596 63.1895 244.084 63.1895C248.348 63.1895 251.848 61.8711 254.582 59.2344C257.316 56.5977 258.684 53.2122 258.684 49.0781C258.684 45.0742 257.105 41.8353 253.947 39.3613C250.79 36.8548 246.623 35.6016 241.447 35.6016C239.299 35.6016 237.053 35.8132 234.709 36.2363C232.365 36.627 229.924 37.2129 227.385 37.9941V1.91016Z" fill="#B10007"/>
<path d="M346.721 7.18359C343.368 7.18359 340.878 9.49479 339.25 14.1172C337.655 18.707 336.857 25.7708 336.857 35.3086C336.857 45.1719 337.639 52.3496 339.201 56.8418C340.796 61.334 343.303 63.5801 346.721 63.5801C350.204 63.5801 352.743 61.334 354.338 56.8418C355.933 52.3496 356.73 45.1719 356.73 35.3086C356.73 25.5755 355.917 18.4629 354.289 13.9707C352.694 9.44596 350.171 7.18359 346.721 7.18359ZM346.623 0.689453C355.412 0.689453 362.346 3.7819 367.424 9.9668C372.502 16.1517 375.041 24.6315 375.041 35.4062C375.041 46.181 372.502 54.6771 367.424 60.8945C362.346 67.112 355.412 70.2207 346.623 70.2207C337.964 70.2207 331.128 67.1283 326.115 60.9434C321.135 54.7259 318.645 46.2135 318.645 35.4062C318.645 24.6315 321.135 16.1517 326.115 9.9668C331.096 3.7819 337.932 0.689453 346.623 0.689453Z" fill="#B10007"/>
<path d="M411.174 7.18359C407.821 7.18359 405.331 9.49479 403.703 14.1172C402.108 18.707 401.311 25.7708 401.311 35.3086C401.311 45.1719 402.092 52.3496 403.654 56.8418C405.249 61.334 407.756 63.5801 411.174 63.5801C414.657 63.5801 417.196 61.334 418.791 56.8418C420.386 52.3496 421.184 45.1719 421.184 35.3086C421.184 25.5755 420.37 18.4629 418.742 13.9707C417.147 9.44596 414.624 7.18359 411.174 7.18359ZM411.076 0.689453C419.865 0.689453 426.799 3.7819 431.877 9.9668C436.955 16.1517 439.494 24.6315 439.494 35.4062C439.494 46.181 436.955 54.6771 431.877 60.8945C426.799 67.112 419.865 70.2207 411.076 70.2207C402.417 70.2207 395.581 67.1283 390.568 60.9434C385.588 54.7259 383.098 46.2135 383.098 35.4062C383.098 24.6315 385.588 16.1517 390.568 9.9668C395.549 3.7819 402.385 0.689453 411.076 0.689453Z" fill="#B10007"/>
<path d="M475.627 7.18359C472.274 7.18359 469.784 9.49479 468.156 14.1172C466.561 18.707 465.764 25.7708 465.764 35.3086C465.764 45.1719 466.545 52.3496 468.107 56.8418C469.702 61.334 472.209 63.5801 475.627 63.5801C479.11 63.5801 481.649 61.334 483.244 56.8418C484.839 52.3496 485.637 45.1719 485.637 35.3086C485.637 25.5755 484.823 18.4629 483.195 13.9707C481.6 9.44596 479.077 7.18359 475.627 7.18359ZM475.529 0.689453C484.318 0.689453 491.252 3.7819 496.33 9.9668C501.408 16.1517 503.947 24.6315 503.947 35.4062C503.947 46.181 501.408 54.6771 496.33 60.8945C491.252 67.112 484.318 70.2207 475.529 70.2207C466.87 70.2207 460.035 67.1283 455.021 60.9434C450.041 54.7259 447.551 46.2135 447.551 35.4062C447.551 24.6315 450.041 16.1517 455.021 9.9668C460.002 3.7819 466.838 0.689453 475.529 0.689453Z" fill="#B10007"/>
<path d="M226.061 112.832C225.206 113.298 224.376 113.645 223.572 113.873C222.768 114.093 221.96 114.203 221.147 114.203C219.285 114.203 217.779 113.615 216.628 112.438C215.485 111.262 214.914 109.722 214.914 107.817C214.914 105.845 215.54 104.229 216.793 102.968C218.054 101.707 219.662 101.076 221.617 101.076C222.895 101.076 223.928 101.343 224.715 101.876C225.51 102.401 225.908 103.078 225.908 103.907C225.908 104.424 225.73 104.851 225.375 105.189C225.028 105.52 224.584 105.685 224.042 105.685C223.746 105.685 223.471 105.646 223.217 105.57C222.971 105.486 222.734 105.359 222.506 105.189V102.435C222.362 102.401 222.235 102.38 222.125 102.371C222.023 102.354 221.93 102.346 221.846 102.346C220.881 102.346 220.073 102.803 219.421 103.717C218.769 104.622 218.443 105.778 218.443 107.183C218.443 108.723 218.803 109.938 219.522 110.826C220.242 111.715 221.219 112.159 222.455 112.159C223.014 112.159 223.598 112.062 224.207 111.867C224.816 111.664 225.434 111.368 226.061 110.979V112.832Z" fill="black"/>
<path d="M227.114 112.832L228.498 112.705L228.866 112.337V103.006L228.498 102.638L227.114 102.511V101.343H233.754V102.511L232.421 102.638L232.053 103.006V109.43L237.359 103.628V103.006L237.004 102.638L235.671 102.511V101.343H242.298V102.511L240.927 102.638L240.559 103.006V112.337L240.927 112.705L242.298 112.832V114H235.671V112.832L237.004 112.705L237.359 112.337V105.71L232.053 111.499V112.337L232.421 112.705L233.754 112.832V114H227.114V112.832Z" fill="black"/>
<path d="M248.582 112.438C248.861 112.498 249.136 112.544 249.407 112.578C249.687 112.604 249.966 112.616 250.245 112.616C251.413 112.616 252.34 112.163 253.025 111.258C253.719 110.352 254.066 109.133 254.066 107.602C254.066 106.239 253.762 105.177 253.152 104.415C252.551 103.645 251.714 103.26 250.639 103.26C250.359 103.26 250.05 103.302 249.712 103.387C249.382 103.463 249.005 103.586 248.582 103.755V112.438ZM243.644 119.7V118.494L245.053 118.367L245.408 117.974V103.361H243.644V102.32L247.414 101.102H248.582V102.663C249.403 102.096 250.144 101.681 250.804 101.419C251.464 101.157 252.094 101.025 252.695 101.025C254.109 101.025 255.281 101.605 256.212 102.765C257.143 103.916 257.608 105.38 257.608 107.157C257.608 109.239 256.986 110.902 255.742 112.146C254.498 113.382 252.822 114 250.715 114C250.359 114 250.004 113.992 249.648 113.975C249.301 113.949 248.95 113.915 248.595 113.873L248.582 118.024L248.976 118.393L250.588 118.494V119.7H243.644Z" fill="black"/>
<path d="M266.254 102.409C265.306 102.409 264.565 102.862 264.032 103.768C263.499 104.673 263.232 105.943 263.232 107.576C263.232 109.235 263.495 110.526 264.02 111.448C264.553 112.371 265.289 112.832 266.229 112.832C267.21 112.832 267.968 112.383 268.501 111.486C269.034 110.589 269.301 109.311 269.301 107.652C269.301 106.002 269.03 104.715 268.488 103.793C267.955 102.87 267.21 102.409 266.254 102.409ZM266.355 101.025C268.353 101.025 269.94 101.631 271.116 102.841C272.293 104.043 272.881 105.672 272.881 107.729C272.881 109.675 272.267 111.241 271.04 112.426C269.813 113.611 268.184 114.203 266.152 114.203C264.197 114.203 262.619 113.606 261.417 112.413C260.224 111.211 259.627 109.633 259.627 107.678C259.627 105.672 260.241 104.064 261.468 102.854C262.695 101.635 264.324 101.025 266.355 101.025Z" fill="black"/>
<path d="M276.994 112.832L278.492 112.705L278.86 112.337V102.79H276.702L276.309 103.209L276.004 105.812H274.239V101.343H286.693V105.812H284.916L284.611 103.209L284.218 102.79H282.06V112.337L282.453 112.705L283.926 112.832V114H276.994V112.832Z" fill="black"/>
<path d="M295.288 112.832L296.672 112.705L297.04 112.337V103.006L296.672 102.638L295.288 102.511V101.343H301.928V102.511L300.595 102.638L300.227 103.006V106.662H305.178V103.006L304.81 102.638L303.477 102.511V101.343H310.116V102.511L308.732 102.638L308.364 103.006V112.337L308.732 112.705L310.116 112.832V114H303.477V112.832L304.81 112.705L305.178 112.337V108.122H300.227V112.337L300.595 112.705L301.928 112.832V114H295.288V112.832Z" fill="black"/>
<path d="M320.222 105.989V105.71C320.222 104.652 320.027 103.844 319.638 103.285C319.248 102.718 318.69 102.435 317.962 102.435C317.166 102.435 316.527 102.752 316.045 103.387C315.562 104.013 315.3 104.881 315.258 105.989H320.222ZM323.637 110.775V112.705C322.748 113.213 321.851 113.594 320.945 113.848C320.04 114.102 319.134 114.229 318.229 114.229C316.29 114.229 314.733 113.632 313.557 112.438C312.389 111.245 311.805 109.667 311.805 107.703C311.805 105.731 312.401 104.123 313.595 102.879C314.797 101.626 316.341 101 318.229 101C319.938 101 321.267 101.516 322.215 102.549C323.163 103.573 323.637 105.016 323.637 106.878V107.373H315.131V107.449C315.131 108.93 315.503 110.094 316.248 110.94C316.993 111.787 318.017 112.21 319.32 112.21C320.006 112.21 320.704 112.091 321.415 111.854C322.126 111.618 322.867 111.258 323.637 110.775Z" fill="black"/>
<path d="M332.765 112.832L334.148 112.705L334.517 112.337V103.006L334.148 102.638L332.765 102.511V101.343H339.404V102.511L338.071 102.638L337.703 103.006V109.43L343.01 103.628V103.006L342.654 102.638L341.321 102.511V101.343H347.948V102.511L346.577 102.638L346.209 103.006V112.337L346.577 112.705L347.948 112.832V114H341.321V112.832L342.654 112.705L343.01 112.337V105.71L337.703 111.499V112.337L338.071 112.705L339.404 112.832V114H332.765V112.832Z" fill="black"/>
<path d="M355.248 101.343V101.965L358.193 110.103L361.126 101.965V101.343H366.953V102.511L365.569 102.638L365.201 103.006V112.337L365.569 112.705L366.953 112.832V114H360.402V112.832L361.773 112.705L362.142 112.337V103.209H362.091L358.155 114H356.911L352.887 103.209H352.836V112.337L353.191 112.705L354.575 112.832V114H349.421V112.832L350.805 112.705L351.173 112.337V103.006L350.805 102.638L349.421 102.511V101.343H355.248Z" fill="black"/>
<path d="M377.071 105.989V105.71C377.071 104.652 376.877 103.844 376.487 103.285C376.098 102.718 375.539 102.435 374.812 102.435C374.016 102.435 373.377 102.752 372.895 103.387C372.412 104.013 372.15 104.881 372.107 105.989H377.071ZM380.486 110.775V112.705C379.598 113.213 378.701 113.594 377.795 113.848C376.889 114.102 375.984 114.229 375.078 114.229C373.14 114.229 371.583 113.632 370.406 112.438C369.238 111.245 368.654 109.667 368.654 107.703C368.654 105.731 369.251 104.123 370.444 102.879C371.646 101.626 373.191 101 375.078 101C376.788 101 378.117 101.516 379.064 102.549C380.012 103.573 380.486 105.016 380.486 106.878V107.373H371.98V107.449C371.98 108.93 372.353 110.094 373.098 110.94C373.842 111.787 374.867 112.21 376.17 112.21C376.855 112.21 377.554 112.091 378.265 111.854C378.976 111.618 379.716 111.258 380.486 110.775Z" fill="black"/>
<path d="M382.048 112.832L383.432 112.705L383.8 112.337V103.006L383.432 102.638L382.048 102.511V101.343H388.688V102.511L387.354 102.638L386.986 103.006V106.662H389.729C389.83 105.731 390.067 104.914 390.439 104.212C390.812 103.501 391.286 102.913 391.861 102.447C392.445 101.973 393.114 101.618 393.867 101.381C394.629 101.144 395.45 101.025 396.33 101.025C397.278 101.025 398.141 101.174 398.92 101.47C399.707 101.766 400.38 102.198 400.938 102.765C401.506 103.323 401.946 104.013 402.259 104.834C402.572 105.655 402.729 106.586 402.729 107.627C402.729 108.77 402.538 109.76 402.157 110.598C401.785 111.427 401.285 112.113 400.659 112.654C400.041 113.188 399.335 113.585 398.539 113.848C397.743 114.102 396.927 114.229 396.089 114.229C395.166 114.229 394.324 114.089 393.562 113.81C392.801 113.522 392.141 113.116 391.582 112.591C391.023 112.058 390.583 111.414 390.262 110.661C389.94 109.908 389.762 109.062 389.729 108.122H386.986V112.337L387.354 112.705L388.688 112.832V114H382.048V112.832ZM396.114 102.435C395.784 102.435 395.492 102.485 395.238 102.587C394.993 102.688 394.777 102.815 394.591 102.968C394.405 103.12 394.252 103.285 394.134 103.463C394.015 103.641 393.922 103.806 393.854 103.958C393.685 104.305 393.524 104.766 393.372 105.342C393.228 105.917 393.156 106.671 393.156 107.602C393.156 107.932 393.169 108.274 393.194 108.63C393.22 108.985 393.262 109.337 393.321 109.684C393.389 110.022 393.474 110.352 393.575 110.674C393.677 110.987 393.804 111.271 393.956 111.524C394.134 111.821 394.324 112.053 394.527 112.223C394.73 112.392 394.929 112.523 395.124 112.616C395.319 112.709 395.501 112.769 395.67 112.794C395.848 112.819 395.996 112.832 396.114 112.832C396.3 112.832 396.504 112.807 396.724 112.756C396.944 112.705 397.164 112.612 397.384 112.477C397.612 112.341 397.832 112.155 398.044 111.918C398.256 111.681 398.442 111.372 398.603 110.991C398.763 110.61 398.89 110.153 398.983 109.62C399.085 109.078 399.136 108.439 399.136 107.703C399.127 107.085 399.081 106.463 398.996 105.837C398.92 105.211 398.772 104.644 398.552 104.136C398.332 103.628 398.027 103.217 397.638 102.904C397.248 102.583 396.741 102.426 396.114 102.435Z" fill="black"/>
<path d="M407.02 112.832L408.518 112.705L408.886 112.337V102.79H406.728L406.334 103.209L406.029 105.812H404.265V101.343H416.719V105.812H414.941L414.637 103.209L414.243 102.79H412.085V112.337L412.479 112.705L413.951 112.832V114H407.02V112.832Z" fill="black"/>
<path d="M431.407 112.832L432.728 112.705L433.096 112.337V108.122H432.309C431.928 108.122 431.615 108.232 431.369 108.452C431.132 108.672 430.954 108.96 430.836 109.315L429.478 113.162V114H424.59V112.832L425.999 112.654L426.405 112.337L427.764 109.341C427.848 109.163 427.95 108.973 428.068 108.77C428.187 108.566 428.335 108.372 428.513 108.186C428.69 107.991 428.902 107.817 429.147 107.665C429.401 107.504 429.71 107.382 430.074 107.297V107.246C430.032 107.229 429.973 107.195 429.896 107.145C429.829 107.094 429.74 107.035 429.63 106.967C429.418 106.823 429.219 106.506 429.033 106.015L428.36 104.25C428.31 104.115 428.259 104 428.208 103.907C428.157 103.806 428.085 103.687 427.992 103.552L426.354 104.644C425.838 104.584 425.466 104.381 425.237 104.034C425.017 103.687 424.907 103.319 424.907 102.93C424.907 102.54 424.979 102.227 425.123 101.99C425.267 101.753 425.445 101.571 425.656 101.444C425.868 101.317 426.092 101.233 426.329 101.19C426.566 101.148 426.782 101.127 426.977 101.127C427.586 101.127 428.098 101.326 428.513 101.724C428.927 102.121 429.3 102.731 429.63 103.552L430.366 105.393C430.502 105.748 430.633 106.002 430.76 106.154C430.895 106.307 430.98 106.4 431.014 106.434C431.098 106.518 431.217 106.599 431.369 106.675C431.53 106.743 431.716 106.776 431.928 106.776H433.096V103.006L432.728 102.638L431.407 102.511V101.343H437.793V102.511L436.473 102.638L436.104 103.006V106.776H437.272C437.484 106.776 437.666 106.743 437.818 106.675C437.979 106.599 438.102 106.518 438.187 106.434C438.22 106.4 438.301 106.307 438.428 106.154C438.563 106.002 438.699 105.748 438.834 105.393L439.57 103.552C439.9 102.731 440.273 102.121 440.688 101.724C441.102 101.326 441.614 101.127 442.224 101.127C442.41 101.127 442.621 101.148 442.858 101.19C443.104 101.233 443.332 101.317 443.544 101.444C443.756 101.571 443.933 101.753 444.077 101.99C444.221 102.227 444.293 102.54 444.293 102.93C444.293 103.327 444.179 103.696 443.95 104.034C443.73 104.381 443.362 104.584 442.846 104.644L441.208 103.552C441.115 103.687 441.043 103.806 440.992 103.907C440.941 104 440.891 104.115 440.84 104.25L440.167 106.015C439.972 106.514 439.769 106.831 439.558 106.967C439.456 107.035 439.367 107.094 439.291 107.145C439.223 107.195 439.168 107.229 439.126 107.246V107.297C439.49 107.382 439.795 107.504 440.04 107.665C440.294 107.817 440.51 107.991 440.688 108.186C440.865 108.372 441.009 108.566 441.119 108.77C441.238 108.973 441.343 109.163 441.437 109.341L442.795 112.337L443.201 112.654L444.61 112.832V114H439.723V113.162L438.364 109.315C438.246 108.96 438.064 108.672 437.818 108.452C437.581 108.232 437.272 108.122 436.892 108.122H436.104V112.337L436.473 112.705L437.793 112.832V114H431.407V112.832Z" fill="black"/>
<path d="M445.347 112.832L446.73 112.705L447.099 112.337V103.006L446.73 102.638L445.347 102.511V101.343H451.986V102.511L450.653 102.638L450.285 103.006V109.43L455.592 103.628V103.006L455.236 102.638L453.903 102.511V101.343H460.53V102.511L459.159 102.638L458.791 103.006V112.337L459.159 112.705L460.53 112.832V114H453.903V112.832L455.236 112.705L455.592 112.337V105.71L450.285 111.499V112.337L450.653 112.705L451.986 112.832V114H445.347V112.832Z" fill="black"/>
<path d="M475.117 101.343V102.511L473.733 102.638L473.365 103.006V112.337L473.733 112.705L475.117 112.832V114H468.351V112.832L469.811 112.705L470.166 112.337V102.79H467.576C467.542 103.416 467.492 104.136 467.424 104.948C467.365 105.752 467.263 106.577 467.119 107.424C466.984 108.27 466.802 109.104 466.573 109.925C466.345 110.737 466.049 111.465 465.685 112.108C465.329 112.743 464.893 113.255 464.377 113.645C463.861 114.034 463.251 114.229 462.549 114.229C461.914 114.229 461.457 114.072 461.178 113.759C460.898 113.437 460.759 113.022 460.759 112.515C460.759 112.354 460.776 112.18 460.81 111.994C460.843 111.808 460.915 111.63 461.025 111.461C461.127 111.292 461.279 111.144 461.482 111.017C461.694 110.89 461.973 110.809 462.32 110.775L463.856 112.134C464.187 111.643 464.47 111.042 464.707 110.331C464.944 109.62 465.139 108.858 465.291 108.046C465.452 107.225 465.575 106.383 465.659 105.52C465.752 104.648 465.816 103.81 465.85 103.006L465.469 102.638L463.806 102.511V101.343H475.117Z" fill="black"/>
<path d="M476.577 112.832L477.961 112.705L478.329 112.337V103.006L477.961 102.638L476.577 102.511V101.343H483.395V102.511L481.884 102.638L481.516 103.006V106.459C481.871 106.425 482.193 106.4 482.48 106.383C482.768 106.366 483.09 106.357 483.445 106.357C483.818 106.357 484.211 106.374 484.626 106.408C485.049 106.434 485.468 106.493 485.883 106.586C486.298 106.679 486.695 106.81 487.076 106.979C487.457 107.149 487.791 107.377 488.079 107.665C488.367 107.953 488.595 108.304 488.765 108.719C488.942 109.133 489.031 109.629 489.031 110.204C489.031 110.737 488.959 111.203 488.815 111.601C488.68 111.99 488.49 112.324 488.244 112.604C487.999 112.883 487.711 113.116 487.381 113.302C487.059 113.479 486.712 113.623 486.34 113.733C485.976 113.835 485.599 113.907 485.21 113.949C484.821 113.983 484.44 114 484.067 114H476.577V112.832ZM481.516 112.438C482.057 112.54 482.561 112.591 483.026 112.591C483.263 112.599 483.526 112.578 483.813 112.527C484.101 112.477 484.368 112.367 484.613 112.197C484.867 112.028 485.079 111.778 485.248 111.448C485.417 111.118 485.502 110.678 485.502 110.128C485.502 109.857 485.46 109.582 485.375 109.303C485.299 109.023 485.168 108.77 484.981 108.541C484.795 108.312 484.546 108.126 484.232 107.982C483.919 107.83 483.534 107.754 483.077 107.754C482.722 107.754 482.409 107.775 482.138 107.817C481.867 107.851 481.66 107.885 481.516 107.919V112.438Z" fill="black"/>
<path d="M503.567 102.511L502.196 102.638L501.828 103.006V112.337L502.196 112.705L503.567 112.832V114H496.763V112.832L498.273 112.705L498.629 112.337V108.643H497.639C497.165 108.643 496.809 108.774 496.572 109.036C496.344 109.29 496.136 109.595 495.95 109.95L494.478 113.162V114H489.59V112.832L490.885 112.654L491.304 112.337L492.802 109.709C493.123 109.15 493.437 108.77 493.741 108.566C493.902 108.456 494.059 108.368 494.211 108.3C494.363 108.224 494.511 108.164 494.655 108.122V108.071C494.181 108.054 493.737 107.974 493.322 107.83C492.908 107.678 492.548 107.47 492.243 107.208C491.938 106.937 491.697 106.611 491.52 106.23C491.342 105.85 491.253 105.422 491.253 104.948C491.253 104.44 491.354 103.945 491.558 103.463C491.761 102.972 492.091 102.549 492.548 102.193C493.039 101.804 493.585 101.563 494.186 101.47C494.482 101.427 494.778 101.398 495.074 101.381C495.379 101.355 495.679 101.343 495.976 101.343H503.567V102.511ZM498.629 102.866C498.409 102.832 498.185 102.803 497.956 102.777C497.728 102.752 497.486 102.739 497.232 102.739C497.004 102.739 496.737 102.756 496.433 102.79C496.128 102.815 495.836 102.904 495.557 103.057C495.286 103.201 495.053 103.433 494.858 103.755C494.672 104.068 494.579 104.512 494.579 105.088C494.579 105.291 494.609 105.52 494.668 105.773C494.727 106.027 494.854 106.264 495.049 106.484C495.243 106.696 495.523 106.878 495.887 107.03C496.251 107.174 496.733 107.246 497.334 107.246C497.867 107.246 498.299 107.208 498.629 107.132V102.866Z" fill="black"/>
<path d="M133.594 173.178H143.896V233.285L145.02 234.799L156.006 235.287V241H113.623V235.189L125.195 234.604L126.416 232.895V186.312L125.098 185.189L110.791 187.094V181.088L133.594 173.178Z" fill="#B10007"/>
<path d="M196.533 179.184C193.18 179.184 190.69 181.495 189.062 186.117C187.467 190.707 186.67 197.771 186.67 207.309C186.67 217.172 187.451 224.35 189.014 228.842C190.609 233.334 193.115 235.58 196.533 235.58C200.016 235.58 202.555 233.334 204.15 228.842C205.745 224.35 206.543 217.172 206.543 207.309C206.543 197.576 205.729 190.463 204.102 185.971C202.507 181.446 199.984 179.184 196.533 179.184ZM196.436 172.689C205.225 172.689 212.158 175.782 217.236 181.967C222.314 188.152 224.854 196.632 224.854 207.406C224.854 218.181 222.314 226.677 217.236 232.895C212.158 239.112 205.225 242.221 196.436 242.221C187.777 242.221 180.941 239.128 175.928 232.943C170.947 226.726 168.457 218.214 168.457 207.406C168.457 196.632 170.947 188.152 175.928 181.967C180.908 175.782 187.744 172.689 196.436 172.689Z" fill="#B10007"/>
<path d="M303.613 205.6C301.53 205.6 299.951 206.918 298.877 209.555C297.835 212.191 297.314 216.065 297.314 221.176C297.314 226.319 297.835 230.209 298.877 232.846C299.951 235.482 301.53 236.801 303.613 236.801C305.762 236.801 307.373 235.499 308.447 232.895C309.554 230.29 310.107 226.384 310.107 221.176C310.107 216.098 309.554 212.24 308.447 209.604C307.34 206.934 305.729 205.6 303.613 205.6ZM304.004 200.277C309.798 200.277 314.388 202.165 317.773 205.941C321.191 209.685 322.9 214.763 322.9 221.176C322.9 227.654 321.208 232.781 317.822 236.557C314.437 240.333 309.831 242.221 304.004 242.221C298.145 242.221 293.522 240.349 290.137 236.605C286.784 232.829 285.107 227.686 285.107 221.176C285.107 214.763 286.8 209.685 290.186 205.941C293.604 202.165 298.21 200.277 304.004 200.277ZM251.709 178.012C249.626 178.012 248.047 179.33 246.973 181.967C245.931 184.604 245.41 188.477 245.41 193.588C245.41 198.731 245.931 202.621 246.973 205.258C248.047 207.895 249.626 209.213 251.709 209.213C253.89 209.213 255.534 207.895 256.641 205.258C257.747 202.621 258.301 198.731 258.301 193.588C258.301 188.542 257.731 184.685 256.592 182.016C255.485 179.346 253.857 178.012 251.709 178.012ZM294.922 173.91H303.027L260.205 241H252.197L294.922 173.91ZM252.1 172.689C257.926 172.689 262.549 174.577 265.967 178.354C269.385 182.097 271.094 187.175 271.094 193.588C271.094 200.098 269.385 205.225 265.967 208.969C262.581 212.712 257.959 214.584 252.1 214.584C246.273 214.584 241.667 212.712 238.281 208.969C234.896 205.225 233.203 200.098 233.203 193.588C233.203 187.143 234.896 182.048 238.281 178.305C241.699 174.561 246.305 172.689 252.1 172.689Z" fill="#B10007"/>
<path d="M8.08691 273.343C9.14486 273.343 9.9362 273.432 10.4609 273.609C10.7318 273.694 10.9561 273.774 11.1338 273.851C11.3115 273.918 11.4469 273.982 11.54 274.041C11.9801 274.32 12.2848 274.65 12.4541 275.031C12.6234 275.412 12.708 275.835 12.708 276.301C12.708 277.079 12.4499 277.723 11.9336 278.23C11.4089 278.73 10.7656 279.056 10.0039 279.208V279.271C10.4102 279.305 10.8164 279.377 11.2227 279.487C11.6289 279.597 11.9928 279.771 12.3145 280.008C12.6361 280.236 12.8942 280.541 13.0889 280.922C13.292 281.294 13.3936 281.764 13.3936 282.331C13.3936 282.737 13.3428 283.101 13.2412 283.423C13.1396 283.744 13.0042 284.032 12.835 284.286C12.6657 284.532 12.4626 284.747 12.2256 284.934C11.9886 285.111 11.7389 285.264 11.4766 285.391C10.9603 285.645 10.3975 285.81 9.78809 285.886C9.18717 285.962 8.66243 286 8.21387 286H0.723633V284.832L2.10742 284.705L2.47559 284.337V275.006L2.10742 274.638L0.62207 274.511V273.343H8.08691ZM5.66211 278.662C5.80599 278.688 6.00065 278.704 6.24609 278.713C6.5 278.721 6.74967 278.726 6.99512 278.726C7.22363 278.726 7.486 278.704 7.78223 278.662C8.08691 278.62 8.37044 278.527 8.63281 278.383C8.90365 278.239 9.13216 278.032 9.31836 277.761C9.50456 277.49 9.59766 277.126 9.59766 276.669C9.59766 275.975 9.35645 275.48 8.87402 275.184C8.40006 274.887 7.84147 274.739 7.19824 274.739C6.96126 274.739 6.71159 274.748 6.44922 274.765C6.18685 274.782 5.92448 274.807 5.66211 274.841V278.662ZM5.66211 284.438C6.15299 284.54 6.66504 284.591 7.19824 284.591C7.56217 284.591 7.92188 284.557 8.27734 284.489C8.63281 284.422 8.95866 284.248 9.25488 283.969C9.40723 283.833 9.52572 283.689 9.61035 283.537C9.69499 283.376 9.75846 283.224 9.80078 283.08C9.8431 282.928 9.86849 282.784 9.87695 282.648C9.89388 282.505 9.90234 282.382 9.90234 282.28C9.90234 282.001 9.86003 281.73 9.77539 281.468C9.69075 281.197 9.54688 280.956 9.34375 280.744C9.14909 280.524 8.88249 280.351 8.54395 280.224C8.2054 280.088 7.78223 280.021 7.27441 280.021C7.09668 280.021 6.92318 280.025 6.75391 280.033C6.58464 280.042 6.42383 280.05 6.27148 280.059C6.1276 280.067 6.00065 280.08 5.89062 280.097C5.78906 280.105 5.71289 280.114 5.66211 280.122V284.438Z" fill="black"/>
<path d="M14.917 284.832L16.3008 284.705L16.6689 284.337V275.006L16.3008 274.638L14.917 274.511V273.343H21.7344V274.511L20.2236 274.638L19.8555 275.006V278.459C20.2109 278.425 20.5326 278.4 20.8203 278.383C21.1081 278.366 21.4297 278.357 21.7852 278.357C22.056 278.357 22.3395 278.366 22.6357 278.383C22.932 278.4 23.2282 278.429 23.5244 278.472C23.8291 278.514 24.1253 278.577 24.4131 278.662C24.7093 278.747 24.9928 278.853 25.2637 278.979C25.5345 279.106 25.7842 279.267 26.0127 279.462C26.2497 279.648 26.4528 279.872 26.6221 280.135C26.7913 280.397 26.9225 280.702 27.0156 281.049C27.1172 281.387 27.168 281.772 27.168 282.204C27.168 283 27.0114 283.647 26.6982 284.146C26.3936 284.637 26 285.022 25.5176 285.302C25.0352 285.573 24.502 285.759 23.918 285.86C23.334 285.953 22.7627 286 22.2041 286H14.917V284.832ZM19.8555 284.438C20.2702 284.54 20.7061 284.591 21.1631 284.591C21.5439 284.591 21.891 284.536 22.2041 284.426C22.5257 284.316 22.7965 284.155 23.0166 283.943C23.2451 283.732 23.4229 283.474 23.5498 283.169C23.6768 282.864 23.7402 282.517 23.7402 282.128C23.7402 281.832 23.6937 281.544 23.6006 281.265C23.516 280.977 23.3721 280.723 23.1689 280.503C22.9743 280.274 22.7161 280.092 22.3945 279.957C22.0729 279.822 21.6794 279.754 21.2139 279.754C20.9176 279.754 20.651 279.775 20.4141 279.817C20.1855 279.851 19.9993 279.885 19.8555 279.919V284.438ZM27.6377 284.832L28.958 284.705L29.3262 284.337V275.006L28.958 274.638L27.6377 274.511V273.343H34.2646V274.511L32.8936 274.638L32.5254 275.006V284.337L32.8936 284.705L34.2646 284.832V286H27.6377V284.832Z" fill="black"/>
<path d="M35.7119 284.832L37.0957 284.705L37.4639 284.337V275.006L37.0957 274.638L35.7119 274.511V273.343H50.3242V274.511L48.9531 274.638L48.585 275.006V284.337L48.9531 284.705L50.3242 284.832V286H43.748V284.832L45.0303 284.705L45.3857 284.337V274.79H40.6504V284.337L41.0186 284.705L42.2881 284.832V286H35.7119V284.832Z" fill="black"/>
<path d="M50.959 273.368H57.5605V274.485L56.2402 274.638L55.9736 275.006L58.7793 282.356L61.6104 275.031L61.3818 274.638L60.0107 274.485V273.368H65V274.485L63.5908 274.714L58.5762 286.914C57.9583 288.404 57.2178 289.572 56.3545 290.418C55.4912 291.273 54.6195 291.7 53.7393 291.7C53.1299 291.7 52.6051 291.506 52.165 291.116C51.7249 290.735 51.5049 290.287 51.5049 289.771C51.5049 289.398 51.6191 289.051 51.8477 288.729C52.0846 288.416 52.4189 288.15 52.8506 287.93L55.1104 289.479C55.4658 289.199 55.8128 288.789 56.1514 288.247C56.4984 287.714 56.8284 287.071 57.1416 286.317L52.5205 274.714L50.959 274.485V273.368Z" fill="black"/>
<path d="M76.2734 284.832C75.4186 285.298 74.5892 285.645 73.7852 285.873C72.9811 286.093 72.1729 286.203 71.3604 286.203C69.4984 286.203 67.9919 285.615 66.8408 284.438C65.6982 283.262 65.127 281.722 65.127 279.817C65.127 277.845 65.7533 276.229 67.0059 274.968C68.2669 273.707 69.875 273.076 71.8301 273.076C73.1081 273.076 74.1406 273.343 74.9277 273.876C75.7233 274.401 76.1211 275.078 76.1211 275.907C76.1211 276.424 75.9434 276.851 75.5879 277.189C75.2409 277.52 74.7965 277.685 74.2549 277.685C73.9587 277.685 73.6836 277.646 73.4297 277.57C73.1842 277.486 72.9473 277.359 72.7188 277.189V274.435C72.5749 274.401 72.4479 274.38 72.3379 274.371C72.2363 274.354 72.1432 274.346 72.0586 274.346C71.0938 274.346 70.2855 274.803 69.6338 275.717C68.9821 276.622 68.6562 277.778 68.6562 279.183C68.6562 280.723 69.016 281.938 69.7354 282.826C70.4548 283.715 71.4323 284.159 72.668 284.159C73.2266 284.159 73.8105 284.062 74.4199 283.867C75.0293 283.664 75.6471 283.368 76.2734 282.979V284.832Z" fill="black"/>
<path d="M77.3271 284.832L78.7109 284.705L79.0791 284.337V275.006L78.7109 274.638L77.3271 274.511V273.343H83.9668V274.511L82.6338 274.638L82.2656 275.006V278.662H83.7256C84.1403 278.662 84.4661 278.544 84.7031 278.307C84.9401 278.061 85.1348 277.757 85.2871 277.393L86.125 275.552C86.2858 275.188 86.4593 274.858 86.6455 274.562C86.8317 274.257 87.0348 273.999 87.2549 273.787C87.4834 273.576 87.7288 273.415 87.9912 273.305C88.262 273.186 88.5583 273.127 88.8799 273.127C89.0407 273.127 89.2354 273.148 89.4639 273.19C89.7008 273.224 89.9251 273.305 90.1367 273.432C90.3483 273.55 90.526 273.728 90.6699 273.965C90.8223 274.202 90.8984 274.523 90.8984 274.93C90.8984 275.327 90.7842 275.696 90.5557 276.034C90.3356 276.381 89.9674 276.584 89.4512 276.644L87.8135 275.552C87.7204 275.653 87.6484 275.763 87.5977 275.882C87.5469 275.992 87.4876 276.115 87.4199 276.25L86.6455 278.015C86.5355 278.243 86.3874 278.48 86.2012 278.726C86.0234 278.963 85.7441 279.153 85.3633 279.297V279.348C85.9896 279.441 86.5059 279.69 86.9121 280.097C87.1237 280.308 87.3099 280.516 87.4707 280.719C87.6315 280.922 87.7712 281.129 87.8896 281.341L89.4512 284.337L89.8574 284.654L91.2666 284.832V286H86.2773V285.162L84.7666 281.315C84.6481 281.002 84.4365 280.727 84.1318 280.49C83.8271 280.245 83.459 280.122 83.0273 280.122H82.2656V284.337L82.6338 284.705L83.9668 284.832V286H77.3271V284.832Z" fill="black"/>
<path d="M92.0029 284.832L93.3867 284.705L93.7549 284.337V275.006L93.3867 274.638L92.0029 274.511V273.343H98.6426V274.511L97.3096 274.638L96.9414 275.006V278.662H101.893V275.006L101.524 274.638L100.191 274.511V273.343H106.831V274.511L105.447 274.638L105.079 275.006V284.337L105.447 284.705L106.831 284.832V286H100.191V284.832L101.524 284.705L101.893 284.337V280.122H96.9414V284.337L97.3096 284.705L98.6426 284.832V286H92.0029V284.832Z" fill="black"/>
<path d="M108.278 284.832L109.662 284.705L110.03 284.337V275.006L109.662 274.638L108.278 274.511V273.343H114.918V274.511L113.585 274.638L113.217 275.006V281.43L118.523 275.628V275.006L118.168 274.638L116.835 274.511V273.343H123.462V274.511L122.091 274.638L121.723 275.006V284.337L122.091 284.705L123.462 284.832V286H116.835V284.832L118.168 284.705L118.523 284.337V277.71L113.217 283.499V284.337L113.585 284.705L114.918 284.832V286H108.278V284.832Z" fill="black"/>
<path d="M124.935 284.832L126.318 284.705L126.687 284.337V275.006L126.318 274.638L124.935 274.511V273.343H131.574V274.511L130.241 274.638L129.873 275.006V278.662H131.333C131.748 278.662 132.074 278.544 132.311 278.307C132.548 278.061 132.742 277.757 132.895 277.393L133.732 275.552C133.893 275.188 134.067 274.858 134.253 274.562C134.439 274.257 134.642 273.999 134.862 273.787C135.091 273.576 135.336 273.415 135.599 273.305C135.869 273.186 136.166 273.127 136.487 273.127C136.648 273.127 136.843 273.148 137.071 273.19C137.308 273.224 137.533 273.305 137.744 273.432C137.956 273.55 138.133 273.728 138.277 273.965C138.43 274.202 138.506 274.523 138.506 274.93C138.506 275.327 138.392 275.696 138.163 276.034C137.943 276.381 137.575 276.584 137.059 276.644L135.421 275.552C135.328 275.653 135.256 275.763 135.205 275.882C135.154 275.992 135.095 276.115 135.027 276.25L134.253 278.015C134.143 278.243 133.995 278.48 133.809 278.726C133.631 278.963 133.352 279.153 132.971 279.297V279.348C133.597 279.441 134.113 279.69 134.52 280.097C134.731 280.308 134.917 280.516 135.078 280.719C135.239 280.922 135.379 281.129 135.497 281.341L137.059 284.337L137.465 284.654L138.874 284.832V286H133.885V285.162L132.374 281.315C132.256 281.002 132.044 280.727 131.739 280.49C131.435 280.245 131.066 280.122 130.635 280.122H129.873V284.337L130.241 284.705L131.574 284.832V286H124.935V284.832Z" fill="black"/>
<path d="M146.479 274.409C145.531 274.409 144.79 274.862 144.257 275.768C143.724 276.673 143.457 277.943 143.457 279.576C143.457 281.235 143.719 282.526 144.244 283.448C144.777 284.371 145.514 284.832 146.453 284.832C147.435 284.832 148.192 284.383 148.726 283.486C149.259 282.589 149.525 281.311 149.525 279.652C149.525 278.002 149.255 276.715 148.713 275.793C148.18 274.87 147.435 274.409 146.479 274.409ZM146.58 273.025C148.577 273.025 150.164 273.631 151.341 274.841C152.517 276.043 153.105 277.672 153.105 279.729C153.105 281.675 152.492 283.241 151.265 284.426C150.037 285.611 148.408 286.203 146.377 286.203C144.422 286.203 142.843 285.606 141.642 284.413C140.448 283.211 139.852 281.633 139.852 279.678C139.852 277.672 140.465 276.064 141.692 274.854C142.92 273.635 144.549 273.025 146.58 273.025Z" fill="black"/>
<path d="M161.979 273.343C163.037 273.343 163.829 273.432 164.354 273.609C164.624 273.694 164.849 273.774 165.026 273.851C165.204 273.918 165.34 273.982 165.433 274.041C165.873 274.32 166.177 274.65 166.347 275.031C166.516 275.412 166.601 275.835 166.601 276.301C166.601 277.079 166.342 277.723 165.826 278.23C165.301 278.73 164.658 279.056 163.896 279.208V279.271C164.303 279.305 164.709 279.377 165.115 279.487C165.521 279.597 165.885 279.771 166.207 280.008C166.529 280.236 166.787 280.541 166.981 280.922C167.185 281.294 167.286 281.764 167.286 282.331C167.286 282.737 167.235 283.101 167.134 283.423C167.032 283.744 166.897 284.032 166.728 284.286C166.558 284.532 166.355 284.747 166.118 284.934C165.881 285.111 165.632 285.264 165.369 285.391C164.853 285.645 164.29 285.81 163.681 285.886C163.08 285.962 162.555 286 162.106 286H154.616V284.832L156 284.705L156.368 284.337V275.006L156 274.638L154.515 274.511V273.343H161.979ZM159.555 278.662C159.699 278.688 159.893 278.704 160.139 278.713C160.393 278.721 160.642 278.726 160.888 278.726C161.116 278.726 161.379 278.704 161.675 278.662C161.979 278.62 162.263 278.527 162.525 278.383C162.796 278.239 163.025 278.032 163.211 277.761C163.397 277.49 163.49 277.126 163.49 276.669C163.49 275.975 163.249 275.48 162.767 275.184C162.293 274.887 161.734 274.739 161.091 274.739C160.854 274.739 160.604 274.748 160.342 274.765C160.079 274.782 159.817 274.807 159.555 274.841V278.662ZM159.555 284.438C160.046 284.54 160.558 284.591 161.091 284.591C161.455 284.591 161.814 284.557 162.17 284.489C162.525 284.422 162.851 284.248 163.147 283.969C163.3 283.833 163.418 283.689 163.503 283.537C163.588 283.376 163.651 283.224 163.693 283.08C163.736 282.928 163.761 282.784 163.77 282.648C163.786 282.505 163.795 282.382 163.795 282.28C163.795 282.001 163.753 281.73 163.668 281.468C163.583 281.197 163.439 280.956 163.236 280.744C163.042 280.524 162.775 280.351 162.437 280.224C162.098 280.088 161.675 280.021 161.167 280.021C160.989 280.021 160.816 280.025 160.646 280.033C160.477 280.042 160.316 280.05 160.164 280.059C160.02 280.067 159.893 280.08 159.783 280.097C159.682 280.105 159.605 280.114 159.555 280.122V284.438Z" fill="black"/>
<path d="M189.173 273.343V274.511L187.789 274.638L187.434 275.006V284.286L187.738 284.54H189.325V289.796H187.51L186.989 286.419L186.596 286H178.179L177.785 286.419L177.265 289.796H175.449V284.54H176.744C177.159 283.905 177.552 283.194 177.925 282.407C178.297 281.62 178.636 280.808 178.94 279.97C179.254 279.123 179.524 278.277 179.753 277.431C179.981 276.576 180.159 275.768 180.286 275.006L179.918 274.638L178.229 274.511V273.343H189.173ZM184.234 284.54V274.79H182.051C181.924 275.535 181.755 276.339 181.543 277.202C181.331 278.057 181.082 278.92 180.794 279.792C180.506 280.655 180.185 281.497 179.829 282.318C179.474 283.139 179.089 283.88 178.674 284.54H184.234Z" fill="black"/>
<path d="M199.278 277.989V277.71C199.278 276.652 199.084 275.844 198.694 275.285C198.305 274.718 197.746 274.435 197.019 274.435C196.223 274.435 195.584 274.752 195.102 275.387C194.619 276.013 194.357 276.881 194.314 277.989H199.278ZM202.693 282.775V284.705C201.805 285.213 200.908 285.594 200.002 285.848C199.096 286.102 198.191 286.229 197.285 286.229C195.347 286.229 193.79 285.632 192.613 284.438C191.445 283.245 190.861 281.667 190.861 279.703C190.861 277.731 191.458 276.123 192.651 274.879C193.853 273.626 195.398 273 197.285 273C198.995 273 200.324 273.516 201.271 274.549C202.219 275.573 202.693 277.016 202.693 278.878V279.373H194.188V279.449C194.188 280.93 194.56 282.094 195.305 282.94C196.049 283.787 197.074 284.21 198.377 284.21C199.062 284.21 199.761 284.091 200.472 283.854C201.183 283.618 201.923 283.258 202.693 282.775Z" fill="black"/>
<path d="M207.137 284.832L208.635 284.705L209.003 284.337V274.79H206.845L206.451 275.209L206.146 277.812H204.382V273.343H216.836V277.812H215.059L214.754 275.209L214.36 274.79H212.202V284.337L212.596 284.705L214.068 284.832V286H207.137V284.832Z" fill="black"/>
<path d="M229.455 284.832C228.6 285.298 227.771 285.645 226.967 285.873C226.163 286.093 225.354 286.203 224.542 286.203C222.68 286.203 221.174 285.615 220.022 284.438C218.88 283.262 218.309 281.722 218.309 279.817C218.309 277.845 218.935 276.229 220.188 274.968C221.449 273.707 223.057 273.076 225.012 273.076C226.29 273.076 227.322 273.343 228.109 273.876C228.905 274.401 229.303 275.078 229.303 275.907C229.303 276.424 229.125 276.851 228.77 277.189C228.423 277.52 227.978 277.685 227.437 277.685C227.14 277.685 226.865 277.646 226.611 277.57C226.366 277.486 226.129 277.359 225.9 277.189V274.435C225.757 274.401 225.63 274.38 225.52 274.371C225.418 274.354 225.325 274.346 225.24 274.346C224.275 274.346 223.467 274.803 222.815 275.717C222.164 276.622 221.838 277.778 221.838 279.183C221.838 280.723 222.198 281.938 222.917 282.826C223.636 283.715 224.614 284.159 225.85 284.159C226.408 284.159 226.992 284.062 227.602 283.867C228.211 283.664 228.829 283.368 229.455 282.979V284.832Z" fill="black"/>
<path d="M230.509 284.832L231.893 284.705L232.261 284.337V275.006L231.893 274.638L230.509 274.511V273.343H237.148V274.511L235.815 274.638L235.447 275.006V278.662H236.907C237.322 278.662 237.648 278.544 237.885 278.307C238.122 278.061 238.316 277.757 238.469 277.393L239.307 275.552C239.467 275.188 239.641 274.858 239.827 274.562C240.013 274.257 240.216 273.999 240.437 273.787C240.665 273.576 240.91 273.415 241.173 273.305C241.444 273.186 241.74 273.127 242.062 273.127C242.222 273.127 242.417 273.148 242.646 273.19C242.882 273.224 243.107 273.305 243.318 273.432C243.53 273.55 243.708 273.728 243.852 273.965C244.004 274.202 244.08 274.523 244.08 274.93C244.08 275.327 243.966 275.696 243.737 276.034C243.517 276.381 243.149 276.584 242.633 276.644L240.995 275.552C240.902 275.653 240.83 275.763 240.779 275.882C240.729 275.992 240.669 276.115 240.602 276.25L239.827 278.015C239.717 278.243 239.569 278.48 239.383 278.726C239.205 278.963 238.926 279.153 238.545 279.297V279.348C239.171 279.441 239.688 279.69 240.094 280.097C240.305 280.308 240.492 280.516 240.652 280.719C240.813 280.922 240.953 281.129 241.071 281.341L242.633 284.337L243.039 284.654L244.448 284.832V286H239.459V285.162L237.948 281.315C237.83 281.002 237.618 280.727 237.313 280.49C237.009 280.245 236.641 280.122 236.209 280.122H235.447V284.337L235.815 284.705L237.148 284.832V286H230.509V284.832Z" fill="black"/>
<path d="M252.053 274.409C251.105 274.409 250.364 274.862 249.831 275.768C249.298 276.673 249.031 277.943 249.031 279.576C249.031 281.235 249.294 282.526 249.818 283.448C250.352 284.371 251.088 284.832 252.027 284.832C253.009 284.832 253.767 284.383 254.3 283.486C254.833 282.589 255.1 281.311 255.1 279.652C255.1 278.002 254.829 276.715 254.287 275.793C253.754 274.87 253.009 274.409 252.053 274.409ZM252.154 273.025C254.152 273.025 255.739 273.631 256.915 274.841C258.091 276.043 258.68 277.672 258.68 279.729C258.68 281.675 258.066 283.241 256.839 284.426C255.612 285.611 253.982 286.203 251.951 286.203C249.996 286.203 248.418 285.606 247.216 284.413C246.022 283.211 245.426 281.633 245.426 279.678C245.426 277.672 246.039 276.064 247.267 274.854C248.494 273.635 250.123 273.025 252.154 273.025Z" fill="black"/>
<path d="M260.19 284.832L261.574 284.705L261.942 284.337V275.006L261.574 274.638L260.089 274.511V273.343H270.905V277.812H269.141L268.772 275.158L268.442 274.79H265.129V284.337L265.522 284.705L267.376 284.832V286H260.19V284.832Z" fill="black"/>
<path d="M279.068 274.409C278.12 274.409 277.38 274.862 276.847 275.768C276.313 276.673 276.047 277.943 276.047 279.576C276.047 281.235 276.309 282.526 276.834 283.448C277.367 284.371 278.104 284.832 279.043 284.832C280.025 284.832 280.782 284.383 281.315 283.486C281.849 282.589 282.115 281.311 282.115 279.652C282.115 278.002 281.844 276.715 281.303 275.793C280.77 274.87 280.025 274.409 279.068 274.409ZM279.17 273.025C281.167 273.025 282.754 273.631 283.931 274.841C285.107 276.043 285.695 277.672 285.695 279.729C285.695 281.675 285.082 283.241 283.854 284.426C282.627 285.611 280.998 286.203 278.967 286.203C277.012 286.203 275.433 285.606 274.231 284.413C273.038 283.211 272.441 281.633 272.441 279.678C272.441 277.672 273.055 276.064 274.282 274.854C275.509 273.635 277.139 273.025 279.17 273.025Z" fill="black"/>
<path d="M307.569 273.343V274.511L306.186 274.638L305.83 275.006V284.286L306.135 284.54H307.722V289.796H305.906L305.386 286.419L304.992 286H296.575L296.182 286.419L295.661 289.796H293.846V284.54H295.141C295.555 283.905 295.949 283.194 296.321 282.407C296.694 281.62 297.032 280.808 297.337 279.97C297.65 279.123 297.921 278.277 298.149 277.431C298.378 276.576 298.556 275.768 298.683 275.006L298.314 274.638L296.626 274.511V273.343H307.569ZM302.631 284.54V274.79H300.447C300.32 275.535 300.151 276.339 299.939 277.202C299.728 278.057 299.478 278.92 299.19 279.792C298.903 280.655 298.581 281.497 298.226 282.318C297.87 283.139 297.485 283.88 297.07 284.54H302.631Z" fill="black"/>
<path d="M315.885 274.409C314.937 274.409 314.196 274.862 313.663 275.768C313.13 276.673 312.863 277.943 312.863 279.576C312.863 281.235 313.126 282.526 313.65 283.448C314.184 284.371 314.92 284.832 315.859 284.832C316.841 284.832 317.599 284.383 318.132 283.486C318.665 282.589 318.932 281.311 318.932 279.652C318.932 278.002 318.661 276.715 318.119 275.793C317.586 274.87 316.841 274.409 315.885 274.409ZM315.986 273.025C317.984 273.025 319.571 273.631 320.747 274.841C321.923 276.043 322.512 277.672 322.512 279.729C322.512 281.675 321.898 283.241 320.671 284.426C319.444 285.611 317.814 286.203 315.783 286.203C313.828 286.203 312.25 285.606 311.048 284.413C309.854 283.211 309.258 281.633 309.258 279.678C309.258 277.672 309.871 276.064 311.099 274.854C312.326 273.635 313.955 273.025 315.986 273.025Z" fill="black"/>
<path d="M329.85 273.343V273.965L332.795 282.103L335.728 273.965V273.343H341.555V274.511L340.171 274.638L339.803 275.006V284.337L340.171 284.705L341.555 284.832V286H335.004V284.832L336.375 284.705L336.743 284.337V275.209H336.692L332.757 286H331.513L327.488 275.209H327.438V284.337L327.793 284.705L329.177 284.832V286H324.022V284.832L325.406 284.705L325.774 284.337V275.006L325.406 274.638L324.022 274.511V273.343H329.85Z" fill="black"/>
<path d="M351.203 283.448V279.208C349.493 279.589 348.326 280.004 347.699 280.452C347.073 280.901 346.76 281.51 346.76 282.28C346.76 282.881 346.933 283.359 347.28 283.715C347.627 284.062 348.097 284.235 348.689 284.235C349.02 284.235 349.392 284.172 349.807 284.045C350.23 283.91 350.695 283.711 351.203 283.448ZM351.203 284.515C350.323 285.116 349.523 285.551 348.804 285.822C348.084 286.093 347.395 286.229 346.734 286.229C345.736 286.229 344.919 285.915 344.284 285.289C343.649 284.654 343.332 283.842 343.332 282.852C343.332 281.633 343.798 280.693 344.729 280.033C345.66 279.373 347.83 278.658 351.241 277.888V277.113C351.241 276.174 351.042 275.488 350.645 275.057C350.247 274.625 349.62 274.409 348.766 274.409C348.579 274.409 348.385 274.422 348.182 274.447C347.979 274.473 347.758 274.511 347.521 274.562V276.999H345.122C344.707 276.999 344.403 276.923 344.208 276.771C344.022 276.618 343.929 276.377 343.929 276.047C343.929 275.234 344.475 274.528 345.566 273.927C346.658 273.326 348 273.025 349.591 273.025C351.377 273.025 352.633 273.368 353.361 274.054C354.089 274.739 354.453 275.933 354.453 277.634V284.362L354.796 284.73L356.18 284.857V286H351.546L351.203 284.515Z" fill="black"/>
<path d="M8.08691 313.343C9.14486 313.343 9.9362 313.432 10.4609 313.609C10.7318 313.694 10.9561 313.774 11.1338 313.851C11.3115 313.918 11.4469 313.982 11.54 314.041C11.9801 314.32 12.2848 314.65 12.4541 315.031C12.6234 315.412 12.708 315.835 12.708 316.301C12.708 317.079 12.4499 317.723 11.9336 318.23C11.4089 318.73 10.7656 319.056 10.0039 319.208V319.271C10.4102 319.305 10.8164 319.377 11.2227 319.487C11.6289 319.597 11.9928 319.771 12.3145 320.008C12.6361 320.236 12.8942 320.541 13.0889 320.922C13.292 321.294 13.3936 321.764 13.3936 322.331C13.3936 322.737 13.3428 323.101 13.2412 323.423C13.1396 323.744 13.0042 324.032 12.835 324.286C12.6657 324.532 12.4626 324.747 12.2256 324.934C11.9886 325.111 11.7389 325.264 11.4766 325.391C10.9603 325.645 10.3975 325.81 9.78809 325.886C9.18717 325.962 8.66243 326 8.21387 326H0.723633V324.832L2.10742 324.705L2.47559 324.337V315.006L2.10742 314.638L0.62207 314.511V313.343H8.08691ZM5.66211 318.662C5.80599 318.688 6.00065 318.704 6.24609 318.713C6.5 318.721 6.74967 318.726 6.99512 318.726C7.22363 318.726 7.486 318.704 7.78223 318.662C8.08691 318.62 8.37044 318.527 8.63281 318.383C8.90365 318.239 9.13216 318.032 9.31836 317.761C9.50456 317.49 9.59766 317.126 9.59766 316.669C9.59766 315.975 9.35645 315.48 8.87402 315.184C8.40006 314.887 7.84147 314.739 7.19824 314.739C6.96126 314.739 6.71159 314.748 6.44922 314.765C6.18685 314.782 5.92448 314.807 5.66211 314.841V318.662ZM5.66211 324.438C6.15299 324.54 6.66504 324.591 7.19824 324.591C7.56217 324.591 7.92188 324.557 8.27734 324.489C8.63281 324.422 8.95866 324.248 9.25488 323.969C9.40723 323.833 9.52572 323.689 9.61035 323.537C9.69499 323.376 9.75846 323.224 9.80078 323.08C9.8431 322.928 9.86849 322.784 9.87695 322.648C9.89388 322.505 9.90234 322.382 9.90234 322.28C9.90234 322.001 9.86003 321.73 9.77539 321.468C9.69075 321.197 9.54688 320.956 9.34375 320.744C9.14909 320.524 8.88249 320.351 8.54395 320.224C8.2054 320.088 7.78223 320.021 7.27441 320.021C7.09668 320.021 6.92318 320.025 6.75391 320.033C6.58464 320.042 6.42383 320.05 6.27148 320.059C6.1276 320.067 6.00065 320.08 5.89062 320.097C5.78906 320.105 5.71289 320.114 5.66211 320.122V324.438Z" fill="black"/>
<path d="M26.5078 324.832C25.653 325.298 24.8236 325.645 24.0195 325.873C23.2155 326.093 22.4072 326.203 21.5947 326.203C19.7327 326.203 18.2262 325.615 17.0752 324.438C15.9326 323.262 15.3613 321.722 15.3613 319.817C15.3613 317.845 15.9876 316.229 17.2402 314.968C18.5013 313.707 20.1094 313.076 22.0645 313.076C23.3424 313.076 24.375 313.343 25.1621 313.876C25.9577 314.401 26.3555 315.078 26.3555 315.907C26.3555 316.424 26.1777 316.851 25.8223 317.189C25.4753 317.52 25.0309 317.685 24.4893 317.685C24.193 317.685 23.918 317.646 23.6641 317.57C23.4186 317.486 23.1816 317.359 22.9531 317.189V314.435C22.8092 314.401 22.6823 314.38 22.5723 314.371C22.4707 314.354 22.3776 314.346 22.293 314.346C21.3281 314.346 20.5199 314.803 19.8682 315.717C19.2165 316.622 18.8906 317.778 18.8906 319.183C18.8906 320.723 19.2503 321.938 19.9697 322.826C20.6891 323.715 21.6667 324.159 22.9023 324.159C23.4609 324.159 24.0449 324.062 24.6543 323.867C25.2637 323.664 25.8815 323.368 26.5078 322.979V324.832Z" fill="black"/>
<path d="M30.6973 324.832L32.1953 324.705L32.5635 324.337V314.79H30.4053L30.0117 315.209L29.707 317.812H27.9424V313.343H40.3965V317.812H38.6191L38.3145 315.209L37.9209 314.79H35.7627V324.337L36.1562 324.705L37.6289 324.832V326H30.6973V324.832Z" fill="black"/>
<path d="M46.2363 324.438C46.5156 324.498 46.7907 324.544 47.0615 324.578C47.3408 324.604 47.6201 324.616 47.8994 324.616C49.0674 324.616 49.9941 324.163 50.6797 323.258C51.3737 322.352 51.7207 321.133 51.7207 319.602C51.7207 318.239 51.416 317.177 50.8066 316.415C50.2057 315.645 49.3678 315.26 48.293 315.26C48.0137 315.26 47.7048 315.302 47.3662 315.387C47.0361 315.463 46.6595 315.586 46.2363 315.755V324.438ZM41.2979 331.7V330.494L42.707 330.367L43.0625 329.974V315.361H41.2979V314.32L45.0684 313.102H46.2363V314.663C47.0573 314.096 47.7979 313.681 48.458 313.419C49.1182 313.157 49.7487 313.025 50.3496 313.025C51.763 313.025 52.9352 313.605 53.8662 314.765C54.7972 315.916 55.2627 317.38 55.2627 319.157C55.2627 321.239 54.6406 322.902 53.3965 324.146C52.1523 325.382 50.4766 326 48.3691 326C48.0137 326 47.6582 325.992 47.3027 325.975C46.9557 325.949 46.6045 325.915 46.249 325.873L46.2363 330.024L46.6299 330.393L48.2422 330.494V331.7H41.2979Z" fill="black"/>
<path d="M64.9746 323.448V319.208C63.265 319.589 62.097 320.004 61.4707 320.452C60.8444 320.901 60.5312 321.51 60.5312 322.28C60.5312 322.881 60.7048 323.359 61.0518 323.715C61.3988 324.062 61.8685 324.235 62.4609 324.235C62.791 324.235 63.1634 324.172 63.5781 324.045C64.0013 323.91 64.4668 323.711 64.9746 323.448ZM64.9746 324.515C64.0944 325.116 63.2946 325.551 62.5752 325.822C61.8558 326.093 61.166 326.229 60.5059 326.229C59.5072 326.229 58.6904 325.915 58.0557 325.289C57.4209 324.654 57.1035 323.842 57.1035 322.852C57.1035 321.633 57.569 320.693 58.5 320.033C59.431 319.373 61.6019 318.658 65.0127 317.888V317.113C65.0127 316.174 64.8138 315.488 64.416 315.057C64.0182 314.625 63.3919 314.409 62.5371 314.409C62.3509 314.409 62.1562 314.422 61.9531 314.447C61.75 314.473 61.5299 314.511 61.293 314.562V316.999H58.8936C58.4788 316.999 58.1742 316.923 57.9795 316.771C57.7933 316.618 57.7002 316.377 57.7002 316.047C57.7002 315.234 58.2461 314.528 59.3379 313.927C60.4297 313.326 61.7712 313.025 63.3623 313.025C65.1481 313.025 66.4049 313.368 67.1328 314.054C67.8607 314.739 68.2246 315.933 68.2246 317.634V324.362L68.5674 324.73L69.9512 324.857V326H65.3174L64.9746 324.515Z" fill="black"/>
<path d="M70.9287 324.832L72.3125 324.705L72.6807 324.337V315.006L72.3125 314.638L70.9287 314.511V313.343H77.5684V314.511L76.2354 314.638L75.8672 315.006V321.43L81.1738 315.628V315.006L80.8184 314.638L79.4854 314.511V313.343H86.1123V314.511L84.7412 314.638L84.373 315.006V324.337L84.7412 324.705L86.1123 324.832V326H79.4854V324.832L80.8184 324.705L81.1738 324.337V317.71L75.8672 323.499V324.337L76.2354 324.705L77.5684 324.832V326H70.9287V324.832Z" fill="black"/>
<path d="M94.9482 313.343C96.0062 313.343 96.7975 313.432 97.3223 313.609C97.5931 313.694 97.8174 313.774 97.9951 313.851C98.1729 313.918 98.3083 313.982 98.4014 314.041C98.8415 314.32 99.1462 314.65 99.3154 315.031C99.4847 315.412 99.5693 315.835 99.5693 316.301C99.5693 317.079 99.3112 317.723 98.7949 318.23C98.2702 318.73 97.627 319.056 96.8652 319.208V319.271C97.2715 319.305 97.6777 319.377 98.084 319.487C98.4902 319.597 98.8542 319.771 99.1758 320.008C99.4974 320.236 99.7555 320.541 99.9502 320.922C100.153 321.294 100.255 321.764 100.255 322.331C100.255 322.737 100.204 323.101 100.103 323.423C100.001 323.744 99.8656 324.032 99.6963 324.286C99.527 324.532 99.3239 324.747 99.0869 324.934C98.8499 325.111 98.6003 325.264 98.3379 325.391C97.8216 325.645 97.2588 325.81 96.6494 325.886C96.0485 325.962 95.5238 326 95.0752 326H87.585V324.832L88.9688 324.705L89.3369 324.337V315.006L88.9688 314.638L87.4834 314.511V313.343H94.9482ZM92.5234 318.662C92.6673 318.688 92.862 318.704 93.1074 318.713C93.3613 318.721 93.611 318.726 93.8564 318.726C94.085 318.726 94.3473 318.704 94.6436 318.662C94.9482 318.62 95.2318 318.527 95.4941 318.383C95.765 318.239 95.9935 318.032 96.1797 317.761C96.3659 317.49 96.459 317.126 96.459 316.669C96.459 315.975 96.2178 315.48 95.7354 315.184C95.2614 314.887 94.7028 314.739 94.0596 314.739C93.8226 314.739 93.5729 314.748 93.3105 314.765C93.0482 314.782 92.7858 314.807 92.5234 314.841V318.662ZM92.5234 324.438C93.0143 324.54 93.5264 324.591 94.0596 324.591C94.4235 324.591 94.7832 324.557 95.1387 324.489C95.4941 324.422 95.82 324.248 96.1162 323.969C96.2686 323.833 96.387 323.689 96.4717 323.537C96.5563 323.376 96.6198 323.224 96.6621 323.08C96.7044 322.928 96.7298 322.784 96.7383 322.648C96.7552 322.505 96.7637 322.382 96.7637 322.28C96.7637 322.001 96.7214 321.73 96.6367 321.468C96.5521 321.197 96.4082 320.956 96.2051 320.744C96.0104 320.524 95.7438 320.351 95.4053 320.224C95.0667 320.088 94.6436 320.021 94.1357 320.021C93.958 320.021 93.7845 320.025 93.6152 320.033C93.446 320.042 93.2852 320.05 93.1328 320.059C92.9889 320.067 92.862 320.08 92.752 320.097C92.6504 320.105 92.5742 320.114 92.5234 320.122V324.438Z" fill="black"/>
<path d="M110.221 323.448V319.208C108.511 319.589 107.343 320.004 106.717 320.452C106.09 320.901 105.777 321.51 105.777 322.28C105.777 322.881 105.951 323.359 106.298 323.715C106.645 324.062 107.115 324.235 107.707 324.235C108.037 324.235 108.41 324.172 108.824 324.045C109.247 323.91 109.713 323.711 110.221 323.448ZM110.221 324.515C109.34 325.116 108.541 325.551 107.821 325.822C107.102 326.093 106.412 326.229 105.752 326.229C104.753 326.229 103.937 325.915 103.302 325.289C102.667 324.654 102.35 323.842 102.35 322.852C102.35 321.633 102.815 320.693 103.746 320.033C104.677 319.373 106.848 318.658 110.259 317.888V317.113C110.259 316.174 110.06 315.488 109.662 315.057C109.264 314.625 108.638 314.409 107.783 314.409C107.597 314.409 107.402 314.422 107.199 314.447C106.996 314.473 106.776 314.511 106.539 314.562V316.999H104.14C103.725 316.999 103.42 316.923 103.226 316.771C103.039 316.618 102.946 316.377 102.946 316.047C102.946 315.234 103.492 314.528 104.584 313.927C105.676 313.326 107.017 313.025 108.608 313.025C110.394 313.025 111.651 313.368 112.379 314.054C113.107 314.739 113.471 315.933 113.471 317.634V324.362L113.813 324.73L115.197 324.857V326H110.563L110.221 324.515Z" fill="black"/>
<path d="M124.833 317.989V317.71C124.833 316.652 124.638 315.844 124.249 315.285C123.86 314.718 123.301 314.435 122.573 314.435C121.778 314.435 121.139 314.752 120.656 315.387C120.174 316.013 119.911 316.881 119.869 317.989H124.833ZM128.248 322.775V324.705C127.359 325.213 126.462 325.594 125.557 325.848C124.651 326.102 123.745 326.229 122.84 326.229C120.902 326.229 119.344 325.632 118.168 324.438C117 323.245 116.416 321.667 116.416 319.703C116.416 317.731 117.013 316.123 118.206 314.879C119.408 313.626 120.952 313 122.84 313C124.549 313 125.878 313.516 126.826 314.549C127.774 315.573 128.248 317.016 128.248 318.878V319.373H119.742V319.449C119.742 320.93 120.115 322.094 120.859 322.94C121.604 323.787 122.628 324.21 123.932 324.21C124.617 324.21 125.315 324.091 126.026 323.854C126.737 323.618 127.478 323.258 128.248 322.775Z" fill="black"/>
<path d="M132.691 324.832L134.189 324.705L134.558 324.337V314.79H132.399L132.006 315.209L131.701 317.812H129.937V313.343H142.391V317.812H140.613L140.309 315.209L139.915 314.79H137.757V324.337L138.15 324.705L139.623 324.832V326H132.691V324.832Z" fill="black"/>
<path d="M155.01 324.832C154.155 325.298 153.326 325.645 152.521 325.873C151.717 326.093 150.909 326.203 150.097 326.203C148.235 326.203 146.728 325.615 145.577 324.438C144.435 323.262 143.863 321.722 143.863 319.817C143.863 317.845 144.49 316.229 145.742 314.968C147.003 313.707 148.611 313.076 150.566 313.076C151.844 313.076 152.877 313.343 153.664 313.876C154.46 314.401 154.857 315.078 154.857 315.907C154.857 316.424 154.68 316.851 154.324 317.189C153.977 317.52 153.533 317.685 152.991 317.685C152.695 317.685 152.42 317.646 152.166 317.57C151.921 317.486 151.684 317.359 151.455 317.189V314.435C151.311 314.401 151.184 314.38 151.074 314.371C150.973 314.354 150.88 314.346 150.795 314.346C149.83 314.346 149.022 314.803 148.37 315.717C147.718 316.622 147.393 317.778 147.393 319.183C147.393 320.723 147.752 321.938 148.472 322.826C149.191 323.715 150.169 324.159 151.404 324.159C151.963 324.159 152.547 324.062 153.156 323.867C153.766 323.664 154.383 323.368 155.01 322.979V324.832Z" fill="black"/>
<path d="M169.597 314.511L168.226 314.638L167.857 315.006V324.337L168.226 324.705L169.597 324.832V326H162.792V324.832L164.303 324.705L164.658 324.337V320.643H163.668C163.194 320.643 162.839 320.774 162.602 321.036C162.373 321.29 162.166 321.595 161.979 321.95L160.507 325.162V326H155.619V324.832L156.914 324.654L157.333 324.337L158.831 321.709C159.153 321.15 159.466 320.77 159.771 320.566C159.931 320.456 160.088 320.368 160.24 320.3C160.393 320.224 160.541 320.164 160.685 320.122V320.071C160.211 320.054 159.766 319.974 159.352 319.83C158.937 319.678 158.577 319.47 158.272 319.208C157.968 318.937 157.727 318.611 157.549 318.23C157.371 317.85 157.282 317.422 157.282 316.948C157.282 316.44 157.384 315.945 157.587 315.463C157.79 314.972 158.12 314.549 158.577 314.193C159.068 313.804 159.614 313.563 160.215 313.47C160.511 313.427 160.807 313.398 161.104 313.381C161.408 313.355 161.709 313.343 162.005 313.343H169.597V314.511ZM164.658 314.866C164.438 314.832 164.214 314.803 163.985 314.777C163.757 314.752 163.516 314.739 163.262 314.739C163.033 314.739 162.767 314.756 162.462 314.79C162.157 314.815 161.865 314.904 161.586 315.057C161.315 315.201 161.082 315.433 160.888 315.755C160.701 316.068 160.608 316.512 160.608 317.088C160.608 317.291 160.638 317.52 160.697 317.773C160.757 318.027 160.883 318.264 161.078 318.484C161.273 318.696 161.552 318.878 161.916 319.03C162.28 319.174 162.762 319.246 163.363 319.246C163.896 319.246 164.328 319.208 164.658 319.132V314.866Z" fill="black"/>
<path d="M185.999 313.343C187.057 313.343 187.848 313.432 188.373 313.609C188.644 313.694 188.868 313.774 189.046 313.851C189.224 313.918 189.359 313.982 189.452 314.041C189.892 314.32 190.197 314.65 190.366 315.031C190.535 315.412 190.62 315.835 190.62 316.301C190.62 317.079 190.362 317.723 189.846 318.23C189.321 318.73 188.678 319.056 187.916 319.208V319.271C188.322 319.305 188.729 319.377 189.135 319.487C189.541 319.597 189.905 319.771 190.227 320.008C190.548 320.236 190.806 320.541 191.001 320.922C191.204 321.294 191.306 321.764 191.306 322.331C191.306 322.737 191.255 323.101 191.153 323.423C191.052 323.744 190.916 324.032 190.747 324.286C190.578 324.532 190.375 324.747 190.138 324.934C189.901 325.111 189.651 325.264 189.389 325.391C188.872 325.645 188.31 325.81 187.7 325.886C187.099 325.962 186.575 326 186.126 326H178.636V324.832L180.02 324.705L180.388 324.337V315.006L180.02 314.638L178.534 314.511V313.343H185.999ZM183.574 318.662C183.718 318.688 183.913 318.704 184.158 318.713C184.412 318.721 184.662 318.726 184.907 318.726C185.136 318.726 185.398 318.704 185.694 318.662C185.999 318.62 186.283 318.527 186.545 318.383C186.816 318.239 187.044 318.032 187.23 317.761C187.417 317.49 187.51 317.126 187.51 316.669C187.51 315.975 187.269 315.48 186.786 315.184C186.312 314.887 185.754 314.739 185.11 314.739C184.873 314.739 184.624 314.748 184.361 314.765C184.099 314.782 183.837 314.807 183.574 314.841V318.662ZM183.574 324.438C184.065 324.54 184.577 324.591 185.11 324.591C185.474 324.591 185.834 324.557 186.189 324.489C186.545 324.422 186.871 324.248 187.167 323.969C187.319 323.833 187.438 323.689 187.522 323.537C187.607 323.376 187.671 323.224 187.713 323.08C187.755 322.928 187.781 322.784 187.789 322.648C187.806 322.505 187.814 322.382 187.814 322.28C187.814 322.001 187.772 321.73 187.688 321.468C187.603 321.197 187.459 320.956 187.256 320.744C187.061 320.524 186.795 320.351 186.456 320.224C186.118 320.088 185.694 320.021 185.187 320.021C185.009 320.021 184.835 320.025 184.666 320.033C184.497 320.042 184.336 320.05 184.184 320.059C184.04 320.067 183.913 320.08 183.803 320.097C183.701 320.105 183.625 320.114 183.574 320.122V324.438Z" fill="black"/>
<path d="M207.264 314.409C206.316 314.409 205.575 314.862 205.042 315.768C204.509 316.673 204.242 317.943 204.242 319.576C204.242 321.235 204.505 322.526 205.029 323.448C205.562 324.371 206.299 324.832 207.238 324.832C208.22 324.832 208.978 324.383 209.511 323.486C210.044 322.589 210.311 321.311 210.311 319.652C210.311 318.002 210.04 316.715 209.498 315.793C208.965 314.87 208.22 314.409 207.264 314.409ZM207.365 313.025C209.363 313.025 210.95 313.631 212.126 314.841C213.302 316.043 213.891 317.672 213.891 319.729C213.891 321.675 213.277 323.241 212.05 324.426C210.823 325.611 209.193 326.203 207.162 326.203C205.207 326.203 203.629 325.606 202.427 324.413C201.233 323.211 200.637 321.633 200.637 319.678C200.637 317.672 201.25 316.064 202.478 314.854C203.705 313.635 205.334 313.025 207.365 313.025Z" fill="black"/>
<path d="M229.049 306.602C228.947 307.312 228.765 307.905 228.503 308.379C228.249 308.853 227.94 309.242 227.576 309.547C227.212 309.843 226.81 310.067 226.37 310.22C225.938 310.372 225.49 310.482 225.024 310.55L222.968 310.867C222.409 310.952 221.851 311.079 221.292 311.248C220.733 311.417 220.221 311.692 219.756 312.073C219.29 312.446 218.901 312.958 218.588 313.609C218.283 314.253 218.105 315.09 218.055 316.123H218.105C218.673 315.226 219.396 314.54 220.276 314.066C221.157 313.584 222.121 313.343 223.171 313.343C224.212 313.343 225.062 313.499 225.723 313.812C226.417 314.126 226.954 314.46 227.335 314.815C227.944 315.357 228.427 316.026 228.782 316.821C229.138 317.617 229.315 318.586 229.315 319.729C229.315 321.015 229.1 322.081 228.668 322.928C228.456 323.351 228.215 323.728 227.944 324.058C227.674 324.388 227.377 324.675 227.056 324.921C226.404 325.42 225.68 325.763 224.885 325.949C224.106 326.135 223.336 326.229 222.574 326.229C221.415 326.229 220.479 326.059 219.769 325.721C219.024 325.374 218.461 325.018 218.08 324.654C217.648 324.248 217.297 323.808 217.026 323.334C216.764 322.852 216.561 322.356 216.417 321.849C216.273 321.341 216.176 320.829 216.125 320.312C216.074 319.796 216.049 319.293 216.049 318.802C216.049 318.057 216.091 317.283 216.176 316.479C216.26 315.666 216.4 314.875 216.595 314.104C216.789 313.326 217.043 312.594 217.356 311.908C217.678 311.214 218.067 310.618 218.524 310.118C218.914 309.695 219.316 309.348 219.73 309.077C220.145 308.806 220.56 308.59 220.975 308.43C221.398 308.26 221.817 308.133 222.231 308.049C222.655 307.956 223.065 307.88 223.463 307.82L225.52 307.566C225.74 307.541 225.955 307.507 226.167 307.465C226.387 307.423 226.603 307.372 226.814 307.312C227.229 307.186 227.487 306.949 227.589 306.602H229.049ZM222.676 314.739C222.075 314.739 221.588 314.887 221.216 315.184C220.852 315.471 220.56 315.818 220.34 316.225C220.171 316.572 220.01 317.012 219.857 317.545C219.714 318.104 219.642 318.84 219.642 319.754C219.642 320.126 219.667 320.596 219.718 321.163C219.769 321.73 219.891 322.293 220.086 322.852C220.281 323.376 220.581 323.842 220.987 324.248C221.377 324.637 221.931 324.832 222.65 324.832C223.37 324.832 223.941 324.633 224.364 324.235C224.796 323.829 225.105 323.364 225.291 322.839C225.503 322.28 225.625 321.734 225.659 321.201C225.676 320.922 225.689 320.676 225.697 320.465C225.714 320.245 225.723 320.054 225.723 319.894C225.723 319.301 225.68 318.7 225.596 318.091C225.52 317.473 225.367 316.919 225.139 316.428C224.919 315.928 224.61 315.522 224.212 315.209C223.814 314.896 223.302 314.739 222.676 314.739Z" fill="black"/>
<path d="M230.991 324.832L232.375 324.705L232.743 324.337V315.006L232.375 314.638L230.991 314.511V313.343H237.263V314.511L236.171 314.638L235.803 315.006V324.54H240.195V315.006L239.84 314.638L238.748 314.511V313.343H244.728V314.511L243.636 314.638L243.268 315.006V324.54H247.66V315.006L247.292 314.638L246.2 314.511V313.343H252.472V314.511L251.088 314.638L250.732 315.006V324.286L251.037 324.54H252.624V329.796H250.809L250.288 326.419L249.895 326H230.991V324.832Z" fill="black"/>
<path d="M262.577 317.989V317.71C262.577 316.652 262.382 315.844 261.993 315.285C261.604 314.718 261.045 314.435 260.317 314.435C259.522 314.435 258.883 314.752 258.4 315.387C257.918 316.013 257.656 316.881 257.613 317.989H262.577ZM265.992 322.775V324.705C265.104 325.213 264.206 325.594 263.301 325.848C262.395 326.102 261.49 326.229 260.584 326.229C258.646 326.229 257.089 325.632 255.912 324.438C254.744 323.245 254.16 321.667 254.16 319.703C254.16 317.731 254.757 316.123 255.95 314.879C257.152 313.626 258.697 313 260.584 313C262.294 313 263.622 313.516 264.57 314.549C265.518 315.573 265.992 317.016 265.992 318.878V319.373H257.486V319.449C257.486 320.93 257.859 322.094 258.604 322.94C259.348 323.787 260.372 324.21 261.676 324.21C262.361 324.21 263.06 324.091 263.771 323.854C264.481 323.618 265.222 323.258 265.992 322.775Z" fill="black"/>
<path d="M278.891 324.832C278.036 325.298 277.206 325.645 276.402 325.873C275.598 326.093 274.79 326.203 273.978 326.203C272.116 326.203 270.609 325.615 269.458 324.438C268.315 323.262 267.744 321.722 267.744 319.817C267.744 317.845 268.37 316.229 269.623 314.968C270.884 313.707 272.492 313.076 274.447 313.076C275.725 313.076 276.758 313.343 277.545 313.876C278.34 314.401 278.738 315.078 278.738 315.907C278.738 316.424 278.561 316.851 278.205 317.189C277.858 317.52 277.414 317.685 276.872 317.685C276.576 317.685 276.301 317.646 276.047 317.57C275.801 317.486 275.564 317.359 275.336 317.189V314.435C275.192 314.401 275.065 314.38 274.955 314.371C274.854 314.354 274.76 314.346 274.676 314.346C273.711 314.346 272.903 314.803 272.251 315.717C271.599 316.622 271.273 317.778 271.273 319.183C271.273 320.723 271.633 321.938 272.353 322.826C273.072 323.715 274.049 324.159 275.285 324.159C275.844 324.159 276.428 324.062 277.037 323.867C277.646 323.664 278.264 323.368 278.891 322.979V324.832Z" fill="black"/>
<path d="M283.08 324.832L284.578 324.705L284.946 324.337V314.79H282.788L282.395 315.209L282.09 317.812H280.325V313.343H292.779V317.812H291.002L290.697 315.209L290.304 314.79H288.146V324.337L288.539 324.705L290.012 324.832V326H283.08V324.832Z" fill="black"/>
<path d="M301.171 313.343C302.229 313.343 303.02 313.432 303.545 313.609C303.816 313.694 304.04 313.774 304.218 313.851C304.396 313.918 304.531 313.982 304.624 314.041C305.064 314.32 305.369 314.65 305.538 315.031C305.707 315.412 305.792 315.835 305.792 316.301C305.792 317.079 305.534 317.723 305.018 318.23C304.493 318.73 303.85 319.056 303.088 319.208V319.271C303.494 319.305 303.9 319.377 304.307 319.487C304.713 319.597 305.077 319.771 305.398 320.008C305.72 320.236 305.978 320.541 306.173 320.922C306.376 321.294 306.478 321.764 306.478 322.331C306.478 322.737 306.427 323.101 306.325 323.423C306.224 323.744 306.088 324.032 305.919 324.286C305.75 324.532 305.547 324.747 305.31 324.934C305.073 325.111 304.823 325.264 304.561 325.391C304.044 325.645 303.481 325.81 302.872 325.886C302.271 325.962 301.746 326 301.298 326H293.808V324.832L295.191 324.705L295.56 324.337V315.006L295.191 314.638L293.706 314.511V313.343H301.171ZM298.746 318.662C298.89 318.688 299.085 318.704 299.33 318.713C299.584 318.721 299.834 318.726 300.079 318.726C300.308 318.726 300.57 318.704 300.866 318.662C301.171 318.62 301.454 318.527 301.717 318.383C301.988 318.239 302.216 318.032 302.402 317.761C302.589 317.49 302.682 317.126 302.682 316.669C302.682 315.975 302.44 315.48 301.958 315.184C301.484 314.887 300.925 314.739 300.282 314.739C300.045 314.739 299.796 314.748 299.533 314.765C299.271 314.782 299.008 314.807 298.746 314.841V318.662ZM298.746 324.438C299.237 324.54 299.749 324.591 300.282 324.591C300.646 324.591 301.006 324.557 301.361 324.489C301.717 324.422 302.043 324.248 302.339 323.969C302.491 323.833 302.61 323.689 302.694 323.537C302.779 323.376 302.842 323.224 302.885 323.08C302.927 322.928 302.952 322.784 302.961 322.648C302.978 322.505 302.986 322.382 302.986 322.28C302.986 322.001 302.944 321.73 302.859 321.468C302.775 321.197 302.631 320.956 302.428 320.744C302.233 320.524 301.966 320.351 301.628 320.224C301.289 320.088 300.866 320.021 300.358 320.021C300.181 320.021 300.007 320.025 299.838 320.033C299.669 320.042 299.508 320.05 299.355 320.059C299.212 320.067 299.085 320.08 298.975 320.097C298.873 320.105 298.797 320.114 298.746 320.122V324.438Z" fill="black"/>
<path d="M315.123 314.409C314.175 314.409 313.435 314.862 312.901 315.768C312.368 316.673 312.102 317.943 312.102 319.576C312.102 321.235 312.364 322.526 312.889 323.448C313.422 324.371 314.158 324.832 315.098 324.832C316.079 324.832 316.837 324.383 317.37 323.486C317.903 322.589 318.17 321.311 318.17 319.652C318.17 318.002 317.899 316.715 317.357 315.793C316.824 314.87 316.079 314.409 315.123 314.409ZM315.225 313.025C317.222 313.025 318.809 313.631 319.985 314.841C321.162 316.043 321.75 317.672 321.75 319.729C321.75 321.675 321.136 323.241 319.909 324.426C318.682 325.611 317.053 326.203 315.021 326.203C313.066 326.203 311.488 325.606 310.286 324.413C309.093 323.211 308.496 321.633 308.496 319.678C308.496 317.672 309.11 316.064 310.337 314.854C311.564 313.635 313.193 313.025 315.225 313.025Z" fill="black"/>
<path d="M3.07227 240.832L4.57031 240.705L4.93848 240.337V230.79H2.78027L2.38672 231.209L2.08203 233.812H0.317383V229.343H12.7715V233.812H10.9941L10.6895 231.209L10.2959 230.79H8.1377V240.337L8.53125 240.705L10.0039 240.832V242H3.07227V240.832Z" fill="black"/>
<path d="M20.9219 230.409C19.974 230.409 19.2334 230.862 18.7002 231.768C18.167 232.673 17.9004 233.943 17.9004 235.576C17.9004 237.235 18.1628 238.526 18.6875 239.448C19.2207 240.371 19.957 240.832 20.8965 240.832C21.8783 240.832 22.6357 240.383 23.1689 239.486C23.7021 238.589 23.9688 237.311 23.9688 235.652C23.9688 234.002 23.6979 232.715 23.1562 231.793C22.623 230.87 21.8783 230.409 20.9219 230.409ZM21.0234 229.025C23.0208 229.025 24.6077 229.631 25.7842 230.841C26.9606 232.043 27.5488 233.672 27.5488 235.729C27.5488 237.675 26.9352 239.241 25.708 240.426C24.4808 241.611 22.8516 242.203 20.8203 242.203C18.8652 242.203 17.2868 241.606 16.085 240.413C14.8916 239.211 14.2949 237.633 14.2949 235.678C14.2949 233.672 14.9085 232.064 16.1357 230.854C17.363 229.635 18.9922 229.025 21.0234 229.025Z" fill="black"/>
<path d="M42.1738 229.343V230.511L40.79 230.638L40.4219 231.006V240.337L40.79 240.705L42.1738 240.832V242H35.4072V240.832L36.8672 240.705L37.2227 240.337V230.79H34.6328C34.599 231.416 34.5482 232.136 34.4805 232.948C34.4212 233.752 34.3197 234.577 34.1758 235.424C34.0404 236.27 33.8584 237.104 33.6299 237.925C33.4014 238.737 33.1051 239.465 32.7412 240.108C32.3857 240.743 31.9499 241.255 31.4336 241.645C30.9173 242.034 30.3079 242.229 29.6055 242.229C28.9707 242.229 28.5137 242.072 28.2344 241.759C27.9551 241.437 27.8154 241.022 27.8154 240.515C27.8154 240.354 27.8324 240.18 27.8662 239.994C27.9001 239.808 27.972 239.63 28.082 239.461C28.1836 239.292 28.3359 239.144 28.5391 239.017C28.7507 238.89 29.0299 238.809 29.377 238.775L30.9131 240.134C31.2432 239.643 31.5267 239.042 31.7637 238.331C32.0007 237.62 32.1953 236.858 32.3477 236.046C32.5085 235.225 32.6312 234.383 32.7158 233.52C32.8089 232.648 32.8724 231.81 32.9062 231.006L32.5254 230.638L30.8623 230.511V229.343H42.1738Z" fill="black"/>
<path d="M43.6338 240.832L45.0176 240.705L45.3857 240.337V231.006L45.0176 230.638L43.6338 230.511V229.343H50.4512V230.511L48.9404 230.638L48.5723 231.006V234.459C48.9277 234.425 49.2493 234.4 49.5371 234.383C49.8249 234.366 50.1465 234.357 50.502 234.357C50.8743 234.357 51.2679 234.374 51.6826 234.408C52.1058 234.434 52.5247 234.493 52.9395 234.586C53.3542 234.679 53.752 234.81 54.1328 234.979C54.5137 235.149 54.848 235.377 55.1357 235.665C55.4235 235.953 55.652 236.304 55.8213 236.719C55.999 237.133 56.0879 237.629 56.0879 238.204C56.0879 238.737 56.0159 239.203 55.8721 239.601C55.7367 239.99 55.5462 240.324 55.3008 240.604C55.0553 240.883 54.7676 241.116 54.4375 241.302C54.1159 241.479 53.7689 241.623 53.3965 241.733C53.0326 241.835 52.6559 241.907 52.2666 241.949C51.8773 241.983 51.4964 242 51.124 242H43.6338V240.832ZM48.5723 240.438C49.1139 240.54 49.6175 240.591 50.083 240.591C50.32 240.599 50.5824 240.578 50.8701 240.527C51.1579 240.477 51.4245 240.367 51.6699 240.197C51.9238 240.028 52.1354 239.778 52.3047 239.448C52.474 239.118 52.5586 238.678 52.5586 238.128C52.5586 237.857 52.5163 237.582 52.4316 237.303C52.3555 237.023 52.2243 236.77 52.0381 236.541C51.8519 236.312 51.6022 236.126 51.2891 235.982C50.9759 235.83 50.5908 235.754 50.1338 235.754C49.7783 235.754 49.4652 235.775 49.1943 235.817C48.9235 235.851 48.7161 235.885 48.5723 235.919V240.438Z" fill="black"/>
<path d="M57.624 240.832L59.0078 240.705L59.376 240.337V231.006L59.0078 230.638L57.624 230.511V229.343H64.2637V230.511L62.9307 230.638L62.5625 231.006V234.662H64.0225C64.4372 234.662 64.763 234.544 65 234.307C65.237 234.061 65.4316 233.757 65.584 233.393L66.4219 231.552C66.5827 231.188 66.7562 230.858 66.9424 230.562C67.1286 230.257 67.3317 229.999 67.5518 229.787C67.7803 229.576 68.0257 229.415 68.2881 229.305C68.5589 229.186 68.8551 229.127 69.1768 229.127C69.3376 229.127 69.5322 229.148 69.7607 229.19C69.9977 229.224 70.222 229.305 70.4336 229.432C70.6452 229.55 70.8229 229.728 70.9668 229.965C71.1191 230.202 71.1953 230.523 71.1953 230.93C71.1953 231.327 71.0811 231.696 70.8525 232.034C70.6325 232.381 70.2643 232.584 69.748 232.644L68.1104 231.552C68.0173 231.653 67.9453 231.763 67.8945 231.882C67.8438 231.992 67.7845 232.115 67.7168 232.25L66.9424 234.015C66.8324 234.243 66.6842 234.48 66.498 234.726C66.3203 234.963 66.041 235.153 65.6602 235.297V235.348C66.2865 235.441 66.8027 235.69 67.209 236.097C67.4206 236.308 67.6068 236.516 67.7676 236.719C67.9284 236.922 68.068 237.129 68.1865 237.341L69.748 240.337L70.1543 240.654L71.5635 240.832V242H66.5742V241.162L65.0635 237.315C64.945 237.002 64.7334 236.727 64.4287 236.49C64.124 236.245 63.7559 236.122 63.3242 236.122H62.5625V240.337L62.9307 240.705L64.2637 240.832V242H57.624V240.832Z" fill="black"/>
<path d="M79.168 230.409C78.2201 230.409 77.4795 230.862 76.9463 231.768C76.4131 232.673 76.1465 233.943 76.1465 235.576C76.1465 237.235 76.4089 238.526 76.9336 239.448C77.4668 240.371 78.2031 240.832 79.1426 240.832C80.1244 240.832 80.8818 240.383 81.415 239.486C81.9482 238.589 82.2148 237.311 82.2148 235.652C82.2148 234.002 81.944 232.715 81.4023 231.793C80.8691 230.87 80.1244 230.409 79.168 230.409ZM79.2695 229.025C81.2669 229.025 82.8538 229.631 84.0303 230.841C85.2067 232.043 85.7949 233.672 85.7949 235.729C85.7949 237.675 85.1813 239.241 83.9541 240.426C82.7269 241.611 81.0977 242.203 79.0664 242.203C77.1113 242.203 75.5329 241.606 74.3311 240.413C73.1377 239.211 72.541 237.633 72.541 235.678C72.541 233.672 73.1546 232.064 74.3818 230.854C75.609 229.635 77.2383 229.025 79.2695 229.025Z" fill="black"/>
</svg>
