<svg width="594" height="234" viewBox="0 0 594 234" fill="none" xmlns="http://www.w3.org/2000/svg">
<path d="M22.5698 36.1182C21.5405 37.9951 20.7686 39.7207 20.2539 41.2949C19.7695 42.8691 19.5273 44.3374 19.5273 45.6997C19.5273 49.3628 20.6777 52.481 22.9785 55.0542C25.3096 57.5972 28.125 58.8687 31.4248 58.8687C34.0889 58.8687 36.3291 58.0664 38.1455 56.4619C39.9922 54.8574 40.9155 52.9048 40.9155 50.604C40.9155 48.1821 39.6743 45.957 37.1919 43.9287C34.7397 41.8701 29.8657 39.2666 22.5698 36.1182ZM42.0054 30.3511C47.1519 32.2886 50.8149 34.5288 52.9946 37.0718C55.1743 39.5845 56.2642 42.8237 56.2642 46.7896C56.2642 52.6021 53.918 57.1582 49.2256 60.458C44.5635 63.7578 38.1001 65.4077 29.8354 65.4077C22.2368 65.4077 16.1519 63.7427 11.5806 60.4126C7.00928 57.0825 4.72363 52.6929 4.72363 47.2437C4.72363 43.6714 5.81348 40.75 7.99316 38.4795C10.1729 36.1787 13.397 34.5742 17.6655 33.666C14.1235 32.0312 11.4897 30.0029 9.76416 27.5811C8.06885 25.1592 7.22119 22.2983 7.22119 18.9985C7.22119 13.2163 9.46143 8.66016 13.9419 5.33008C18.4224 1.96973 24.5527 0.289551 32.333 0.289551C38.9023 0.289551 44.1396 1.81836 48.0449 4.87598C51.9502 7.90332 53.9028 11.96 53.9028 17.0459C53.9028 19.9521 52.8887 22.5405 50.8604 24.811C48.8623 27.0513 45.9106 28.8979 42.0054 30.3511ZM37.0103 27.8081C37.9185 26.3247 38.5845 24.8716 39.0083 23.4487C39.4624 22.0259 39.6895 20.5728 39.6895 19.0894C39.6895 15.396 38.8418 12.4443 37.1465 10.2344C35.4512 8.02441 33.1958 6.91943 30.3804 6.91943C28.2612 6.91943 26.5205 7.66113 25.1582 9.14453C23.7959 10.5977 23.1147 12.4897 23.1147 14.8208C23.1147 17.3335 24.1743 19.5889 26.2935 21.5869C28.4126 23.585 31.9849 25.6587 37.0103 27.8081Z" fill="#B10007"/>
<path d="M69.7056 1.60645H110.983V13.5947H78.9692V26.5366C81.4517 25.6587 83.8281 25.0078 86.0986 24.584C88.3691 24.1299 90.5488 23.9028 92.6377 23.9028C99.3887 23.9028 104.823 25.6284 108.94 29.0796C113.087 32.5308 115.161 37.0718 115.161 42.7026C115.161 49.5444 112.527 54.9937 107.26 59.0503C101.992 63.1069 94.8628 65.1353 85.8716 65.1353C79.7866 65.1353 74.8521 63.9849 71.0679 61.6841C67.2837 59.353 65.3916 56.4014 65.3916 52.8291C65.3916 50.377 66.2241 48.3486 67.8892 46.7441C69.5542 45.1094 71.6733 44.292 74.2466 44.292C75.064 44.292 75.9419 44.3828 76.8804 44.5645C77.8188 44.7461 78.8633 45.0186 80.0137 45.3818L82.7837 58.4146C82.8745 58.4146 83.0259 58.4297 83.2378 58.46C84.1157 58.5508 84.7817 58.5962 85.2358 58.5962C89.2017 58.5962 92.4561 57.3701 94.999 54.918C97.542 52.4658 98.8135 49.3174 98.8135 45.4727C98.8135 41.749 97.3452 38.7368 94.4087 36.436C91.4722 34.105 87.5972 32.9395 82.7837 32.9395C80.7856 32.9395 78.6968 33.1362 76.5171 33.5298C74.3374 33.8931 72.0669 34.438 69.7056 35.1646V1.60645Z" fill="#B10007"/>
<path d="M180.688 6.51074C177.57 6.51074 175.254 8.66016 173.74 12.959C172.257 17.2275 171.515 23.7969 171.515 32.667C171.515 41.8398 172.242 48.5151 173.695 52.6929C175.178 56.8706 177.509 58.9595 180.688 58.9595C183.927 58.9595 186.289 56.8706 187.772 52.6929C189.255 48.5151 189.997 41.8398 189.997 32.667C189.997 23.6152 189.24 17.0005 187.727 12.8228C186.243 8.61475 183.897 6.51074 180.688 6.51074ZM180.597 0.471191C188.771 0.471191 195.219 3.34717 199.942 9.09912C204.665 14.8511 207.026 22.7373 207.026 32.7578C207.026 42.7783 204.665 50.6797 199.942 56.4619C195.219 62.2441 188.771 65.1353 180.597 65.1353C172.544 65.1353 166.187 62.2593 161.525 56.5073C156.893 50.7251 154.577 42.8086 154.577 32.7578C154.577 22.7373 156.893 14.8511 161.525 9.09912C166.157 3.34717 172.514 0.471191 180.597 0.471191Z" fill="#B10007"/>
<path d="M240.629 6.51074C237.511 6.51074 235.195 8.66016 233.682 12.959C232.198 17.2275 231.457 23.7969 231.457 32.667C231.457 41.8398 232.183 48.5151 233.636 52.6929C235.12 56.8706 237.451 58.9595 240.629 58.9595C243.869 58.9595 246.23 56.8706 247.713 52.6929C249.197 48.5151 249.938 41.8398 249.938 32.667C249.938 23.6152 249.182 17.0005 247.668 12.8228C246.185 8.61475 243.838 6.51074 240.629 6.51074ZM240.539 0.471191C248.712 0.471191 255.161 3.34717 259.883 9.09912C264.606 14.8511 266.967 22.7373 266.967 32.7578C266.967 42.7783 264.606 50.6797 259.883 56.4619C255.161 62.2441 248.712 65.1353 240.539 65.1353C232.486 65.1353 226.128 62.2593 221.466 56.5073C216.834 50.7251 214.519 42.8086 214.519 32.7578C214.519 22.7373 216.834 14.8511 221.466 9.09912C226.098 3.34717 232.456 0.471191 240.539 0.471191Z" fill="#B10007"/>
<path d="M300.571 6.51074C297.453 6.51074 295.137 8.66016 293.623 12.959C292.14 17.2275 291.398 23.7969 291.398 32.667C291.398 41.8398 292.125 48.5151 293.578 52.6929C295.061 56.8706 297.392 58.9595 300.571 58.9595C303.81 58.9595 306.171 56.8706 307.655 52.6929C309.138 48.5151 309.88 41.8398 309.88 32.667C309.88 23.6152 309.123 17.0005 307.609 12.8228C306.126 8.61475 303.78 6.51074 300.571 6.51074ZM300.48 0.471191C308.654 0.471191 315.102 3.34717 319.825 9.09912C324.547 14.8511 326.909 22.7373 326.909 32.7578C326.909 42.7783 324.547 50.6797 319.825 56.4619C315.102 62.2441 308.654 65.1353 300.48 65.1353C292.427 65.1353 286.07 62.2593 281.408 56.5073C276.776 50.7251 274.46 42.8086 274.46 32.7578C274.46 22.7373 276.776 14.8511 281.408 9.09912C286.04 3.34717 292.397 0.471191 300.48 0.471191Z" fill="#B10007"/>
<path d="M365.535 18.4385C365.814 18.4977 366.09 18.5443 366.36 18.5781C366.64 18.6035 366.919 18.6162 367.198 18.6162C368.366 18.6162 369.293 18.1634 369.979 17.2578C370.673 16.3522 371.02 15.1335 371.02 13.6016C371.02 12.2389 370.715 11.1768 370.105 10.415C369.505 9.64486 368.667 9.25977 367.592 9.25977C367.312 9.25977 367.004 9.30208 366.665 9.38672C366.335 9.46289 365.958 9.58561 365.535 9.75488V18.4385ZM360.597 25.7002V24.4941L362.006 24.3672L362.361 23.9736V9.36133H360.597V8.32031L364.367 7.10156H365.535V8.66309C366.356 8.09603 367.097 7.68132 367.757 7.41895C368.417 7.15658 369.048 7.02539 369.648 7.02539C371.062 7.02539 372.234 7.60514 373.165 8.76465C374.096 9.91569 374.562 11.3799 374.562 13.1572C374.562 15.2393 373.939 16.9023 372.695 18.1465C371.451 19.3822 369.775 20 367.668 20C367.312 20 366.957 19.9915 366.602 19.9746C366.255 19.9492 365.903 19.9154 365.548 19.873L365.535 24.0244L365.929 24.3926L367.541 24.4941V25.7002H360.597Z" fill="black"/>
<path d="M383.207 8.40918C382.259 8.40918 381.519 8.86198 380.985 9.76758C380.452 10.6732 380.186 11.9427 380.186 13.5762C380.186 15.235 380.448 16.5257 380.973 17.4482C381.506 18.3708 382.242 18.832 383.182 18.832C384.163 18.832 384.921 18.3835 385.454 17.4863C385.987 16.5892 386.254 15.3112 386.254 13.6523C386.254 12.002 385.983 10.7155 385.441 9.79297C384.908 8.87044 384.163 8.40918 383.207 8.40918ZM383.309 7.02539C385.306 7.02539 386.893 7.63053 388.069 8.84082C389.246 10.0426 389.834 11.6719 389.834 13.7285C389.834 15.6751 389.22 17.2409 387.993 18.4258C386.766 19.6107 385.137 20.2031 383.105 20.2031C381.15 20.2031 379.572 19.6064 378.37 18.4131C377.177 17.2113 376.58 15.6328 376.58 13.6777C376.58 11.6719 377.194 10.0638 378.421 8.85352C379.648 7.63477 381.277 7.02539 383.309 7.02539Z" fill="black"/>
<path d="M402.936 18.832C402.081 19.2975 401.251 19.6445 400.447 19.873C399.643 20.0931 398.835 20.2031 398.022 20.2031C396.16 20.2031 394.654 19.6149 393.503 18.4385C392.36 17.262 391.789 15.7217 391.789 13.8174C391.789 11.8454 392.415 10.2288 393.668 8.96777C394.929 7.70671 396.537 7.07617 398.492 7.07617C399.77 7.07617 400.803 7.34277 401.59 7.87598C402.385 8.40072 402.783 9.0778 402.783 9.90723C402.783 10.4235 402.605 10.8509 402.25 11.1895C401.903 11.5195 401.459 11.6846 400.917 11.6846C400.621 11.6846 400.346 11.6465 400.092 11.5703C399.846 11.4857 399.609 11.3587 399.381 11.1895V8.43457C399.237 8.40072 399.11 8.37956 399 8.37109C398.898 8.35417 398.805 8.3457 398.721 8.3457C397.756 8.3457 396.948 8.80273 396.296 9.7168C395.644 10.6224 395.318 11.7777 395.318 13.1826C395.318 14.723 395.678 15.9375 396.397 16.8262C397.117 17.7148 398.094 18.1592 399.33 18.1592C399.889 18.1592 400.473 18.0618 401.082 17.8672C401.691 17.6641 402.309 17.3678 402.936 16.9785V18.832Z" fill="black"/>
<path d="M415.326 18.832C414.471 19.2975 413.642 19.6445 412.838 19.873C412.034 20.0931 411.226 20.2031 410.413 20.2031C408.551 20.2031 407.045 19.6149 405.894 18.4385C404.751 17.262 404.18 15.7217 404.18 13.8174C404.18 11.8454 404.806 10.2288 406.059 8.96777C407.32 7.70671 408.928 7.07617 410.883 7.07617C412.161 7.07617 413.193 7.34277 413.98 7.87598C414.776 8.40072 415.174 9.0778 415.174 9.90723C415.174 10.4235 414.996 10.8509 414.641 11.1895C414.294 11.5195 413.849 11.6846 413.308 11.6846C413.011 11.6846 412.736 11.6465 412.482 11.5703C412.237 11.4857 412 11.3587 411.771 11.1895V8.43457C411.628 8.40072 411.501 8.37956 411.391 8.37109C411.289 8.35417 411.196 8.3457 411.111 8.3457C410.146 8.3457 409.338 8.80273 408.687 9.7168C408.035 10.6224 407.709 11.7777 407.709 13.1826C407.709 14.723 408.069 15.9375 408.788 16.8262C409.507 17.7148 410.485 18.1592 411.721 18.1592C412.279 18.1592 412.863 18.0618 413.473 17.8672C414.082 17.6641 414.7 17.3678 415.326 16.9785V18.832Z" fill="black"/>
<path d="M416.38 18.832L417.764 18.7051L418.132 18.3369V9.00586L417.764 8.6377L416.38 8.51074V7.34277H423.02V8.51074L421.687 8.6377L421.318 9.00586V15.4297L426.625 9.62793V9.00586L426.27 8.6377L424.937 8.51074V7.34277H431.563V8.51074L430.192 8.6377L429.824 9.00586V18.3369L430.192 18.7051L431.563 18.832V20H424.937V18.832L426.27 18.7051L426.625 18.3369V11.71L421.318 17.499V18.3369L421.687 18.7051L423.02 18.832V20H416.38V18.832Z" fill="black"/>
<path d="M433.036 18.832L434.42 18.7051L434.788 18.3369V9.00586L434.42 8.6377L433.036 8.51074V7.34277H439.676V8.51074L438.343 8.6377L437.975 9.00586V15.4297L443.281 9.62793V9.00586L442.926 8.6377L441.593 8.51074V7.34277H448.22V8.51074L446.849 8.6377L446.48 9.00586V18.3369L446.849 18.7051L448.22 18.832V20H441.593V18.832L442.926 18.7051L443.281 18.3369V11.71L437.975 17.499V18.3369L438.343 18.7051L439.676 18.832V20H433.036V18.832ZM438.698 3.82617C439.121 4.05469 439.481 4.1901 439.777 4.23242C440.082 4.27474 440.366 4.2959 440.628 4.2959C440.924 4.2959 441.229 4.26628 441.542 4.20703C441.855 4.14779 442.194 4.02083 442.558 3.82617V1.98535C442.71 1.79069 442.888 1.64258 443.091 1.54102C443.302 1.43945 443.565 1.38867 443.878 1.38867C444.335 1.38867 444.703 1.50293 444.982 1.73145C445.27 1.95996 445.414 2.30273 445.414 2.75977C445.414 3.57227 444.987 4.24089 444.132 4.76562C443.285 5.2819 442.118 5.54004 440.628 5.54004C439.13 5.54004 437.958 5.2819 437.111 4.76562C436.265 4.24935 435.842 3.58073 435.842 2.75977C435.842 2.30273 435.981 1.95996 436.261 1.73145C436.549 1.50293 436.921 1.38867 437.378 1.38867C437.691 1.38867 437.949 1.43945 438.152 1.54102C438.364 1.64258 438.546 1.79069 438.698 1.98535V3.82617Z" fill="black"/>
<path d="M461.029 18.832C460.174 19.2975 459.345 19.6445 458.541 19.873C457.737 20.0931 456.929 20.2031 456.116 20.2031C454.254 20.2031 452.748 19.6149 451.597 18.4385C450.454 17.262 449.883 15.7217 449.883 13.8174C449.883 11.8454 450.509 10.2288 451.762 8.96777C453.023 7.70671 454.631 7.07617 456.586 7.07617C457.864 7.07617 458.896 7.34277 459.684 7.87598C460.479 8.40072 460.877 9.0778 460.877 9.90723C460.877 10.4235 460.699 10.8509 460.344 11.1895C459.997 11.5195 459.552 11.6846 459.011 11.6846C458.715 11.6846 458.439 11.6465 458.186 11.5703C457.94 11.4857 457.703 11.3587 457.475 11.1895V8.43457C457.331 8.40072 457.204 8.37956 457.094 8.37109C456.992 8.35417 456.899 8.3457 456.814 8.3457C455.85 8.3457 455.041 8.80273 454.39 9.7168C453.738 10.6224 453.412 11.7777 453.412 13.1826C453.412 14.723 453.772 15.9375 454.491 16.8262C455.211 17.7148 456.188 18.1592 457.424 18.1592C457.982 18.1592 458.566 18.0618 459.176 17.8672C459.785 17.6641 460.403 17.3678 461.029 16.9785V18.832Z" fill="black"/>
<path d="M462.083 18.832L463.467 18.7051L463.835 18.3369V9.00586L463.467 8.6377L462.083 8.51074V7.34277H468.723V8.51074L467.39 8.6377L467.021 9.00586V12.6621H468.481C468.896 12.6621 469.222 12.5436 469.459 12.3066C469.696 12.0612 469.891 11.7565 470.043 11.3926L470.881 9.55176C471.042 9.18783 471.215 8.85775 471.401 8.56152C471.588 8.25684 471.791 7.9987 472.011 7.78711C472.239 7.57552 472.485 7.41471 472.747 7.30469C473.018 7.1862 473.314 7.12695 473.636 7.12695C473.797 7.12695 473.991 7.14811 474.22 7.19043C474.457 7.22428 474.681 7.30469 474.893 7.43164C475.104 7.55013 475.282 7.72786 475.426 7.96484C475.578 8.20182 475.654 8.52344 475.654 8.92969C475.654 9.32747 475.54 9.69564 475.312 10.0342C475.091 10.3812 474.723 10.5843 474.207 10.6436L472.569 9.55176C472.476 9.65332 472.404 9.76335 472.354 9.88184C472.303 9.99186 472.243 10.1146 472.176 10.25L471.401 12.0146C471.291 12.2432 471.143 12.4801 470.957 12.7256C470.779 12.9626 470.5 13.153 470.119 13.2969V13.3477C470.745 13.4408 471.262 13.6904 471.668 14.0967C471.88 14.3083 472.066 14.5156 472.227 14.7188C472.387 14.9219 472.527 15.1292 472.646 15.3408L474.207 18.3369L474.613 18.6543L476.022 18.832V20H471.033V19.1621L469.522 15.3154C469.404 15.0023 469.192 14.7272 468.888 14.4902C468.583 14.2448 468.215 14.1221 467.783 14.1221H467.021V18.3369L467.39 18.7051L468.723 18.832V20H462.083V18.832Z" fill="black"/>
<path d="M476.759 18.832L478.143 18.7051L478.511 18.3369V9.00586L478.143 8.6377L476.759 8.51074V7.34277H483.398V8.51074L482.065 8.6377L481.697 9.00586V15.4297L487.004 9.62793V9.00586L486.648 8.6377L485.315 8.51074V7.34277H491.942V8.51074L490.571 8.6377L490.203 9.00586V18.3369L490.571 18.7051L491.942 18.832V20H485.315V18.832L486.648 18.7051L487.004 18.3369V11.71L481.697 17.499V18.3369L482.065 18.7051L483.398 18.832V20H476.759V18.832Z" fill="black"/>
<path d="M493.06 7.34277H499.318V8.43457L498.328 8.58691L498.201 8.86621L500.283 11.9639L502.543 8.71387L501.223 8.48535V7.34277H506.009V8.53613L504.574 8.71387L501.248 13.0303L505.12 18.6162L506.491 18.8574V20H500.41V18.9844L501.324 18.7559L501.426 18.4893L499.141 15.0107L496.69 18.5908L498.023 18.8574V20H492.983V18.8574L494.507 18.5654L498.15 13.9189L494.532 8.73926L493.06 8.53613V7.34277Z" fill="black"/>
<path d="M526.131 18.832C525.276 19.2975 524.447 19.6445 523.643 19.873C522.839 20.0931 522.03 20.2031 521.218 20.2031C519.356 20.2031 517.849 19.6149 516.698 18.4385C515.556 17.262 514.984 15.7217 514.984 13.8174C514.984 11.8454 515.611 10.2288 516.863 8.96777C518.124 7.70671 519.732 7.07617 521.688 7.07617C522.965 7.07617 523.998 7.34277 524.785 7.87598C525.581 8.40072 525.979 9.0778 525.979 9.90723C525.979 10.4235 525.801 10.8509 525.445 11.1895C525.098 11.5195 524.654 11.6846 524.112 11.6846C523.816 11.6846 523.541 11.6465 523.287 11.5703C523.042 11.4857 522.805 11.3587 522.576 11.1895V8.43457C522.432 8.40072 522.305 8.37956 522.195 8.37109C522.094 8.35417 522.001 8.3457 521.916 8.3457C520.951 8.3457 520.143 8.80273 519.491 9.7168C518.84 10.6224 518.514 11.7777 518.514 13.1826C518.514 14.723 518.873 15.9375 519.593 16.8262C520.312 17.7148 521.29 18.1592 522.525 18.1592C523.084 18.1592 523.668 18.0618 524.277 17.8672C524.887 17.6641 525.505 17.3678 526.131 16.9785V18.832Z" fill="black"/>
<path d="M527.185 18.832L528.568 18.7051L528.937 18.3369V9.00586L528.568 8.6377L527.185 8.51074V7.34277H533.824V8.51074L532.491 8.6377L532.123 9.00586V15.4297L537.43 9.62793V9.00586L537.074 8.6377L535.741 8.51074V7.34277H542.368V8.51074L540.997 8.6377L540.629 9.00586V18.3369L540.997 18.7051L542.368 18.832V20H535.741V18.832L537.074 18.7051L537.43 18.3369V11.71L532.123 17.499V18.3369L532.491 18.7051L533.824 18.832V20H527.185V18.832Z" fill="black"/>
<path d="M548.652 18.4385C548.932 18.4977 549.207 18.5443 549.478 18.5781C549.757 18.6035 550.036 18.6162 550.315 18.6162C551.483 18.6162 552.41 18.1634 553.096 17.2578C553.79 16.3522 554.137 15.1335 554.137 13.6016C554.137 12.2389 553.832 11.1768 553.223 10.415C552.622 9.64486 551.784 9.25977 550.709 9.25977C550.43 9.25977 550.121 9.30208 549.782 9.38672C549.452 9.46289 549.076 9.58561 548.652 9.75488V18.4385ZM543.714 25.7002V24.4941L545.123 24.3672L545.479 23.9736V9.36133H543.714V8.32031L547.484 7.10156H548.652V8.66309C549.473 8.09603 550.214 7.68132 550.874 7.41895C551.534 7.15658 552.165 7.02539 552.766 7.02539C554.179 7.02539 555.351 7.60514 556.282 8.76465C557.213 9.91569 557.679 11.3799 557.679 13.1572C557.679 15.2393 557.057 16.9023 555.812 18.1465C554.568 19.3822 552.893 20 550.785 20C550.43 20 550.074 19.9915 549.719 19.9746C549.372 19.9492 549.021 19.9154 548.665 19.873L548.652 24.0244L549.046 24.3926L550.658 24.4941V25.7002H543.714Z" fill="black"/>
<path d="M566.324 8.40918C565.376 8.40918 564.636 8.86198 564.103 9.76758C563.569 10.6732 563.303 11.9427 563.303 13.5762C563.303 15.235 563.565 16.5257 564.09 17.4482C564.623 18.3708 565.359 18.832 566.299 18.832C567.281 18.832 568.038 18.3835 568.571 17.4863C569.104 16.5892 569.371 15.3112 569.371 13.6523C569.371 12.002 569.1 10.7155 568.559 9.79297C568.025 8.87044 567.281 8.40918 566.324 8.40918ZM566.426 7.02539C568.423 7.02539 570.01 7.63053 571.187 8.84082C572.363 10.0426 572.951 11.6719 572.951 13.7285C572.951 15.6751 572.338 17.2409 571.11 18.4258C569.883 19.6107 568.254 20.2031 566.223 20.2031C564.268 20.2031 562.689 19.6064 561.487 18.4131C560.294 17.2113 559.697 15.6328 559.697 13.6777C559.697 11.6719 560.311 10.0638 561.538 8.85352C562.765 7.63477 564.395 7.02539 566.426 7.02539Z" fill="black"/>
<path d="M577.064 18.832L578.562 18.7051L578.931 18.3369V8.79004H576.772L576.379 9.20898L576.074 11.8115H574.31V7.34277H586.764V11.8115H584.986L584.682 9.20898L584.288 8.79004H582.13V18.3369L582.523 18.7051L583.996 18.832V20H577.064V18.832Z" fill="black"/>
<path d="M360.724 58.832L362.107 58.7051L362.476 58.3369V49.0059L362.107 48.6377L360.724 48.5107V47.3428H367.363V48.5107L366.03 48.6377L365.662 49.0059V52.6621H370.613V49.0059L370.245 48.6377L368.912 48.5107V47.3428H375.552V48.5107L374.168 48.6377L373.8 49.0059V58.3369L374.168 58.7051L375.552 58.832V60H368.912V58.832L370.245 58.7051L370.613 58.3369V54.1221H365.662V58.3369L366.03 58.7051L367.363 58.832V60H360.724V58.832Z" fill="black"/>
<path d="M385.657 51.9893V51.71C385.657 50.652 385.463 49.8438 385.073 49.2852C384.684 48.7181 384.125 48.4346 383.397 48.4346C382.602 48.4346 381.963 48.752 381.48 49.3867C380.998 50.013 380.736 50.8805 380.693 51.9893H385.657ZM389.072 56.7754V58.7051C388.184 59.2129 387.286 59.5938 386.381 59.8477C385.475 60.1016 384.57 60.2285 383.664 60.2285C381.726 60.2285 380.169 59.6318 378.992 58.4385C377.824 57.2451 377.24 55.6667 377.24 53.7031C377.24 51.7311 377.837 50.123 379.03 48.8789C380.232 47.6263 381.777 47 383.664 47C385.374 47 386.702 47.5163 387.65 48.5488C388.598 49.5729 389.072 51.016 389.072 52.8779V53.373H380.566V53.4492C380.566 54.9303 380.939 56.0941 381.684 56.9404C382.428 57.7868 383.452 58.21 384.756 58.21C385.441 58.21 386.14 58.0915 386.851 57.8545C387.562 57.6175 388.302 57.2578 389.072 56.7754Z" fill="black"/>
<path d="M398.2 58.832L399.584 58.7051L399.952 58.3369V49.0059L399.584 48.6377L398.2 48.5107V47.3428H404.84V48.5107L403.507 48.6377L403.139 49.0059V55.4297L408.445 49.6279V49.0059L408.09 48.6377L406.757 48.5107V47.3428H413.384V48.5107L412.013 48.6377L411.645 49.0059V58.3369L412.013 58.7051L413.384 58.832V60H406.757V58.832L408.09 58.7051L408.445 58.3369V51.71L403.139 57.499V58.3369L403.507 58.7051L404.84 58.832V60H398.2V58.832Z" fill="black"/>
<path d="M420.684 47.3428V47.9648L423.629 56.1025L426.562 47.9648V47.3428H432.389V48.5107L431.005 48.6377L430.637 49.0059V58.3369L431.005 58.7051L432.389 58.832V60H425.838V58.832L427.209 58.7051L427.577 58.3369V49.209H427.526L423.591 60H422.347L418.322 49.209H418.271V58.3369L418.627 58.7051L420.011 58.832V60H414.856V58.832L416.24 58.7051L416.608 58.3369V49.0059L416.24 48.6377L414.856 48.5107V47.3428H420.684Z" fill="black"/>
<path d="M442.507 51.9893V51.71C442.507 50.652 442.312 49.8438 441.923 49.2852C441.534 48.7181 440.975 48.4346 440.247 48.4346C439.451 48.4346 438.812 48.752 438.33 49.3867C437.848 50.013 437.585 50.8805 437.543 51.9893H442.507ZM445.922 56.7754V58.7051C445.033 59.2129 444.136 59.5938 443.23 59.8477C442.325 60.1016 441.419 60.2285 440.514 60.2285C438.576 60.2285 437.018 59.6318 435.842 58.4385C434.674 57.2451 434.09 55.6667 434.09 53.7031C434.09 51.7311 434.687 50.123 435.88 48.8789C437.082 47.6263 438.626 47 440.514 47C442.223 47 443.552 47.5163 444.5 48.5488C445.448 49.5729 445.922 51.016 445.922 52.8779V53.373H437.416V53.4492C437.416 54.9303 437.788 56.0941 438.533 56.9404C439.278 57.7868 440.302 58.21 441.605 58.21C442.291 58.21 442.989 58.0915 443.7 57.8545C444.411 57.6175 445.152 57.2578 445.922 56.7754Z" fill="black"/>
<path d="M447.483 58.832L448.867 58.7051L449.235 58.3369V49.0059L448.867 48.6377L447.483 48.5107V47.3428H454.123V48.5107L452.79 48.6377L452.422 49.0059V52.6621H455.164C455.266 51.7311 455.503 50.9144 455.875 50.2119C456.247 49.501 456.721 48.9128 457.297 48.4473C457.881 47.9733 458.549 47.6178 459.303 47.3809C460.064 47.1439 460.885 47.0254 461.766 47.0254C462.714 47.0254 463.577 47.1735 464.355 47.4697C465.143 47.766 465.815 48.1976 466.374 48.7646C466.941 49.3232 467.381 50.013 467.694 50.834C468.007 51.6549 468.164 52.5859 468.164 53.627C468.164 54.7695 467.974 55.7598 467.593 56.5977C467.22 57.4271 466.721 58.1126 466.095 58.6543C465.477 59.1875 464.77 59.5853 463.975 59.8477C463.179 60.1016 462.362 60.2285 461.524 60.2285C460.602 60.2285 459.76 60.0889 458.998 59.8096C458.236 59.5218 457.576 59.1156 457.018 58.5908C456.459 58.0576 456.019 57.4144 455.697 56.6611C455.376 55.9079 455.198 55.0615 455.164 54.1221H452.422V58.3369L452.79 58.7051L454.123 58.832V60H447.483V58.832ZM461.55 48.4346C461.22 48.4346 460.928 48.4854 460.674 48.5869C460.428 48.6885 460.213 48.8154 460.026 48.9678C459.84 49.1201 459.688 49.2852 459.569 49.4629C459.451 49.6406 459.358 49.8057 459.29 49.958C459.121 50.305 458.96 50.7663 458.808 51.3418C458.664 51.9173 458.592 52.6706 458.592 53.6016C458.592 53.9316 458.604 54.2744 458.63 54.6299C458.655 54.9854 458.698 55.3366 458.757 55.6836C458.825 56.0221 458.909 56.3522 459.011 56.6738C459.112 56.987 459.239 57.2705 459.392 57.5244C459.569 57.8206 459.76 58.0534 459.963 58.2227C460.166 58.3919 460.365 58.5231 460.56 58.6162C460.754 58.7093 460.936 58.7686 461.105 58.7939C461.283 58.8193 461.431 58.832 461.55 58.832C461.736 58.832 461.939 58.8066 462.159 58.7559C462.379 58.7051 462.599 58.612 462.819 58.4766C463.048 58.3411 463.268 58.1549 463.479 57.918C463.691 57.681 463.877 57.3721 464.038 56.9912C464.199 56.6104 464.326 56.1533 464.419 55.6201C464.521 55.0785 464.571 54.4395 464.571 53.7031C464.563 53.0853 464.516 52.4632 464.432 51.8369C464.355 51.2106 464.207 50.6436 463.987 50.1357C463.767 49.6279 463.463 49.2174 463.073 48.9043C462.684 48.5827 462.176 48.4261 461.55 48.4346Z" fill="black"/>
<path d="M472.455 58.832L473.953 58.7051L474.321 58.3369V48.79H472.163L471.77 49.209L471.465 51.8115H469.7V47.3428H482.154V51.8115H480.377L480.072 49.209L479.679 48.79H477.521V58.3369L477.914 58.7051L479.387 58.832V60H472.455V58.832Z" fill="black"/>
<path d="M496.843 58.832L498.163 58.7051L498.531 58.3369V54.1221H497.744C497.363 54.1221 497.05 54.2321 496.805 54.4521C496.568 54.6722 496.39 54.96 496.271 55.3154L494.913 59.1621V60H490.025V58.832L491.435 58.6543L491.841 58.3369L493.199 55.3408C493.284 55.1631 493.385 54.9727 493.504 54.7695C493.622 54.5664 493.771 54.3717 493.948 54.1855C494.126 53.9909 494.338 53.8174 494.583 53.665C494.837 53.5042 495.146 53.3815 495.51 53.2969V53.2461C495.467 53.2292 495.408 53.1953 495.332 53.1445C495.264 53.0938 495.175 53.0345 495.065 52.9668C494.854 52.8229 494.655 52.5055 494.469 52.0146L493.796 50.25C493.745 50.1146 493.694 50.0003 493.644 49.9072C493.593 49.8057 493.521 49.6872 493.428 49.5518L491.79 50.6436C491.274 50.5843 490.901 50.3812 490.673 50.0342C490.453 49.6872 490.343 49.319 490.343 48.9297C490.343 48.5404 490.415 48.2272 490.559 47.9902C490.702 47.7533 490.88 47.5713 491.092 47.4443C491.303 47.3174 491.528 47.2327 491.765 47.1904C492.002 47.1481 492.217 47.127 492.412 47.127C493.021 47.127 493.534 47.3258 493.948 47.7236C494.363 48.1214 494.735 48.7308 495.065 49.5518L495.802 51.3926C495.937 51.748 496.068 52.002 496.195 52.1543C496.331 52.3066 496.415 52.3997 496.449 52.4336C496.534 52.5182 496.652 52.5986 496.805 52.6748C496.965 52.7425 497.152 52.7764 497.363 52.7764H498.531V49.0059L498.163 48.6377L496.843 48.5107V47.3428H503.229V48.5107L501.908 48.6377L501.54 49.0059V52.7764H502.708C502.92 52.7764 503.102 52.7425 503.254 52.6748C503.415 52.5986 503.537 52.5182 503.622 52.4336C503.656 52.3997 503.736 52.3066 503.863 52.1543C503.999 52.002 504.134 51.748 504.27 51.3926L505.006 49.5518C505.336 48.7308 505.708 48.1214 506.123 47.7236C506.538 47.3258 507.05 47.127 507.659 47.127C507.845 47.127 508.057 47.1481 508.294 47.1904C508.539 47.2327 508.768 47.3174 508.979 47.4443C509.191 47.5713 509.369 47.7533 509.513 47.9902C509.657 48.2272 509.729 48.5404 509.729 48.9297C509.729 49.3275 509.614 49.6956 509.386 50.0342C509.166 50.3812 508.798 50.5843 508.281 50.6436L506.644 49.5518C506.55 49.6872 506.479 49.8057 506.428 49.9072C506.377 50.0003 506.326 50.1146 506.275 50.25L505.603 52.0146C505.408 52.514 505.205 52.8314 504.993 52.9668C504.892 53.0345 504.803 53.0938 504.727 53.1445C504.659 53.1953 504.604 53.2292 504.562 53.2461V53.2969C504.925 53.3815 505.23 53.5042 505.476 53.665C505.729 53.8174 505.945 53.9909 506.123 54.1855C506.301 54.3717 506.445 54.5664 506.555 54.7695C506.673 54.9727 506.779 55.1631 506.872 55.3408L508.23 58.3369L508.637 58.6543L510.046 58.832V60H505.158V59.1621L503.8 55.3154C503.681 54.96 503.499 54.6722 503.254 54.4521C503.017 54.2321 502.708 54.1221 502.327 54.1221H501.54V58.3369L501.908 58.7051L503.229 58.832V60H496.843V58.832Z" fill="black"/>
<path d="M510.782 58.832L512.166 58.7051L512.534 58.3369V49.0059L512.166 48.6377L510.782 48.5107V47.3428H517.422V48.5107L516.089 48.6377L515.721 49.0059V55.4297L521.027 49.6279V49.0059L520.672 48.6377L519.339 48.5107V47.3428H525.966V48.5107L524.595 48.6377L524.227 49.0059V58.3369L524.595 58.7051L525.966 58.832V60H519.339V58.832L520.672 58.7051L521.027 58.3369V51.71L515.721 57.499V58.3369L516.089 58.7051L517.422 58.832V60H510.782V58.832Z" fill="black"/>
<path d="M540.553 47.3428V48.5107L539.169 48.6377L538.801 49.0059V58.3369L539.169 58.7051L540.553 58.832V60H533.786V58.832L535.246 58.7051L535.602 58.3369V48.79H533.012C532.978 49.4163 532.927 50.1357 532.859 50.9482C532.8 51.7523 532.699 52.5775 532.555 53.4238C532.419 54.2702 532.237 55.1038 532.009 55.9248C531.78 56.7373 531.484 57.4652 531.12 58.1084C530.765 58.7432 530.329 59.2552 529.812 59.6445C529.296 60.0339 528.687 60.2285 527.984 60.2285C527.35 60.2285 526.893 60.0719 526.613 59.7588C526.334 59.4372 526.194 59.0225 526.194 58.5146C526.194 58.3538 526.211 58.1803 526.245 57.9941C526.279 57.8079 526.351 57.6302 526.461 57.4609C526.562 57.2917 526.715 57.1436 526.918 57.0166C527.13 56.8896 527.409 56.8092 527.756 56.7754L529.292 58.1338C529.622 57.6429 529.906 57.042 530.143 56.3311C530.38 55.6201 530.574 54.8584 530.727 54.0459C530.887 53.2249 531.01 52.3828 531.095 51.5195C531.188 50.6478 531.251 49.8099 531.285 49.0059L530.904 48.6377L529.241 48.5107V47.3428H540.553Z" fill="black"/>
<path d="M542.013 58.832L543.396 58.7051L543.765 58.3369V49.0059L543.396 48.6377L542.013 48.5107V47.3428H548.83V48.5107L547.319 48.6377L546.951 49.0059V52.459C547.307 52.4251 547.628 52.3997 547.916 52.3828C548.204 52.3659 548.525 52.3574 548.881 52.3574C549.253 52.3574 549.647 52.3743 550.062 52.4082C550.485 52.4336 550.904 52.4928 551.318 52.5859C551.733 52.679 552.131 52.8102 552.512 52.9795C552.893 53.1488 553.227 53.3773 553.515 53.665C553.802 53.9528 554.031 54.304 554.2 54.7188C554.378 55.1335 554.467 55.6286 554.467 56.2041C554.467 56.7373 554.395 57.2028 554.251 57.6006C554.116 57.9899 553.925 58.3242 553.68 58.6035C553.434 58.8828 553.146 59.1156 552.816 59.3018C552.495 59.4795 552.148 59.6234 551.775 59.7334C551.411 59.835 551.035 59.9069 550.646 59.9492C550.256 59.9831 549.875 60 549.503 60H542.013V58.832ZM546.951 58.4385C547.493 58.54 547.996 58.5908 548.462 58.5908C548.699 58.5993 548.961 58.5781 549.249 58.5273C549.537 58.4766 549.803 58.3665 550.049 58.1973C550.303 58.028 550.514 57.7783 550.684 57.4482C550.853 57.1182 550.938 56.6781 550.938 56.1279C550.938 55.8571 550.895 55.582 550.811 55.3027C550.734 55.0234 550.603 54.7695 550.417 54.541C550.231 54.3125 549.981 54.1263 549.668 53.9824C549.355 53.8301 548.97 53.7539 548.513 53.7539C548.157 53.7539 547.844 53.7751 547.573 53.8174C547.302 53.8512 547.095 53.8851 546.951 53.9189V58.4385Z" fill="black"/>
<path d="M569.003 48.5107L567.632 48.6377L567.264 49.0059V58.3369L567.632 58.7051L569.003 58.832V60H562.198V58.832L563.709 58.7051L564.064 58.3369V54.6426H563.074C562.6 54.6426 562.245 54.7738 562.008 55.0361C561.779 55.29 561.572 55.5947 561.386 55.9502L559.913 59.1621V60H555.025V58.832L556.32 58.6543L556.739 58.3369L558.237 55.709C558.559 55.1504 558.872 54.7695 559.177 54.5664C559.338 54.4564 559.494 54.3675 559.646 54.2998C559.799 54.2236 559.947 54.1644 560.091 54.1221V54.0713C559.617 54.0544 559.173 53.974 558.758 53.8301C558.343 53.6777 557.983 53.4704 557.679 53.208C557.374 52.9372 557.133 52.6113 556.955 52.2305C556.777 51.8496 556.688 51.4222 556.688 50.9482C556.688 50.4404 556.79 49.9453 556.993 49.4629C557.196 48.972 557.526 48.5488 557.983 48.1934C558.474 47.804 559.02 47.5628 559.621 47.4697C559.917 47.4274 560.214 47.3978 560.51 47.3809C560.814 47.3555 561.115 47.3428 561.411 47.3428H569.003V48.5107ZM564.064 48.8662C563.844 48.8324 563.62 48.8027 563.392 48.7773C563.163 48.752 562.922 48.7393 562.668 48.7393C562.439 48.7393 562.173 48.7562 561.868 48.79C561.563 48.8154 561.271 48.9043 560.992 49.0566C560.721 49.2005 560.489 49.4333 560.294 49.7549C560.108 50.068 560.015 50.5124 560.015 51.0879C560.015 51.291 560.044 51.5195 560.104 51.7734C560.163 52.0273 560.29 52.2643 560.484 52.4844C560.679 52.696 560.958 52.8779 561.322 53.0303C561.686 53.1742 562.169 53.2461 562.77 53.2461C563.303 53.2461 563.734 53.208 564.064 53.1318V48.8662Z" fill="black"/>
<path d="M22.8027 160.488H33.1055V220.596L34.2285 222.109L45.2148 222.598V228.311H2.83203V222.5L14.4043 221.914L15.625 220.205V173.623L14.3066 172.5L0 174.404V168.398L22.8027 160.488Z" fill="#B10007"/>
<path d="M85.7422 166.494C82.3893 166.494 79.8991 168.805 78.2715 173.428C76.6764 178.018 75.8789 185.081 75.8789 194.619C75.8789 204.482 76.6602 211.66 78.2227 216.152C79.8177 220.645 82.3242 222.891 85.7422 222.891C89.2253 222.891 91.7643 220.645 93.3594 216.152C94.9544 211.66 95.752 204.482 95.752 194.619C95.752 184.886 94.9382 177.773 93.3105 173.281C91.7155 168.757 89.1927 166.494 85.7422 166.494ZM85.6445 160C94.4336 160 101.367 163.092 106.445 169.277C111.523 175.462 114.062 183.942 114.062 194.717C114.062 205.492 111.523 213.988 106.445 220.205C101.367 226.423 94.4336 229.531 85.6445 229.531C76.9857 229.531 70.1497 226.439 65.1367 220.254C60.1562 214.036 57.666 205.524 57.666 194.717C57.666 183.942 60.1562 175.462 65.1367 169.277C70.1172 163.092 76.9531 160 85.6445 160Z" fill="#B10007"/>
<path d="M192.822 192.91C190.739 192.91 189.16 194.229 188.086 196.865C187.044 199.502 186.523 203.376 186.523 208.486C186.523 213.63 187.044 217.52 188.086 220.156C189.16 222.793 190.739 224.111 192.822 224.111C194.971 224.111 196.582 222.809 197.656 220.205C198.763 217.601 199.316 213.695 199.316 208.486C199.316 203.408 198.763 199.551 197.656 196.914C196.549 194.245 194.938 192.91 192.822 192.91ZM193.213 187.588C199.007 187.588 203.597 189.476 206.982 193.252C210.4 196.995 212.109 202.074 212.109 208.486C212.109 214.964 210.417 220.091 207.031 223.867C203.646 227.643 199.04 229.531 193.213 229.531C187.354 229.531 182.731 227.66 179.346 223.916C175.993 220.14 174.316 214.997 174.316 208.486C174.316 202.074 176.009 196.995 179.395 193.252C182.812 189.476 187.419 187.588 193.213 187.588ZM140.918 165.322C138.835 165.322 137.256 166.641 136.182 169.277C135.14 171.914 134.619 175.788 134.619 180.898C134.619 186.042 135.14 189.932 136.182 192.568C137.256 195.205 138.835 196.523 140.918 196.523C143.099 196.523 144.743 195.205 145.85 192.568C146.956 189.932 147.51 186.042 147.51 180.898C147.51 175.853 146.94 171.995 145.801 169.326C144.694 166.657 143.066 165.322 140.918 165.322ZM184.131 161.221H192.236L149.414 228.311H141.406L184.131 161.221ZM141.309 160C147.135 160 151.758 161.888 155.176 165.664C158.594 169.408 160.303 174.486 160.303 180.898C160.303 187.409 158.594 192.536 155.176 196.279C151.79 200.023 147.168 201.895 141.309 201.895C135.482 201.895 130.876 200.023 127.49 196.279C124.105 192.536 122.412 187.409 122.412 180.898C122.412 174.453 124.105 169.359 127.49 165.615C130.908 161.872 135.514 160 141.309 160Z" fill="#B10007"/>
<path d="M245.296 174.653C246.354 174.653 247.145 174.742 247.67 174.92C247.941 175.005 248.165 175.085 248.343 175.161C248.521 175.229 248.656 175.292 248.749 175.352C249.189 175.631 249.494 175.961 249.663 176.342C249.832 176.723 249.917 177.146 249.917 177.611C249.917 178.39 249.659 179.033 249.143 179.541C248.618 180.04 247.975 180.366 247.213 180.519V180.582C247.619 180.616 248.025 180.688 248.432 180.798C248.838 180.908 249.202 181.081 249.523 181.318C249.845 181.547 250.103 181.852 250.298 182.232C250.501 182.605 250.603 183.075 250.603 183.642C250.603 184.048 250.552 184.412 250.45 184.733C250.349 185.055 250.213 185.343 250.044 185.597C249.875 185.842 249.672 186.058 249.435 186.244C249.198 186.422 248.948 186.574 248.686 186.701C248.169 186.955 247.606 187.12 246.997 187.196C246.396 187.272 245.871 187.311 245.423 187.311H237.933V186.143L239.316 186.016L239.685 185.647V176.316L239.316 175.948L237.831 175.821V174.653H245.296ZM242.871 179.973C243.015 179.998 243.21 180.015 243.455 180.023C243.709 180.032 243.959 180.036 244.204 180.036C244.433 180.036 244.695 180.015 244.991 179.973C245.296 179.93 245.579 179.837 245.842 179.693C246.113 179.549 246.341 179.342 246.527 179.071C246.714 178.8 246.807 178.437 246.807 177.979C246.807 177.285 246.565 176.79 246.083 176.494C245.609 176.198 245.05 176.05 244.407 176.05C244.17 176.05 243.921 176.058 243.658 176.075C243.396 176.092 243.133 176.118 242.871 176.151V179.973ZM242.871 185.749C243.362 185.851 243.874 185.901 244.407 185.901C244.771 185.901 245.131 185.868 245.486 185.8C245.842 185.732 246.168 185.559 246.464 185.279C246.616 185.144 246.735 185 246.819 184.848C246.904 184.687 246.967 184.535 247.01 184.391C247.052 184.238 247.077 184.094 247.086 183.959C247.103 183.815 247.111 183.692 247.111 183.591C247.111 183.312 247.069 183.041 246.984 182.778C246.9 182.507 246.756 182.266 246.553 182.055C246.358 181.835 246.091 181.661 245.753 181.534C245.414 181.399 244.991 181.331 244.483 181.331C244.306 181.331 244.132 181.335 243.963 181.344C243.794 181.352 243.633 181.361 243.48 181.369C243.337 181.378 243.21 181.39 243.1 181.407C242.998 181.416 242.922 181.424 242.871 181.433V185.749Z" fill="black"/>
<path d="M252.126 186.143L253.51 186.016L253.878 185.647V176.316L253.51 175.948L252.126 175.821V174.653H258.943V175.821L257.433 175.948L257.064 176.316V179.77C257.42 179.736 257.742 179.71 258.029 179.693C258.317 179.676 258.639 179.668 258.994 179.668C259.265 179.668 259.549 179.676 259.845 179.693C260.141 179.71 260.437 179.74 260.733 179.782C261.038 179.825 261.334 179.888 261.622 179.973C261.918 180.057 262.202 180.163 262.473 180.29C262.743 180.417 262.993 180.578 263.222 180.772C263.459 180.959 263.662 181.183 263.831 181.445C264 181.708 264.132 182.012 264.225 182.359C264.326 182.698 264.377 183.083 264.377 183.515C264.377 184.31 264.22 184.958 263.907 185.457C263.603 185.948 263.209 186.333 262.727 186.612C262.244 186.883 261.711 187.069 261.127 187.171C260.543 187.264 259.972 187.311 259.413 187.311H252.126V186.143ZM257.064 185.749C257.479 185.851 257.915 185.901 258.372 185.901C258.753 185.901 259.1 185.846 259.413 185.736C259.735 185.626 260.006 185.465 260.226 185.254C260.454 185.042 260.632 184.784 260.759 184.479C260.886 184.175 260.949 183.828 260.949 183.438C260.949 183.142 260.903 182.854 260.81 182.575C260.725 182.287 260.581 182.034 260.378 181.813C260.183 181.585 259.925 181.403 259.604 181.268C259.282 181.132 258.888 181.064 258.423 181.064C258.127 181.064 257.86 181.086 257.623 181.128C257.395 181.162 257.208 181.196 257.064 181.229V185.749ZM264.847 186.143L266.167 186.016L266.535 185.647V176.316L266.167 175.948L264.847 175.821V174.653H271.474V175.821L270.103 175.948L269.734 176.316V185.647L270.103 186.016L271.474 186.143V187.311H264.847V186.143Z" fill="black"/>
<path d="M272.921 186.143L274.305 186.016L274.673 185.647V176.316L274.305 175.948L272.921 175.821V174.653H287.533V175.821L286.162 175.948L285.794 176.316V185.647L286.162 186.016L287.533 186.143V187.311H280.957V186.143L282.239 186.016L282.595 185.647V176.101H277.859V185.647L278.228 186.016L279.497 186.143V187.311H272.921V186.143Z" fill="black"/>
<path d="M288.168 174.679H294.77V175.796L293.449 175.948L293.183 176.316L295.988 183.667L298.819 176.342L298.591 175.948L297.22 175.796V174.679H302.209V175.796L300.8 176.024L295.785 188.225C295.167 189.714 294.427 190.882 293.563 191.729C292.7 192.583 291.828 193.011 290.948 193.011C290.339 193.011 289.814 192.816 289.374 192.427C288.934 192.046 288.714 191.597 288.714 191.081C288.714 190.709 288.828 190.362 289.057 190.04C289.294 189.727 289.628 189.46 290.06 189.24L292.319 190.789C292.675 190.51 293.022 190.099 293.36 189.558C293.707 189.024 294.037 188.381 294.351 187.628L289.729 176.024L288.168 175.796V174.679Z" fill="black"/>
<path d="M313.482 186.143C312.628 186.608 311.798 186.955 310.994 187.184C310.19 187.404 309.382 187.514 308.569 187.514C306.707 187.514 305.201 186.925 304.05 185.749C302.907 184.573 302.336 183.032 302.336 181.128C302.336 179.156 302.962 177.539 304.215 176.278C305.476 175.017 307.084 174.387 309.039 174.387C310.317 174.387 311.35 174.653 312.137 175.187C312.932 175.711 313.33 176.388 313.33 177.218C313.33 177.734 313.152 178.161 312.797 178.5C312.45 178.83 312.006 178.995 311.464 178.995C311.168 178.995 310.893 178.957 310.639 178.881C310.393 178.796 310.156 178.669 309.928 178.5V175.745C309.784 175.711 309.657 175.69 309.547 175.682C309.445 175.665 309.352 175.656 309.268 175.656C308.303 175.656 307.494 176.113 306.843 177.027C306.191 177.933 305.865 179.088 305.865 180.493C305.865 182.034 306.225 183.248 306.944 184.137C307.664 185.025 308.641 185.47 309.877 185.47C310.436 185.47 311.02 185.372 311.629 185.178C312.238 184.975 312.856 184.678 313.482 184.289V186.143Z" fill="black"/>
<path d="M314.536 186.143L315.92 186.016L316.288 185.647V176.316L315.92 175.948L314.536 175.821V174.653H321.176V175.821L319.843 175.948L319.475 176.316V179.973H320.935C321.349 179.973 321.675 179.854 321.912 179.617C322.149 179.372 322.344 179.067 322.496 178.703L323.334 176.862C323.495 176.498 323.668 176.168 323.854 175.872C324.041 175.567 324.244 175.309 324.464 175.098C324.692 174.886 324.938 174.725 325.2 174.615C325.471 174.497 325.767 174.438 326.089 174.438C326.25 174.438 326.444 174.459 326.673 174.501C326.91 174.535 327.134 174.615 327.346 174.742C327.557 174.861 327.735 175.038 327.879 175.275C328.031 175.512 328.107 175.834 328.107 176.24C328.107 176.638 327.993 177.006 327.765 177.345C327.545 177.692 327.176 177.895 326.66 177.954L325.022 176.862C324.929 176.964 324.857 177.074 324.807 177.192C324.756 177.302 324.697 177.425 324.629 177.561L323.854 179.325C323.744 179.554 323.596 179.791 323.41 180.036C323.232 180.273 322.953 180.464 322.572 180.607V180.658C323.199 180.751 323.715 181.001 324.121 181.407C324.333 181.619 324.519 181.826 324.68 182.029C324.84 182.232 324.98 182.44 325.099 182.651L326.66 185.647L327.066 185.965L328.476 186.143V187.311H323.486V186.473L321.976 182.626C321.857 182.313 321.646 182.038 321.341 181.801C321.036 181.555 320.668 181.433 320.236 181.433H319.475V185.647L319.843 186.016L321.176 186.143V187.311H314.536V186.143Z" fill="black"/>
<path d="M329.212 186.143L330.596 186.016L330.964 185.647V176.316L330.596 175.948L329.212 175.821V174.653H335.852V175.821L334.519 175.948L334.15 176.316V179.973H339.102V176.316L338.733 175.948L337.4 175.821V174.653H344.04V175.821L342.656 175.948L342.288 176.316V185.647L342.656 186.016L344.04 186.143V187.311H337.4V186.143L338.733 186.016L339.102 185.647V181.433H334.15V185.647L334.519 186.016L335.852 186.143V187.311H329.212V186.143Z" fill="black"/>
<path d="M345.487 186.143L346.871 186.016L347.239 185.647V176.316L346.871 175.948L345.487 175.821V174.653H352.127V175.821L350.794 175.948L350.426 176.316V182.74L355.732 176.938V176.316L355.377 175.948L354.044 175.821V174.653H360.671V175.821L359.3 175.948L358.932 176.316V185.647L359.3 186.016L360.671 186.143V187.311H354.044V186.143L355.377 186.016L355.732 185.647V179.021L350.426 184.81V185.647L350.794 186.016L352.127 186.143V187.311H345.487V186.143Z" fill="black"/>
<path d="M362.144 186.143L363.527 186.016L363.896 185.647V176.316L363.527 175.948L362.144 175.821V174.653H368.783V175.821L367.45 175.948L367.082 176.316V179.973H368.542C368.957 179.973 369.283 179.854 369.52 179.617C369.757 179.372 369.951 179.067 370.104 178.703L370.941 176.862C371.102 176.498 371.276 176.168 371.462 175.872C371.648 175.567 371.851 175.309 372.071 175.098C372.3 174.886 372.545 174.725 372.808 174.615C373.078 174.497 373.375 174.438 373.696 174.438C373.857 174.438 374.052 174.459 374.28 174.501C374.517 174.535 374.742 174.615 374.953 174.742C375.165 174.861 375.342 175.038 375.486 175.275C375.639 175.512 375.715 175.834 375.715 176.24C375.715 176.638 375.601 177.006 375.372 177.345C375.152 177.692 374.784 177.895 374.268 177.954L372.63 176.862C372.537 176.964 372.465 177.074 372.414 177.192C372.363 177.302 372.304 177.425 372.236 177.561L371.462 179.325C371.352 179.554 371.204 179.791 371.018 180.036C370.84 180.273 370.561 180.464 370.18 180.607V180.658C370.806 180.751 371.322 181.001 371.729 181.407C371.94 181.619 372.126 181.826 372.287 182.029C372.448 182.232 372.588 182.44 372.706 182.651L374.268 185.647L374.674 185.965L376.083 186.143V187.311H371.094V186.473L369.583 182.626C369.465 182.313 369.253 182.038 368.948 181.801C368.644 181.555 368.275 181.433 367.844 181.433H367.082V185.647L367.45 186.016L368.783 186.143V187.311H362.144V186.143Z" fill="black"/>
<path d="M383.688 175.72C382.74 175.72 381.999 176.173 381.466 177.078C380.933 177.984 380.666 179.253 380.666 180.887C380.666 182.546 380.928 183.836 381.453 184.759C381.986 185.681 382.723 186.143 383.662 186.143C384.644 186.143 385.401 185.694 385.935 184.797C386.468 183.9 386.734 182.622 386.734 180.963C386.734 179.312 386.464 178.026 385.922 177.104C385.389 176.181 384.644 175.72 383.688 175.72ZM383.789 174.336C385.786 174.336 387.373 174.941 388.55 176.151C389.726 177.353 390.314 178.982 390.314 181.039C390.314 182.986 389.701 184.551 388.474 185.736C387.246 186.921 385.617 187.514 383.586 187.514C381.631 187.514 380.052 186.917 378.851 185.724C377.657 184.522 377.061 182.943 377.061 180.988C377.061 178.982 377.674 177.374 378.901 176.164C380.129 174.945 381.758 174.336 383.789 174.336Z" fill="black"/>
<path d="M399.188 174.653C400.246 174.653 401.038 174.742 401.562 174.92C401.833 175.005 402.058 175.085 402.235 175.161C402.413 175.229 402.549 175.292 402.642 175.352C403.082 175.631 403.386 175.961 403.556 176.342C403.725 176.723 403.81 177.146 403.81 177.611C403.81 178.39 403.551 179.033 403.035 179.541C402.51 180.04 401.867 180.366 401.105 180.519V180.582C401.512 180.616 401.918 180.688 402.324 180.798C402.73 180.908 403.094 181.081 403.416 181.318C403.738 181.547 403.996 181.852 404.19 182.232C404.394 182.605 404.495 183.075 404.495 183.642C404.495 184.048 404.444 184.412 404.343 184.733C404.241 185.055 404.106 185.343 403.937 185.597C403.767 185.842 403.564 186.058 403.327 186.244C403.09 186.422 402.84 186.574 402.578 186.701C402.062 186.955 401.499 187.12 400.89 187.196C400.289 187.272 399.764 187.311 399.315 187.311H391.825V186.143L393.209 186.016L393.577 185.647V176.316L393.209 175.948L391.724 175.821V174.653H399.188ZM396.764 179.973C396.908 179.998 397.102 180.015 397.348 180.023C397.602 180.032 397.851 180.036 398.097 180.036C398.325 180.036 398.588 180.015 398.884 179.973C399.188 179.93 399.472 179.837 399.734 179.693C400.005 179.549 400.234 179.342 400.42 179.071C400.606 178.8 400.699 178.437 400.699 177.979C400.699 177.285 400.458 176.79 399.976 176.494C399.502 176.198 398.943 176.05 398.3 176.05C398.063 176.05 397.813 176.058 397.551 176.075C397.288 176.092 397.026 176.118 396.764 176.151V179.973ZM396.764 185.749C397.255 185.851 397.767 185.901 398.3 185.901C398.664 185.901 399.023 185.868 399.379 185.8C399.734 185.732 400.06 185.559 400.356 185.279C400.509 185.144 400.627 185 400.712 184.848C400.797 184.687 400.86 184.535 400.902 184.391C400.945 184.238 400.97 184.094 400.979 183.959C400.995 183.815 401.004 183.692 401.004 183.591C401.004 183.312 400.962 183.041 400.877 182.778C400.792 182.507 400.648 182.266 400.445 182.055C400.251 181.835 399.984 181.661 399.646 181.534C399.307 181.399 398.884 181.331 398.376 181.331C398.198 181.331 398.025 181.335 397.855 181.344C397.686 181.352 397.525 181.361 397.373 181.369C397.229 181.378 397.102 181.39 396.992 181.407C396.891 181.416 396.814 181.424 396.764 181.433V185.749Z" fill="black"/>
<path d="M426.382 174.653V175.821L424.998 175.948L424.643 176.316V185.597L424.947 185.851H426.534V191.106H424.719L424.198 187.729L423.805 187.311H415.388L414.994 187.729L414.474 191.106H412.658V185.851H413.953C414.368 185.216 414.761 184.505 415.134 183.718C415.506 182.931 415.845 182.118 416.149 181.28C416.463 180.434 416.733 179.588 416.962 178.741C417.19 177.886 417.368 177.078 417.495 176.316L417.127 175.948L415.438 175.821V174.653H426.382ZM421.443 185.851V176.101H419.26C419.133 176.845 418.964 177.649 418.752 178.513C418.54 179.368 418.291 180.231 418.003 181.103C417.715 181.966 417.394 182.808 417.038 183.629C416.683 184.45 416.298 185.19 415.883 185.851H421.443Z" fill="black"/>
<path d="M436.487 179.3V179.021C436.487 177.963 436.293 177.154 435.903 176.596C435.514 176.029 434.955 175.745 434.228 175.745C433.432 175.745 432.793 176.062 432.311 176.697C431.828 177.324 431.566 178.191 431.523 179.3H436.487ZM439.902 184.086V186.016C439.014 186.523 438.117 186.904 437.211 187.158C436.305 187.412 435.4 187.539 434.494 187.539C432.556 187.539 430.999 186.942 429.822 185.749C428.654 184.556 428.07 182.977 428.07 181.014C428.07 179.042 428.667 177.434 429.86 176.189C431.062 174.937 432.607 174.311 434.494 174.311C436.204 174.311 437.533 174.827 438.48 175.859C439.428 176.883 439.902 178.326 439.902 180.188V180.684H431.396V180.76C431.396 182.241 431.769 183.405 432.514 184.251C433.258 185.097 434.283 185.521 435.586 185.521C436.271 185.521 436.97 185.402 437.681 185.165C438.392 184.928 439.132 184.568 439.902 184.086Z" fill="black"/>
<path d="M444.346 186.143L445.844 186.016L446.212 185.647V176.101H444.054L443.66 176.52L443.355 179.122H441.591V174.653H454.045V179.122H452.268L451.963 176.52L451.569 176.101H449.411V185.647L449.805 186.016L451.277 186.143V187.311H444.346V186.143Z" fill="black"/>
<path d="M466.664 186.143C465.809 186.608 464.98 186.955 464.176 187.184C463.372 187.404 462.563 187.514 461.751 187.514C459.889 187.514 458.382 186.925 457.231 185.749C456.089 184.573 455.518 183.032 455.518 181.128C455.518 179.156 456.144 177.539 457.396 176.278C458.658 175.017 460.266 174.387 462.221 174.387C463.499 174.387 464.531 174.653 465.318 175.187C466.114 175.711 466.512 176.388 466.512 177.218C466.512 177.734 466.334 178.161 465.979 178.5C465.632 178.83 465.187 178.995 464.646 178.995C464.349 178.995 464.074 178.957 463.82 178.881C463.575 178.796 463.338 178.669 463.109 178.5V175.745C462.965 175.711 462.839 175.69 462.729 175.682C462.627 175.665 462.534 175.656 462.449 175.656C461.484 175.656 460.676 176.113 460.024 177.027C459.373 177.933 459.047 179.088 459.047 180.493C459.047 182.034 459.407 183.248 460.126 184.137C460.845 185.025 461.823 185.47 463.059 185.47C463.617 185.47 464.201 185.372 464.811 185.178C465.42 184.975 466.038 184.678 466.664 184.289V186.143Z" fill="black"/>
<path d="M467.718 186.143L469.102 186.016L469.47 185.647V176.316L469.102 175.948L467.718 175.821V174.653H474.357V175.821L473.024 175.948L472.656 176.316V179.973H474.116C474.531 179.973 474.857 179.854 475.094 179.617C475.331 179.372 475.525 179.067 475.678 178.703L476.516 176.862C476.676 176.498 476.85 176.168 477.036 175.872C477.222 175.567 477.425 175.309 477.646 175.098C477.874 174.886 478.119 174.725 478.382 174.615C478.653 174.497 478.949 174.438 479.271 174.438C479.431 174.438 479.626 174.459 479.854 174.501C480.091 174.535 480.316 174.615 480.527 174.742C480.739 174.861 480.917 175.038 481.061 175.275C481.213 175.512 481.289 175.834 481.289 176.24C481.289 176.638 481.175 177.006 480.946 177.345C480.726 177.692 480.358 177.895 479.842 177.954L478.204 176.862C478.111 176.964 478.039 177.074 477.988 177.192C477.938 177.302 477.878 177.425 477.811 177.561L477.036 179.325C476.926 179.554 476.778 179.791 476.592 180.036C476.414 180.273 476.135 180.464 475.754 180.607V180.658C476.38 180.751 476.896 181.001 477.303 181.407C477.514 181.619 477.701 181.826 477.861 182.029C478.022 182.232 478.162 182.44 478.28 182.651L479.842 185.647L480.248 185.965L481.657 186.143V187.311H476.668V186.473L475.157 182.626C475.039 182.313 474.827 182.038 474.522 181.801C474.218 181.555 473.85 181.433 473.418 181.433H472.656V185.647L473.024 186.016L474.357 186.143V187.311H467.718V186.143Z" fill="black"/>
<path d="M489.262 175.72C488.314 175.72 487.573 176.173 487.04 177.078C486.507 177.984 486.24 179.253 486.24 180.887C486.24 182.546 486.503 183.836 487.027 184.759C487.561 185.681 488.297 186.143 489.236 186.143C490.218 186.143 490.976 185.694 491.509 184.797C492.042 183.9 492.309 182.622 492.309 180.963C492.309 179.312 492.038 178.026 491.496 177.104C490.963 176.181 490.218 175.72 489.262 175.72ZM489.363 174.336C491.361 174.336 492.948 174.941 494.124 176.151C495.3 177.353 495.889 178.982 495.889 181.039C495.889 182.986 495.275 184.551 494.048 185.736C492.821 186.921 491.191 187.514 489.16 187.514C487.205 187.514 485.627 186.917 484.425 185.724C483.231 184.522 482.635 182.943 482.635 180.988C482.635 178.982 483.248 177.374 484.476 176.164C485.703 174.945 487.332 174.336 489.363 174.336Z" fill="black"/>
<path d="M497.399 186.143L498.783 186.016L499.151 185.647V176.316L498.783 175.948L497.298 175.821V174.653H508.114V179.122H506.35L505.981 176.469L505.651 176.101H502.338V185.647L502.731 186.016L504.585 186.143V187.311H497.399V186.143Z" fill="black"/>
<path d="M516.277 175.72C515.329 175.72 514.589 176.173 514.056 177.078C513.522 177.984 513.256 179.253 513.256 180.887C513.256 182.546 513.518 183.836 514.043 184.759C514.576 185.681 515.312 186.143 516.252 186.143C517.234 186.143 517.991 185.694 518.524 184.797C519.058 183.9 519.324 182.622 519.324 180.963C519.324 179.312 519.053 178.026 518.512 177.104C517.979 176.181 517.234 175.72 516.277 175.72ZM516.379 174.336C518.376 174.336 519.963 174.941 521.14 176.151C522.316 177.353 522.904 178.982 522.904 181.039C522.904 182.986 522.291 184.551 521.063 185.736C519.836 186.921 518.207 187.514 516.176 187.514C514.221 187.514 512.642 186.917 511.44 185.724C510.247 184.522 509.65 182.943 509.65 180.988C509.65 178.982 510.264 177.374 511.491 176.164C512.718 174.945 514.348 174.336 516.379 174.336Z" fill="black"/>
<path d="M544.778 174.653V175.821L543.395 175.948L543.039 176.316V185.597L543.344 185.851H544.931V191.106H543.115L542.595 187.729L542.201 187.311H533.784L533.391 187.729L532.87 191.106H531.055V185.851H532.35C532.764 185.216 533.158 184.505 533.53 183.718C533.903 182.931 534.241 182.118 534.546 181.28C534.859 180.434 535.13 179.588 535.358 178.741C535.587 177.886 535.765 177.078 535.892 176.316L535.523 175.948L533.835 175.821V174.653H544.778ZM539.84 185.851V176.101H537.656C537.529 176.845 537.36 177.649 537.148 178.513C536.937 179.368 536.687 180.231 536.399 181.103C536.112 181.966 535.79 182.808 535.435 183.629C535.079 184.45 534.694 185.19 534.279 185.851H539.84Z" fill="black"/>
<path d="M553.094 175.72C552.146 175.72 551.405 176.173 550.872 177.078C550.339 177.984 550.072 179.253 550.072 180.887C550.072 182.546 550.335 183.836 550.859 184.759C551.393 185.681 552.129 186.143 553.068 186.143C554.05 186.143 554.808 185.694 555.341 184.797C555.874 183.9 556.141 182.622 556.141 180.963C556.141 179.312 555.87 178.026 555.328 177.104C554.795 176.181 554.05 175.72 553.094 175.72ZM553.195 174.336C555.193 174.336 556.78 174.941 557.956 176.151C559.132 177.353 559.721 178.982 559.721 181.039C559.721 182.986 559.107 184.551 557.88 185.736C556.653 186.921 555.023 187.514 552.992 187.514C551.037 187.514 549.459 186.917 548.257 185.724C547.063 184.522 546.467 182.943 546.467 180.988C546.467 178.982 547.08 177.374 548.308 176.164C549.535 174.945 551.164 174.336 553.195 174.336Z" fill="black"/>
<path d="M567.059 174.653V175.275L570.004 183.413L572.937 175.275V174.653H578.764V175.821L577.38 175.948L577.012 176.316V185.647L577.38 186.016L578.764 186.143V187.311H572.213V186.143L573.584 186.016L573.952 185.647V176.52H573.901L569.966 187.311H568.722L564.697 176.52H564.646V185.647L565.002 186.016L566.386 186.143V187.311H561.231V186.143L562.615 186.016L562.983 185.647V176.316L562.615 175.948L561.231 175.821V174.653H567.059Z" fill="black"/>
<path d="M588.412 184.759V180.519C586.702 180.899 585.535 181.314 584.908 181.763C584.282 182.211 583.969 182.821 583.969 183.591C583.969 184.192 584.142 184.67 584.489 185.025C584.836 185.372 585.306 185.546 585.898 185.546C586.229 185.546 586.601 185.482 587.016 185.355C587.439 185.22 587.904 185.021 588.412 184.759ZM588.412 185.825C587.532 186.426 586.732 186.862 586.013 187.133C585.293 187.404 584.604 187.539 583.943 187.539C582.945 187.539 582.128 187.226 581.493 186.6C580.858 185.965 580.541 185.152 580.541 184.162C580.541 182.943 581.007 182.004 581.938 181.344C582.868 180.684 585.039 179.968 588.45 179.198V178.424C588.45 177.484 588.251 176.799 587.854 176.367C587.456 175.936 586.829 175.72 585.975 175.72C585.788 175.72 585.594 175.732 585.391 175.758C585.188 175.783 584.967 175.821 584.73 175.872V178.31H582.331C581.916 178.31 581.612 178.233 581.417 178.081C581.231 177.929 581.138 177.688 581.138 177.357C581.138 176.545 581.684 175.838 582.775 175.237C583.867 174.636 585.209 174.336 586.8 174.336C588.586 174.336 589.842 174.679 590.57 175.364C591.298 176.05 591.662 177.243 591.662 178.944V185.673L592.005 186.041L593.389 186.168V187.311H588.755L588.412 185.825Z" fill="black"/>
<path d="M245.296 214.653C246.354 214.653 247.145 214.742 247.67 214.92C247.941 215.005 248.165 215.085 248.343 215.161C248.521 215.229 248.656 215.292 248.749 215.352C249.189 215.631 249.494 215.961 249.663 216.342C249.832 216.723 249.917 217.146 249.917 217.611C249.917 218.39 249.659 219.033 249.143 219.541C248.618 220.04 247.975 220.366 247.213 220.519V220.582C247.619 220.616 248.025 220.688 248.432 220.798C248.838 220.908 249.202 221.081 249.523 221.318C249.845 221.547 250.103 221.852 250.298 222.232C250.501 222.605 250.603 223.075 250.603 223.642C250.603 224.048 250.552 224.412 250.45 224.733C250.349 225.055 250.213 225.343 250.044 225.597C249.875 225.842 249.672 226.058 249.435 226.244C249.198 226.422 248.948 226.574 248.686 226.701C248.169 226.955 247.606 227.12 246.997 227.196C246.396 227.272 245.871 227.311 245.423 227.311H237.933V226.143L239.316 226.016L239.685 225.647V216.316L239.316 215.948L237.831 215.821V214.653H245.296ZM242.871 219.973C243.015 219.998 243.21 220.015 243.455 220.023C243.709 220.032 243.959 220.036 244.204 220.036C244.433 220.036 244.695 220.015 244.991 219.973C245.296 219.93 245.579 219.837 245.842 219.693C246.113 219.549 246.341 219.342 246.527 219.071C246.714 218.8 246.807 218.437 246.807 217.979C246.807 217.285 246.565 216.79 246.083 216.494C245.609 216.198 245.05 216.05 244.407 216.05C244.17 216.05 243.921 216.058 243.658 216.075C243.396 216.092 243.133 216.118 242.871 216.151V219.973ZM242.871 225.749C243.362 225.851 243.874 225.901 244.407 225.901C244.771 225.901 245.131 225.868 245.486 225.8C245.842 225.732 246.168 225.559 246.464 225.279C246.616 225.144 246.735 225 246.819 224.848C246.904 224.687 246.967 224.535 247.01 224.391C247.052 224.238 247.077 224.094 247.086 223.959C247.103 223.815 247.111 223.692 247.111 223.591C247.111 223.312 247.069 223.041 246.984 222.778C246.9 222.507 246.756 222.266 246.553 222.055C246.358 221.835 246.091 221.661 245.753 221.534C245.414 221.399 244.991 221.331 244.483 221.331C244.306 221.331 244.132 221.335 243.963 221.344C243.794 221.352 243.633 221.361 243.48 221.369C243.337 221.378 243.21 221.39 243.1 221.407C242.998 221.416 242.922 221.424 242.871 221.433V225.749Z" fill="black"/>
<path d="M263.717 226.143C262.862 226.608 262.033 226.955 261.229 227.184C260.424 227.404 259.616 227.514 258.804 227.514C256.942 227.514 255.435 226.925 254.284 225.749C253.142 224.573 252.57 223.032 252.57 221.128C252.57 219.156 253.197 217.539 254.449 216.278C255.71 215.017 257.318 214.387 259.273 214.387C260.551 214.387 261.584 214.653 262.371 215.187C263.167 215.711 263.564 216.388 263.564 217.218C263.564 217.734 263.387 218.161 263.031 218.5C262.684 218.83 262.24 218.995 261.698 218.995C261.402 218.995 261.127 218.957 260.873 218.881C260.628 218.796 260.391 218.669 260.162 218.5V215.745C260.018 215.711 259.891 215.69 259.781 215.682C259.68 215.665 259.587 215.656 259.502 215.656C258.537 215.656 257.729 216.113 257.077 217.027C256.425 217.933 256.1 219.088 256.1 220.493C256.1 222.034 256.459 223.248 257.179 224.137C257.898 225.025 258.876 225.47 260.111 225.47C260.67 225.47 261.254 225.372 261.863 225.178C262.473 224.975 263.09 224.678 263.717 224.289V226.143Z" fill="black"/>
<path d="M267.906 226.143L269.404 226.016L269.772 225.647V216.101H267.614L267.221 216.52L266.916 219.122H265.151V214.653H277.605V219.122H275.828L275.523 216.52L275.13 216.101H272.972V225.647L273.365 226.016L274.838 226.143V227.311H267.906V226.143Z" fill="black"/>
<path d="M283.445 225.749C283.725 225.808 284 225.855 284.271 225.889C284.55 225.914 284.829 225.927 285.108 225.927C286.276 225.927 287.203 225.474 287.889 224.568C288.583 223.663 288.93 222.444 288.93 220.912C288.93 219.549 288.625 218.487 288.016 217.726C287.415 216.955 286.577 216.57 285.502 216.57C285.223 216.57 284.914 216.613 284.575 216.697C284.245 216.773 283.868 216.896 283.445 217.065V225.749ZM278.507 233.011V231.805L279.916 231.678L280.271 231.284V216.672H278.507V215.631L282.277 214.412H283.445V215.974C284.266 215.407 285.007 214.992 285.667 214.729C286.327 214.467 286.958 214.336 287.559 214.336C288.972 214.336 290.144 214.916 291.075 216.075C292.006 217.226 292.472 218.69 292.472 220.468C292.472 222.55 291.85 224.213 290.605 225.457C289.361 226.693 287.686 227.311 285.578 227.311C285.223 227.311 284.867 227.302 284.512 227.285C284.165 227.26 283.813 227.226 283.458 227.184L283.445 231.335L283.839 231.703L285.451 231.805V233.011H278.507Z" fill="black"/>
<path d="M302.184 224.759V220.519C300.474 220.899 299.306 221.314 298.68 221.763C298.053 222.211 297.74 222.821 297.74 223.591C297.74 224.192 297.914 224.67 298.261 225.025C298.608 225.372 299.077 225.546 299.67 225.546C300 225.546 300.372 225.482 300.787 225.355C301.21 225.22 301.676 225.021 302.184 224.759ZM302.184 225.825C301.303 226.426 300.504 226.862 299.784 227.133C299.065 227.404 298.375 227.539 297.715 227.539C296.716 227.539 295.899 227.226 295.265 226.6C294.63 225.965 294.312 225.152 294.312 224.162C294.312 222.943 294.778 222.004 295.709 221.344C296.64 220.684 298.811 219.968 302.222 219.198V218.424C302.222 217.484 302.023 216.799 301.625 216.367C301.227 215.936 300.601 215.72 299.746 215.72C299.56 215.72 299.365 215.732 299.162 215.758C298.959 215.783 298.739 215.821 298.502 215.872V218.31H296.103C295.688 218.31 295.383 218.233 295.188 218.081C295.002 217.929 294.909 217.688 294.909 217.357C294.909 216.545 295.455 215.838 296.547 215.237C297.639 214.636 298.98 214.336 300.571 214.336C302.357 214.336 303.614 214.679 304.342 215.364C305.07 216.05 305.434 217.243 305.434 218.944V225.673L305.776 226.041L307.16 226.168V227.311H302.526L302.184 225.825Z" fill="black"/>
<path d="M308.138 226.143L309.521 226.016L309.89 225.647V216.316L309.521 215.948L308.138 215.821V214.653H314.777V215.821L313.444 215.948L313.076 216.316V222.74L318.383 216.938V216.316L318.027 215.948L316.694 215.821V214.653H323.321V215.821L321.95 215.948L321.582 216.316V225.647L321.95 226.016L323.321 226.143V227.311H316.694V226.143L318.027 226.016L318.383 225.647V219.021L313.076 224.81V225.647L313.444 226.016L314.777 226.143V227.311H308.138V226.143Z" fill="black"/>
<path d="M332.157 214.653C333.215 214.653 334.007 214.742 334.531 214.92C334.802 215.005 335.026 215.085 335.204 215.161C335.382 215.229 335.517 215.292 335.61 215.352C336.05 215.631 336.355 215.961 336.524 216.342C336.694 216.723 336.778 217.146 336.778 217.611C336.778 218.39 336.52 219.033 336.004 219.541C335.479 220.04 334.836 220.366 334.074 220.519V220.582C334.48 220.616 334.887 220.688 335.293 220.798C335.699 220.908 336.063 221.081 336.385 221.318C336.706 221.547 336.965 221.852 337.159 222.232C337.362 222.605 337.464 223.075 337.464 223.642C337.464 224.048 337.413 224.412 337.312 224.733C337.21 225.055 337.075 225.343 336.905 225.597C336.736 225.842 336.533 226.058 336.296 226.244C336.059 226.422 335.809 226.574 335.547 226.701C335.031 226.955 334.468 227.12 333.858 227.196C333.257 227.272 332.733 227.311 332.284 227.311H324.794V226.143L326.178 226.016L326.546 225.647V216.316L326.178 215.948L324.692 215.821V214.653H332.157ZM329.732 219.973C329.876 219.998 330.071 220.015 330.316 220.023C330.57 220.032 330.82 220.036 331.065 220.036C331.294 220.036 331.556 220.015 331.853 219.973C332.157 219.93 332.441 219.837 332.703 219.693C332.974 219.549 333.202 219.342 333.389 219.071C333.575 218.8 333.668 218.437 333.668 217.979C333.668 217.285 333.427 216.79 332.944 216.494C332.47 216.198 331.912 216.05 331.269 216.05C331.032 216.05 330.782 216.058 330.52 216.075C330.257 216.092 329.995 216.118 329.732 216.151V219.973ZM329.732 225.749C330.223 225.851 330.735 225.901 331.269 225.901C331.632 225.901 331.992 225.868 332.348 225.8C332.703 225.732 333.029 225.559 333.325 225.279C333.478 225.144 333.596 225 333.681 224.848C333.765 224.687 333.829 224.535 333.871 224.391C333.913 224.238 333.939 224.094 333.947 223.959C333.964 223.815 333.973 223.692 333.973 223.591C333.973 223.312 333.93 223.041 333.846 222.778C333.761 222.507 333.617 222.266 333.414 222.055C333.219 221.835 332.953 221.661 332.614 221.534C332.276 221.399 331.853 221.331 331.345 221.331C331.167 221.331 330.993 221.335 330.824 221.344C330.655 221.352 330.494 221.361 330.342 221.369C330.198 221.378 330.071 221.39 329.961 221.407C329.859 221.416 329.783 221.424 329.732 221.433V225.749Z" fill="black"/>
<path d="M347.43 224.759V220.519C345.72 220.899 344.552 221.314 343.926 221.763C343.299 222.211 342.986 222.821 342.986 223.591C342.986 224.192 343.16 224.67 343.507 225.025C343.854 225.372 344.324 225.546 344.916 225.546C345.246 225.546 345.618 225.482 346.033 225.355C346.456 225.22 346.922 225.021 347.43 224.759ZM347.43 225.825C346.549 226.426 345.75 226.862 345.03 227.133C344.311 227.404 343.621 227.539 342.961 227.539C341.962 227.539 341.146 227.226 340.511 226.6C339.876 225.965 339.559 225.152 339.559 224.162C339.559 222.943 340.024 222.004 340.955 221.344C341.886 220.684 344.057 219.968 347.468 219.198V218.424C347.468 217.484 347.269 216.799 346.871 216.367C346.473 215.936 345.847 215.72 344.992 215.72C344.806 215.72 344.611 215.732 344.408 215.758C344.205 215.783 343.985 215.821 343.748 215.872V218.31H341.349C340.934 218.31 340.629 218.233 340.435 218.081C340.248 217.929 340.155 217.688 340.155 217.357C340.155 216.545 340.701 215.838 341.793 215.237C342.885 214.636 344.226 214.336 345.817 214.336C347.603 214.336 348.86 214.679 349.588 215.364C350.316 216.05 350.68 217.243 350.68 218.944V225.673L351.022 226.041L352.406 226.168V227.311H347.772L347.43 225.825Z" fill="black"/>
<path d="M362.042 219.3V219.021C362.042 217.963 361.847 217.154 361.458 216.596C361.069 216.029 360.51 215.745 359.782 215.745C358.987 215.745 358.348 216.062 357.865 216.697C357.383 217.324 357.12 218.191 357.078 219.3H362.042ZM365.457 224.086V226.016C364.568 226.523 363.671 226.904 362.766 227.158C361.86 227.412 360.954 227.539 360.049 227.539C358.111 227.539 356.553 226.942 355.377 225.749C354.209 224.556 353.625 222.977 353.625 221.014C353.625 219.042 354.222 217.434 355.415 216.189C356.617 214.937 358.161 214.311 360.049 214.311C361.758 214.311 363.087 214.827 364.035 215.859C364.983 216.883 365.457 218.326 365.457 220.188V220.684H356.951V220.76C356.951 222.241 357.324 223.405 358.068 224.251C358.813 225.097 359.837 225.521 361.141 225.521C361.826 225.521 362.524 225.402 363.235 225.165C363.946 224.928 364.687 224.568 365.457 224.086Z" fill="black"/>
<path d="M369.9 226.143L371.398 226.016L371.767 225.647V216.101H369.608L369.215 216.52L368.91 219.122H367.146V214.653H379.6V219.122H377.822L377.518 216.52L377.124 216.101H374.966V225.647L375.359 226.016L376.832 226.143V227.311H369.9V226.143Z" fill="black"/>
<path d="M392.219 226.143C391.364 226.608 390.535 226.955 389.73 227.184C388.926 227.404 388.118 227.514 387.306 227.514C385.444 227.514 383.937 226.925 382.786 225.749C381.644 224.573 381.072 223.032 381.072 221.128C381.072 219.156 381.699 217.539 382.951 216.278C384.212 215.017 385.82 214.387 387.775 214.387C389.053 214.387 390.086 214.653 390.873 215.187C391.669 215.711 392.066 216.388 392.066 217.218C392.066 217.734 391.889 218.161 391.533 218.5C391.186 218.83 390.742 218.995 390.2 218.995C389.904 218.995 389.629 218.957 389.375 218.881C389.13 218.796 388.893 218.669 388.664 218.5V215.745C388.52 215.711 388.393 215.69 388.283 215.682C388.182 215.665 388.089 215.656 388.004 215.656C387.039 215.656 386.231 216.113 385.579 217.027C384.927 217.933 384.602 219.088 384.602 220.493C384.602 222.034 384.961 223.248 385.681 224.137C386.4 225.025 387.378 225.47 388.613 225.47C389.172 225.47 389.756 225.372 390.365 225.178C390.975 224.975 391.592 224.678 392.219 224.289V226.143Z" fill="black"/>
<path d="M406.806 215.821L405.435 215.948L405.066 216.316V225.647L405.435 226.016L406.806 226.143V227.311H400.001V226.143L401.512 226.016L401.867 225.647V221.953H400.877C400.403 221.953 400.048 222.084 399.811 222.347C399.582 222.601 399.375 222.905 399.188 223.261L397.716 226.473V227.311H392.828V226.143L394.123 225.965L394.542 225.647L396.04 223.02C396.362 222.461 396.675 222.08 396.979 221.877C397.14 221.767 397.297 221.678 397.449 221.61C397.602 221.534 397.75 221.475 397.894 221.433V221.382C397.42 221.365 396.975 221.285 396.561 221.141C396.146 220.988 395.786 220.781 395.481 220.519C395.177 220.248 394.936 219.922 394.758 219.541C394.58 219.16 394.491 218.733 394.491 218.259C394.491 217.751 394.593 217.256 394.796 216.773C394.999 216.283 395.329 215.859 395.786 215.504C396.277 215.115 396.823 214.873 397.424 214.78C397.72 214.738 398.016 214.708 398.312 214.691C398.617 214.666 398.918 214.653 399.214 214.653H406.806V215.821ZM401.867 216.177C401.647 216.143 401.423 216.113 401.194 216.088C400.966 216.062 400.725 216.05 400.471 216.05C400.242 216.05 399.976 216.067 399.671 216.101C399.366 216.126 399.074 216.215 398.795 216.367C398.524 216.511 398.291 216.744 398.097 217.065C397.91 217.379 397.817 217.823 397.817 218.398C397.817 218.602 397.847 218.83 397.906 219.084C397.965 219.338 398.092 219.575 398.287 219.795C398.482 220.007 398.761 220.188 399.125 220.341C399.489 220.485 399.971 220.557 400.572 220.557C401.105 220.557 401.537 220.519 401.867 220.442V216.177Z" fill="black"/>
<path d="M423.208 214.653C424.266 214.653 425.057 214.742 425.582 214.92C425.853 215.005 426.077 215.085 426.255 215.161C426.433 215.229 426.568 215.292 426.661 215.352C427.101 215.631 427.406 215.961 427.575 216.342C427.744 216.723 427.829 217.146 427.829 217.611C427.829 218.39 427.571 219.033 427.055 219.541C426.53 220.04 425.887 220.366 425.125 220.519V220.582C425.531 220.616 425.938 220.688 426.344 220.798C426.75 220.908 427.114 221.081 427.436 221.318C427.757 221.547 428.015 221.852 428.21 222.232C428.413 222.605 428.515 223.075 428.515 223.642C428.515 224.048 428.464 224.412 428.362 224.733C428.261 225.055 428.125 225.343 427.956 225.597C427.787 225.842 427.584 226.058 427.347 226.244C427.11 226.422 426.86 226.574 426.598 226.701C426.081 226.955 425.519 227.12 424.909 227.196C424.308 227.272 423.784 227.311 423.335 227.311H415.845V226.143L417.229 226.016L417.597 225.647V216.316L417.229 215.948L415.743 215.821V214.653H423.208ZM420.783 219.973C420.927 219.998 421.122 220.015 421.367 220.023C421.621 220.032 421.871 220.036 422.116 220.036C422.345 220.036 422.607 220.015 422.903 219.973C423.208 219.93 423.492 219.837 423.754 219.693C424.025 219.549 424.253 219.342 424.439 219.071C424.626 218.8 424.719 218.437 424.719 217.979C424.719 217.285 424.478 216.79 423.995 216.494C423.521 216.198 422.963 216.05 422.319 216.05C422.082 216.05 421.833 216.058 421.57 216.075C421.308 216.092 421.046 216.118 420.783 216.151V219.973ZM420.783 225.749C421.274 225.851 421.786 225.901 422.319 225.901C422.683 225.901 423.043 225.868 423.398 225.8C423.754 225.732 424.08 225.559 424.376 225.279C424.528 225.144 424.647 225 424.731 224.848C424.816 224.687 424.88 224.535 424.922 224.391C424.964 224.238 424.99 224.094 424.998 223.959C425.015 223.815 425.023 223.692 425.023 223.591C425.023 223.312 424.981 223.041 424.896 222.778C424.812 222.507 424.668 222.266 424.465 222.055C424.27 221.835 424.004 221.661 423.665 221.534C423.326 221.399 422.903 221.331 422.396 221.331C422.218 221.331 422.044 221.335 421.875 221.344C421.706 221.352 421.545 221.361 421.393 221.369C421.249 221.378 421.122 221.39 421.012 221.407C420.91 221.416 420.834 221.424 420.783 221.433V225.749Z" fill="black"/>
<path d="M444.473 215.72C443.525 215.72 442.784 216.173 442.251 217.078C441.718 217.984 441.451 219.253 441.451 220.887C441.451 222.546 441.714 223.836 442.238 224.759C442.771 225.681 443.508 226.143 444.447 226.143C445.429 226.143 446.187 225.694 446.72 224.797C447.253 223.9 447.52 222.622 447.52 220.963C447.52 219.312 447.249 218.026 446.707 217.104C446.174 216.181 445.429 215.72 444.473 215.72ZM444.574 214.336C446.572 214.336 448.159 214.941 449.335 216.151C450.511 217.353 451.1 218.982 451.1 221.039C451.1 222.986 450.486 224.551 449.259 225.736C448.032 226.921 446.402 227.514 444.371 227.514C442.416 227.514 440.838 226.917 439.636 225.724C438.442 224.522 437.846 222.943 437.846 220.988C437.846 218.982 438.459 217.374 439.687 216.164C440.914 214.945 442.543 214.336 444.574 214.336Z" fill="black"/>
<path d="M466.258 207.912C466.156 208.623 465.974 209.215 465.712 209.689C465.458 210.163 465.149 210.553 464.785 210.857C464.421 211.154 464.019 211.378 463.579 211.53C463.147 211.683 462.699 211.793 462.233 211.86L460.177 212.178C459.618 212.262 459.06 212.389 458.501 212.559C457.942 212.728 457.43 213.003 456.965 213.384C456.499 213.756 456.11 214.268 455.797 214.92C455.492 215.563 455.314 216.401 455.264 217.434H455.314C455.882 216.536 456.605 215.851 457.485 215.377C458.366 214.895 459.33 214.653 460.38 214.653C461.421 214.653 462.271 214.81 462.932 215.123C463.626 215.436 464.163 215.771 464.544 216.126C465.153 216.668 465.636 217.336 465.991 218.132C466.347 218.927 466.524 219.896 466.524 221.039C466.524 222.326 466.309 223.392 465.877 224.238C465.665 224.661 465.424 225.038 465.153 225.368C464.882 225.698 464.586 225.986 464.265 226.231C463.613 226.731 462.889 227.074 462.094 227.26C461.315 227.446 460.545 227.539 459.783 227.539C458.624 227.539 457.688 227.37 456.978 227.031C456.233 226.684 455.67 226.329 455.289 225.965C454.857 225.559 454.506 225.118 454.235 224.645C453.973 224.162 453.77 223.667 453.626 223.159C453.482 222.651 453.385 222.139 453.334 221.623C453.283 221.107 453.258 220.603 453.258 220.112C453.258 219.368 453.3 218.593 453.385 217.789C453.469 216.977 453.609 216.185 453.804 215.415C453.998 214.636 454.252 213.904 454.565 213.219C454.887 212.525 455.276 211.928 455.733 211.429C456.123 211.006 456.525 210.659 456.939 210.388C457.354 210.117 457.769 209.901 458.184 209.74C458.607 209.571 459.026 209.444 459.44 209.359C459.864 209.266 460.274 209.19 460.672 209.131L462.729 208.877C462.949 208.852 463.164 208.818 463.376 208.775C463.596 208.733 463.812 208.682 464.023 208.623C464.438 208.496 464.696 208.259 464.798 207.912H466.258ZM459.885 216.05C459.284 216.05 458.797 216.198 458.425 216.494C458.061 216.782 457.769 217.129 457.549 217.535C457.38 217.882 457.219 218.322 457.066 218.855C456.923 219.414 456.851 220.15 456.851 221.064C456.851 221.437 456.876 221.907 456.927 222.474C456.978 223.041 457.1 223.604 457.295 224.162C457.49 224.687 457.79 225.152 458.196 225.559C458.586 225.948 459.14 226.143 459.859 226.143C460.579 226.143 461.15 225.944 461.573 225.546C462.005 225.14 462.314 224.674 462.5 224.149C462.712 223.591 462.834 223.045 462.868 222.512C462.885 222.232 462.898 221.987 462.906 221.775C462.923 221.555 462.932 221.365 462.932 221.204C462.932 220.612 462.889 220.011 462.805 219.401C462.729 218.784 462.576 218.229 462.348 217.738C462.128 217.239 461.819 216.833 461.421 216.52C461.023 216.206 460.511 216.05 459.885 216.05Z" fill="black"/>
<path d="M468.2 226.143L469.584 226.016L469.952 225.647V216.316L469.584 215.948L468.2 215.821V214.653H474.472V215.821L473.38 215.948L473.012 216.316V225.851H477.404V216.316L477.049 215.948L475.957 215.821V214.653H481.937V215.821L480.845 215.948L480.477 216.316V225.851H484.869V216.316L484.501 215.948L483.409 215.821V214.653H489.681V215.821L488.297 215.948L487.941 216.316V225.597L488.246 225.851H489.833V231.106H488.018L487.497 227.729L487.104 227.311H468.2V226.143Z" fill="black"/>
<path d="M499.786 219.3V219.021C499.786 217.963 499.591 217.154 499.202 216.596C498.813 216.029 498.254 215.745 497.526 215.745C496.731 215.745 496.092 216.062 495.609 216.697C495.127 217.324 494.865 218.191 494.822 219.3H499.786ZM503.201 224.086V226.016C502.312 226.523 501.415 226.904 500.51 227.158C499.604 227.412 498.699 227.539 497.793 227.539C495.855 227.539 494.298 226.942 493.121 225.749C491.953 224.556 491.369 222.977 491.369 221.014C491.369 219.042 491.966 217.434 493.159 216.189C494.361 214.937 495.906 214.311 497.793 214.311C499.503 214.311 500.831 214.827 501.779 215.859C502.727 216.883 503.201 218.326 503.201 220.188V220.684H494.695V220.76C494.695 222.241 495.068 223.405 495.812 224.251C496.557 225.097 497.581 225.521 498.885 225.521C499.57 225.521 500.269 225.402 500.979 225.165C501.69 224.928 502.431 224.568 503.201 224.086Z" fill="black"/>
<path d="M516.1 226.143C515.245 226.608 514.415 226.955 513.611 227.184C512.807 227.404 511.999 227.514 511.187 227.514C509.325 227.514 507.818 226.925 506.667 225.749C505.524 224.573 504.953 223.032 504.953 221.128C504.953 219.156 505.579 217.539 506.832 216.278C508.093 215.017 509.701 214.387 511.656 214.387C512.934 214.387 513.967 214.653 514.754 215.187C515.549 215.711 515.947 216.388 515.947 217.218C515.947 217.734 515.77 218.161 515.414 218.5C515.067 218.83 514.623 218.995 514.081 218.995C513.785 218.995 513.51 218.957 513.256 218.881C513.01 218.796 512.773 218.669 512.545 218.5V215.745C512.401 215.711 512.274 215.69 512.164 215.682C512.062 215.665 511.969 215.656 511.885 215.656C510.92 215.656 510.112 216.113 509.46 217.027C508.808 217.933 508.482 219.088 508.482 220.493C508.482 222.034 508.842 223.248 509.562 224.137C510.281 225.025 511.258 225.47 512.494 225.47C513.053 225.47 513.637 225.372 514.246 225.178C514.855 224.975 515.473 224.678 516.1 224.289V226.143Z" fill="black"/>
<path d="M520.289 226.143L521.787 226.016L522.155 225.647V216.101H519.997L519.604 216.52L519.299 219.122H517.534V214.653H529.988V219.122H528.211L527.906 216.52L527.513 216.101H525.354V225.647L525.748 226.016L527.221 226.143V227.311H520.289V226.143Z" fill="black"/>
<path d="M538.38 214.653C539.438 214.653 540.229 214.742 540.754 214.92C541.025 215.005 541.249 215.085 541.427 215.161C541.604 215.229 541.74 215.292 541.833 215.352C542.273 215.631 542.578 215.961 542.747 216.342C542.916 216.723 543.001 217.146 543.001 217.611C543.001 218.39 542.743 219.033 542.227 219.541C541.702 220.04 541.059 220.366 540.297 220.519V220.582C540.703 220.616 541.109 220.688 541.516 220.798C541.922 220.908 542.286 221.081 542.607 221.318C542.929 221.547 543.187 221.852 543.382 222.232C543.585 222.605 543.687 223.075 543.687 223.642C543.687 224.048 543.636 224.412 543.534 224.733C543.433 225.055 543.297 225.343 543.128 225.597C542.959 225.842 542.756 226.058 542.519 226.244C542.282 226.422 542.032 226.574 541.77 226.701C541.253 226.955 540.69 227.12 540.081 227.196C539.48 227.272 538.955 227.311 538.507 227.311H531.017V226.143L532.4 226.016L532.769 225.647V216.316L532.4 215.948L530.915 215.821V214.653H538.38ZM535.955 219.973C536.099 219.998 536.294 220.015 536.539 220.023C536.793 220.032 537.043 220.036 537.288 220.036C537.517 220.036 537.779 220.015 538.075 219.973C538.38 219.93 538.663 219.837 538.926 219.693C539.197 219.549 539.425 219.342 539.611 219.071C539.798 218.8 539.891 218.437 539.891 217.979C539.891 217.285 539.649 216.79 539.167 216.494C538.693 216.198 538.134 216.05 537.491 216.05C537.254 216.05 537.005 216.058 536.742 216.075C536.48 216.092 536.217 216.118 535.955 216.151V219.973ZM535.955 225.749C536.446 225.851 536.958 225.901 537.491 225.901C537.855 225.901 538.215 225.868 538.57 225.8C538.926 225.732 539.252 225.559 539.548 225.279C539.7 225.144 539.819 225 539.903 224.848C539.988 224.687 540.051 224.535 540.094 224.391C540.136 224.238 540.161 224.094 540.17 223.959C540.187 223.815 540.195 223.692 540.195 223.591C540.195 223.312 540.153 223.041 540.068 222.778C539.984 222.507 539.84 222.266 539.637 222.055C539.442 221.835 539.175 221.661 538.837 221.534C538.498 221.399 538.075 221.331 537.567 221.331C537.39 221.331 537.216 221.335 537.047 221.344C536.878 221.352 536.717 221.361 536.564 221.369C536.421 221.378 536.294 221.39 536.184 221.407C536.082 221.416 536.006 221.424 535.955 221.433V225.749Z" fill="black"/>
<path d="M552.332 215.72C551.384 215.72 550.644 216.173 550.11 217.078C549.577 217.984 549.311 219.253 549.311 220.887C549.311 222.546 549.573 223.836 550.098 224.759C550.631 225.681 551.367 226.143 552.307 226.143C553.288 226.143 554.046 225.694 554.579 224.797C555.112 223.9 555.379 222.622 555.379 220.963C555.379 219.312 555.108 218.026 554.566 217.104C554.033 216.181 553.288 215.72 552.332 215.72ZM552.434 214.336C554.431 214.336 556.018 214.941 557.194 216.151C558.371 217.353 558.959 218.982 558.959 221.039C558.959 222.986 558.345 224.551 557.118 225.736C555.891 226.921 554.262 227.514 552.23 227.514C550.275 227.514 548.697 226.917 547.495 225.724C546.302 224.522 545.705 222.943 545.705 220.988C545.705 218.982 546.319 217.374 547.546 216.164C548.773 214.945 550.402 214.336 552.434 214.336Z" fill="black"/>
</svg>
