<svg width="1934" height="727" viewBox="0 0 1934 727" fill="none" xmlns="http://www.w3.org/2000/svg">
<path d="M70.0269 112.059C66.8333 117.882 64.4384 123.236 62.8414 128.12C61.3385 133.004 60.587 137.56 60.587 141.786C60.587 153.151 64.1564 162.826 71.295 170.809C78.5277 178.699 87.263 182.644 97.5013 182.644C105.767 182.644 112.718 180.155 118.354 175.177C124.083 170.199 126.948 164.141 126.948 157.002C126.948 149.488 123.097 142.585 115.395 136.292C107.786 129.905 92.6639 121.827 70.0269 112.059ZM130.33 94.1663C146.298 100.178 157.663 107.128 164.426 115.018C171.189 122.814 174.57 132.863 174.57 145.168C174.57 163.201 167.291 177.337 152.732 187.575C138.267 197.813 118.213 202.932 92.5699 202.932C68.9938 202.932 50.1142 197.766 35.9308 187.434C21.7474 177.102 14.6558 163.483 14.6558 146.577C14.6558 135.493 18.0372 126.43 24.8001 119.385C31.5632 112.247 41.5666 107.269 54.8104 104.451C43.8207 99.3789 35.6488 93.086 30.295 85.5722C25.035 78.0581 22.4049 69.182 22.4049 58.9442C22.4049 41.0045 29.3557 26.8688 43.2572 16.537C57.1588 6.1113 76.1793 0.898438 100.319 0.898438C120.702 0.898438 136.951 5.64167 149.068 15.1281C161.185 24.5206 167.244 37.1068 167.244 52.8861C167.244 61.9028 164.097 69.9334 157.804 76.9778C151.605 83.9285 142.446 89.6577 130.33 94.1663ZM114.831 86.2765C117.649 81.6742 119.716 77.1658 121.031 72.7512C122.44 68.3369 123.144 63.8285 123.144 59.2262C123.144 47.7672 120.514 38.6093 115.254 31.753C109.994 24.8963 102.996 21.4681 94.2608 21.4681C87.6856 21.4681 82.2848 23.7692 78.058 28.3716C73.8312 32.8801 71.7176 38.7502 71.7176 45.9826C71.7176 53.7784 75.0052 60.7759 81.5805 66.9748C88.1554 73.1741 99.2391 79.6079 114.831 86.2765Z" fill="#B10007"/>
<path d="M216.275 4.98389H344.346V42.1782H245.017V82.3313C252.72 79.6075 260.093 77.5881 267.138 76.2732C274.182 74.8643 280.945 74.1597 287.426 74.1597C308.373 74.1597 325.234 79.5135 338.008 90.2211C350.874 100.929 357.309 115.017 357.309 132.487C357.309 153.714 349.137 170.621 332.795 183.207C316.45 195.793 294.33 202.086 266.433 202.086C247.553 202.086 232.243 198.517 220.502 191.379C208.761 184.146 202.89 174.989 202.89 163.905C202.89 156.298 205.473 150.004 210.639 145.026C215.805 139.955 222.38 137.419 230.364 137.419C232.901 137.419 235.624 137.7 238.536 138.264C241.448 138.827 244.689 139.673 248.258 140.8L256.852 181.235C257.134 181.235 257.604 181.282 258.261 181.376C260.985 181.657 263.052 181.798 264.461 181.798C276.766 181.798 286.863 177.994 294.753 170.386C302.643 162.778 306.588 153.01 306.588 141.082C306.588 129.529 302.032 120.183 292.921 113.045C283.81 105.813 271.787 102.197 256.852 102.197C250.653 102.197 244.172 102.807 237.409 104.028C230.646 105.155 223.602 106.846 216.275 109.1V4.98389Z" fill="#B10007"/>
<path d="M560.62 20.2C550.946 20.2 543.76 26.8687 539.062 40.2061C534.461 53.4494 532.159 73.8314 532.159 101.351C532.159 129.811 534.415 150.521 538.923 163.483C543.524 176.445 550.756 182.926 560.62 182.926C570.67 182.926 577.998 176.445 582.599 163.483C587.201 150.521 589.503 129.811 589.503 101.351C589.503 73.2677 587.154 52.7452 582.46 39.7836C577.855 26.7278 570.576 20.2 560.62 20.2ZM560.338 1.46191C585.699 1.46191 605.705 10.3848 620.359 28.2306C635.013 46.0765 642.339 70.5439 642.339 101.633C642.339 132.722 635.013 157.237 620.359 175.177C605.705 193.116 585.699 202.086 560.338 202.086C535.352 202.086 515.628 193.163 501.163 175.318C486.791 157.378 479.605 132.816 479.605 101.633C479.605 70.5439 486.791 46.0765 501.163 28.2306C515.535 10.3848 535.258 1.46191 560.338 1.46191Z" fill="#B10007"/>
<path d="M746.598 20.2C736.924 20.2 729.738 26.8687 725.044 40.2061C720.439 53.4494 718.14 73.8314 718.14 101.351C718.14 129.811 720.393 150.521 724.901 163.483C729.506 176.445 736.738 182.926 746.598 182.926C756.651 182.926 763.976 176.445 768.578 163.483C773.182 150.521 775.481 129.811 775.481 101.351C775.481 73.2677 773.136 52.7452 768.438 39.7836C763.837 26.7278 756.555 20.2 746.598 20.2ZM746.319 1.46191C771.677 1.46191 791.687 10.3848 806.338 28.2306C820.992 46.0765 828.317 70.5439 828.317 101.633C828.317 132.722 820.992 157.237 806.338 175.177C791.687 193.116 771.677 202.086 746.319 202.086C721.333 202.086 701.606 193.163 687.141 175.318C672.77 157.378 665.587 132.816 665.587 101.633C665.587 70.5439 672.77 46.0765 687.141 28.2306C701.513 10.3848 721.24 1.46191 746.319 1.46191Z" fill="#B10007"/>
<path d="M932.58 20.2C922.906 20.2 915.72 26.8687 911.022 40.2061C906.421 53.4494 904.119 73.8314 904.119 101.351C904.119 129.811 906.375 150.521 910.883 163.483C915.484 176.445 922.716 182.926 932.58 182.926C942.63 182.926 949.955 176.445 954.559 163.483C959.161 150.521 961.463 129.811 961.463 101.351C961.463 73.2677 959.114 52.7452 954.417 39.7836C949.815 26.7278 942.536 20.2 932.58 20.2ZM932.298 1.46191C957.659 1.46191 977.665 10.3848 992.319 28.2306C1006.97 46.0765 1014.3 70.5439 1014.3 101.633C1014.3 132.722 1006.97 157.237 992.319 175.177C977.665 193.116 957.659 202.086 932.298 202.086C907.312 202.086 887.588 193.163 873.123 175.318C858.751 157.378 851.565 132.816 851.565 101.633C851.565 70.5439 858.751 46.0765 873.123 28.2306C887.495 10.3848 907.218 1.46191 932.298 1.46191Z" fill="#B10007"/>
<path d="M70.7498 497.924H102.716V684.413L106.201 689.107L140.288 690.625V708.35H8.78692V690.321L44.6921 688.502L48.4796 683.2V538.676L44.389 535.192L0 541.1V522.466L70.7498 497.924Z" fill="#B10007"/>
<path d="M266.032 516.558C255.629 516.558 247.902 523.728 242.852 538.071C237.903 552.312 235.429 574.226 235.429 603.818C235.429 634.418 237.853 656.689 242.701 670.625C247.65 684.565 255.427 691.534 266.032 691.534C276.839 691.534 284.716 684.565 289.666 670.625C294.614 656.689 297.089 634.418 297.089 603.818C297.089 573.621 294.564 551.552 289.514 537.615C284.565 523.579 276.738 516.558 266.032 516.558ZM265.729 496.41C292.999 496.41 314.511 506.003 330.266 525.193C346.022 544.382 353.899 570.692 353.899 604.122C353.899 637.552 346.022 663.911 330.266 683.2C314.511 702.492 292.999 712.135 265.729 712.135C238.863 712.135 217.653 702.541 202.099 683.352C186.646 664.06 178.92 637.651 178.92 604.122C178.92 570.692 186.646 544.382 202.099 525.193C217.552 506.003 238.762 496.41 265.729 496.41Z" fill="#B10007"/>
<path d="M598.268 598.516C591.805 598.516 586.906 602.608 583.573 610.786C580.34 618.968 578.724 630.987 578.724 646.841C578.724 662.801 580.34 674.87 583.573 683.048C586.906 691.229 591.805 695.319 598.268 695.319C604.935 695.319 609.934 691.279 613.266 683.2C616.701 675.121 618.417 663.002 618.417 646.841C618.417 631.086 616.701 619.12 613.266 610.938C609.832 602.657 604.833 598.516 598.268 598.516ZM599.481 582.004C617.458 582.004 631.699 587.861 642.202 599.577C652.807 611.189 658.109 626.947 658.109 646.841C658.109 666.939 652.86 682.846 642.354 694.562C631.851 706.277 617.56 712.135 599.481 712.135C581.302 712.135 566.958 706.33 556.456 694.714C546.053 682.998 540.849 667.042 540.849 646.841C540.849 626.947 546.102 611.189 556.608 599.577C567.21 587.861 581.504 582.004 599.481 582.004ZM437.226 512.922C430.763 512.922 425.864 517.014 422.531 525.193C419.298 533.374 417.682 545.393 417.682 561.248C417.682 577.207 419.298 589.276 422.531 597.454C425.864 605.636 430.763 609.725 437.226 609.725C443.993 609.725 449.093 605.636 452.528 597.454C455.96 589.276 457.679 577.207 457.679 561.248C457.679 545.595 455.91 533.625 452.376 525.345C448.941 517.064 443.89 512.922 437.226 512.922ZM571.302 500.198H596.45L463.586 708.349H438.74L571.302 500.198ZM438.439 496.41C456.515 496.41 470.859 502.268 481.464 513.983C492.069 525.599 497.371 541.354 497.371 561.248C497.371 581.448 492.069 597.355 481.464 608.968C470.958 620.584 456.617 626.392 438.439 626.392C420.359 626.392 406.068 620.584 395.563 608.968C385.06 597.355 379.807 581.448 379.807 561.248C379.807 541.251 385.06 525.447 395.563 513.831C406.168 502.218 420.459 496.41 438.439 496.41Z" fill="#B10007"/>
<path d="M1118.92 23.3535L1118.96 43.1699C1119.28 43.1947 1119.63 43.2194 1120 43.2441C1120.4 43.2441 1120.95 43.2441 1121.67 43.2441C1125.78 43.2441 1128.81 42.4154 1130.76 40.7578C1132.72 39.1003 1133.69 36.5397 1133.69 33.0762C1133.69 29.9095 1132.73 27.4974 1130.8 25.8398C1128.87 24.1823 1126.09 23.3535 1122.45 23.3535H1118.92ZM1103.34 19.0117H1126.46C1132.3 19.0117 1136.72 20.1126 1139.74 22.3145C1142.79 24.5163 1144.31 27.7448 1144.31 32C1144.31 35.4883 1143.21 38.3333 1141 40.5352C1138.8 42.7122 1135.55 44.1966 1131.24 44.9883C1133.12 45.4336 1134.71 46.0397 1135.99 46.8066C1137.31 47.5488 1138.38 48.5137 1139.22 49.7012C1140.29 51.235 1141.35 53.7585 1142.41 57.2715C1142.93 58.929 1143.34 60.1536 1143.64 60.9453C1144.41 62.9492 1145.42 64.347 1146.68 65.1387C1147.97 65.9056 1149.95 66.2891 1152.62 66.2891H1153.58V69.9258C1152.17 70.1237 1150.83 70.2721 1149.54 70.3711C1148.28 70.4701 1147.09 70.5195 1145.98 70.5195C1144.42 70.5195 1142.95 70.3216 1141.56 69.9258C1140.2 69.5052 1139.04 68.9238 1138.07 68.1816C1135.77 66.4004 1133.97 63.4688 1132.65 59.3867C1132.48 58.8177 1132.35 58.3724 1132.25 58.0508C1130.81 53.7214 1129.26 50.901 1127.61 49.5898C1125.95 48.2539 1123.49 47.5859 1120.22 47.5859H1118.92V64.6934L1120.15 65.8809L1124.79 66.2891V70H1103.34V66.2891L1107.83 65.8809L1109.05 64.6934V24.1699L1107.83 23.0938L1103.34 22.7227V19.0117Z" fill="black"/>
<path d="M1161.71 32.0742H1165.35V55.6387C1165.35 58.6569 1165.9 60.834 1167.02 62.1699C1168.16 63.4811 1170.01 64.1367 1172.58 64.1367C1173.45 64.1367 1174.4 64.0501 1175.44 63.877C1176.51 63.679 1177.73 63.3698 1179.12 62.9492V38.6797H1174.18V35.6367L1184.98 32.0742H1188.47V65.1387L1189.51 66.2891L1193.48 66.5859V70H1179.12V65.8066C1176.47 67.5384 1174.13 68.7878 1172.1 69.5547C1170.1 70.2969 1168.18 70.668 1166.35 70.668C1162.84 70.668 1160.21 69.6042 1158.48 67.4766C1156.78 65.349 1155.92 62.0833 1155.92 57.6797V38.6797H1150.99V35.6367L1161.71 32.0742Z" fill="black"/>
<path d="M1224.91 33.8926V44.0234H1220.34L1219.6 38.3086L1218.67 37.4551C1217.83 37.0592 1216.99 36.7624 1216.15 36.5645C1215.31 36.3665 1214.48 36.2676 1213.66 36.2676C1211.83 36.2676 1210.41 36.6758 1209.4 37.4922C1208.38 38.2839 1207.88 39.3971 1207.88 40.832C1207.88 42.0195 1208.27 43.0462 1209.06 43.9121C1209.85 44.778 1211.82 45.9779 1214.96 47.5117L1215.11 47.5859C1222.41 51.099 1226.06 54.6738 1226.06 58.3105C1226.06 62.1947 1224.67 65.2624 1221.9 67.5137C1219.16 69.7402 1215.37 70.8535 1210.55 70.8535C1208.67 70.8535 1206.68 70.6927 1204.57 70.3711C1202.49 70.0495 1200.3 69.5671 1198 68.9238V57.6797H1202.57L1203.46 64.2109L1204.24 65.0645C1205.23 65.584 1206.25 65.9798 1207.32 66.252C1208.38 66.5241 1209.48 66.6602 1210.62 66.6602C1212.62 66.6602 1214.2 66.1777 1215.33 65.2129C1216.5 64.2233 1217.08 62.875 1217.08 61.168C1217.08 59.0156 1214.89 56.9499 1210.51 54.9707C1209.03 54.3027 1207.88 53.7585 1207.06 53.3379C1203.92 51.7793 1201.7 50.2454 1200.42 48.7363C1199.15 47.2025 1198.52 45.3965 1198.52 43.3184C1198.52 39.929 1199.87 37.1953 1202.57 35.1172C1205.29 33.0391 1208.91 32 1213.44 32C1215.37 32 1217.29 32.1608 1219.19 32.4824C1221.1 32.7793 1223 33.2493 1224.91 33.8926Z" fill="black"/>
<path d="M1258.9 33.8926V44.0234H1254.34L1253.59 38.3086L1252.67 37.4551C1251.82 37.0592 1250.98 36.7624 1250.14 36.5645C1249.3 36.3665 1248.47 36.2676 1247.66 36.2676C1245.83 36.2676 1244.4 36.6758 1243.39 37.4922C1242.37 38.2839 1241.87 39.3971 1241.87 40.832C1241.87 42.0195 1242.26 43.0462 1243.05 43.9121C1243.85 44.778 1245.81 45.9779 1248.96 47.5117L1249.1 47.5859C1256.4 51.099 1260.05 54.6738 1260.05 58.3105C1260.05 62.1947 1258.67 65.2624 1255.89 67.5137C1253.15 69.7402 1249.36 70.8535 1244.54 70.8535C1242.66 70.8535 1240.67 70.6927 1238.56 70.3711C1236.49 70.0495 1234.3 69.5671 1232 68.9238V57.6797H1236.56L1237.45 64.2109L1238.23 65.0645C1239.22 65.584 1240.25 65.9798 1241.31 66.252C1242.37 66.5241 1243.48 66.6602 1244.61 66.6602C1246.62 66.6602 1248.19 66.1777 1249.33 65.2129C1250.49 64.2233 1251.07 62.875 1251.07 61.168C1251.07 59.0156 1248.88 56.9499 1244.5 54.9707C1243.02 54.3027 1241.87 53.7585 1241.05 53.3379C1237.91 51.7793 1235.69 50.2454 1234.41 48.7363C1233.15 47.2025 1232.52 45.3965 1232.52 43.3184C1232.52 39.929 1233.86 37.1953 1236.56 35.1172C1239.28 33.0391 1242.91 32 1247.43 32C1249.36 32 1251.28 32.1608 1253.19 32.4824C1255.09 32.7793 1257 33.2493 1258.9 33.8926Z" fill="black"/>
<path d="M1276.01 32.2969H1279.68V65.1387L1280.79 66.2891L1285.06 66.5859V70H1265.13V66.5859L1269.25 66.2891L1270.33 65.1387V38.9023H1265.32V35.8594L1276.01 32.2969ZM1275.19 14.9668C1276.85 14.9668 1278.21 15.4987 1279.27 16.5625C1280.34 17.6016 1280.87 18.9251 1280.87 20.5332C1280.87 22.2155 1280.34 23.6009 1279.27 24.6895C1278.23 25.7533 1276.9 26.2852 1275.27 26.2852C1273.68 26.2852 1272.36 25.7533 1271.29 24.6895C1270.23 23.6257 1269.7 22.2897 1269.7 20.6816C1269.7 19.0488 1270.22 17.6882 1271.26 16.5996C1272.32 15.5111 1273.63 14.9668 1275.19 14.9668Z" fill="black"/>
<path d="M1312.15 62.541V50.1465C1307.15 51.2598 1303.74 52.472 1301.91 53.7832C1300.08 55.0944 1299.16 56.8757 1299.16 59.127C1299.16 60.8835 1299.67 62.2812 1300.69 63.3203C1301.7 64.3346 1303.07 64.8418 1304.8 64.8418C1305.77 64.8418 1306.86 64.6562 1308.07 64.2852C1309.31 63.8893 1310.67 63.3079 1312.15 62.541ZM1312.15 65.6582C1309.58 67.4147 1307.24 68.6888 1305.14 69.4805C1303.04 70.2721 1301.02 70.668 1299.09 70.668C1296.17 70.668 1293.78 69.7526 1291.93 67.9219C1290.07 66.0664 1289.14 63.6914 1289.14 60.7969C1289.14 57.2344 1290.51 54.4883 1293.23 52.5586C1295.95 50.6289 1302.29 48.5384 1312.26 46.2871V44.0234C1312.26 41.2773 1311.68 39.2734 1310.52 38.0117C1309.36 36.75 1307.53 36.1191 1305.03 36.1191C1304.48 36.1191 1303.91 36.1562 1303.32 36.2305C1302.73 36.3047 1302.08 36.416 1301.39 36.5645V43.6895H1294.38C1293.16 43.6895 1292.27 43.4668 1291.71 43.0215C1291.16 42.5762 1290.89 41.8711 1290.89 40.9062C1290.89 38.5312 1292.48 36.4655 1295.68 34.709C1298.87 32.9525 1302.79 32.0742 1307.44 32.0742C1312.66 32.0742 1316.33 33.0762 1318.46 35.0801C1320.59 37.084 1321.65 40.5723 1321.65 45.5449V65.2129L1322.65 66.2891L1326.7 66.6602V70H1313.15L1312.15 65.6582Z" fill="black"/>
<path d="M1329.78 70V66.5859L1333.68 66.2891L1334.75 65.1387V38.9023H1329.56V35.8594L1340.5 32.2969H1344.18V36.7871C1347.07 35.179 1349.57 34.0039 1351.67 33.2617C1353.78 32.5195 1355.61 32.1484 1357.17 32.1484C1360.63 32.1484 1363.21 33.1875 1364.92 35.2656C1366.63 37.3438 1367.48 40.5104 1367.48 44.7656V65.1387L1368.48 66.2891L1372.49 66.5859V70H1353.9V66.5859L1357.17 66.2891L1358.21 65.1387V46.9551C1358.21 44.1348 1357.66 42.069 1356.57 40.7578C1355.48 39.4219 1353.75 38.7539 1351.38 38.7539C1350.46 38.7539 1349.4 38.8652 1348.19 39.0879C1347 39.3105 1345.66 39.6322 1344.18 40.0527V65.1387L1345.22 66.2891L1348.56 66.5859V70H1329.78Z" fill="black"/>
<path d="M1417.77 36.1191C1414.99 36.1191 1412.83 37.4427 1411.27 40.0898C1409.71 42.737 1408.93 46.4479 1408.93 51.2227C1408.93 56.0716 1409.7 59.8444 1411.23 62.541C1412.79 65.2376 1414.95 66.5859 1417.69 66.5859C1420.56 66.5859 1422.78 65.2747 1424.33 62.6523C1425.89 60.0299 1426.67 56.2943 1426.67 51.4453C1426.67 46.6211 1425.88 42.8607 1424.3 40.1641C1422.74 37.4674 1420.56 36.1191 1417.77 36.1191ZM1418.06 32.0742C1423.9 32.0742 1428.54 33.8431 1431.98 37.3809C1435.42 40.8939 1437.14 45.6562 1437.14 51.668C1437.14 57.3581 1435.34 61.9349 1431.76 65.3984C1428.17 68.862 1423.41 70.5938 1417.47 70.5938C1411.75 70.5938 1407.14 68.8496 1403.63 65.3613C1400.14 61.8483 1398.39 57.2344 1398.39 51.5195C1398.39 45.6562 1400.19 40.9557 1403.78 37.418C1407.36 33.8555 1412.12 32.0742 1418.06 32.0742Z" fill="black"/>
<path d="M1441.63 70V66.5859L1445.67 66.2891L1446.75 65.1387V38.9023H1441.26V35.8594L1452.43 32.2969H1456.1L1455.77 40.0527C1457.08 38.6673 1458.47 37.3314 1459.96 36.0449C1461.44 34.7337 1463 33.4967 1464.63 32.334C1465.06 32.2598 1465.39 32.2103 1465.64 32.1855C1465.91 32.1608 1466.14 32.1484 1466.34 32.1484C1467.16 32.1484 1467.97 32.2598 1468.79 32.4824C1469.63 32.6803 1470.49 33.002 1471.35 33.4473L1470.39 43.9492H1466.42C1465.85 43.0091 1465.15 42.3164 1464.34 41.8711C1463.55 41.4258 1462.59 41.2031 1461.48 41.2031C1460.84 41.2031 1460.06 41.3887 1459.14 41.7598C1458.25 42.1061 1457.24 42.6257 1456.1 43.3184V65.1387L1457.21 66.2891L1462.63 66.5859V70H1441.63Z" fill="black"/>
<path d="M1487.61 65.4355C1488.42 65.6087 1489.23 65.7448 1490.02 65.8438C1490.83 65.918 1491.65 65.9551 1492.47 65.9551C1495.88 65.9551 1498.59 64.6315 1500.59 61.9844C1502.62 59.3372 1503.64 55.7747 1503.64 51.2969C1503.64 47.3138 1502.75 44.209 1500.96 41.9824C1499.21 39.7311 1496.76 38.6055 1493.62 38.6055C1492.8 38.6055 1491.9 38.7292 1490.91 38.9766C1489.94 39.1992 1488.84 39.5579 1487.61 40.0527V65.4355ZM1473.17 86.6621V83.1367L1477.29 82.7656L1478.33 81.6152V38.9023H1473.17V35.8594L1484.19 32.2969H1487.61V36.8613C1490.01 35.2038 1492.17 33.9915 1494.1 33.2246C1496.03 32.4577 1497.87 32.0742 1499.63 32.0742C1503.76 32.0742 1507.19 33.7689 1509.91 37.1582C1512.63 40.5228 1513.99 44.8027 1513.99 49.998C1513.99 56.084 1512.17 60.9453 1508.54 64.582C1504.9 68.194 1500 70 1493.84 70C1492.8 70 1491.76 69.9753 1490.72 69.9258C1489.71 69.8516 1488.68 69.7526 1487.64 69.6289L1487.61 81.7637L1488.76 82.8398L1493.47 83.1367V86.6621H1473.17Z" fill="black"/>
<path d="M1528.8 13.8535H1532.43V36.7871C1535.48 35.1296 1538.01 33.9421 1540.04 33.2246C1542.09 32.5072 1543.89 32.1484 1545.42 32.1484C1548.93 32.1484 1551.54 33.1999 1553.25 35.3027C1554.98 37.3809 1555.85 40.5352 1555.85 44.7656V65.1387L1556.85 66.2891L1560.86 66.5859V70H1542.23V66.5859L1545.5 66.2891L1546.57 65.1387V46.9551C1546.57 44.1348 1546.02 42.069 1544.9 40.7578C1543.81 39.4219 1542.09 38.7539 1539.74 38.7539C1538.78 38.7539 1537.69 38.8652 1536.48 39.0879C1535.29 39.3105 1533.94 39.6322 1532.43 40.0527V65.1387L1533.58 66.2891L1536.92 66.5859V70H1518.15V66.5859L1522.04 66.2891L1523.08 65.1387V20.3848H1517.55V17.416L1528.8 13.8535Z" fill="black"/>
<path d="M1587.8 62.541V50.1465C1582.8 51.2598 1579.39 52.472 1577.56 53.7832C1575.73 55.0944 1574.81 56.8757 1574.81 59.127C1574.81 60.8835 1575.32 62.2812 1576.33 63.3203C1577.35 64.3346 1578.72 64.8418 1580.45 64.8418C1581.42 64.8418 1582.51 64.6562 1583.72 64.2852C1584.96 63.8893 1586.32 63.3079 1587.8 62.541ZM1587.8 65.6582C1585.23 67.4147 1582.89 68.6888 1580.79 69.4805C1578.68 70.2721 1576.67 70.668 1574.74 70.668C1571.82 70.668 1569.43 69.7526 1567.58 67.9219C1565.72 66.0664 1564.79 63.6914 1564.79 60.7969C1564.79 57.2344 1566.15 54.4883 1568.88 52.5586C1571.6 50.6289 1577.94 48.5384 1587.91 46.2871V44.0234C1587.91 41.2773 1587.33 39.2734 1586.17 38.0117C1585.01 36.75 1583.17 36.1191 1580.68 36.1191C1580.13 36.1191 1579.56 36.1562 1578.97 36.2305C1578.38 36.3047 1577.73 36.416 1577.04 36.5645V43.6895H1570.03C1568.81 43.6895 1567.92 43.4668 1567.35 43.0215C1566.81 42.5762 1566.54 41.8711 1566.54 40.9062C1566.54 38.5312 1568.13 36.4655 1571.32 34.709C1574.52 32.9525 1578.44 32.0742 1583.09 32.0742C1588.31 32.0742 1591.98 33.0762 1594.11 35.0801C1596.24 37.084 1597.3 40.5723 1597.3 45.5449V65.2129L1598.3 66.2891L1602.35 66.6602V70H1588.8L1587.8 65.6582Z" fill="black"/>
<path d="M1605.43 70V66.5859L1609.32 66.2891L1610.4 65.1387V38.9023H1605.21V35.8594L1616.15 32.2969H1619.83V36.7871C1622.72 35.179 1625.22 34.0039 1627.32 33.2617C1629.43 32.5195 1631.26 32.1484 1632.81 32.1484C1636.28 32.1484 1638.86 33.1875 1640.57 35.2656C1642.28 37.3438 1643.13 40.5104 1643.13 44.7656V65.1387L1644.13 66.2891L1648.14 66.5859V70H1629.55V66.5859L1632.81 66.2891L1633.85 65.1387V46.9551C1633.85 44.1348 1633.31 42.069 1632.22 40.7578C1631.13 39.4219 1629.4 38.7539 1627.03 38.7539C1626.11 38.7539 1625.05 38.8652 1623.83 39.0879C1622.65 39.3105 1621.31 39.6322 1619.83 40.0527V65.1387L1620.87 66.2891L1624.21 66.5859V70H1605.43Z" fill="black"/>
<path d="M1679.13 33.8926V44.0234H1674.56L1673.82 38.3086L1672.89 37.4551C1672.05 37.0592 1671.21 36.7624 1670.37 36.5645C1669.53 36.3665 1668.7 36.2676 1667.88 36.2676C1666.05 36.2676 1664.63 36.6758 1663.62 37.4922C1662.6 38.2839 1662.09 39.3971 1662.09 40.832C1662.09 42.0195 1662.49 43.0462 1663.28 43.9121C1664.07 44.778 1666.04 45.9779 1669.18 47.5117L1669.33 47.5859C1676.63 51.099 1680.28 54.6738 1680.28 58.3105C1680.28 62.1947 1678.89 65.2624 1676.12 67.5137C1673.38 69.7402 1669.59 70.8535 1664.77 70.8535C1662.89 70.8535 1660.89 70.6927 1658.79 70.3711C1656.71 70.0495 1654.52 69.5671 1652.22 68.9238V57.6797H1656.79L1657.68 64.2109L1658.46 65.0645C1659.45 65.584 1660.47 65.9798 1661.54 66.252C1662.6 66.5241 1663.7 66.6602 1664.84 66.6602C1666.84 66.6602 1668.41 66.1777 1669.55 65.2129C1670.72 64.2233 1671.3 62.875 1671.3 61.168C1671.3 59.0156 1669.11 56.9499 1664.73 54.9707C1663.24 54.3027 1662.09 53.7585 1661.28 53.3379C1658.14 51.7793 1655.92 50.2454 1654.63 48.7363C1653.37 47.2025 1652.74 45.3965 1652.74 43.3184C1652.74 39.929 1654.09 37.1953 1656.79 35.1172C1659.51 33.0391 1663.13 32 1667.66 32C1669.59 32 1671.51 32.1608 1673.41 32.4824C1675.32 32.7793 1677.22 33.2493 1679.13 33.8926Z" fill="black"/>
<path d="M1734.79 62.7637V37.3809C1733.65 37.0098 1732.63 36.7376 1731.71 36.5645C1730.8 36.3665 1729.94 36.2676 1729.15 36.2676C1725.84 36.2676 1723.18 37.5788 1721.17 40.2012C1719.19 42.8236 1718.2 46.349 1718.2 50.7773C1718.2 54.9831 1719.11 58.2734 1720.91 60.6484C1722.72 63.0234 1725.22 64.2109 1728.41 64.2109C1729.25 64.2109 1730.19 64.0996 1731.23 63.877C1732.29 63.6296 1733.48 63.2585 1734.79 62.7637ZM1734.79 20.459H1729.22V17.416L1740.54 13.8535H1744.07V65.1387L1745.11 66.3633L1749 66.6602V70H1734.79V65.7324C1732.47 67.4395 1730.34 68.6888 1728.41 69.4805C1726.48 70.2721 1724.6 70.668 1722.77 70.668C1718.46 70.668 1714.93 68.9733 1712.15 65.584C1709.41 62.1699 1708.04 57.7663 1708.04 52.373C1708.04 46.3118 1709.84 41.401 1713.45 37.6406C1717.09 33.8802 1721.82 32 1727.63 32C1728.72 32 1729.86 32.0618 1731.04 32.1855C1732.23 32.3092 1733.48 32.4948 1734.79 32.7422V20.459Z" fill="black"/>
<path d="M1772.75 36.1191C1769.98 36.1191 1767.82 37.4427 1766.26 40.0898C1764.7 42.737 1763.92 46.4479 1763.92 51.2227C1763.92 56.0716 1764.69 59.8444 1766.22 62.541C1767.78 65.2376 1769.93 66.5859 1772.68 66.5859C1775.55 66.5859 1777.76 65.2747 1779.32 62.6523C1780.88 60.0299 1781.66 56.2943 1781.66 51.4453C1781.66 46.6211 1780.87 42.8607 1779.29 40.1641C1777.73 37.4674 1775.55 36.1191 1772.75 36.1191ZM1773.05 32.0742C1778.89 32.0742 1783.53 33.8431 1786.97 37.3809C1790.41 40.8939 1792.12 45.6562 1792.12 51.668C1792.12 57.3581 1790.33 61.9349 1786.74 65.3984C1783.16 68.862 1778.39 70.5938 1772.46 70.5938C1766.74 70.5938 1762.13 68.8496 1758.62 65.3613C1755.13 61.8483 1753.38 57.2344 1753.38 51.5195C1753.38 45.6562 1755.18 40.9557 1758.76 37.418C1762.35 33.8555 1767.11 32.0742 1773.05 32.0742Z" fill="black"/>
<path d="M1818.88 70V66.5859L1822.78 66.2891L1823.85 65.1387V38.9023H1818.66V35.8594L1829.61 32.2969H1833.28V36.7871C1836.17 35.179 1838.67 34.0039 1840.78 33.2617C1842.88 32.5195 1844.71 32.1484 1846.27 32.1484C1849.73 32.1484 1852.32 33.1875 1854.02 35.2656C1855.73 37.3438 1856.58 40.5104 1856.58 44.7656V65.1387L1857.59 66.2891L1861.59 66.5859V70H1843V66.5859L1846.27 66.2891L1847.31 65.1387V46.9551C1847.31 44.1348 1846.76 42.069 1845.67 40.7578C1844.59 39.4219 1842.85 38.7539 1840.48 38.7539C1839.56 38.7539 1838.5 38.8652 1837.29 39.0879C1836.1 39.3105 1834.76 39.6322 1833.28 40.0527V65.1387L1834.32 66.2891L1837.66 66.5859V70H1818.88Z" fill="black"/>
<path d="M1884.75 36.1191C1881.98 36.1191 1879.81 37.4427 1878.26 40.0898C1876.7 42.737 1875.92 46.4479 1875.92 51.2227C1875.92 56.0716 1876.68 59.8444 1878.22 62.541C1879.78 65.2376 1881.93 66.5859 1884.68 66.5859C1887.55 66.5859 1889.76 65.2747 1891.32 62.6523C1892.88 60.0299 1893.66 56.2943 1893.66 51.4453C1893.66 46.6211 1892.86 42.8607 1891.28 40.1641C1889.72 37.4674 1887.55 36.1191 1884.75 36.1191ZM1885.05 32.0742C1890.89 32.0742 1895.52 33.8431 1898.96 37.3809C1902.4 40.8939 1904.12 45.6562 1904.12 51.668C1904.12 57.3581 1902.33 61.9349 1898.74 65.3984C1895.15 68.862 1890.39 70.5938 1884.45 70.5938C1878.74 70.5938 1874.12 68.8496 1870.61 65.3613C1867.12 61.8483 1865.38 57.2344 1865.38 51.5195C1865.38 45.6562 1867.17 40.9557 1870.76 37.418C1874.35 33.8555 1879.11 32.0742 1885.05 32.0742Z" fill="black"/>
<path d="M1912.8 38.5312H1907.87V35.6367L1913.47 32.4453L1917.44 24.541H1922.23V33.9668H1933.47V38.5312H1922.23V57.457C1922.23 60.3021 1922.69 62.2441 1923.6 63.2832C1924.52 64.3223 1926.16 64.8418 1928.54 64.8418C1929.48 64.8418 1930.35 64.8047 1931.14 64.7305C1931.95 64.6315 1932.73 64.4954 1933.47 64.3223V67.959C1931.3 68.7507 1929.22 69.3568 1927.24 69.7773C1925.29 70.1732 1923.49 70.3711 1921.86 70.3711C1920.52 70.3711 1919.34 70.235 1918.3 69.9629C1917.28 69.6908 1916.37 69.2702 1915.55 68.7012C1914.54 68.0332 1913.82 67.2044 1913.4 66.2148C1913 65.2005 1912.8 63.3451 1912.8 60.6484V38.5312Z" fill="black"/>
<path d="M1113.47 133.854H1117.11V156.787C1120.15 155.13 1122.68 153.942 1124.71 153.225C1126.77 152.507 1128.56 152.148 1130.09 152.148C1133.61 152.148 1136.22 153.2 1137.92 155.303C1139.66 157.381 1140.52 160.535 1140.52 164.766V185.139L1141.52 186.289L1145.53 186.586V190H1126.9V186.586L1130.17 186.289L1131.24 185.139V166.955C1131.24 164.135 1130.69 162.069 1129.57 160.758C1128.49 159.422 1126.77 158.754 1124.42 158.754C1123.45 158.754 1122.36 158.865 1121.15 159.088C1119.96 159.311 1118.61 159.632 1117.11 160.053V185.139L1118.26 186.289L1121.6 186.586V190H1102.82V186.586L1106.71 186.289L1107.75 185.139V140.385H1102.22V137.416L1113.47 133.854Z" fill="black"/>
<path d="M1172.47 182.541V170.146C1167.48 171.26 1164.06 172.472 1162.23 173.783C1160.4 175.094 1159.48 176.876 1159.48 179.127C1159.48 180.883 1159.99 182.281 1161.01 183.32C1162.02 184.335 1163.39 184.842 1165.12 184.842C1166.09 184.842 1167.18 184.656 1168.39 184.285C1169.63 183.889 1170.99 183.308 1172.47 182.541ZM1172.47 185.658C1169.9 187.415 1167.56 188.689 1165.46 189.48C1163.36 190.272 1161.34 190.668 1159.41 190.668C1156.49 190.668 1154.1 189.753 1152.25 187.922C1150.39 186.066 1149.46 183.691 1149.46 180.797C1149.46 177.234 1150.83 174.488 1153.55 172.559C1156.27 170.629 1162.61 168.538 1172.58 166.287V164.023C1172.58 161.277 1172 159.273 1170.84 158.012C1169.68 156.75 1167.85 156.119 1165.35 156.119C1164.8 156.119 1164.23 156.156 1163.64 156.23C1163.05 156.305 1162.4 156.416 1161.71 156.564V163.689H1154.7C1153.49 163.689 1152.59 163.467 1152.03 163.021C1151.48 162.576 1151.21 161.871 1151.21 160.906C1151.21 158.531 1152.8 156.465 1156 154.709C1159.19 152.952 1163.11 152.074 1167.76 152.074C1172.98 152.074 1176.65 153.076 1178.78 155.08C1180.91 157.084 1181.97 160.572 1181.97 165.545V185.213L1182.97 186.289L1187.02 186.66V190H1173.47L1172.47 185.658Z" fill="black"/>
<path d="M1187.32 153.002H1206.61V156.49L1202.64 156.861L1201.83 157.863L1209.73 180.055L1218.38 157.938L1217.78 156.861L1213.92 156.49V153.002H1228.36V156.49L1223.94 157.01L1210.88 190H1204.02L1191.88 156.936L1187.32 156.49V153.002Z" fill="black"/>
<path d="M1254.22 166.584V165.768C1254.22 162.675 1253.66 160.312 1252.52 158.68C1251.38 157.022 1249.75 156.193 1247.62 156.193C1245.29 156.193 1243.43 157.121 1242.02 158.977C1240.61 160.807 1239.84 163.343 1239.71 166.584H1254.22ZM1264.21 180.574V186.215C1261.61 187.699 1258.99 188.812 1256.34 189.555C1253.69 190.297 1251.05 190.668 1248.4 190.668C1242.73 190.668 1238.18 188.924 1234.74 185.436C1231.33 181.947 1229.62 177.333 1229.62 171.594C1229.62 165.829 1231.37 161.129 1234.85 157.492C1238.37 153.831 1242.88 152 1248.4 152C1253.4 152 1257.28 153.509 1260.05 156.527C1262.82 159.521 1264.21 163.739 1264.21 169.182V170.629H1239.34V170.852C1239.34 175.181 1240.43 178.583 1242.61 181.057C1244.79 183.531 1247.78 184.768 1251.59 184.768C1253.59 184.768 1255.63 184.421 1257.71 183.729C1259.79 183.036 1261.96 181.984 1264.21 180.574Z" fill="black"/>
<path d="M1314.82 182.541V170.146C1309.83 171.26 1306.41 172.472 1304.58 173.783C1302.75 175.094 1301.84 176.876 1301.84 179.127C1301.84 180.883 1302.34 182.281 1303.36 183.32C1304.37 184.335 1305.74 184.842 1307.48 184.842C1308.44 184.842 1309.53 184.656 1310.74 184.285C1311.98 183.889 1313.34 183.308 1314.82 182.541ZM1314.82 185.658C1312.25 187.415 1309.91 188.689 1307.81 189.48C1305.71 190.272 1303.69 190.668 1301.76 190.668C1298.84 190.668 1296.46 189.753 1294.6 187.922C1292.74 186.066 1291.82 183.691 1291.82 180.797C1291.82 177.234 1293.18 174.488 1295.9 172.559C1298.62 170.629 1304.97 168.538 1314.94 166.287V164.023C1314.94 161.277 1314.35 159.273 1313.19 158.012C1312.03 156.75 1310.2 156.119 1307.7 156.119C1307.15 156.119 1306.59 156.156 1305.99 156.23C1305.4 156.305 1304.76 156.416 1304.06 156.564V163.689H1297.05C1295.84 163.689 1294.95 163.467 1294.38 163.021C1293.83 162.576 1293.56 161.871 1293.56 160.906C1293.56 158.531 1295.16 156.465 1298.35 154.709C1301.54 152.952 1305.46 152.074 1310.11 152.074C1315.33 152.074 1319.01 153.076 1321.13 155.08C1323.26 157.084 1324.32 160.572 1324.32 165.545V185.213L1325.33 186.289L1329.37 186.66V190H1315.83L1314.82 185.658Z" fill="black"/>
<path d="M1368.41 185.436C1369.23 185.609 1370.03 185.745 1370.82 185.844C1371.64 185.918 1372.46 185.955 1373.27 185.955C1376.69 185.955 1379.39 184.632 1381.4 181.984C1383.43 179.337 1384.44 175.775 1384.44 171.297C1384.44 167.314 1383.55 164.209 1381.77 161.982C1380.01 159.731 1377.56 158.605 1374.42 158.605C1373.61 158.605 1372.7 158.729 1371.71 158.977C1370.75 159.199 1369.65 159.558 1368.41 160.053V185.436ZM1353.97 206.662V203.137L1358.09 202.766L1359.13 201.615V158.902H1353.97V155.859L1365 152.297H1368.41V156.861C1370.81 155.204 1372.97 153.992 1374.9 153.225C1376.83 152.458 1378.68 152.074 1380.43 152.074C1384.57 152.074 1387.99 153.769 1390.71 157.158C1393.43 160.523 1394.79 164.803 1394.79 169.998C1394.79 176.084 1392.98 180.945 1389.34 184.582C1385.7 188.194 1380.8 190 1374.64 190C1373.61 190 1372.57 189.975 1371.53 189.926C1370.51 189.852 1369.49 189.753 1368.45 189.629L1368.41 201.764L1369.56 202.84L1374.27 203.137V206.662H1353.97Z" fill="black"/>
<path d="M1398.88 190V186.66L1403.29 186.215L1404.37 185.139V140.459H1398.88V137.416L1410.34 133.854H1413.68V184.99L1414.83 186.215L1419.25 186.66V190H1398.88Z" fill="black"/>
<path d="M1446.34 182.541V170.146C1441.34 171.26 1437.93 172.472 1436.1 173.783C1434.27 175.094 1433.35 176.876 1433.35 179.127C1433.35 180.883 1433.86 182.281 1434.87 183.32C1435.89 184.335 1437.26 184.842 1438.99 184.842C1439.96 184.842 1441.05 184.656 1442.26 184.285C1443.49 183.889 1444.86 183.308 1446.34 182.541ZM1446.34 185.658C1443.77 187.415 1441.43 188.689 1439.33 189.48C1437.22 190.272 1435.21 190.668 1433.28 190.668C1430.36 190.668 1427.97 189.753 1426.12 187.922C1424.26 186.066 1423.33 183.691 1423.33 180.797C1423.33 177.234 1424.69 174.488 1427.41 172.559C1430.14 170.629 1436.48 168.538 1446.45 166.287V164.023C1446.45 161.277 1445.87 159.273 1444.71 158.012C1443.54 156.75 1441.71 156.119 1439.21 156.119C1438.67 156.119 1438.1 156.156 1437.51 156.23C1436.91 156.305 1436.27 156.416 1435.58 156.564V163.689H1428.56C1427.35 163.689 1426.46 163.467 1425.89 163.021C1425.35 162.576 1425.08 161.871 1425.08 160.906C1425.08 158.531 1426.67 156.465 1429.86 154.709C1433.05 152.952 1436.98 152.074 1441.63 152.074C1446.85 152.074 1450.52 153.076 1452.65 155.08C1454.78 157.084 1455.84 160.572 1455.84 165.545V185.213L1456.84 186.289L1460.89 186.66V190H1447.34L1446.34 185.658Z" fill="black"/>
<path d="M1496.88 186.586C1494.38 187.947 1491.96 188.961 1489.61 189.629C1487.26 190.272 1484.9 190.594 1482.52 190.594C1477.08 190.594 1472.68 188.874 1469.31 185.436C1465.97 181.997 1464.3 177.494 1464.3 171.928C1464.3 166.163 1466.13 161.438 1469.79 157.752C1473.48 154.066 1478.18 152.223 1483.89 152.223C1487.63 152.223 1490.65 153.002 1492.95 154.561C1495.27 156.094 1496.44 158.074 1496.44 160.498C1496.44 162.007 1495.92 163.257 1494.88 164.246C1493.86 165.211 1492.57 165.693 1490.98 165.693C1490.12 165.693 1489.31 165.582 1488.57 165.359C1487.85 165.112 1487.16 164.741 1486.49 164.246V156.193C1486.07 156.094 1485.7 156.033 1485.38 156.008C1485.08 155.958 1484.81 155.934 1484.56 155.934C1481.74 155.934 1479.38 157.27 1477.47 159.941C1475.57 162.589 1474.62 165.965 1474.62 170.072C1474.62 174.575 1475.67 178.125 1477.77 180.723C1479.87 183.32 1482.73 184.619 1486.34 184.619C1487.98 184.619 1489.68 184.335 1491.46 183.766C1493.25 183.172 1495.05 182.306 1496.88 181.168V186.586Z" fill="black"/>
<path d="M1525.27 166.584V165.768C1525.27 162.675 1524.7 160.312 1523.56 158.68C1522.43 157.022 1520.79 156.193 1518.67 156.193C1516.34 156.193 1514.47 157.121 1513.06 158.977C1511.65 160.807 1510.89 163.343 1510.76 166.584H1525.27ZM1535.25 180.574V186.215C1532.66 187.699 1530.03 188.812 1527.39 189.555C1524.74 190.297 1522.09 190.668 1519.45 190.668C1513.78 190.668 1509.23 188.924 1505.79 185.436C1502.38 181.947 1500.67 177.333 1500.67 171.594C1500.67 165.829 1502.41 161.129 1505.9 157.492C1509.41 153.831 1513.93 152 1519.45 152C1524.44 152 1528.33 153.509 1531.1 156.527C1533.87 159.521 1535.25 163.739 1535.25 169.182V170.629H1510.39V170.852C1510.39 175.181 1511.48 178.583 1513.66 181.057C1515.83 183.531 1518.83 184.768 1522.64 184.768C1524.64 184.768 1526.68 184.421 1528.76 183.729C1530.84 183.036 1533 181.984 1535.25 180.574Z" fill="black"/>
<path d="M1566.2 158.531H1561.27V155.637L1566.87 152.445L1570.84 144.541H1575.63V153.967H1586.87V158.531H1575.63V177.457C1575.63 180.302 1576.09 182.244 1577 183.283C1577.92 184.322 1579.56 184.842 1581.94 184.842C1582.88 184.842 1583.74 184.805 1584.54 184.73C1585.35 184.632 1586.13 184.495 1586.87 184.322V187.959C1584.7 188.751 1582.62 189.357 1580.64 189.777C1578.68 190.173 1576.89 190.371 1575.26 190.371C1573.92 190.371 1572.73 190.235 1571.7 189.963C1570.68 189.691 1569.77 189.27 1568.95 188.701C1567.93 188.033 1567.22 187.204 1566.8 186.215C1566.4 185.201 1566.2 183.345 1566.2 180.648V158.531Z" fill="black"/>
<path d="M1609.25 156.119C1606.48 156.119 1604.31 157.443 1602.76 160.09C1601.2 162.737 1600.42 166.448 1600.42 171.223C1600.42 176.072 1601.18 179.844 1602.72 182.541C1604.28 185.238 1606.43 186.586 1609.18 186.586C1612.05 186.586 1614.26 185.275 1615.82 182.652C1617.38 180.03 1618.16 176.294 1618.16 171.445C1618.16 166.621 1617.36 162.861 1615.78 160.164C1614.22 157.467 1612.05 156.119 1609.25 156.119ZM1609.55 152.074C1615.39 152.074 1620.02 153.843 1623.46 157.381C1626.9 160.894 1628.62 165.656 1628.62 171.668C1628.62 177.358 1626.83 181.935 1623.24 185.398C1619.65 188.862 1614.89 190.594 1608.95 190.594C1603.24 190.594 1598.62 188.85 1595.11 185.361C1591.62 181.848 1589.88 177.234 1589.88 171.52C1589.88 165.656 1591.67 160.956 1595.26 157.418C1598.85 153.855 1603.61 152.074 1609.55 152.074Z" fill="black"/>
<path d="M1654.78 190V186.66L1659.2 186.215L1660.28 185.139V140.459H1654.78V137.416L1666.25 133.854H1669.59V184.99L1670.74 186.215L1675.16 186.66V190H1654.78Z" fill="black"/>
<path d="M1689.33 152.297H1693.01V185.139L1694.12 186.289L1698.39 186.586V190H1678.46V186.586L1682.58 186.289L1683.65 185.139V158.902H1678.64V155.859L1689.33 152.297ZM1688.52 134.967C1690.17 134.967 1691.53 135.499 1692.6 136.562C1693.66 137.602 1694.19 138.925 1694.19 140.533C1694.19 142.215 1693.66 143.601 1692.6 144.689C1691.56 145.753 1690.22 146.285 1688.59 146.285C1687.01 146.285 1685.68 145.753 1684.62 144.689C1683.56 143.626 1683.02 142.29 1683.02 140.682C1683.02 139.049 1683.54 137.688 1684.58 136.6C1685.65 135.511 1686.96 134.967 1688.52 134.967Z" fill="black"/>
<path d="M1698.98 153.002H1718.28V156.49L1714.31 156.861L1713.49 157.863L1721.39 180.055L1730.04 157.938L1729.45 156.861L1725.59 156.49V153.002H1740.02V156.49L1735.61 157.01L1722.54 190H1715.68L1703.54 156.936L1698.98 156.49V153.002Z" fill="black"/>
<path d="M1765.89 166.584V165.768C1765.89 162.675 1765.32 160.312 1764.18 158.68C1763.04 157.022 1761.41 156.193 1759.28 156.193C1756.96 156.193 1755.09 157.121 1753.68 158.977C1752.27 160.807 1751.5 163.343 1751.38 166.584H1765.89ZM1775.87 180.574V186.215C1773.27 187.699 1770.65 188.812 1768 189.555C1765.36 190.297 1762.71 190.668 1760.06 190.668C1754.4 190.668 1749.85 188.924 1746.41 185.436C1742.99 181.947 1741.29 177.333 1741.29 171.594C1741.29 165.829 1743.03 161.129 1746.52 157.492C1750.03 153.831 1754.55 152 1760.06 152C1765.06 152 1768.94 153.509 1771.71 156.527C1774.49 159.521 1775.87 163.739 1775.87 169.182V170.629H1751.01V170.852C1751.01 175.181 1752.1 178.583 1754.27 181.057C1756.45 183.531 1759.44 184.768 1763.25 184.768C1765.26 184.768 1767.3 184.421 1769.38 183.729C1771.46 183.036 1773.62 181.984 1775.87 180.574Z" fill="black"/>
<path d="M760.191 556.119C757.421 556.119 755.256 557.443 753.697 560.09C752.139 562.737 751.359 566.448 751.359 571.223C751.359 576.072 752.126 579.844 753.66 582.541C755.219 585.238 757.371 586.586 760.117 586.586C762.987 586.586 765.201 585.275 766.76 582.652C768.318 580.03 769.098 576.294 769.098 571.445C769.098 566.621 768.306 562.861 766.723 560.164C765.164 557.467 762.987 556.119 760.191 556.119ZM760.488 552.074C766.327 552.074 770.965 553.843 774.404 557.381C777.843 560.894 779.562 565.656 779.562 571.668C779.562 577.358 777.769 581.935 774.182 585.398C770.594 588.862 765.832 590.594 759.895 590.594C754.18 590.594 749.566 588.85 746.053 585.361C742.564 581.848 740.82 577.234 740.82 571.52C740.82 565.656 742.614 560.956 746.201 557.418C749.788 553.855 754.551 552.074 760.488 552.074Z" fill="black"/>
<path d="M784.201 590V586.512L788.023 586.141L789.1 584.916V558.531H784.201V555.637L789.1 553.373C789.1 549.687 789.73 546.471 790.992 543.725C792.279 540.979 794.221 538.641 796.818 536.711C798.204 535.697 799.676 534.917 801.234 534.373C802.818 533.804 804.413 533.52 806.021 533.52C808.199 533.52 809.93 534.027 811.217 535.041C812.528 536.055 813.184 537.404 813.184 539.086C813.184 540.125 812.8 541.053 812.033 541.869C811.291 542.661 810.202 543.304 808.768 543.799L801.383 537.268C800.393 538.282 799.651 539.754 799.156 541.684C798.661 543.613 798.414 545.988 798.414 548.809V549.402V553.967H808.768V558.531H798.414V584.99L799.639 586.141L804.723 586.512V590H784.201Z" fill="black"/>
<path d="M855.934 582.541V570.146C850.936 571.26 847.522 572.472 845.691 573.783C843.861 575.094 842.945 576.876 842.945 579.127C842.945 580.883 843.452 582.281 844.467 583.32C845.481 584.335 846.854 584.842 848.586 584.842C849.551 584.842 850.639 584.656 851.852 584.285C853.089 583.889 854.449 583.308 855.934 582.541ZM855.934 585.658C853.361 587.415 851.023 588.689 848.92 589.48C846.817 590.272 844.801 590.668 842.871 590.668C839.952 590.668 837.564 589.753 835.709 587.922C833.854 586.066 832.926 583.691 832.926 580.797C832.926 577.234 834.286 574.488 837.008 572.559C839.729 570.629 846.075 568.538 856.045 566.287V564.023C856.045 561.277 855.464 559.273 854.301 558.012C853.138 556.75 851.307 556.119 848.809 556.119C848.264 556.119 847.695 556.156 847.102 556.23C846.508 556.305 845.865 556.416 845.172 556.564V563.689H838.158C836.946 563.689 836.055 563.467 835.486 563.021C834.942 562.576 834.67 561.871 834.67 560.906C834.67 558.531 836.266 556.465 839.457 554.709C842.648 552.952 846.57 552.074 851.221 552.074C856.441 552.074 860.115 553.076 862.242 555.08C864.37 557.084 865.434 560.572 865.434 565.545V585.213L866.436 586.289L870.48 586.66V590H856.936L855.934 585.658Z" fill="black"/>
<path d="M872.967 590V586.66L877.383 586.215L878.459 585.139V540.459H872.967V537.416L884.434 533.854H887.773V584.99L888.924 586.215L893.34 586.66V590H872.967Z" fill="black"/>
<path d="M896.123 590V586.66L900.539 586.215L901.615 585.139V540.459H896.123V537.416L907.59 533.854H910.93V584.99L912.08 586.215L916.496 586.66V590H896.123Z" fill="black"/>
<path d="M961.844 556.119C959.073 556.119 956.908 557.443 955.35 560.09C953.791 562.737 953.012 566.448 953.012 571.223C953.012 576.072 953.779 579.844 955.312 582.541C956.871 585.238 959.023 586.586 961.77 586.586C964.639 586.586 966.854 585.275 968.412 582.652C969.971 580.03 970.75 576.294 970.75 571.445C970.75 566.621 969.958 562.861 968.375 560.164C966.816 557.467 964.639 556.119 961.844 556.119ZM962.141 552.074C967.979 552.074 972.618 553.843 976.057 557.381C979.495 560.894 981.215 565.656 981.215 571.668C981.215 577.358 979.421 581.935 975.834 585.398C972.247 588.862 967.484 590.594 961.547 590.594C955.832 590.594 951.218 588.85 947.705 585.361C944.217 581.848 942.473 577.234 942.473 571.52C942.473 565.656 944.266 560.956 947.854 557.418C951.441 553.855 956.203 552.074 962.141 552.074Z" fill="black"/>
<path d="M985.705 590V586.586L989.75 586.289L990.826 585.139V558.902H985.334V555.859L996.504 552.297H1000.18L999.844 560.053C1001.15 558.667 1002.55 557.331 1004.04 556.045C1005.52 554.734 1007.08 553.497 1008.71 552.334C1009.13 552.26 1009.47 552.21 1009.71 552.186C1009.99 552.161 1010.22 552.148 1010.42 552.148C1011.24 552.148 1012.05 552.26 1012.87 552.482C1013.71 552.68 1014.56 553.002 1015.43 553.447L1014.46 563.949H1010.49C1009.93 563.009 1009.23 562.316 1008.42 561.871C1007.62 561.426 1006.67 561.203 1005.56 561.203C1004.92 561.203 1004.14 561.389 1003.22 561.76C1002.33 562.106 1001.32 562.626 1000.18 563.318V585.139L1001.29 586.289L1006.71 586.586V590H985.705Z" fill="black"/>
<path d="M1031.68 585.436C1032.5 585.609 1033.3 585.745 1034.1 585.844C1034.91 585.918 1035.73 585.955 1036.54 585.955C1039.96 585.955 1042.67 584.632 1044.67 581.984C1046.7 579.337 1047.71 575.775 1047.71 571.297C1047.71 567.314 1046.82 564.209 1045.04 561.982C1043.29 559.731 1040.84 558.605 1037.7 558.605C1036.88 558.605 1035.98 558.729 1034.99 558.977C1034.02 559.199 1032.92 559.558 1031.68 560.053V585.436ZM1017.25 606.662V603.137L1021.37 602.766L1022.41 601.615V558.902H1017.25V555.859L1028.27 552.297H1031.68V556.861C1034.08 555.204 1036.25 553.992 1038.18 553.225C1040.11 552.458 1041.95 552.074 1043.71 552.074C1047.84 552.074 1051.26 553.769 1053.99 557.158C1056.71 560.523 1058.07 564.803 1058.07 569.998C1058.07 576.084 1056.25 580.945 1052.61 584.582C1048.98 588.194 1044.08 590 1037.92 590C1036.88 590 1035.84 589.975 1034.8 589.926C1033.79 589.852 1032.76 589.753 1031.72 589.629L1031.68 601.764L1032.83 602.84L1037.55 603.137V606.662H1017.25Z" fill="black"/>
<path d="M1072.88 533.854H1076.51V556.787C1079.55 555.13 1082.09 553.942 1084.12 553.225C1086.17 552.507 1087.97 552.148 1089.5 552.148C1093.01 552.148 1095.62 553.2 1097.33 555.303C1099.06 557.381 1099.93 560.535 1099.93 564.766V585.139L1100.93 586.289L1104.94 586.586V590H1086.31V586.586L1089.57 586.289L1090.65 585.139V566.955C1090.65 564.135 1090.09 562.069 1088.98 560.758C1087.89 559.422 1086.17 558.754 1083.82 558.754C1082.86 558.754 1081.77 558.865 1080.56 559.088C1079.37 559.311 1078.02 559.632 1076.51 560.053V585.139L1077.66 586.289L1081 586.586V590H1062.22V586.586L1066.12 586.289L1067.16 585.139V540.385H1061.63V537.416L1072.88 533.854Z" fill="black"/>
<path d="M1131.88 582.541V570.146C1126.88 571.26 1123.47 572.472 1121.64 573.783C1119.81 575.094 1118.89 576.876 1118.89 579.127C1118.89 580.883 1119.4 582.281 1120.41 583.32C1121.43 584.335 1122.8 584.842 1124.53 584.842C1125.5 584.842 1126.58 584.656 1127.8 584.285C1129.03 583.889 1130.39 583.308 1131.88 582.541ZM1131.88 585.658C1129.31 587.415 1126.97 588.689 1124.87 589.48C1122.76 590.272 1120.75 590.668 1118.82 590.668C1115.9 590.668 1113.51 589.753 1111.65 587.922C1109.8 586.066 1108.87 583.691 1108.87 580.797C1108.87 577.234 1110.23 574.488 1112.95 572.559C1115.67 570.629 1122.02 568.538 1131.99 566.287V564.023C1131.99 561.277 1131.41 559.273 1130.25 558.012C1129.08 556.75 1127.25 556.119 1124.75 556.119C1124.21 556.119 1123.64 556.156 1123.05 556.23C1122.45 556.305 1121.81 556.416 1121.12 556.564V563.689H1114.1C1112.89 563.689 1112 563.467 1111.43 563.021C1110.89 562.576 1110.62 561.871 1110.62 560.906C1110.62 558.531 1112.21 556.465 1115.4 554.709C1118.59 552.952 1122.51 552.074 1127.17 552.074C1132.39 552.074 1136.06 553.076 1138.19 555.08C1140.32 557.084 1141.38 560.572 1141.38 565.545V585.213L1142.38 586.289L1146.43 586.66V590H1132.88L1131.88 585.658Z" fill="black"/>
<path d="M1149.51 590V586.586L1153.4 586.289L1154.48 585.139V558.902H1149.28V555.859L1160.23 552.297H1163.9V556.787C1166.8 555.179 1169.3 554.004 1171.4 553.262C1173.5 552.52 1175.33 552.148 1176.89 552.148C1180.36 552.148 1182.94 553.188 1184.65 555.266C1186.36 557.344 1187.21 560.51 1187.21 564.766V585.139L1188.21 586.289L1192.22 586.586V590H1173.63V586.586L1176.89 586.289L1177.93 585.139V566.955C1177.93 564.135 1177.39 562.069 1176.3 560.758C1175.21 559.422 1173.48 558.754 1171.1 558.754C1170.19 558.754 1169.12 558.865 1167.91 559.088C1166.72 559.311 1165.39 559.632 1163.9 560.053V585.139L1164.94 586.289L1168.28 586.586V590H1149.51Z" fill="black"/>
<path d="M1223.21 553.893V564.023H1218.64L1217.9 558.309L1216.97 557.455C1216.13 557.059 1215.29 556.762 1214.45 556.564C1213.61 556.367 1212.78 556.268 1211.96 556.268C1210.13 556.268 1208.71 556.676 1207.69 557.492C1206.68 558.284 1206.17 559.397 1206.17 560.832C1206.17 562.02 1206.57 563.046 1207.36 563.912C1208.15 564.778 1210.12 565.978 1213.26 567.512L1213.41 567.586C1220.71 571.099 1224.36 574.674 1224.36 578.311C1224.36 582.195 1222.97 585.262 1220.2 587.514C1217.45 589.74 1213.67 590.854 1208.84 590.854C1206.96 590.854 1204.97 590.693 1202.87 590.371C1200.79 590.049 1198.6 589.567 1196.3 588.924V577.68H1200.87L1201.76 584.211L1202.54 585.064C1203.52 585.584 1204.55 585.98 1205.62 586.252C1206.68 586.524 1207.78 586.66 1208.92 586.66C1210.92 586.66 1212.49 586.178 1213.63 585.213C1214.79 584.223 1215.38 582.875 1215.38 581.168C1215.38 579.016 1213.19 576.95 1208.81 574.971C1207.32 574.303 1206.17 573.758 1205.36 573.338C1202.21 571.779 1200 570.245 1198.71 568.736C1197.45 567.202 1196.82 565.396 1196.82 563.318C1196.82 559.929 1198.17 557.195 1200.87 555.117C1203.59 553.039 1207.21 552 1211.74 552C1213.67 552 1215.59 552.161 1217.49 552.482C1219.4 552.779 1221.3 553.249 1223.21 553.893Z" fill="black"/>
<path d="M740.338 710V706.512L744.16 706.141L745.236 704.916V678.531H740.338V675.637L745.236 673.373C745.236 669.687 745.867 666.471 747.129 663.725C748.415 660.979 750.357 658.641 752.955 656.711C754.34 655.697 755.812 654.917 757.371 654.373C758.954 653.804 760.55 653.52 762.158 653.52C764.335 653.52 766.067 654.027 767.354 655.041C768.665 656.055 769.32 657.404 769.32 659.086C769.32 660.125 768.937 661.053 768.17 661.869C767.428 662.661 766.339 663.304 764.904 663.799L757.52 657.268C756.53 658.282 755.788 659.754 755.293 661.684C754.798 663.613 754.551 665.988 754.551 668.809V669.402V673.967H764.904V678.531H754.551V704.99L755.775 706.141L760.859 706.512V710H740.338Z" fill="black"/>
<path d="M777.039 672.297H780.713V705.139L781.826 706.289L786.094 706.586V710H766.166V706.586L770.285 706.289L771.361 705.139V678.902H766.352V675.859L777.039 672.297ZM776.223 654.967C777.88 654.967 779.241 655.499 780.305 656.562C781.368 657.602 781.9 658.925 781.9 660.533C781.9 662.215 781.368 663.601 780.305 664.689C779.266 665.753 777.93 666.285 776.297 666.285C774.714 666.285 773.39 665.753 772.326 664.689C771.262 663.626 770.73 662.29 770.73 660.682C770.73 659.049 771.25 657.688 772.289 656.6C773.353 655.511 774.664 654.967 776.223 654.967Z" fill="black"/>
<path d="M793.516 678.531H788.58V675.637L794.184 672.445L798.154 664.541H802.941V673.967H814.186V678.531H802.941V697.457C802.941 700.302 803.399 702.244 804.314 703.283C805.23 704.322 806.875 704.842 809.25 704.842C810.19 704.842 811.056 704.805 811.848 704.73C812.664 704.632 813.443 704.495 814.186 704.322V707.959C812.008 708.751 809.93 709.357 807.951 709.777C805.997 710.173 804.203 710.371 802.57 710.371C801.234 710.371 800.047 710.235 799.008 709.963C797.993 709.691 797.078 709.27 796.262 708.701C795.247 708.033 794.53 707.204 794.109 706.215C793.714 705.201 793.516 703.345 793.516 700.648V678.531Z" fill="black"/>
<path d="M849.625 672.297H853.299V705.139L854.412 706.289L858.68 706.586V710H838.752V706.586L842.871 706.289L843.947 705.139V678.902H838.938V675.859L849.625 672.297ZM848.809 654.967C850.466 654.967 851.827 655.499 852.891 656.562C853.954 657.602 854.486 658.925 854.486 660.533C854.486 662.215 853.954 663.601 852.891 664.689C851.852 665.753 850.516 666.285 848.883 666.285C847.299 666.285 845.976 665.753 844.912 664.689C843.848 663.626 843.316 662.29 843.316 660.682C843.316 659.049 843.836 657.688 844.875 656.6C845.939 655.511 847.25 654.967 848.809 654.967Z" fill="black"/>
<path d="M862.057 710V706.586L865.953 706.289L867.029 705.139V678.902H861.834V675.859L872.781 672.297H876.455V676.787C879.35 675.179 881.848 674.004 883.951 673.262C886.054 672.52 887.885 672.148 889.443 672.148C892.907 672.148 895.492 673.188 897.199 675.266C898.906 677.344 899.76 680.51 899.76 684.766V705.139L900.762 706.289L904.77 706.586V710H886.178V706.586L889.443 706.289L890.482 705.139V686.955C890.482 684.135 889.938 682.069 888.85 680.758C887.761 679.422 886.029 678.754 883.654 678.754C882.739 678.754 881.675 678.865 880.463 679.088C879.275 679.311 877.939 679.632 876.455 680.053V705.139L877.494 706.289L880.834 706.586V710H862.057Z" fill="black"/>
<path d="M945.775 663.354L945.812 683.17C946.134 683.195 946.48 683.219 946.852 683.244C947.247 683.244 947.804 683.244 948.521 683.244C952.628 683.244 955.659 682.415 957.613 680.758C959.568 679.1 960.545 676.54 960.545 673.076C960.545 669.91 959.58 667.497 957.65 665.84C955.721 664.182 952.938 663.354 949.301 663.354H945.775ZM930.189 659.012H953.309C959.147 659.012 963.576 660.113 966.594 662.314C969.637 664.516 971.158 667.745 971.158 672C971.158 675.488 970.057 678.333 967.855 680.535C965.654 682.712 962.4 684.197 958.096 684.988C959.976 685.434 961.559 686.04 962.846 686.807C964.157 687.549 965.233 688.514 966.074 689.701C967.138 691.235 968.202 693.758 969.266 697.271C969.785 698.929 970.193 700.154 970.49 700.945C971.257 702.949 972.271 704.347 973.533 705.139C974.82 705.906 976.799 706.289 979.471 706.289H980.436V709.926C979.025 710.124 977.677 710.272 976.391 710.371C975.129 710.47 973.941 710.52 972.828 710.52C971.27 710.52 969.798 710.322 968.412 709.926C967.051 709.505 965.889 708.924 964.924 708.182C962.623 706.4 960.817 703.469 959.506 699.387C959.333 698.818 959.197 698.372 959.098 698.051C957.663 693.721 956.117 690.901 954.459 689.59C952.801 688.254 950.34 687.586 947.074 687.586H945.775V704.693L947 705.881L951.639 706.289V710H930.189V706.289L934.68 705.881L935.904 704.693V664.17L934.68 663.094L930.189 662.723V659.012Z" fill="black"/>
<path d="M988.562 672.074H992.199V695.639C992.199 698.657 992.756 700.834 993.869 702.17C995.007 703.481 996.863 704.137 999.436 704.137C1000.3 704.137 1001.25 704.05 1002.29 703.877C1003.36 703.679 1004.58 703.37 1005.97 702.949V678.68H1001.03V675.637L1011.83 672.074H1015.32V705.139L1016.36 706.289L1020.33 706.586V710H1005.97V705.807C1003.32 707.538 1000.98 708.788 998.953 709.555C996.949 710.297 995.032 710.668 993.201 710.668C989.688 710.668 987.066 709.604 985.334 707.477C983.627 705.349 982.773 702.083 982.773 697.68V678.68H977.838V675.637L988.562 672.074Z" fill="black"/>
<path d="M1051.76 673.893V684.023H1047.2L1046.45 678.309L1045.53 677.455C1044.68 677.059 1043.84 676.762 1043 676.564C1042.16 676.367 1041.33 676.268 1040.52 676.268C1038.68 676.268 1037.26 676.676 1036.25 677.492C1035.23 678.284 1034.73 679.397 1034.73 680.832C1034.73 682.02 1035.12 683.046 1035.91 683.912C1036.71 684.778 1038.67 685.978 1041.81 687.512L1041.96 687.586C1049.26 691.099 1052.91 694.674 1052.91 698.311C1052.91 702.195 1051.52 705.262 1048.75 707.514C1046.01 709.74 1042.22 710.854 1037.4 710.854C1035.52 710.854 1033.53 710.693 1031.42 710.371C1029.35 710.049 1027.16 709.567 1024.86 708.924V697.68H1029.42L1030.31 704.211L1031.09 705.064C1032.08 705.584 1033.11 705.98 1034.17 706.252C1035.23 706.524 1036.33 706.66 1037.47 706.66C1039.48 706.66 1041.05 706.178 1042.19 705.213C1043.35 704.223 1043.93 702.875 1043.93 701.168C1043.93 699.016 1041.74 696.95 1037.36 694.971C1035.88 694.303 1034.73 693.758 1033.91 693.338C1030.77 691.779 1028.55 690.245 1027.27 688.736C1026.01 687.202 1025.38 685.396 1025.38 683.318C1025.38 679.929 1026.72 677.195 1029.42 675.117C1032.14 673.039 1035.77 672 1040.29 672C1042.22 672 1044.14 672.161 1046.04 672.482C1047.95 672.779 1049.85 673.249 1051.76 673.893Z" fill="black"/>
<path d="M1085.75 673.893V684.023H1081.19L1080.45 678.309L1079.52 677.455C1078.68 677.059 1077.84 676.762 1076.99 676.564C1076.15 676.367 1075.32 676.268 1074.51 676.268C1072.68 676.268 1071.25 676.676 1070.24 677.492C1069.23 678.284 1068.72 679.397 1068.72 680.832C1068.72 682.02 1069.11 683.046 1069.91 683.912C1070.7 684.778 1072.66 685.978 1075.81 687.512L1075.96 687.586C1083.25 691.099 1086.9 694.674 1086.9 698.311C1086.9 702.195 1085.52 705.262 1082.75 707.514C1080 709.74 1076.21 710.854 1071.39 710.854C1069.51 710.854 1067.52 710.693 1065.42 710.371C1063.34 710.049 1061.15 709.567 1058.85 708.924V697.68H1063.41L1064.3 704.211L1065.08 705.064C1066.07 705.584 1067.1 705.98 1068.16 706.252C1069.23 706.524 1070.33 706.66 1071.46 706.66C1073.47 706.66 1075.04 706.178 1076.18 705.213C1077.34 704.223 1077.92 702.875 1077.92 701.168C1077.92 699.016 1075.73 696.95 1071.35 694.971C1069.87 694.303 1068.72 693.758 1067.9 693.338C1064.76 691.779 1062.55 690.245 1061.26 688.736C1060 687.202 1059.37 685.396 1059.37 683.318C1059.37 679.929 1060.72 677.195 1063.41 675.117C1066.13 673.039 1069.76 672 1074.29 672C1076.21 672 1078.13 672.161 1080.04 672.482C1081.94 672.779 1083.85 673.249 1085.75 673.893Z" fill="black"/>
<path d="M1102.86 672.297H1106.53V705.139L1107.65 706.289L1111.91 706.586V710H1091.99V706.586L1096.11 706.289L1097.18 705.139V678.902H1092.17V675.859L1102.86 672.297ZM1102.04 654.967C1103.7 654.967 1105.06 655.499 1106.12 656.562C1107.19 657.602 1107.72 658.925 1107.72 660.533C1107.72 662.215 1107.19 663.601 1106.12 664.689C1105.09 665.753 1103.75 666.285 1102.12 666.285C1100.53 666.285 1099.21 665.753 1098.15 664.689C1097.08 663.626 1096.55 662.29 1096.55 660.682C1096.55 659.049 1097.07 657.688 1098.11 656.6C1099.17 655.511 1100.48 654.967 1102.04 654.967Z" fill="black"/>
<path d="M1139 702.541V690.146C1134.01 691.26 1130.59 692.472 1128.76 693.783C1126.93 695.094 1126.02 696.876 1126.02 699.127C1126.02 700.883 1126.52 702.281 1127.54 703.32C1128.55 704.335 1129.92 704.842 1131.66 704.842C1132.62 704.842 1133.71 704.656 1134.92 704.285C1136.16 703.889 1137.52 703.308 1139 702.541ZM1139 705.658C1136.43 707.415 1134.09 708.689 1131.99 709.48C1129.89 710.272 1127.87 710.668 1125.94 710.668C1123.02 710.668 1120.63 709.753 1118.78 707.922C1116.92 706.066 1116 703.691 1116 700.797C1116 697.234 1117.36 694.488 1120.08 692.559C1122.8 690.629 1129.15 688.538 1139.12 686.287V684.023C1139.12 681.277 1138.53 679.273 1137.37 678.012C1136.21 676.75 1134.38 676.119 1131.88 676.119C1131.33 676.119 1130.77 676.156 1130.17 676.23C1129.58 676.305 1128.93 676.416 1128.24 676.564V683.689H1121.23C1120.02 683.689 1119.13 683.467 1118.56 683.021C1118.01 682.576 1117.74 681.871 1117.74 680.906C1117.74 678.531 1119.34 676.465 1122.53 674.709C1125.72 672.952 1129.64 672.074 1134.29 672.074C1139.51 672.074 1143.18 673.076 1145.31 675.08C1147.44 677.084 1148.5 680.572 1148.5 685.545V705.213L1149.51 706.289L1153.55 706.66V710H1140.01L1139 705.658Z" fill="black"/>
<path d="M1156.63 710V706.586L1160.53 706.289L1161.6 705.139V678.902H1156.41V675.859L1167.36 672.297H1171.03V676.787C1173.92 675.179 1176.42 674.004 1178.53 673.262C1180.63 672.52 1182.46 672.148 1184.02 672.148C1187.48 672.148 1190.07 673.188 1191.77 675.266C1193.48 677.344 1194.33 680.51 1194.33 684.766V705.139L1195.34 706.289L1199.34 706.586V710H1180.75V706.586L1184.02 706.289L1185.06 705.139V686.955C1185.06 684.135 1184.51 682.069 1183.42 680.758C1182.34 679.422 1180.6 678.754 1178.23 678.754C1177.31 678.754 1176.25 678.865 1175.04 679.088C1173.85 679.311 1172.51 679.632 1171.03 680.053V705.139L1172.07 706.289L1175.41 706.586V710H1156.63Z" fill="black"/>
<path d="M1252.45 673.893V684.023H1247.88L1247.14 678.309L1246.21 677.455C1245.37 677.059 1244.53 676.762 1243.69 676.564C1242.85 676.367 1242.02 676.268 1241.2 676.268C1239.37 676.268 1237.95 676.676 1236.94 677.492C1235.92 678.284 1235.41 679.397 1235.41 680.832C1235.41 682.02 1235.81 683.046 1236.6 683.912C1237.39 684.778 1239.36 685.978 1242.5 687.512L1242.65 687.586C1249.95 691.099 1253.6 694.674 1253.6 698.311C1253.6 702.195 1252.21 705.262 1249.44 707.514C1246.7 709.74 1242.91 710.854 1238.09 710.854C1236.21 710.854 1234.21 710.693 1232.11 710.371C1230.03 710.049 1227.84 709.567 1225.54 708.924V697.68H1230.11L1231 704.211L1231.78 705.064C1232.77 705.584 1233.79 705.98 1234.86 706.252C1235.92 706.524 1237.02 706.66 1238.16 706.66C1240.16 706.66 1241.74 706.178 1242.87 705.213C1244.04 704.223 1244.62 702.875 1244.62 701.168C1244.62 699.016 1242.43 696.95 1238.05 694.971C1236.56 694.303 1235.41 693.758 1234.6 693.338C1231.46 691.779 1229.24 690.245 1227.96 688.736C1226.69 687.202 1226.06 685.396 1226.06 683.318C1226.06 679.929 1227.41 677.195 1230.11 675.117C1232.83 673.039 1236.45 672 1240.98 672C1242.91 672 1244.83 672.161 1246.73 672.482C1248.64 672.779 1250.54 673.249 1252.45 673.893Z" fill="black"/>
<path d="M1278.61 676.119C1275.84 676.119 1273.67 677.443 1272.12 680.09C1270.56 682.737 1269.78 686.448 1269.78 691.223C1269.78 696.072 1270.54 699.844 1272.08 702.541C1273.64 705.238 1275.79 706.586 1278.54 706.586C1281.4 706.586 1283.62 705.275 1285.18 702.652C1286.74 700.03 1287.52 696.294 1287.52 691.445C1287.52 686.621 1286.72 682.861 1285.14 680.164C1283.58 677.467 1281.4 676.119 1278.61 676.119ZM1278.91 672.074C1284.74 672.074 1289.38 673.843 1292.82 677.381C1296.26 680.894 1297.98 685.656 1297.98 691.668C1297.98 697.358 1296.19 701.935 1292.6 705.398C1289.01 708.862 1284.25 710.594 1278.31 710.594C1272.6 710.594 1267.98 708.85 1264.47 705.361C1260.98 701.848 1259.24 697.234 1259.24 691.52C1259.24 685.656 1261.03 680.956 1264.62 677.418C1268.21 673.855 1272.97 672.074 1278.91 672.074Z" fill="black"/>
<path d="M1335.54 706.586C1333.04 707.947 1330.61 708.961 1328.26 709.629C1325.91 710.272 1323.55 710.594 1321.17 710.594C1315.73 710.594 1311.33 708.874 1307.96 705.436C1304.62 701.997 1302.95 697.494 1302.95 691.928C1302.95 686.163 1304.78 681.438 1308.45 677.752C1312.13 674.066 1316.83 672.223 1322.55 672.223C1326.28 672.223 1329.3 673.002 1331.6 674.561C1333.93 676.094 1335.09 678.074 1335.09 680.498C1335.09 682.007 1334.57 683.257 1333.53 684.246C1332.52 685.211 1331.22 685.693 1329.63 685.693C1328.77 685.693 1327.96 685.582 1327.22 685.359C1326.51 685.112 1325.81 684.741 1325.14 684.246V676.193C1324.72 676.094 1324.35 676.033 1324.03 676.008C1323.73 675.958 1323.46 675.934 1323.21 675.934C1320.39 675.934 1318.03 677.27 1316.13 679.941C1314.22 682.589 1313.27 685.965 1313.27 690.072C1313.27 694.575 1314.32 698.125 1316.42 700.723C1318.53 703.32 1321.38 704.619 1325 704.619C1326.63 704.619 1328.34 704.335 1330.12 703.766C1331.9 703.172 1333.7 702.306 1335.54 701.168V706.586Z" fill="black"/>
<path d="M1349.64 672.297H1353.31V705.139L1354.42 706.289L1358.69 706.586V710H1338.76V706.586L1342.88 706.289L1343.96 705.139V678.902H1338.95V675.859L1349.64 672.297ZM1348.82 654.967C1350.48 654.967 1351.84 655.499 1352.9 656.562C1353.97 657.602 1354.5 658.925 1354.5 660.533C1354.5 662.215 1353.97 663.601 1352.9 664.689C1351.86 665.753 1350.53 666.285 1348.89 666.285C1347.31 666.285 1345.99 665.753 1344.92 664.689C1343.86 663.626 1343.33 662.29 1343.33 660.682C1343.33 659.049 1343.85 657.688 1344.89 656.6C1345.95 655.511 1347.26 654.967 1348.82 654.967Z" fill="black"/>
<path d="M1387.15 686.584V685.768C1387.15 682.675 1386.59 680.312 1385.45 678.68C1384.31 677.022 1382.68 676.193 1380.55 676.193C1378.22 676.193 1376.36 677.121 1374.95 678.977C1373.54 680.807 1372.77 683.343 1372.64 686.584H1387.15ZM1397.14 700.574V706.215C1394.54 707.699 1391.92 708.812 1389.27 709.555C1386.62 710.297 1383.98 710.668 1381.33 710.668C1375.66 710.668 1371.11 708.924 1367.67 705.436C1364.26 701.947 1362.55 697.333 1362.55 691.594C1362.55 685.829 1364.29 681.129 1367.78 677.492C1371.3 673.831 1375.81 672 1381.33 672C1386.33 672 1390.21 673.509 1392.98 676.527C1395.75 679.521 1397.14 683.739 1397.14 689.182V690.629H1372.27V690.852C1372.27 695.181 1373.36 698.583 1375.54 701.057C1377.72 703.531 1380.71 704.768 1384.52 704.768C1386.52 704.768 1388.56 704.421 1390.64 703.729C1392.72 703.036 1394.89 701.984 1397.14 700.574Z" fill="black"/>
<path d="M1405.97 678.531H1401.03V675.637L1406.64 672.445L1410.61 664.541H1415.39V673.967H1426.64V678.531H1415.39V697.457C1415.39 700.302 1415.85 702.244 1416.77 703.283C1417.68 704.322 1419.33 704.842 1421.7 704.842C1422.64 704.842 1423.51 704.805 1424.3 704.73C1425.12 704.632 1425.9 704.495 1426.64 704.322V707.959C1424.46 708.751 1422.38 709.357 1420.4 709.777C1418.45 710.173 1416.66 710.371 1415.02 710.371C1413.69 710.371 1412.5 710.235 1411.46 709.963C1410.45 709.691 1409.53 709.27 1408.71 708.701C1407.7 708.033 1406.98 707.204 1406.56 706.215C1406.17 705.201 1405.97 703.345 1405.97 700.648V678.531Z" fill="black"/>
<path d="M1426.53 673.076H1445.82V676.342L1441.96 676.787L1441.19 677.863L1449.39 699.35L1457.66 677.938L1456.99 676.787L1452.99 676.342V673.076H1467.57V676.342L1463.45 677.01L1448.79 712.672C1446.99 717.026 1444.82 720.44 1442.3 722.914C1439.78 725.413 1437.23 726.662 1434.65 726.662C1432.87 726.662 1431.34 726.093 1430.05 724.955C1428.77 723.842 1428.12 722.531 1428.12 721.021C1428.12 719.933 1428.46 718.919 1429.12 717.979C1429.82 717.063 1430.79 716.284 1432.06 715.641L1438.66 720.168C1439.7 719.352 1440.72 718.152 1441.71 716.568C1442.72 715.01 1443.68 713.13 1444.6 710.928L1431.09 677.01L1426.53 676.342V673.076Z" fill="black"/>
</svg>
