<svg width="952" height="191" viewBox="0 0 952 191" fill="none" xmlns="http://www.w3.org/2000/svg">
<path d="M18.5698 36.1182C17.5405 37.9951 16.7686 39.7207 16.2539 41.2949C15.7695 42.8691 15.5273 44.3374 15.5273 45.6997C15.5273 49.3628 16.6777 52.481 18.9785 55.0542C21.3096 57.5972 24.125 58.8687 27.4248 58.8687C30.0889 58.8687 32.3291 58.0664 34.1455 56.4619C35.9922 54.8574 36.9155 52.9048 36.9155 50.604C36.9155 48.1821 35.6743 45.957 33.1919 43.9287C30.7397 41.8701 25.8657 39.2666 18.5698 36.1182ZM38.0054 30.3511C43.1519 32.2886 46.8149 34.5288 48.9946 37.0718C51.1743 39.5845 52.2642 42.8237 52.2642 46.7896C52.2642 52.6021 49.918 57.1582 45.2256 60.458C40.5635 63.7578 34.1001 65.4077 25.8354 65.4077C18.2368 65.4077 12.1519 63.7427 7.58057 60.4126C3.00928 57.0825 0.723633 52.6929 0.723633 47.2437C0.723633 43.6714 1.81348 40.75 3.99316 38.4795C6.17285 36.1787 9.39697 34.5742 13.6655 33.666C10.1235 32.0312 7.48975 30.0029 5.76416 27.5811C4.06885 25.1592 3.22119 22.2983 3.22119 18.9985C3.22119 13.2163 5.46143 8.66016 9.94189 5.33008C14.4224 1.96973 20.5527 0.289551 28.333 0.289551C34.9023 0.289551 40.1396 1.81836 44.0449 4.87598C47.9502 7.90332 49.9028 11.96 49.9028 17.0459C49.9028 19.9521 48.8887 22.5405 46.8604 24.811C44.8623 27.0513 41.9106 28.8979 38.0054 30.3511ZM33.0103 27.8081C33.9185 26.3247 34.5845 24.8716 35.0083 23.4487C35.4624 22.0259 35.6895 20.5728 35.6895 19.0894C35.6895 15.396 34.8418 12.4443 33.1465 10.2344C31.4512 8.02441 29.1958 6.91943 26.3804 6.91943C24.2612 6.91943 22.5205 7.66113 21.1582 9.14453C19.7959 10.5977 19.1147 12.4897 19.1147 14.8208C19.1147 17.3335 20.1743 19.5889 22.2935 21.5869C24.4126 23.585 27.9849 25.6587 33.0103 27.8081Z" fill="#B10007"/>
<path d="M65.7056 1.60645H106.983V13.5947H74.9692V26.5366C77.4517 25.6587 79.8281 25.0078 82.0986 24.584C84.3691 24.1299 86.5488 23.9028 88.6377 23.9028C95.3887 23.9028 100.823 25.6284 104.94 29.0796C109.087 32.5308 111.161 37.0718 111.161 42.7026C111.161 49.5444 108.527 54.9937 103.26 59.0503C97.9922 63.1069 90.8628 65.1353 81.8716 65.1353C75.7866 65.1353 70.8521 63.9849 67.0679 61.6841C63.2837 59.353 61.3916 56.4014 61.3916 52.8291C61.3916 50.377 62.2241 48.3486 63.8892 46.7441C65.5542 45.1094 67.6733 44.292 70.2466 44.292C71.064 44.292 71.9419 44.3828 72.8804 44.5645C73.8188 44.7461 74.8633 45.0186 76.0137 45.3818L78.7837 58.4146C78.8745 58.4146 79.0259 58.4297 79.2378 58.46C80.1157 58.5508 80.7817 58.5962 81.2358 58.5962C85.2017 58.5962 88.4561 57.3701 90.999 54.918C93.542 52.4658 94.8135 49.3174 94.8135 45.4727C94.8135 41.749 93.3452 38.7368 90.4087 36.436C87.4722 34.105 83.5972 32.9395 78.7837 32.9395C76.7856 32.9395 74.6968 33.1362 72.5171 33.5298C70.3374 33.8931 68.0669 34.438 65.7056 35.1646V1.60645Z" fill="#B10007"/>
<path d="M176.688 6.51074C173.57 6.51074 171.254 8.66016 169.74 12.959C168.257 17.2275 167.515 23.7969 167.515 32.667C167.515 41.8398 168.242 48.5151 169.695 52.6929C171.178 56.8706 173.509 58.9595 176.688 58.9595C179.927 58.9595 182.289 56.8706 183.772 52.6929C185.255 48.5151 185.997 41.8398 185.997 32.667C185.997 23.6152 185.24 17.0005 183.727 12.8228C182.243 8.61475 179.897 6.51074 176.688 6.51074ZM176.597 0.471191C184.771 0.471191 191.219 3.34717 195.942 9.09912C200.665 14.8511 203.026 22.7373 203.026 32.7578C203.026 42.7783 200.665 50.6797 195.942 56.4619C191.219 62.2441 184.771 65.1353 176.597 65.1353C168.544 65.1353 162.187 62.2593 157.525 56.5073C152.893 50.7251 150.577 42.8086 150.577 32.7578C150.577 22.7373 152.893 14.8511 157.525 9.09912C162.157 3.34717 168.514 0.471191 176.597 0.471191Z" fill="#B10007"/>
<path d="M236.629 6.51074C233.511 6.51074 231.195 8.66016 229.682 12.959C228.198 17.2275 227.457 23.7969 227.457 32.667C227.457 41.8398 228.183 48.5151 229.636 52.6929C231.12 56.8706 233.451 58.9595 236.629 58.9595C239.869 58.9595 242.23 56.8706 243.713 52.6929C245.197 48.5151 245.938 41.8398 245.938 32.667C245.938 23.6152 245.182 17.0005 243.668 12.8228C242.185 8.61475 239.838 6.51074 236.629 6.51074ZM236.539 0.471191C244.712 0.471191 251.161 3.34717 255.883 9.09912C260.606 14.8511 262.967 22.7373 262.967 32.7578C262.967 42.7783 260.606 50.6797 255.883 56.4619C251.161 62.2441 244.712 65.1353 236.539 65.1353C228.486 65.1353 222.128 62.2593 217.466 56.5073C212.834 50.7251 210.519 42.8086 210.519 32.7578C210.519 22.7373 212.834 14.8511 217.466 9.09912C222.098 3.34717 228.456 0.471191 236.539 0.471191Z" fill="#B10007"/>
<path d="M296.571 6.51074C293.453 6.51074 291.137 8.66016 289.623 12.959C288.14 17.2275 287.398 23.7969 287.398 32.667C287.398 41.8398 288.125 48.5151 289.578 52.6929C291.061 56.8706 293.392 58.9595 296.571 58.9595C299.81 58.9595 302.171 56.8706 303.655 52.6929C305.138 48.5151 305.88 41.8398 305.88 32.667C305.88 23.6152 305.123 17.0005 303.609 12.8228C302.126 8.61475 299.78 6.51074 296.571 6.51074ZM296.48 0.471191C304.654 0.471191 311.102 3.34717 315.825 9.09912C320.547 14.8511 322.909 22.7373 322.909 32.7578C322.909 42.7783 320.547 50.6797 315.825 56.4619C311.102 62.2441 304.654 65.1353 296.48 65.1353C288.427 65.1353 282.07 62.2593 277.408 56.5073C272.776 50.7251 270.46 42.8086 270.46 32.7578C270.46 22.7373 272.776 14.8511 277.408 9.09912C282.04 3.34717 288.397 0.471191 296.48 0.471191Z" fill="#B10007"/>
<path d="M361.535 18.4385C361.814 18.4977 362.09 18.5443 362.36 18.5781C362.64 18.6035 362.919 18.6162 363.198 18.6162C364.366 18.6162 365.293 18.1634 365.979 17.2578C366.673 16.3522 367.02 15.1335 367.02 13.6016C367.02 12.2389 366.715 11.1768 366.105 10.415C365.505 9.64486 364.667 9.25977 363.592 9.25977C363.312 9.25977 363.004 9.30208 362.665 9.38672C362.335 9.46289 361.958 9.58561 361.535 9.75488V18.4385ZM356.597 25.7002V24.4941L358.006 24.3672L358.361 23.9736V9.36133H356.597V8.32031L360.367 7.10156H361.535V8.66309C362.356 8.09603 363.097 7.68132 363.757 7.41895C364.417 7.15658 365.048 7.02539 365.648 7.02539C367.062 7.02539 368.234 7.60514 369.165 8.76465C370.096 9.91569 370.562 11.3799 370.562 13.1572C370.562 15.2393 369.939 16.9023 368.695 18.1465C367.451 19.3822 365.775 20 363.668 20C363.312 20 362.957 19.9915 362.602 19.9746C362.255 19.9492 361.903 19.9154 361.548 19.873L361.535 24.0244L361.929 24.3926L363.541 24.4941V25.7002H356.597Z" fill="black"/>
<path d="M379.207 8.40918C378.259 8.40918 377.519 8.86198 376.985 9.76758C376.452 10.6732 376.186 11.9427 376.186 13.5762C376.186 15.235 376.448 16.5257 376.973 17.4482C377.506 18.3708 378.242 18.832 379.182 18.832C380.163 18.832 380.921 18.3835 381.454 17.4863C381.987 16.5892 382.254 15.3112 382.254 13.6523C382.254 12.002 381.983 10.7155 381.441 9.79297C380.908 8.87044 380.163 8.40918 379.207 8.40918ZM379.309 7.02539C381.306 7.02539 382.893 7.63053 384.069 8.84082C385.246 10.0426 385.834 11.6719 385.834 13.7285C385.834 15.6751 385.22 17.2409 383.993 18.4258C382.766 19.6107 381.137 20.2031 379.105 20.2031C377.15 20.2031 375.572 19.6064 374.37 18.4131C373.177 17.2113 372.58 15.6328 372.58 13.6777C372.58 11.6719 373.194 10.0638 374.421 8.85352C375.648 7.63477 377.277 7.02539 379.309 7.02539Z" fill="black"/>
<path d="M398.936 18.832C398.081 19.2975 397.251 19.6445 396.447 19.873C395.643 20.0931 394.835 20.2031 394.022 20.2031C392.16 20.2031 390.654 19.6149 389.503 18.4385C388.36 17.262 387.789 15.7217 387.789 13.8174C387.789 11.8454 388.415 10.2288 389.668 8.96777C390.929 7.70671 392.537 7.07617 394.492 7.07617C395.77 7.07617 396.803 7.34277 397.59 7.87598C398.385 8.40072 398.783 9.0778 398.783 9.90723C398.783 10.4235 398.605 10.8509 398.25 11.1895C397.903 11.5195 397.459 11.6846 396.917 11.6846C396.621 11.6846 396.346 11.6465 396.092 11.5703C395.846 11.4857 395.609 11.3587 395.381 11.1895V8.43457C395.237 8.40072 395.11 8.37956 395 8.37109C394.898 8.35417 394.805 8.3457 394.721 8.3457C393.756 8.3457 392.948 8.80273 392.296 9.7168C391.644 10.6224 391.318 11.7777 391.318 13.1826C391.318 14.723 391.678 15.9375 392.397 16.8262C393.117 17.7148 394.094 18.1592 395.33 18.1592C395.889 18.1592 396.473 18.0618 397.082 17.8672C397.691 17.6641 398.309 17.3678 398.936 16.9785V18.832Z" fill="black"/>
<path d="M411.326 18.832C410.471 19.2975 409.642 19.6445 408.838 19.873C408.034 20.0931 407.226 20.2031 406.413 20.2031C404.551 20.2031 403.045 19.6149 401.894 18.4385C400.751 17.262 400.18 15.7217 400.18 13.8174C400.18 11.8454 400.806 10.2288 402.059 8.96777C403.32 7.70671 404.928 7.07617 406.883 7.07617C408.161 7.07617 409.193 7.34277 409.98 7.87598C410.776 8.40072 411.174 9.0778 411.174 9.90723C411.174 10.4235 410.996 10.8509 410.641 11.1895C410.294 11.5195 409.849 11.6846 409.308 11.6846C409.011 11.6846 408.736 11.6465 408.482 11.5703C408.237 11.4857 408 11.3587 407.771 11.1895V8.43457C407.628 8.40072 407.501 8.37956 407.391 8.37109C407.289 8.35417 407.196 8.3457 407.111 8.3457C406.146 8.3457 405.338 8.80273 404.687 9.7168C404.035 10.6224 403.709 11.7777 403.709 13.1826C403.709 14.723 404.069 15.9375 404.788 16.8262C405.507 17.7148 406.485 18.1592 407.721 18.1592C408.279 18.1592 408.863 18.0618 409.473 17.8672C410.082 17.6641 410.7 17.3678 411.326 16.9785V18.832Z" fill="black"/>
<path d="M412.38 18.832L413.764 18.7051L414.132 18.3369V9.00586L413.764 8.6377L412.38 8.51074V7.34277H419.02V8.51074L417.687 8.6377L417.318 9.00586V15.4297L422.625 9.62793V9.00586L422.27 8.6377L420.937 8.51074V7.34277H427.563V8.51074L426.192 8.6377L425.824 9.00586V18.3369L426.192 18.7051L427.563 18.832V20H420.937V18.832L422.27 18.7051L422.625 18.3369V11.71L417.318 17.499V18.3369L417.687 18.7051L419.02 18.832V20H412.38V18.832Z" fill="black"/>
<path d="M429.036 18.832L430.42 18.7051L430.788 18.3369V9.00586L430.42 8.6377L429.036 8.51074V7.34277H435.676V8.51074L434.343 8.6377L433.975 9.00586V15.4297L439.281 9.62793V9.00586L438.926 8.6377L437.593 8.51074V7.34277H444.22V8.51074L442.849 8.6377L442.48 9.00586V18.3369L442.849 18.7051L444.22 18.832V20H437.593V18.832L438.926 18.7051L439.281 18.3369V11.71L433.975 17.499V18.3369L434.343 18.7051L435.676 18.832V20H429.036V18.832ZM434.698 3.82617C435.121 4.05469 435.481 4.1901 435.777 4.23242C436.082 4.27474 436.366 4.2959 436.628 4.2959C436.924 4.2959 437.229 4.26628 437.542 4.20703C437.855 4.14779 438.194 4.02083 438.558 3.82617V1.98535C438.71 1.79069 438.888 1.64258 439.091 1.54102C439.302 1.43945 439.565 1.38867 439.878 1.38867C440.335 1.38867 440.703 1.50293 440.982 1.73145C441.27 1.95996 441.414 2.30273 441.414 2.75977C441.414 3.57227 440.987 4.24089 440.132 4.76562C439.285 5.2819 438.118 5.54004 436.628 5.54004C435.13 5.54004 433.958 5.2819 433.111 4.76562C432.265 4.24935 431.842 3.58073 431.842 2.75977C431.842 2.30273 431.981 1.95996 432.261 1.73145C432.549 1.50293 432.921 1.38867 433.378 1.38867C433.691 1.38867 433.949 1.43945 434.152 1.54102C434.364 1.64258 434.546 1.79069 434.698 1.98535V3.82617Z" fill="black"/>
<path d="M457.029 18.832C456.174 19.2975 455.345 19.6445 454.541 19.873C453.737 20.0931 452.929 20.2031 452.116 20.2031C450.254 20.2031 448.748 19.6149 447.597 18.4385C446.454 17.262 445.883 15.7217 445.883 13.8174C445.883 11.8454 446.509 10.2288 447.762 8.96777C449.023 7.70671 450.631 7.07617 452.586 7.07617C453.864 7.07617 454.896 7.34277 455.684 7.87598C456.479 8.40072 456.877 9.0778 456.877 9.90723C456.877 10.4235 456.699 10.8509 456.344 11.1895C455.997 11.5195 455.552 11.6846 455.011 11.6846C454.715 11.6846 454.439 11.6465 454.186 11.5703C453.94 11.4857 453.703 11.3587 453.475 11.1895V8.43457C453.331 8.40072 453.204 8.37956 453.094 8.37109C452.992 8.35417 452.899 8.3457 452.814 8.3457C451.85 8.3457 451.041 8.80273 450.39 9.7168C449.738 10.6224 449.412 11.7777 449.412 13.1826C449.412 14.723 449.772 15.9375 450.491 16.8262C451.211 17.7148 452.188 18.1592 453.424 18.1592C453.982 18.1592 454.566 18.0618 455.176 17.8672C455.785 17.6641 456.403 17.3678 457.029 16.9785V18.832Z" fill="black"/>
<path d="M458.083 18.832L459.467 18.7051L459.835 18.3369V9.00586L459.467 8.6377L458.083 8.51074V7.34277H464.723V8.51074L463.39 8.6377L463.021 9.00586V12.6621H464.481C464.896 12.6621 465.222 12.5436 465.459 12.3066C465.696 12.0612 465.891 11.7565 466.043 11.3926L466.881 9.55176C467.042 9.18783 467.215 8.85775 467.401 8.56152C467.588 8.25684 467.791 7.9987 468.011 7.78711C468.239 7.57552 468.485 7.41471 468.747 7.30469C469.018 7.1862 469.314 7.12695 469.636 7.12695C469.797 7.12695 469.991 7.14811 470.22 7.19043C470.457 7.22428 470.681 7.30469 470.893 7.43164C471.104 7.55013 471.282 7.72786 471.426 7.96484C471.578 8.20182 471.654 8.52344 471.654 8.92969C471.654 9.32747 471.54 9.69564 471.312 10.0342C471.091 10.3812 470.723 10.5843 470.207 10.6436L468.569 9.55176C468.476 9.65332 468.404 9.76335 468.354 9.88184C468.303 9.99186 468.243 10.1146 468.176 10.25L467.401 12.0146C467.291 12.2432 467.143 12.4801 466.957 12.7256C466.779 12.9626 466.5 13.153 466.119 13.2969V13.3477C466.745 13.4408 467.262 13.6904 467.668 14.0967C467.88 14.3083 468.066 14.5156 468.227 14.7188C468.387 14.9219 468.527 15.1292 468.646 15.3408L470.207 18.3369L470.613 18.6543L472.022 18.832V20H467.033V19.1621L465.522 15.3154C465.404 15.0023 465.192 14.7272 464.888 14.4902C464.583 14.2448 464.215 14.1221 463.783 14.1221H463.021V18.3369L463.39 18.7051L464.723 18.832V20H458.083V18.832Z" fill="black"/>
<path d="M472.759 18.832L474.143 18.7051L474.511 18.3369V9.00586L474.143 8.6377L472.759 8.51074V7.34277H479.398V8.51074L478.065 8.6377L477.697 9.00586V15.4297L483.004 9.62793V9.00586L482.648 8.6377L481.315 8.51074V7.34277H487.942V8.51074L486.571 8.6377L486.203 9.00586V18.3369L486.571 18.7051L487.942 18.832V20H481.315V18.832L482.648 18.7051L483.004 18.3369V11.71L477.697 17.499V18.3369L478.065 18.7051L479.398 18.832V20H472.759V18.832Z" fill="black"/>
<path d="M489.06 7.34277H495.318V8.43457L494.328 8.58691L494.201 8.86621L496.283 11.9639L498.543 8.71387L497.223 8.48535V7.34277H502.009V8.53613L500.574 8.71387L497.248 13.0303L501.12 18.6162L502.491 18.8574V20H496.41V18.9844L497.324 18.7559L497.426 18.4893L495.141 15.0107L492.69 18.5908L494.023 18.8574V20H488.983V18.8574L490.507 18.5654L494.15 13.9189L490.532 8.73926L489.06 8.53613V7.34277Z" fill="black"/>
<path d="M522.131 18.832C521.276 19.2975 520.447 19.6445 519.643 19.873C518.839 20.0931 518.03 20.2031 517.218 20.2031C515.356 20.2031 513.849 19.6149 512.698 18.4385C511.556 17.262 510.984 15.7217 510.984 13.8174C510.984 11.8454 511.611 10.2288 512.863 8.96777C514.124 7.70671 515.732 7.07617 517.688 7.07617C518.965 7.07617 519.998 7.34277 520.785 7.87598C521.581 8.40072 521.979 9.0778 521.979 9.90723C521.979 10.4235 521.801 10.8509 521.445 11.1895C521.098 11.5195 520.654 11.6846 520.112 11.6846C519.816 11.6846 519.541 11.6465 519.287 11.5703C519.042 11.4857 518.805 11.3587 518.576 11.1895V8.43457C518.432 8.40072 518.305 8.37956 518.195 8.37109C518.094 8.35417 518.001 8.3457 517.916 8.3457C516.951 8.3457 516.143 8.80273 515.491 9.7168C514.84 10.6224 514.514 11.7777 514.514 13.1826C514.514 14.723 514.873 15.9375 515.593 16.8262C516.312 17.7148 517.29 18.1592 518.525 18.1592C519.084 18.1592 519.668 18.0618 520.277 17.8672C520.887 17.6641 521.505 17.3678 522.131 16.9785V18.832Z" fill="black"/>
<path d="M523.185 18.832L524.568 18.7051L524.937 18.3369V9.00586L524.568 8.6377L523.185 8.51074V7.34277H529.824V8.51074L528.491 8.6377L528.123 9.00586V15.4297L533.43 9.62793V9.00586L533.074 8.6377L531.741 8.51074V7.34277H538.368V8.51074L536.997 8.6377L536.629 9.00586V18.3369L536.997 18.7051L538.368 18.832V20H531.741V18.832L533.074 18.7051L533.43 18.3369V11.71L528.123 17.499V18.3369L528.491 18.7051L529.824 18.832V20H523.185V18.832Z" fill="black"/>
<path d="M544.652 18.4385C544.932 18.4977 545.207 18.5443 545.478 18.5781C545.757 18.6035 546.036 18.6162 546.315 18.6162C547.483 18.6162 548.41 18.1634 549.096 17.2578C549.79 16.3522 550.137 15.1335 550.137 13.6016C550.137 12.2389 549.832 11.1768 549.223 10.415C548.622 9.64486 547.784 9.25977 546.709 9.25977C546.43 9.25977 546.121 9.30208 545.782 9.38672C545.452 9.46289 545.076 9.58561 544.652 9.75488V18.4385ZM539.714 25.7002V24.4941L541.123 24.3672L541.479 23.9736V9.36133H539.714V8.32031L543.484 7.10156H544.652V8.66309C545.473 8.09603 546.214 7.68132 546.874 7.41895C547.534 7.15658 548.165 7.02539 548.766 7.02539C550.179 7.02539 551.351 7.60514 552.282 8.76465C553.213 9.91569 553.679 11.3799 553.679 13.1572C553.679 15.2393 553.057 16.9023 551.812 18.1465C550.568 19.3822 548.893 20 546.785 20C546.43 20 546.074 19.9915 545.719 19.9746C545.372 19.9492 545.021 19.9154 544.665 19.873L544.652 24.0244L545.046 24.3926L546.658 24.4941V25.7002H539.714Z" fill="black"/>
<path d="M562.324 8.40918C561.376 8.40918 560.636 8.86198 560.103 9.76758C559.569 10.6732 559.303 11.9427 559.303 13.5762C559.303 15.235 559.565 16.5257 560.09 17.4482C560.623 18.3708 561.359 18.832 562.299 18.832C563.281 18.832 564.038 18.3835 564.571 17.4863C565.104 16.5892 565.371 15.3112 565.371 13.6523C565.371 12.002 565.1 10.7155 564.559 9.79297C564.025 8.87044 563.281 8.40918 562.324 8.40918ZM562.426 7.02539C564.423 7.02539 566.01 7.63053 567.187 8.84082C568.363 10.0426 568.951 11.6719 568.951 13.7285C568.951 15.6751 568.338 17.2409 567.11 18.4258C565.883 19.6107 564.254 20.2031 562.223 20.2031C560.268 20.2031 558.689 19.6064 557.487 18.4131C556.294 17.2113 555.697 15.6328 555.697 13.6777C555.697 11.6719 556.311 10.0638 557.538 8.85352C558.765 7.63477 560.395 7.02539 562.426 7.02539Z" fill="black"/>
<path d="M573.064 18.832L574.562 18.7051L574.931 18.3369V8.79004H572.772L572.379 9.20898L572.074 11.8115H570.31V7.34277H582.764V11.8115H580.986L580.682 9.20898L580.288 8.79004H578.13V18.3369L578.523 18.7051L579.996 18.832V20H573.064V18.832Z" fill="black"/>
<path d="M356.724 58.832L358.107 58.7051L358.476 58.3369V49.0059L358.107 48.6377L356.724 48.5107V47.3428H363.363V48.5107L362.03 48.6377L361.662 49.0059V52.6621H366.613V49.0059L366.245 48.6377L364.912 48.5107V47.3428H371.552V48.5107L370.168 48.6377L369.8 49.0059V58.3369L370.168 58.7051L371.552 58.832V60H364.912V58.832L366.245 58.7051L366.613 58.3369V54.1221H361.662V58.3369L362.03 58.7051L363.363 58.832V60H356.724V58.832Z" fill="black"/>
<path d="M381.657 51.9893V51.71C381.657 50.652 381.463 49.8438 381.073 49.2852C380.684 48.7181 380.125 48.4346 379.397 48.4346C378.602 48.4346 377.963 48.752 377.48 49.3867C376.998 50.013 376.736 50.8805 376.693 51.9893H381.657ZM385.072 56.7754V58.7051C384.184 59.2129 383.286 59.5938 382.381 59.8477C381.475 60.1016 380.57 60.2285 379.664 60.2285C377.726 60.2285 376.169 59.6318 374.992 58.4385C373.824 57.2451 373.24 55.6667 373.24 53.7031C373.24 51.7311 373.837 50.123 375.03 48.8789C376.232 47.6263 377.777 47 379.664 47C381.374 47 382.702 47.5163 383.65 48.5488C384.598 49.5729 385.072 51.016 385.072 52.8779V53.373H376.566V53.4492C376.566 54.9303 376.939 56.0941 377.684 56.9404C378.428 57.7868 379.452 58.21 380.756 58.21C381.441 58.21 382.14 58.0915 382.851 57.8545C383.562 57.6175 384.302 57.2578 385.072 56.7754Z" fill="black"/>
<path d="M394.2 58.832L395.584 58.7051L395.952 58.3369V49.0059L395.584 48.6377L394.2 48.5107V47.3428H400.84V48.5107L399.507 48.6377L399.139 49.0059V55.4297L404.445 49.6279V49.0059L404.09 48.6377L402.757 48.5107V47.3428H409.384V48.5107L408.013 48.6377L407.645 49.0059V58.3369L408.013 58.7051L409.384 58.832V60H402.757V58.832L404.09 58.7051L404.445 58.3369V51.71L399.139 57.499V58.3369L399.507 58.7051L400.84 58.832V60H394.2V58.832Z" fill="black"/>
<path d="M416.684 47.3428V47.9648L419.629 56.1025L422.562 47.9648V47.3428H428.389V48.5107L427.005 48.6377L426.637 49.0059V58.3369L427.005 58.7051L428.389 58.832V60H421.838V58.832L423.209 58.7051L423.577 58.3369V49.209H423.526L419.591 60H418.347L414.322 49.209H414.271V58.3369L414.627 58.7051L416.011 58.832V60H410.856V58.832L412.24 58.7051L412.608 58.3369V49.0059L412.24 48.6377L410.856 48.5107V47.3428H416.684Z" fill="black"/>
<path d="M438.507 51.9893V51.71C438.507 50.652 438.312 49.8438 437.923 49.2852C437.534 48.7181 436.975 48.4346 436.247 48.4346C435.451 48.4346 434.812 48.752 434.33 49.3867C433.848 50.013 433.585 50.8805 433.543 51.9893H438.507ZM441.922 56.7754V58.7051C441.033 59.2129 440.136 59.5938 439.23 59.8477C438.325 60.1016 437.419 60.2285 436.514 60.2285C434.576 60.2285 433.018 59.6318 431.842 58.4385C430.674 57.2451 430.09 55.6667 430.09 53.7031C430.09 51.7311 430.687 50.123 431.88 48.8789C433.082 47.6263 434.626 47 436.514 47C438.223 47 439.552 47.5163 440.5 48.5488C441.448 49.5729 441.922 51.016 441.922 52.8779V53.373H433.416V53.4492C433.416 54.9303 433.788 56.0941 434.533 56.9404C435.278 57.7868 436.302 58.21 437.605 58.21C438.291 58.21 438.989 58.0915 439.7 57.8545C440.411 57.6175 441.152 57.2578 441.922 56.7754Z" fill="black"/>
<path d="M443.483 58.832L444.867 58.7051L445.235 58.3369V49.0059L444.867 48.6377L443.483 48.5107V47.3428H450.123V48.5107L448.79 48.6377L448.422 49.0059V52.6621H451.164C451.266 51.7311 451.503 50.9144 451.875 50.2119C452.247 49.501 452.721 48.9128 453.297 48.4473C453.881 47.9733 454.549 47.6178 455.303 47.3809C456.064 47.1439 456.885 47.0254 457.766 47.0254C458.714 47.0254 459.577 47.1735 460.355 47.4697C461.143 47.766 461.815 48.1976 462.374 48.7646C462.941 49.3232 463.381 50.013 463.694 50.834C464.007 51.6549 464.164 52.5859 464.164 53.627C464.164 54.7695 463.974 55.7598 463.593 56.5977C463.22 57.4271 462.721 58.1126 462.095 58.6543C461.477 59.1875 460.77 59.5853 459.975 59.8477C459.179 60.1016 458.362 60.2285 457.524 60.2285C456.602 60.2285 455.76 60.0889 454.998 59.8096C454.236 59.5218 453.576 59.1156 453.018 58.5908C452.459 58.0576 452.019 57.4144 451.697 56.6611C451.376 55.9079 451.198 55.0615 451.164 54.1221H448.422V58.3369L448.79 58.7051L450.123 58.832V60H443.483V58.832ZM457.55 48.4346C457.22 48.4346 456.928 48.4854 456.674 48.5869C456.428 48.6885 456.213 48.8154 456.026 48.9678C455.84 49.1201 455.688 49.2852 455.569 49.4629C455.451 49.6406 455.358 49.8057 455.29 49.958C455.121 50.305 454.96 50.7663 454.808 51.3418C454.664 51.9173 454.592 52.6706 454.592 53.6016C454.592 53.9316 454.604 54.2744 454.63 54.6299C454.655 54.9854 454.698 55.3366 454.757 55.6836C454.825 56.0221 454.909 56.3522 455.011 56.6738C455.112 56.987 455.239 57.2705 455.392 57.5244C455.569 57.8206 455.76 58.0534 455.963 58.2227C456.166 58.3919 456.365 58.5231 456.56 58.6162C456.754 58.7093 456.936 58.7686 457.105 58.7939C457.283 58.8193 457.431 58.832 457.55 58.832C457.736 58.832 457.939 58.8066 458.159 58.7559C458.379 58.7051 458.599 58.612 458.819 58.4766C459.048 58.3411 459.268 58.1549 459.479 57.918C459.691 57.681 459.877 57.3721 460.038 56.9912C460.199 56.6104 460.326 56.1533 460.419 55.6201C460.521 55.0785 460.571 54.4395 460.571 53.7031C460.563 53.0853 460.516 52.4632 460.432 51.8369C460.355 51.2106 460.207 50.6436 459.987 50.1357C459.767 49.6279 459.463 49.2174 459.073 48.9043C458.684 48.5827 458.176 48.4261 457.55 48.4346Z" fill="black"/>
<path d="M468.455 58.832L469.953 58.7051L470.321 58.3369V48.79H468.163L467.77 49.209L467.465 51.8115H465.7V47.3428H478.154V51.8115H476.377L476.072 49.209L475.679 48.79H473.521V58.3369L473.914 58.7051L475.387 58.832V60H468.455V58.832Z" fill="black"/>
<path d="M492.843 58.832L494.163 58.7051L494.531 58.3369V54.1221H493.744C493.363 54.1221 493.05 54.2321 492.805 54.4521C492.568 54.6722 492.39 54.96 492.271 55.3154L490.913 59.1621V60H486.025V58.832L487.435 58.6543L487.841 58.3369L489.199 55.3408C489.284 55.1631 489.385 54.9727 489.504 54.7695C489.622 54.5664 489.771 54.3717 489.948 54.1855C490.126 53.9909 490.338 53.8174 490.583 53.665C490.837 53.5042 491.146 53.3815 491.51 53.2969V53.2461C491.467 53.2292 491.408 53.1953 491.332 53.1445C491.264 53.0938 491.175 53.0345 491.065 52.9668C490.854 52.8229 490.655 52.5055 490.469 52.0146L489.796 50.25C489.745 50.1146 489.694 50.0003 489.644 49.9072C489.593 49.8057 489.521 49.6872 489.428 49.5518L487.79 50.6436C487.274 50.5843 486.901 50.3812 486.673 50.0342C486.453 49.6872 486.343 49.319 486.343 48.9297C486.343 48.5404 486.415 48.2272 486.559 47.9902C486.702 47.7533 486.88 47.5713 487.092 47.4443C487.303 47.3174 487.528 47.2327 487.765 47.1904C488.002 47.1481 488.217 47.127 488.412 47.127C489.021 47.127 489.534 47.3258 489.948 47.7236C490.363 48.1214 490.735 48.7308 491.065 49.5518L491.802 51.3926C491.937 51.748 492.068 52.002 492.195 52.1543C492.331 52.3066 492.415 52.3997 492.449 52.4336C492.534 52.5182 492.652 52.5986 492.805 52.6748C492.965 52.7425 493.152 52.7764 493.363 52.7764H494.531V49.0059L494.163 48.6377L492.843 48.5107V47.3428H499.229V48.5107L497.908 48.6377L497.54 49.0059V52.7764H498.708C498.92 52.7764 499.102 52.7425 499.254 52.6748C499.415 52.5986 499.537 52.5182 499.622 52.4336C499.656 52.3997 499.736 52.3066 499.863 52.1543C499.999 52.002 500.134 51.748 500.27 51.3926L501.006 49.5518C501.336 48.7308 501.708 48.1214 502.123 47.7236C502.538 47.3258 503.05 47.127 503.659 47.127C503.845 47.127 504.057 47.1481 504.294 47.1904C504.539 47.2327 504.768 47.3174 504.979 47.4443C505.191 47.5713 505.369 47.7533 505.513 47.9902C505.657 48.2272 505.729 48.5404 505.729 48.9297C505.729 49.3275 505.614 49.6956 505.386 50.0342C505.166 50.3812 504.798 50.5843 504.281 50.6436L502.644 49.5518C502.55 49.6872 502.479 49.8057 502.428 49.9072C502.377 50.0003 502.326 50.1146 502.275 50.25L501.603 52.0146C501.408 52.514 501.205 52.8314 500.993 52.9668C500.892 53.0345 500.803 53.0938 500.727 53.1445C500.659 53.1953 500.604 53.2292 500.562 53.2461V53.2969C500.925 53.3815 501.23 53.5042 501.476 53.665C501.729 53.8174 501.945 53.9909 502.123 54.1855C502.301 54.3717 502.445 54.5664 502.555 54.7695C502.673 54.9727 502.779 55.1631 502.872 55.3408L504.23 58.3369L504.637 58.6543L506.046 58.832V60H501.158V59.1621L499.8 55.3154C499.681 54.96 499.499 54.6722 499.254 54.4521C499.017 54.2321 498.708 54.1221 498.327 54.1221H497.54V58.3369L497.908 58.7051L499.229 58.832V60H492.843V58.832Z" fill="black"/>
<path d="M506.782 58.832L508.166 58.7051L508.534 58.3369V49.0059L508.166 48.6377L506.782 48.5107V47.3428H513.422V48.5107L512.089 48.6377L511.721 49.0059V55.4297L517.027 49.6279V49.0059L516.672 48.6377L515.339 48.5107V47.3428H521.966V48.5107L520.595 48.6377L520.227 49.0059V58.3369L520.595 58.7051L521.966 58.832V60H515.339V58.832L516.672 58.7051L517.027 58.3369V51.71L511.721 57.499V58.3369L512.089 58.7051L513.422 58.832V60H506.782V58.832Z" fill="black"/>
<path d="M536.553 47.3428V48.5107L535.169 48.6377L534.801 49.0059V58.3369L535.169 58.7051L536.553 58.832V60H529.786V58.832L531.246 58.7051L531.602 58.3369V48.79H529.012C528.978 49.4163 528.927 50.1357 528.859 50.9482C528.8 51.7523 528.699 52.5775 528.555 53.4238C528.419 54.2702 528.237 55.1038 528.009 55.9248C527.78 56.7373 527.484 57.4652 527.12 58.1084C526.765 58.7432 526.329 59.2552 525.812 59.6445C525.296 60.0339 524.687 60.2285 523.984 60.2285C523.35 60.2285 522.893 60.0719 522.613 59.7588C522.334 59.4372 522.194 59.0225 522.194 58.5146C522.194 58.3538 522.211 58.1803 522.245 57.9941C522.279 57.8079 522.351 57.6302 522.461 57.4609C522.562 57.2917 522.715 57.1436 522.918 57.0166C523.13 56.8896 523.409 56.8092 523.756 56.7754L525.292 58.1338C525.622 57.6429 525.906 57.042 526.143 56.3311C526.38 55.6201 526.574 54.8584 526.727 54.0459C526.887 53.2249 527.01 52.3828 527.095 51.5195C527.188 50.6478 527.251 49.8099 527.285 49.0059L526.904 48.6377L525.241 48.5107V47.3428H536.553Z" fill="black"/>
<path d="M538.013 58.832L539.396 58.7051L539.765 58.3369V49.0059L539.396 48.6377L538.013 48.5107V47.3428H544.83V48.5107L543.319 48.6377L542.951 49.0059V52.459C543.307 52.4251 543.628 52.3997 543.916 52.3828C544.204 52.3659 544.525 52.3574 544.881 52.3574C545.253 52.3574 545.647 52.3743 546.062 52.4082C546.485 52.4336 546.904 52.4928 547.318 52.5859C547.733 52.679 548.131 52.8102 548.512 52.9795C548.893 53.1488 549.227 53.3773 549.515 53.665C549.802 53.9528 550.031 54.304 550.2 54.7188C550.378 55.1335 550.467 55.6286 550.467 56.2041C550.467 56.7373 550.395 57.2028 550.251 57.6006C550.116 57.9899 549.925 58.3242 549.68 58.6035C549.434 58.8828 549.146 59.1156 548.816 59.3018C548.495 59.4795 548.148 59.6234 547.775 59.7334C547.411 59.835 547.035 59.9069 546.646 59.9492C546.256 59.9831 545.875 60 545.503 60H538.013V58.832ZM542.951 58.4385C543.493 58.54 543.996 58.5908 544.462 58.5908C544.699 58.5993 544.961 58.5781 545.249 58.5273C545.537 58.4766 545.803 58.3665 546.049 58.1973C546.303 58.028 546.514 57.7783 546.684 57.4482C546.853 57.1182 546.938 56.6781 546.938 56.1279C546.938 55.8571 546.895 55.582 546.811 55.3027C546.734 55.0234 546.603 54.7695 546.417 54.541C546.231 54.3125 545.981 54.1263 545.668 53.9824C545.355 53.8301 544.97 53.7539 544.513 53.7539C544.157 53.7539 543.844 53.7751 543.573 53.8174C543.302 53.8512 543.095 53.8851 542.951 53.9189V58.4385Z" fill="black"/>
<path d="M565.003 48.5107L563.632 48.6377L563.264 49.0059V58.3369L563.632 58.7051L565.003 58.832V60H558.198V58.832L559.709 58.7051L560.064 58.3369V54.6426H559.074C558.6 54.6426 558.245 54.7738 558.008 55.0361C557.779 55.29 557.572 55.5947 557.386 55.9502L555.913 59.1621V60H551.025V58.832L552.32 58.6543L552.739 58.3369L554.237 55.709C554.559 55.1504 554.872 54.7695 555.177 54.5664C555.338 54.4564 555.494 54.3675 555.646 54.2998C555.799 54.2236 555.947 54.1644 556.091 54.1221V54.0713C555.617 54.0544 555.173 53.974 554.758 53.8301C554.343 53.6777 553.983 53.4704 553.679 53.208C553.374 52.9372 553.133 52.6113 552.955 52.2305C552.777 51.8496 552.688 51.4222 552.688 50.9482C552.688 50.4404 552.79 49.9453 552.993 49.4629C553.196 48.972 553.526 48.5488 553.983 48.1934C554.474 47.804 555.02 47.5628 555.621 47.4697C555.917 47.4274 556.214 47.3978 556.51 47.3809C556.814 47.3555 557.115 47.3428 557.411 47.3428H565.003V48.5107ZM560.064 48.8662C559.844 48.8324 559.62 48.8027 559.392 48.7773C559.163 48.752 558.922 48.7393 558.668 48.7393C558.439 48.7393 558.173 48.7562 557.868 48.79C557.563 48.8154 557.271 48.9043 556.992 49.0566C556.721 49.2005 556.489 49.4333 556.294 49.7549C556.108 50.068 556.015 50.5124 556.015 51.0879C556.015 51.291 556.044 51.5195 556.104 51.7734C556.163 52.0273 556.29 52.2643 556.484 52.4844C556.679 52.696 556.958 52.8779 557.322 53.0303C557.686 53.1742 558.169 53.2461 558.77 53.2461C559.303 53.2461 559.734 53.208 560.064 53.1318V48.8662Z" fill="black"/>
<path d="M380.594 118.178H390.896V178.285L392.02 179.799L403.006 180.287V186H360.623V180.189L372.195 179.604L373.416 177.895V131.312L372.098 130.189L357.791 132.094V126.088L380.594 118.178Z" fill="#B10007"/>
<path d="M443.533 124.184C440.18 124.184 437.69 126.495 436.062 131.117C434.467 135.707 433.67 142.771 433.67 152.309C433.67 162.172 434.451 169.35 436.014 173.842C437.609 178.334 440.115 180.58 443.533 180.58C447.016 180.58 449.555 178.334 451.15 173.842C452.745 169.35 453.543 162.172 453.543 152.309C453.543 142.576 452.729 135.463 451.102 130.971C449.507 126.446 446.984 124.184 443.533 124.184ZM443.436 117.689C452.225 117.689 459.158 120.782 464.236 126.967C469.314 133.152 471.854 141.632 471.854 152.406C471.854 163.181 469.314 171.677 464.236 177.895C459.158 184.112 452.225 187.221 443.436 187.221C434.777 187.221 427.941 184.128 422.928 177.943C417.947 171.726 415.457 163.214 415.457 152.406C415.457 141.632 417.947 133.152 422.928 126.967C427.908 120.782 434.744 117.689 443.436 117.689Z" fill="#B10007"/>
<path d="M550.613 150.6C548.53 150.6 546.951 151.918 545.877 154.555C544.835 157.191 544.314 161.065 544.314 166.176C544.314 171.319 544.835 175.209 545.877 177.846C546.951 180.482 548.53 181.801 550.613 181.801C552.762 181.801 554.373 180.499 555.447 177.895C556.554 175.29 557.107 171.384 557.107 166.176C557.107 161.098 556.554 157.24 555.447 154.604C554.34 151.934 552.729 150.6 550.613 150.6ZM551.004 145.277C556.798 145.277 561.388 147.165 564.773 150.941C568.191 154.685 569.9 159.763 569.9 166.176C569.9 172.654 568.208 177.781 564.822 181.557C561.437 185.333 556.831 187.221 551.004 187.221C545.145 187.221 540.522 185.349 537.137 181.605C533.784 177.829 532.107 172.686 532.107 166.176C532.107 159.763 533.8 154.685 537.186 150.941C540.604 147.165 545.21 145.277 551.004 145.277ZM498.709 123.012C496.626 123.012 495.047 124.33 493.973 126.967C492.931 129.604 492.41 133.477 492.41 138.588C492.41 143.731 492.931 147.621 493.973 150.258C495.047 152.895 496.626 154.213 498.709 154.213C500.89 154.213 502.534 152.895 503.641 150.258C504.747 147.621 505.301 143.731 505.301 138.588C505.301 133.542 504.731 129.685 503.592 127.016C502.485 124.346 500.857 123.012 498.709 123.012ZM541.922 118.91H550.027L507.205 186H499.197L541.922 118.91ZM499.1 117.689C504.926 117.689 509.549 119.577 512.967 123.354C516.385 127.097 518.094 132.175 518.094 138.588C518.094 145.098 516.385 150.225 512.967 153.969C509.581 157.712 504.959 159.584 499.1 159.584C493.273 159.584 488.667 157.712 485.281 153.969C481.896 150.225 480.203 145.098 480.203 138.588C480.203 132.143 481.896 127.048 485.281 123.305C488.699 119.561 493.305 117.689 499.1 117.689Z" fill="#B10007"/>
<path d="M603.087 132.343C604.145 132.343 604.936 132.432 605.461 132.609C605.732 132.694 605.956 132.774 606.134 132.851C606.312 132.918 606.447 132.982 606.54 133.041C606.98 133.32 607.285 133.65 607.454 134.031C607.623 134.412 607.708 134.835 607.708 135.301C607.708 136.079 607.45 136.723 606.934 137.23C606.409 137.73 605.766 138.056 605.004 138.208V138.271C605.41 138.305 605.816 138.377 606.223 138.487C606.629 138.597 606.993 138.771 607.314 139.008C607.636 139.236 607.894 139.541 608.089 139.922C608.292 140.294 608.394 140.764 608.394 141.331C608.394 141.737 608.343 142.101 608.241 142.423C608.14 142.744 608.004 143.032 607.835 143.286C607.666 143.532 607.463 143.747 607.226 143.934C606.989 144.111 606.739 144.264 606.477 144.391C605.96 144.645 605.397 144.81 604.788 144.886C604.187 144.962 603.662 145 603.214 145H595.724V143.832L597.107 143.705L597.476 143.337V134.006L597.107 133.638L595.622 133.511V132.343H603.087ZM600.662 137.662C600.806 137.688 601.001 137.704 601.246 137.713C601.5 137.721 601.75 137.726 601.995 137.726C602.224 137.726 602.486 137.704 602.782 137.662C603.087 137.62 603.37 137.527 603.633 137.383C603.904 137.239 604.132 137.032 604.318 136.761C604.505 136.49 604.598 136.126 604.598 135.669C604.598 134.975 604.356 134.48 603.874 134.184C603.4 133.887 602.841 133.739 602.198 133.739C601.961 133.739 601.712 133.748 601.449 133.765C601.187 133.782 600.924 133.807 600.662 133.841V137.662ZM600.662 143.438C601.153 143.54 601.665 143.591 602.198 143.591C602.562 143.591 602.922 143.557 603.277 143.489C603.633 143.422 603.959 143.248 604.255 142.969C604.407 142.833 604.526 142.689 604.61 142.537C604.695 142.376 604.758 142.224 604.801 142.08C604.843 141.928 604.868 141.784 604.877 141.648C604.894 141.505 604.902 141.382 604.902 141.28C604.902 141.001 604.86 140.73 604.775 140.468C604.691 140.197 604.547 139.956 604.344 139.744C604.149 139.524 603.882 139.351 603.544 139.224C603.205 139.088 602.782 139.021 602.274 139.021C602.097 139.021 601.923 139.025 601.754 139.033C601.585 139.042 601.424 139.05 601.271 139.059C601.128 139.067 601.001 139.08 600.891 139.097C600.789 139.105 600.713 139.114 600.662 139.122V143.438Z" fill="black"/>
<path d="M609.917 143.832L611.301 143.705L611.669 143.337V134.006L611.301 133.638L609.917 133.511V132.343H616.734V133.511L615.224 133.638L614.855 134.006V137.459C615.211 137.425 615.533 137.4 615.82 137.383C616.108 137.366 616.43 137.357 616.785 137.357C617.056 137.357 617.34 137.366 617.636 137.383C617.932 137.4 618.228 137.429 618.524 137.472C618.829 137.514 619.125 137.577 619.413 137.662C619.709 137.747 619.993 137.853 620.264 137.979C620.535 138.106 620.784 138.267 621.013 138.462C621.25 138.648 621.453 138.872 621.622 139.135C621.791 139.397 621.923 139.702 622.016 140.049C622.117 140.387 622.168 140.772 622.168 141.204C622.168 142 622.011 142.647 621.698 143.146C621.394 143.637 621 144.022 620.518 144.302C620.035 144.573 619.502 144.759 618.918 144.86C618.334 144.953 617.763 145 617.204 145H609.917V143.832ZM614.855 143.438C615.27 143.54 615.706 143.591 616.163 143.591C616.544 143.591 616.891 143.536 617.204 143.426C617.526 143.316 617.797 143.155 618.017 142.943C618.245 142.732 618.423 142.474 618.55 142.169C618.677 141.864 618.74 141.517 618.74 141.128C618.74 140.832 618.694 140.544 618.601 140.265C618.516 139.977 618.372 139.723 618.169 139.503C617.974 139.274 617.716 139.092 617.395 138.957C617.073 138.822 616.679 138.754 616.214 138.754C615.918 138.754 615.651 138.775 615.414 138.817C615.186 138.851 614.999 138.885 614.855 138.919V143.438ZM622.638 143.832L623.958 143.705L624.326 143.337V134.006L623.958 133.638L622.638 133.511V132.343H629.265V133.511L627.894 133.638L627.525 134.006V143.337L627.894 143.705L629.265 143.832V145H622.638V143.832Z" fill="black"/>
<path d="M630.712 143.832L632.096 143.705L632.464 143.337V134.006L632.096 133.638L630.712 133.511V132.343H645.324V133.511L643.953 133.638L643.585 134.006V143.337L643.953 143.705L645.324 143.832V145H638.748V143.832L640.03 143.705L640.386 143.337V133.79H635.65V143.337L636.019 143.705L637.288 143.832V145H630.712V143.832Z" fill="black"/>
<path d="M645.959 132.368H652.561V133.485L651.24 133.638L650.974 134.006L653.779 141.356L656.61 134.031L656.382 133.638L655.011 133.485V132.368H660V133.485L658.591 133.714L653.576 145.914C652.958 147.404 652.218 148.572 651.354 149.418C650.491 150.273 649.619 150.7 648.739 150.7C648.13 150.7 647.605 150.506 647.165 150.116C646.725 149.735 646.505 149.287 646.505 148.771C646.505 148.398 646.619 148.051 646.848 147.729C647.085 147.416 647.419 147.15 647.851 146.93L650.11 148.479C650.466 148.199 650.813 147.789 651.151 147.247C651.498 146.714 651.828 146.071 652.142 145.317L647.521 133.714L645.959 133.485V132.368Z" fill="black"/>
<path d="M671.273 143.832C670.419 144.298 669.589 144.645 668.785 144.873C667.981 145.093 667.173 145.203 666.36 145.203C664.498 145.203 662.992 144.615 661.841 143.438C660.698 142.262 660.127 140.722 660.127 138.817C660.127 136.845 660.753 135.229 662.006 133.968C663.267 132.707 664.875 132.076 666.83 132.076C668.108 132.076 669.141 132.343 669.928 132.876C670.723 133.401 671.121 134.078 671.121 134.907C671.121 135.424 670.943 135.851 670.588 136.189C670.241 136.52 669.797 136.685 669.255 136.685C668.959 136.685 668.684 136.646 668.43 136.57C668.184 136.486 667.947 136.359 667.719 136.189V133.435C667.575 133.401 667.448 133.38 667.338 133.371C667.236 133.354 667.143 133.346 667.059 133.346C666.094 133.346 665.285 133.803 664.634 134.717C663.982 135.622 663.656 136.778 663.656 138.183C663.656 139.723 664.016 140.938 664.735 141.826C665.455 142.715 666.432 143.159 667.668 143.159C668.227 143.159 668.811 143.062 669.42 142.867C670.029 142.664 670.647 142.368 671.273 141.979V143.832Z" fill="black"/>
<path d="M672.327 143.832L673.711 143.705L674.079 143.337V134.006L673.711 133.638L672.327 133.511V132.343H678.967V133.511L677.634 133.638L677.266 134.006V137.662H678.726C679.14 137.662 679.466 137.544 679.703 137.307C679.94 137.061 680.135 136.757 680.287 136.393L681.125 134.552C681.286 134.188 681.459 133.858 681.646 133.562C681.832 133.257 682.035 132.999 682.255 132.787C682.483 132.576 682.729 132.415 682.991 132.305C683.262 132.186 683.558 132.127 683.88 132.127C684.041 132.127 684.235 132.148 684.464 132.19C684.701 132.224 684.925 132.305 685.137 132.432C685.348 132.55 685.526 132.728 685.67 132.965C685.822 133.202 685.898 133.523 685.898 133.93C685.898 134.327 685.784 134.696 685.556 135.034C685.336 135.381 684.967 135.584 684.451 135.644L682.813 134.552C682.72 134.653 682.648 134.763 682.598 134.882C682.547 134.992 682.488 135.115 682.42 135.25L681.646 137.015C681.535 137.243 681.387 137.48 681.201 137.726C681.023 137.963 680.744 138.153 680.363 138.297V138.348C680.99 138.441 681.506 138.69 681.912 139.097C682.124 139.308 682.31 139.516 682.471 139.719C682.632 139.922 682.771 140.129 682.89 140.341L684.451 143.337L684.857 143.654L686.267 143.832V145H681.277V144.162L679.767 140.315C679.648 140.002 679.437 139.727 679.132 139.49C678.827 139.245 678.459 139.122 678.027 139.122H677.266V143.337L677.634 143.705L678.967 143.832V145H672.327V143.832Z" fill="black"/>
<path d="M687.003 143.832L688.387 143.705L688.755 143.337V134.006L688.387 133.638L687.003 133.511V132.343H693.643V133.511L692.31 133.638L691.941 134.006V137.662H696.893V134.006L696.524 133.638L695.191 133.511V132.343H701.831V133.511L700.447 133.638L700.079 134.006V143.337L700.447 143.705L701.831 143.832V145H695.191V143.832L696.524 143.705L696.893 143.337V139.122H691.941V143.337L692.31 143.705L693.643 143.832V145H687.003V143.832Z" fill="black"/>
<path d="M703.278 143.832L704.662 143.705L705.03 143.337V134.006L704.662 133.638L703.278 133.511V132.343H709.918V133.511L708.585 133.638L708.217 134.006V140.43L713.523 134.628V134.006L713.168 133.638L711.835 133.511V132.343H718.462V133.511L717.091 133.638L716.723 134.006V143.337L717.091 143.705L718.462 143.832V145H711.835V143.832L713.168 143.705L713.523 143.337V136.71L708.217 142.499V143.337L708.585 143.705L709.918 143.832V145H703.278V143.832Z" fill="black"/>
<path d="M719.935 143.832L721.318 143.705L721.687 143.337V134.006L721.318 133.638L719.935 133.511V132.343H726.574V133.511L725.241 133.638L724.873 134.006V137.662H726.333C726.748 137.662 727.074 137.544 727.311 137.307C727.548 137.061 727.742 136.757 727.895 136.393L728.732 134.552C728.893 134.188 729.067 133.858 729.253 133.562C729.439 133.257 729.642 132.999 729.862 132.787C730.091 132.576 730.336 132.415 730.599 132.305C730.869 132.186 731.166 132.127 731.487 132.127C731.648 132.127 731.843 132.148 732.071 132.19C732.308 132.224 732.533 132.305 732.744 132.432C732.956 132.55 733.133 132.728 733.277 132.965C733.43 133.202 733.506 133.523 733.506 133.93C733.506 134.327 733.392 134.696 733.163 135.034C732.943 135.381 732.575 135.584 732.059 135.644L730.421 134.552C730.328 134.653 730.256 134.763 730.205 134.882C730.154 134.992 730.095 135.115 730.027 135.25L729.253 137.015C729.143 137.243 728.995 137.48 728.809 137.726C728.631 137.963 728.352 138.153 727.971 138.297V138.348C728.597 138.441 729.113 138.69 729.52 139.097C729.731 139.308 729.917 139.516 730.078 139.719C730.239 139.922 730.379 140.129 730.497 140.341L732.059 143.337L732.465 143.654L733.874 143.832V145H728.885V144.162L727.374 140.315C727.256 140.002 727.044 139.727 726.739 139.49C726.435 139.245 726.066 139.122 725.635 139.122H724.873V143.337L725.241 143.705L726.574 143.832V145H719.935V143.832Z" fill="black"/>
<path d="M741.479 133.409C740.531 133.409 739.79 133.862 739.257 134.768C738.724 135.673 738.457 136.943 738.457 138.576C738.457 140.235 738.719 141.526 739.244 142.448C739.777 143.371 740.514 143.832 741.453 143.832C742.435 143.832 743.192 143.383 743.726 142.486C744.259 141.589 744.525 140.311 744.525 138.652C744.525 137.002 744.255 135.715 743.713 134.793C743.18 133.87 742.435 133.409 741.479 133.409ZM741.58 132.025C743.577 132.025 745.164 132.631 746.341 133.841C747.517 135.043 748.105 136.672 748.105 138.729C748.105 140.675 747.492 142.241 746.265 143.426C745.037 144.611 743.408 145.203 741.377 145.203C739.422 145.203 737.843 144.606 736.642 143.413C735.448 142.211 734.852 140.633 734.852 138.678C734.852 136.672 735.465 135.064 736.692 133.854C737.92 132.635 739.549 132.025 741.58 132.025Z" fill="black"/>
<path d="M756.979 132.343C758.037 132.343 758.829 132.432 759.354 132.609C759.624 132.694 759.849 132.774 760.026 132.851C760.204 132.918 760.34 132.982 760.433 133.041C760.873 133.32 761.177 133.65 761.347 134.031C761.516 134.412 761.601 134.835 761.601 135.301C761.601 136.079 761.342 136.723 760.826 137.23C760.301 137.73 759.658 138.056 758.896 138.208V138.271C759.303 138.305 759.709 138.377 760.115 138.487C760.521 138.597 760.885 138.771 761.207 139.008C761.529 139.236 761.787 139.541 761.981 139.922C762.185 140.294 762.286 140.764 762.286 141.331C762.286 141.737 762.235 142.101 762.134 142.423C762.032 142.744 761.897 143.032 761.728 143.286C761.558 143.532 761.355 143.747 761.118 143.934C760.881 144.111 760.632 144.264 760.369 144.391C759.853 144.645 759.29 144.81 758.681 144.886C758.08 144.962 757.555 145 757.106 145H749.616V143.832L751 143.705L751.368 143.337V134.006L751 133.638L749.515 133.511V132.343H756.979ZM754.555 137.662C754.699 137.688 754.893 137.704 755.139 137.713C755.393 137.721 755.642 137.726 755.888 137.726C756.116 137.726 756.379 137.704 756.675 137.662C756.979 137.62 757.263 137.527 757.525 137.383C757.796 137.239 758.025 137.032 758.211 136.761C758.397 136.49 758.49 136.126 758.49 135.669C758.49 134.975 758.249 134.48 757.767 134.184C757.293 133.887 756.734 133.739 756.091 133.739C755.854 133.739 755.604 133.748 755.342 133.765C755.079 133.782 754.817 133.807 754.555 133.841V137.662ZM754.555 143.438C755.046 143.54 755.558 143.591 756.091 143.591C756.455 143.591 756.814 143.557 757.17 143.489C757.525 143.422 757.851 143.248 758.147 142.969C758.3 142.833 758.418 142.689 758.503 142.537C758.588 142.376 758.651 142.224 758.693 142.08C758.736 141.928 758.761 141.784 758.77 141.648C758.786 141.505 758.795 141.382 758.795 141.28C758.795 141.001 758.753 140.73 758.668 140.468C758.583 140.197 758.439 139.956 758.236 139.744C758.042 139.524 757.775 139.351 757.437 139.224C757.098 139.088 756.675 139.021 756.167 139.021C755.989 139.021 755.816 139.025 755.646 139.033C755.477 139.042 755.316 139.05 755.164 139.059C755.02 139.067 754.893 139.08 754.783 139.097C754.682 139.105 754.605 139.114 754.555 139.122V143.438Z" fill="black"/>
<path d="M784.173 132.343V133.511L782.789 133.638L782.434 134.006V143.286L782.738 143.54H784.325V148.796H782.51L781.989 145.419L781.596 145H773.179L772.785 145.419L772.265 148.796H770.449V143.54H771.744C772.159 142.905 772.552 142.194 772.925 141.407C773.297 140.62 773.636 139.808 773.94 138.97C774.254 138.123 774.524 137.277 774.753 136.431C774.981 135.576 775.159 134.768 775.286 134.006L774.918 133.638L773.229 133.511V132.343H784.173ZM779.234 143.54V133.79H777.051C776.924 134.535 776.755 135.339 776.543 136.202C776.331 137.057 776.082 137.92 775.794 138.792C775.506 139.655 775.185 140.497 774.829 141.318C774.474 142.139 774.089 142.88 773.674 143.54H779.234Z" fill="black"/>
<path d="M794.278 136.989V136.71C794.278 135.652 794.084 134.844 793.694 134.285C793.305 133.718 792.746 133.435 792.019 133.435C791.223 133.435 790.584 133.752 790.102 134.387C789.619 135.013 789.357 135.881 789.314 136.989H794.278ZM797.693 141.775V143.705C796.805 144.213 795.908 144.594 795.002 144.848C794.096 145.102 793.191 145.229 792.285 145.229C790.347 145.229 788.79 144.632 787.613 143.438C786.445 142.245 785.861 140.667 785.861 138.703C785.861 136.731 786.458 135.123 787.651 133.879C788.853 132.626 790.398 132 792.285 132C793.995 132 795.324 132.516 796.271 133.549C797.219 134.573 797.693 136.016 797.693 137.878V138.373H789.188V138.449C789.188 139.93 789.56 141.094 790.305 141.94C791.049 142.787 792.074 143.21 793.377 143.21C794.062 143.21 794.761 143.091 795.472 142.854C796.183 142.618 796.923 142.258 797.693 141.775Z" fill="black"/>
<path d="M802.137 143.832L803.635 143.705L804.003 143.337V133.79H801.845L801.451 134.209L801.146 136.812H799.382V132.343H811.836V136.812H810.059L809.754 134.209L809.36 133.79H807.202V143.337L807.596 143.705L809.068 143.832V145H802.137V143.832Z" fill="black"/>
<path d="M824.455 143.832C823.6 144.298 822.771 144.645 821.967 144.873C821.163 145.093 820.354 145.203 819.542 145.203C817.68 145.203 816.174 144.615 815.022 143.438C813.88 142.262 813.309 140.722 813.309 138.817C813.309 136.845 813.935 135.229 815.188 133.968C816.449 132.707 818.057 132.076 820.012 132.076C821.29 132.076 822.322 132.343 823.109 132.876C823.905 133.401 824.303 134.078 824.303 134.907C824.303 135.424 824.125 135.851 823.77 136.189C823.423 136.52 822.978 136.685 822.437 136.685C822.14 136.685 821.865 136.646 821.611 136.57C821.366 136.486 821.129 136.359 820.9 136.189V133.435C820.757 133.401 820.63 133.38 820.52 133.371C820.418 133.354 820.325 133.346 820.24 133.346C819.275 133.346 818.467 133.803 817.815 134.717C817.164 135.622 816.838 136.778 816.838 138.183C816.838 139.723 817.198 140.938 817.917 141.826C818.636 142.715 819.614 143.159 820.85 143.159C821.408 143.159 821.992 143.062 822.602 142.867C823.211 142.664 823.829 142.368 824.455 141.979V143.832Z" fill="black"/>
<path d="M825.509 143.832L826.893 143.705L827.261 143.337V134.006L826.893 133.638L825.509 133.511V132.343H832.148V133.511L830.815 133.638L830.447 134.006V137.662H831.907C832.322 137.662 832.648 137.544 832.885 137.307C833.122 137.061 833.316 136.757 833.469 136.393L834.307 134.552C834.467 134.188 834.641 133.858 834.827 133.562C835.013 133.257 835.216 132.999 835.437 132.787C835.665 132.576 835.91 132.415 836.173 132.305C836.444 132.186 836.74 132.127 837.062 132.127C837.222 132.127 837.417 132.148 837.646 132.19C837.882 132.224 838.107 132.305 838.318 132.432C838.53 132.55 838.708 132.728 838.852 132.965C839.004 133.202 839.08 133.523 839.08 133.93C839.08 134.327 838.966 134.696 838.737 135.034C838.517 135.381 838.149 135.584 837.633 135.644L835.995 134.552C835.902 134.653 835.83 134.763 835.779 134.882C835.729 134.992 835.669 135.115 835.602 135.25L834.827 137.015C834.717 137.243 834.569 137.48 834.383 137.726C834.205 137.963 833.926 138.153 833.545 138.297V138.348C834.171 138.441 834.688 138.69 835.094 139.097C835.305 139.308 835.492 139.516 835.652 139.719C835.813 139.922 835.953 140.129 836.071 140.341L837.633 143.337L838.039 143.654L839.448 143.832V145H834.459V144.162L832.948 140.315C832.83 140.002 832.618 139.727 832.313 139.49C832.009 139.245 831.641 139.122 831.209 139.122H830.447V143.337L830.815 143.705L832.148 143.832V145H825.509V143.832Z" fill="black"/>
<path d="M847.053 133.409C846.105 133.409 845.364 133.862 844.831 134.768C844.298 135.673 844.031 136.943 844.031 138.576C844.031 140.235 844.294 141.526 844.818 142.448C845.352 143.371 846.088 143.832 847.027 143.832C848.009 143.832 848.767 143.383 849.3 142.486C849.833 141.589 850.1 140.311 850.1 138.652C850.1 137.002 849.829 135.715 849.287 134.793C848.754 133.87 848.009 133.409 847.053 133.409ZM847.154 132.025C849.152 132.025 850.739 132.631 851.915 133.841C853.091 135.043 853.68 136.672 853.68 138.729C853.68 140.675 853.066 142.241 851.839 143.426C850.612 144.611 848.982 145.203 846.951 145.203C844.996 145.203 843.418 144.606 842.216 143.413C841.022 142.211 840.426 140.633 840.426 138.678C840.426 136.672 841.039 135.064 842.267 133.854C843.494 132.635 845.123 132.025 847.154 132.025Z" fill="black"/>
<path d="M855.19 143.832L856.574 143.705L856.942 143.337V134.006L856.574 133.638L855.089 133.511V132.343H865.905V136.812H864.141L863.772 134.158L863.442 133.79H860.129V143.337L860.522 143.705L862.376 143.832V145H855.19V143.832Z" fill="black"/>
<path d="M874.068 133.409C873.12 133.409 872.38 133.862 871.847 134.768C871.313 135.673 871.047 136.943 871.047 138.576C871.047 140.235 871.309 141.526 871.834 142.448C872.367 143.371 873.104 143.832 874.043 143.832C875.025 143.832 875.782 143.383 876.315 142.486C876.849 141.589 877.115 140.311 877.115 138.652C877.115 137.002 876.844 135.715 876.303 134.793C875.77 133.87 875.025 133.409 874.068 133.409ZM874.17 132.025C876.167 132.025 877.754 132.631 878.931 133.841C880.107 135.043 880.695 136.672 880.695 138.729C880.695 140.675 880.082 142.241 878.854 143.426C877.627 144.611 875.998 145.203 873.967 145.203C872.012 145.203 870.433 144.606 869.231 143.413C868.038 142.211 867.441 140.633 867.441 138.678C867.441 136.672 868.055 135.064 869.282 133.854C870.509 132.635 872.139 132.025 874.17 132.025Z" fill="black"/>
<path d="M902.569 132.343V133.511L901.186 133.638L900.83 134.006V143.286L901.135 143.54H902.722V148.796H900.906L900.386 145.419L899.992 145H891.575L891.182 145.419L890.661 148.796H888.846V143.54H890.141C890.555 142.905 890.949 142.194 891.321 141.407C891.694 140.62 892.032 139.808 892.337 138.97C892.65 138.123 892.921 137.277 893.149 136.431C893.378 135.576 893.556 134.768 893.683 134.006L893.314 133.638L891.626 133.511V132.343H902.569ZM897.631 143.54V133.79H895.447C895.32 134.535 895.151 135.339 894.939 136.202C894.728 137.057 894.478 137.92 894.19 138.792C893.903 139.655 893.581 140.497 893.226 141.318C892.87 142.139 892.485 142.88 892.07 143.54H897.631Z" fill="black"/>
<path d="M910.885 133.409C909.937 133.409 909.196 133.862 908.663 134.768C908.13 135.673 907.863 136.943 907.863 138.576C907.863 140.235 908.126 141.526 908.65 142.448C909.184 143.371 909.92 143.832 910.859 143.832C911.841 143.832 912.599 143.383 913.132 142.486C913.665 141.589 913.932 140.311 913.932 138.652C913.932 137.002 913.661 135.715 913.119 134.793C912.586 133.87 911.841 133.409 910.885 133.409ZM910.986 132.025C912.984 132.025 914.571 132.631 915.747 133.841C916.924 135.043 917.512 136.672 917.512 138.729C917.512 140.675 916.898 142.241 915.671 143.426C914.444 144.611 912.814 145.203 910.783 145.203C908.828 145.203 907.25 144.606 906.048 143.413C904.854 142.211 904.258 140.633 904.258 138.678C904.258 136.672 904.871 135.064 906.099 133.854C907.326 132.635 908.955 132.025 910.986 132.025Z" fill="black"/>
<path d="M924.85 132.343V132.965L927.795 141.103L930.728 132.965V132.343H936.555V133.511L935.171 133.638L934.803 134.006V143.337L935.171 143.705L936.555 143.832V145H930.004V143.832L931.375 143.705L931.743 143.337V134.209H931.692L927.757 145H926.513L922.488 134.209H922.438V143.337L922.793 143.705L924.177 143.832V145H919.022V143.832L920.406 143.705L920.774 143.337V134.006L920.406 133.638L919.022 133.511V132.343H924.85Z" fill="black"/>
<path d="M946.203 142.448V138.208C944.493 138.589 943.326 139.004 942.699 139.452C942.073 139.901 941.76 140.51 941.76 141.28C941.76 141.881 941.933 142.359 942.28 142.715C942.627 143.062 943.097 143.235 943.689 143.235C944.02 143.235 944.392 143.172 944.807 143.045C945.23 142.91 945.695 142.711 946.203 142.448ZM946.203 143.515C945.323 144.116 944.523 144.551 943.804 144.822C943.084 145.093 942.395 145.229 941.734 145.229C940.736 145.229 939.919 144.915 939.284 144.289C938.649 143.654 938.332 142.842 938.332 141.852C938.332 140.633 938.798 139.693 939.729 139.033C940.66 138.373 942.83 137.658 946.241 136.888V136.113C946.241 135.174 946.042 134.488 945.645 134.057C945.247 133.625 944.62 133.409 943.766 133.409C943.579 133.409 943.385 133.422 943.182 133.447C942.979 133.473 942.758 133.511 942.521 133.562V135.999H940.122C939.707 135.999 939.403 135.923 939.208 135.771C939.022 135.618 938.929 135.377 938.929 135.047C938.929 134.234 939.475 133.528 940.566 132.927C941.658 132.326 943 132.025 944.591 132.025C946.377 132.025 947.633 132.368 948.361 133.054C949.089 133.739 949.453 134.933 949.453 136.634V143.362L949.796 143.73L951.18 143.857V145H946.546L946.203 143.515Z" fill="black"/>
<path d="M603.087 172.343C604.145 172.343 604.936 172.432 605.461 172.609C605.732 172.694 605.956 172.774 606.134 172.851C606.312 172.918 606.447 172.982 606.54 173.041C606.98 173.32 607.285 173.65 607.454 174.031C607.623 174.412 607.708 174.835 607.708 175.301C607.708 176.079 607.45 176.723 606.934 177.23C606.409 177.73 605.766 178.056 605.004 178.208V178.271C605.41 178.305 605.816 178.377 606.223 178.487C606.629 178.597 606.993 178.771 607.314 179.008C607.636 179.236 607.894 179.541 608.089 179.922C608.292 180.294 608.394 180.764 608.394 181.331C608.394 181.737 608.343 182.101 608.241 182.423C608.14 182.744 608.004 183.032 607.835 183.286C607.666 183.532 607.463 183.747 607.226 183.934C606.989 184.111 606.739 184.264 606.477 184.391C605.96 184.645 605.397 184.81 604.788 184.886C604.187 184.962 603.662 185 603.214 185H595.724V183.832L597.107 183.705L597.476 183.337V174.006L597.107 173.638L595.622 173.511V172.343H603.087ZM600.662 177.662C600.806 177.688 601.001 177.704 601.246 177.713C601.5 177.721 601.75 177.726 601.995 177.726C602.224 177.726 602.486 177.704 602.782 177.662C603.087 177.62 603.37 177.527 603.633 177.383C603.904 177.239 604.132 177.032 604.318 176.761C604.505 176.49 604.598 176.126 604.598 175.669C604.598 174.975 604.356 174.48 603.874 174.184C603.4 173.887 602.841 173.739 602.198 173.739C601.961 173.739 601.712 173.748 601.449 173.765C601.187 173.782 600.924 173.807 600.662 173.841V177.662ZM600.662 183.438C601.153 183.54 601.665 183.591 602.198 183.591C602.562 183.591 602.922 183.557 603.277 183.489C603.633 183.422 603.959 183.248 604.255 182.969C604.407 182.833 604.526 182.689 604.61 182.537C604.695 182.376 604.758 182.224 604.801 182.08C604.843 181.928 604.868 181.784 604.877 181.648C604.894 181.505 604.902 181.382 604.902 181.28C604.902 181.001 604.86 180.73 604.775 180.468C604.691 180.197 604.547 179.956 604.344 179.744C604.149 179.524 603.882 179.351 603.544 179.224C603.205 179.088 602.782 179.021 602.274 179.021C602.097 179.021 601.923 179.025 601.754 179.033C601.585 179.042 601.424 179.05 601.271 179.059C601.128 179.067 601.001 179.08 600.891 179.097C600.789 179.105 600.713 179.114 600.662 179.122V183.438Z" fill="black"/>
<path d="M621.508 183.832C620.653 184.298 619.824 184.645 619.02 184.873C618.215 185.093 617.407 185.203 616.595 185.203C614.733 185.203 613.226 184.615 612.075 183.438C610.933 182.262 610.361 180.722 610.361 178.817C610.361 176.845 610.988 175.229 612.24 173.968C613.501 172.707 615.109 172.076 617.064 172.076C618.342 172.076 619.375 172.343 620.162 172.876C620.958 173.401 621.355 174.078 621.355 174.907C621.355 175.424 621.178 175.851 620.822 176.189C620.475 176.52 620.031 176.685 619.489 176.685C619.193 176.685 618.918 176.646 618.664 176.57C618.419 176.486 618.182 176.359 617.953 176.189V173.435C617.809 173.401 617.682 173.38 617.572 173.371C617.471 173.354 617.378 173.346 617.293 173.346C616.328 173.346 615.52 173.803 614.868 174.717C614.216 175.622 613.891 176.778 613.891 178.183C613.891 179.723 614.25 180.938 614.97 181.826C615.689 182.715 616.667 183.159 617.902 183.159C618.461 183.159 619.045 183.062 619.654 182.867C620.264 182.664 620.882 182.368 621.508 181.979V183.832Z" fill="black"/>
<path d="M625.697 183.832L627.195 183.705L627.563 183.337V173.79H625.405L625.012 174.209L624.707 176.812H622.942V172.343H635.396V176.812H633.619L633.314 174.209L632.921 173.79H630.763V183.337L631.156 183.705L632.629 183.832V185H625.697V183.832Z" fill="black"/>
<path d="M641.236 183.438C641.516 183.498 641.791 183.544 642.062 183.578C642.341 183.604 642.62 183.616 642.899 183.616C644.067 183.616 644.994 183.163 645.68 182.258C646.374 181.352 646.721 180.133 646.721 178.602C646.721 177.239 646.416 176.177 645.807 175.415C645.206 174.645 644.368 174.26 643.293 174.26C643.014 174.26 642.705 174.302 642.366 174.387C642.036 174.463 641.66 174.586 641.236 174.755V183.438ZM636.298 190.7V189.494L637.707 189.367L638.062 188.974V174.361H636.298V173.32L640.068 172.102H641.236V173.663C642.057 173.096 642.798 172.681 643.458 172.419C644.118 172.157 644.749 172.025 645.35 172.025C646.763 172.025 647.935 172.605 648.866 173.765C649.797 174.916 650.263 176.38 650.263 178.157C650.263 180.239 649.641 181.902 648.396 183.146C647.152 184.382 645.477 185 643.369 185C643.014 185 642.658 184.992 642.303 184.975C641.956 184.949 641.604 184.915 641.249 184.873L641.236 189.024L641.63 189.393L643.242 189.494V190.7H636.298Z" fill="black"/>
<path d="M659.975 182.448V178.208C658.265 178.589 657.097 179.004 656.471 179.452C655.844 179.901 655.531 180.51 655.531 181.28C655.531 181.881 655.705 182.359 656.052 182.715C656.399 183.062 656.868 183.235 657.461 183.235C657.791 183.235 658.163 183.172 658.578 183.045C659.001 182.91 659.467 182.711 659.975 182.448ZM659.975 183.515C659.094 184.116 658.295 184.551 657.575 184.822C656.856 185.093 656.166 185.229 655.506 185.229C654.507 185.229 653.69 184.915 653.056 184.289C652.421 183.654 652.104 182.842 652.104 181.852C652.104 180.633 652.569 179.693 653.5 179.033C654.431 178.373 656.602 177.658 660.013 176.888V176.113C660.013 175.174 659.814 174.488 659.416 174.057C659.018 173.625 658.392 173.409 657.537 173.409C657.351 173.409 657.156 173.422 656.953 173.447C656.75 173.473 656.53 173.511 656.293 173.562V175.999H653.894C653.479 175.999 653.174 175.923 652.979 175.771C652.793 175.618 652.7 175.377 652.7 175.047C652.7 174.234 653.246 173.528 654.338 172.927C655.43 172.326 656.771 172.025 658.362 172.025C660.148 172.025 661.405 172.368 662.133 173.054C662.861 173.739 663.225 174.933 663.225 176.634V183.362L663.567 183.73L664.951 183.857V185H660.317L659.975 183.515Z" fill="black"/>
<path d="M665.929 183.832L667.312 183.705L667.681 183.337V174.006L667.312 173.638L665.929 173.511V172.343H672.568V173.511L671.235 173.638L670.867 174.006V180.43L676.174 174.628V174.006L675.818 173.638L674.485 173.511V172.343H681.112V173.511L679.741 173.638L679.373 174.006V183.337L679.741 183.705L681.112 183.832V185H674.485V183.832L675.818 183.705L676.174 183.337V176.71L670.867 182.499V183.337L671.235 183.705L672.568 183.832V185H665.929V183.832Z" fill="black"/>
<path d="M689.948 172.343C691.006 172.343 691.798 172.432 692.322 172.609C692.593 172.694 692.817 172.774 692.995 172.851C693.173 172.918 693.308 172.982 693.401 173.041C693.841 173.32 694.146 173.65 694.315 174.031C694.485 174.412 694.569 174.835 694.569 175.301C694.569 176.079 694.311 176.723 693.795 177.23C693.27 177.73 692.627 178.056 691.865 178.208V178.271C692.271 178.305 692.678 178.377 693.084 178.487C693.49 178.597 693.854 178.771 694.176 179.008C694.497 179.236 694.756 179.541 694.95 179.922C695.153 180.294 695.255 180.764 695.255 181.331C695.255 181.737 695.204 182.101 695.103 182.423C695.001 182.744 694.866 183.032 694.696 183.286C694.527 183.532 694.324 183.747 694.087 183.934C693.85 184.111 693.6 184.264 693.338 184.391C692.822 184.645 692.259 184.81 691.649 184.886C691.049 184.962 690.524 185 690.075 185H682.585V183.832L683.969 183.705L684.337 183.337V174.006L683.969 173.638L682.483 173.511V172.343H689.948ZM687.523 177.662C687.667 177.688 687.862 177.704 688.107 177.713C688.361 177.721 688.611 177.726 688.856 177.726C689.085 177.726 689.347 177.704 689.644 177.662C689.948 177.62 690.232 177.527 690.494 177.383C690.765 177.239 690.993 177.032 691.18 176.761C691.366 176.49 691.459 176.126 691.459 175.669C691.459 174.975 691.218 174.48 690.735 174.184C690.261 173.887 689.703 173.739 689.06 173.739C688.823 173.739 688.573 173.748 688.311 173.765C688.048 173.782 687.786 173.807 687.523 173.841V177.662ZM687.523 183.438C688.014 183.54 688.526 183.591 689.06 183.591C689.424 183.591 689.783 183.557 690.139 183.489C690.494 183.422 690.82 183.248 691.116 182.969C691.269 182.833 691.387 182.689 691.472 182.537C691.556 182.376 691.62 182.224 691.662 182.08C691.704 181.928 691.73 181.784 691.738 181.648C691.755 181.505 691.764 181.382 691.764 181.28C691.764 181.001 691.721 180.73 691.637 180.468C691.552 180.197 691.408 179.956 691.205 179.744C691.01 179.524 690.744 179.351 690.405 179.224C690.067 179.088 689.644 179.021 689.136 179.021C688.958 179.021 688.785 179.025 688.615 179.033C688.446 179.042 688.285 179.05 688.133 179.059C687.989 179.067 687.862 179.08 687.752 179.097C687.65 179.105 687.574 179.114 687.523 179.122V183.438Z" fill="black"/>
<path d="M705.221 182.448V178.208C703.511 178.589 702.343 179.004 701.717 179.452C701.09 179.901 700.777 180.51 700.777 181.28C700.777 181.881 700.951 182.359 701.298 182.715C701.645 183.062 702.115 183.235 702.707 183.235C703.037 183.235 703.41 183.172 703.824 183.045C704.247 182.91 704.713 182.711 705.221 182.448ZM705.221 183.515C704.34 184.116 703.541 184.551 702.821 184.822C702.102 185.093 701.412 185.229 700.752 185.229C699.753 185.229 698.937 184.915 698.302 184.289C697.667 183.654 697.35 182.842 697.35 181.852C697.35 180.633 697.815 179.693 698.746 179.033C699.677 178.373 701.848 177.658 705.259 176.888V176.113C705.259 175.174 705.06 174.488 704.662 174.057C704.264 173.625 703.638 173.409 702.783 173.409C702.597 173.409 702.402 173.422 702.199 173.447C701.996 173.473 701.776 173.511 701.539 173.562V175.999H699.14C698.725 175.999 698.42 175.923 698.226 175.771C698.039 175.618 697.946 175.377 697.946 175.047C697.946 174.234 698.492 173.528 699.584 172.927C700.676 172.326 702.017 172.025 703.608 172.025C705.394 172.025 706.651 172.368 707.379 173.054C708.107 173.739 708.471 174.933 708.471 176.634V183.362L708.813 183.73L710.197 183.857V185H705.563L705.221 183.515Z" fill="black"/>
<path d="M719.833 176.989V176.71C719.833 175.652 719.638 174.844 719.249 174.285C718.86 173.718 718.301 173.435 717.573 173.435C716.778 173.435 716.139 173.752 715.656 174.387C715.174 175.013 714.911 175.881 714.869 176.989H719.833ZM723.248 181.775V183.705C722.359 184.213 721.462 184.594 720.557 184.848C719.651 185.102 718.745 185.229 717.84 185.229C715.902 185.229 714.344 184.632 713.168 183.438C712 182.245 711.416 180.667 711.416 178.703C711.416 176.731 712.013 175.123 713.206 173.879C714.408 172.626 715.952 172 717.84 172C719.549 172 720.878 172.516 721.826 173.549C722.774 174.573 723.248 176.016 723.248 177.878V178.373H714.742V178.449C714.742 179.93 715.115 181.094 715.859 181.94C716.604 182.787 717.628 183.21 718.932 183.21C719.617 183.21 720.315 183.091 721.026 182.854C721.737 182.618 722.478 182.258 723.248 181.775Z" fill="black"/>
<path d="M727.691 183.832L729.189 183.705L729.558 183.337V173.79H727.399L727.006 174.209L726.701 176.812H724.937V172.343H737.391V176.812H735.613L735.309 174.209L734.915 173.79H732.757V183.337L733.15 183.705L734.623 183.832V185H727.691V183.832Z" fill="black"/>
<path d="M750.01 183.832C749.155 184.298 748.326 184.645 747.521 184.873C746.717 185.093 745.909 185.203 745.097 185.203C743.235 185.203 741.728 184.615 740.577 183.438C739.435 182.262 738.863 180.722 738.863 178.817C738.863 176.845 739.49 175.229 740.742 173.968C742.003 172.707 743.611 172.076 745.566 172.076C746.844 172.076 747.877 172.343 748.664 172.876C749.46 173.401 749.857 174.078 749.857 174.907C749.857 175.424 749.68 175.851 749.324 176.189C748.977 176.52 748.533 176.685 747.991 176.685C747.695 176.685 747.42 176.646 747.166 176.57C746.921 176.486 746.684 176.359 746.455 176.189V173.435C746.311 173.401 746.184 173.38 746.074 173.371C745.973 173.354 745.88 173.346 745.795 173.346C744.83 173.346 744.022 173.803 743.37 174.717C742.718 175.622 742.393 176.778 742.393 178.183C742.393 179.723 742.752 180.938 743.472 181.826C744.191 182.715 745.169 183.159 746.404 183.159C746.963 183.159 747.547 183.062 748.156 182.867C748.766 182.664 749.383 182.368 750.01 181.979V183.832Z" fill="black"/>
<path d="M764.597 173.511L763.226 173.638L762.857 174.006V183.337L763.226 183.705L764.597 183.832V185H757.792V183.832L759.303 183.705L759.658 183.337V179.643H758.668C758.194 179.643 757.839 179.774 757.602 180.036C757.373 180.29 757.166 180.595 756.979 180.95L755.507 184.162V185H750.619V183.832L751.914 183.654L752.333 183.337L753.831 180.709C754.153 180.15 754.466 179.77 754.771 179.566C754.931 179.456 755.088 179.368 755.24 179.3C755.393 179.224 755.541 179.164 755.685 179.122V179.071C755.211 179.054 754.766 178.974 754.352 178.83C753.937 178.678 753.577 178.47 753.272 178.208C752.968 177.937 752.727 177.611 752.549 177.23C752.371 176.85 752.282 176.422 752.282 175.948C752.282 175.44 752.384 174.945 752.587 174.463C752.79 173.972 753.12 173.549 753.577 173.193C754.068 172.804 754.614 172.563 755.215 172.47C755.511 172.427 755.807 172.398 756.104 172.381C756.408 172.355 756.709 172.343 757.005 172.343H764.597V173.511ZM759.658 173.866C759.438 173.832 759.214 173.803 758.985 173.777C758.757 173.752 758.516 173.739 758.262 173.739C758.033 173.739 757.767 173.756 757.462 173.79C757.157 173.815 756.865 173.904 756.586 174.057C756.315 174.201 756.082 174.433 755.888 174.755C755.701 175.068 755.608 175.512 755.608 176.088C755.608 176.291 755.638 176.52 755.697 176.773C755.757 177.027 755.883 177.264 756.078 177.484C756.273 177.696 756.552 177.878 756.916 178.03C757.28 178.174 757.762 178.246 758.363 178.246C758.896 178.246 759.328 178.208 759.658 178.132V173.866Z" fill="black"/>
<path d="M780.999 172.343C782.057 172.343 782.848 172.432 783.373 172.609C783.644 172.694 783.868 172.774 784.046 172.851C784.224 172.918 784.359 172.982 784.452 173.041C784.892 173.32 785.197 173.65 785.366 174.031C785.535 174.412 785.62 174.835 785.62 175.301C785.62 176.079 785.362 176.723 784.846 177.23C784.321 177.73 783.678 178.056 782.916 178.208V178.271C783.322 178.305 783.729 178.377 784.135 178.487C784.541 178.597 784.905 178.771 785.227 179.008C785.548 179.236 785.806 179.541 786.001 179.922C786.204 180.294 786.306 180.764 786.306 181.331C786.306 181.737 786.255 182.101 786.153 182.423C786.052 182.744 785.916 183.032 785.747 183.286C785.578 183.532 785.375 183.747 785.138 183.934C784.901 184.111 784.651 184.264 784.389 184.391C783.872 184.645 783.31 184.81 782.7 184.886C782.099 184.962 781.575 185 781.126 185H773.636V183.832L775.02 183.705L775.388 183.337V174.006L775.02 173.638L773.534 173.511V172.343H780.999ZM778.574 177.662C778.718 177.688 778.913 177.704 779.158 177.713C779.412 177.721 779.662 177.726 779.907 177.726C780.136 177.726 780.398 177.704 780.694 177.662C780.999 177.62 781.283 177.527 781.545 177.383C781.816 177.239 782.044 177.032 782.23 176.761C782.417 176.49 782.51 176.126 782.51 175.669C782.51 174.975 782.269 174.48 781.786 174.184C781.312 173.887 780.754 173.739 780.11 173.739C779.873 173.739 779.624 173.748 779.361 173.765C779.099 173.782 778.837 173.807 778.574 173.841V177.662ZM778.574 183.438C779.065 183.54 779.577 183.591 780.11 183.591C780.474 183.591 780.834 183.557 781.189 183.489C781.545 183.422 781.871 183.248 782.167 182.969C782.319 182.833 782.438 182.689 782.522 182.537C782.607 182.376 782.671 182.224 782.713 182.08C782.755 181.928 782.781 181.784 782.789 181.648C782.806 181.505 782.814 181.382 782.814 181.28C782.814 181.001 782.772 180.73 782.688 180.468C782.603 180.197 782.459 179.956 782.256 179.744C782.061 179.524 781.795 179.351 781.456 179.224C781.118 179.088 780.694 179.021 780.187 179.021C780.009 179.021 779.835 179.025 779.666 179.033C779.497 179.042 779.336 179.05 779.184 179.059C779.04 179.067 778.913 179.08 778.803 179.097C778.701 179.105 778.625 179.114 778.574 179.122V183.438Z" fill="black"/>
<path d="M802.264 173.409C801.316 173.409 800.575 173.862 800.042 174.768C799.509 175.673 799.242 176.943 799.242 178.576C799.242 180.235 799.505 181.526 800.029 182.448C800.562 183.371 801.299 183.832 802.238 183.832C803.22 183.832 803.978 183.383 804.511 182.486C805.044 181.589 805.311 180.311 805.311 178.652C805.311 177.002 805.04 175.715 804.498 174.793C803.965 173.87 803.22 173.409 802.264 173.409ZM802.365 172.025C804.363 172.025 805.95 172.631 807.126 173.841C808.302 175.043 808.891 176.672 808.891 178.729C808.891 180.675 808.277 182.241 807.05 183.426C805.823 184.611 804.193 185.203 802.162 185.203C800.207 185.203 798.629 184.606 797.427 183.413C796.233 182.211 795.637 180.633 795.637 178.678C795.637 176.672 796.25 175.064 797.478 173.854C798.705 172.635 800.334 172.025 802.365 172.025Z" fill="black"/>
<path d="M824.049 165.602C823.947 166.312 823.765 166.905 823.503 167.379C823.249 167.853 822.94 168.242 822.576 168.547C822.212 168.843 821.81 169.067 821.37 169.22C820.938 169.372 820.49 169.482 820.024 169.55L817.968 169.867C817.409 169.952 816.851 170.079 816.292 170.248C815.733 170.417 815.221 170.692 814.756 171.073C814.29 171.446 813.901 171.958 813.588 172.609C813.283 173.253 813.105 174.09 813.055 175.123H813.105C813.673 174.226 814.396 173.54 815.276 173.066C816.157 172.584 817.121 172.343 818.171 172.343C819.212 172.343 820.062 172.499 820.723 172.812C821.417 173.126 821.954 173.46 822.335 173.815C822.944 174.357 823.427 175.026 823.782 175.821C824.138 176.617 824.315 177.586 824.315 178.729C824.315 180.015 824.1 181.081 823.668 181.928C823.456 182.351 823.215 182.728 822.944 183.058C822.674 183.388 822.377 183.675 822.056 183.921C821.404 184.42 820.68 184.763 819.885 184.949C819.106 185.135 818.336 185.229 817.574 185.229C816.415 185.229 815.479 185.059 814.769 184.721C814.024 184.374 813.461 184.018 813.08 183.654C812.648 183.248 812.297 182.808 812.026 182.334C811.764 181.852 811.561 181.356 811.417 180.849C811.273 180.341 811.176 179.829 811.125 179.312C811.074 178.796 811.049 178.293 811.049 177.802C811.049 177.057 811.091 176.283 811.176 175.479C811.26 174.666 811.4 173.875 811.595 173.104C811.789 172.326 812.043 171.594 812.356 170.908C812.678 170.214 813.067 169.618 813.524 169.118C813.914 168.695 814.316 168.348 814.73 168.077C815.145 167.806 815.56 167.59 815.975 167.43C816.398 167.26 816.817 167.133 817.231 167.049C817.655 166.956 818.065 166.88 818.463 166.82L820.52 166.566C820.74 166.541 820.955 166.507 821.167 166.465C821.387 166.423 821.603 166.372 821.814 166.312C822.229 166.186 822.487 165.949 822.589 165.602H824.049ZM817.676 173.739C817.075 173.739 816.588 173.887 816.216 174.184C815.852 174.471 815.56 174.818 815.34 175.225C815.171 175.572 815.01 176.012 814.857 176.545C814.714 177.104 814.642 177.84 814.642 178.754C814.642 179.126 814.667 179.596 814.718 180.163C814.769 180.73 814.891 181.293 815.086 181.852C815.281 182.376 815.581 182.842 815.987 183.248C816.377 183.637 816.931 183.832 817.65 183.832C818.37 183.832 818.941 183.633 819.364 183.235C819.796 182.829 820.105 182.364 820.291 181.839C820.503 181.28 820.625 180.734 820.659 180.201C820.676 179.922 820.689 179.676 820.697 179.465C820.714 179.245 820.723 179.054 820.723 178.894C820.723 178.301 820.68 177.7 820.596 177.091C820.52 176.473 820.367 175.919 820.139 175.428C819.919 174.928 819.61 174.522 819.212 174.209C818.814 173.896 818.302 173.739 817.676 173.739Z" fill="black"/>
<path d="M825.991 183.832L827.375 183.705L827.743 183.337V174.006L827.375 173.638L825.991 173.511V172.343H832.263V173.511L831.171 173.638L830.803 174.006V183.54H835.195V174.006L834.84 173.638L833.748 173.511V172.343H839.728V173.511L838.636 173.638L838.268 174.006V183.54H842.66V174.006L842.292 173.638L841.2 173.511V172.343H847.472V173.511L846.088 173.638L845.732 174.006V183.286L846.037 183.54H847.624V188.796H845.809L845.288 185.419L844.895 185H825.991V183.832Z" fill="black"/>
<path d="M857.577 176.989V176.71C857.577 175.652 857.382 174.844 856.993 174.285C856.604 173.718 856.045 173.435 855.317 173.435C854.522 173.435 853.883 173.752 853.4 174.387C852.918 175.013 852.656 175.881 852.613 176.989H857.577ZM860.992 181.775V183.705C860.104 184.213 859.206 184.594 858.301 184.848C857.395 185.102 856.49 185.229 855.584 185.229C853.646 185.229 852.089 184.632 850.912 183.438C849.744 182.245 849.16 180.667 849.16 178.703C849.16 176.731 849.757 175.123 850.95 173.879C852.152 172.626 853.697 172 855.584 172C857.294 172 858.622 172.516 859.57 173.549C860.518 174.573 860.992 176.016 860.992 177.878V178.373H852.486V178.449C852.486 179.93 852.859 181.094 853.604 181.94C854.348 182.787 855.372 183.21 856.676 183.21C857.361 183.21 858.06 183.091 858.771 182.854C859.481 182.618 860.222 182.258 860.992 181.775Z" fill="black"/>
<path d="M873.891 183.832C873.036 184.298 872.206 184.645 871.402 184.873C870.598 185.093 869.79 185.203 868.978 185.203C867.116 185.203 865.609 184.615 864.458 183.438C863.315 182.262 862.744 180.722 862.744 178.817C862.744 176.845 863.37 175.229 864.623 173.968C865.884 172.707 867.492 172.076 869.447 172.076C870.725 172.076 871.758 172.343 872.545 172.876C873.34 173.401 873.738 174.078 873.738 174.907C873.738 175.424 873.561 175.851 873.205 176.189C872.858 176.52 872.414 176.685 871.872 176.685C871.576 176.685 871.301 176.646 871.047 176.57C870.801 176.486 870.564 176.359 870.336 176.189V173.435C870.192 173.401 870.065 173.38 869.955 173.371C869.854 173.354 869.76 173.346 869.676 173.346C868.711 173.346 867.903 173.803 867.251 174.717C866.599 175.622 866.273 176.778 866.273 178.183C866.273 179.723 866.633 180.938 867.353 181.826C868.072 182.715 869.049 183.159 870.285 183.159C870.844 183.159 871.428 183.062 872.037 182.867C872.646 182.664 873.264 182.368 873.891 181.979V183.832Z" fill="black"/>
<path d="M878.08 183.832L879.578 183.705L879.946 183.337V173.79H877.788L877.395 174.209L877.09 176.812H875.325V172.343H887.779V176.812H886.002L885.697 174.209L885.304 173.79H883.146V183.337L883.539 183.705L885.012 183.832V185H878.08V183.832Z" fill="black"/>
<path d="M896.171 172.343C897.229 172.343 898.02 172.432 898.545 172.609C898.816 172.694 899.04 172.774 899.218 172.851C899.396 172.918 899.531 172.982 899.624 173.041C900.064 173.32 900.369 173.65 900.538 174.031C900.707 174.412 900.792 174.835 900.792 175.301C900.792 176.079 900.534 176.723 900.018 177.23C899.493 177.73 898.85 178.056 898.088 178.208V178.271C898.494 178.305 898.9 178.377 899.307 178.487C899.713 178.597 900.077 178.771 900.398 179.008C900.72 179.236 900.978 179.541 901.173 179.922C901.376 180.294 901.478 180.764 901.478 181.331C901.478 181.737 901.427 182.101 901.325 182.423C901.224 182.744 901.088 183.032 900.919 183.286C900.75 183.532 900.547 183.747 900.31 183.934C900.073 184.111 899.823 184.264 899.561 184.391C899.044 184.645 898.481 184.81 897.872 184.886C897.271 184.962 896.746 185 896.298 185H888.808V183.832L890.191 183.705L890.56 183.337V174.006L890.191 173.638L888.706 173.511V172.343H896.171ZM893.746 177.662C893.89 177.688 894.085 177.704 894.33 177.713C894.584 177.721 894.834 177.726 895.079 177.726C895.308 177.726 895.57 177.704 895.866 177.662C896.171 177.62 896.454 177.527 896.717 177.383C896.988 177.239 897.216 177.032 897.402 176.761C897.589 176.49 897.682 176.126 897.682 175.669C897.682 174.975 897.44 174.48 896.958 174.184C896.484 173.887 895.925 173.739 895.282 173.739C895.045 173.739 894.796 173.748 894.533 173.765C894.271 173.782 894.008 173.807 893.746 173.841V177.662ZM893.746 183.438C894.237 183.54 894.749 183.591 895.282 183.591C895.646 183.591 896.006 183.557 896.361 183.489C896.717 183.422 897.043 183.248 897.339 182.969C897.491 182.833 897.61 182.689 897.694 182.537C897.779 182.376 897.842 182.224 897.885 182.08C897.927 181.928 897.952 181.784 897.961 181.648C897.978 181.505 897.986 181.382 897.986 181.28C897.986 181.001 897.944 180.73 897.859 180.468C897.775 180.197 897.631 179.956 897.428 179.744C897.233 179.524 896.966 179.351 896.628 179.224C896.289 179.088 895.866 179.021 895.358 179.021C895.181 179.021 895.007 179.025 894.838 179.033C894.669 179.042 894.508 179.05 894.355 179.059C894.212 179.067 894.085 179.08 893.975 179.097C893.873 179.105 893.797 179.114 893.746 179.122V183.438Z" fill="black"/>
<path d="M910.123 173.409C909.175 173.409 908.435 173.862 907.901 174.768C907.368 175.673 907.102 176.943 907.102 178.576C907.102 180.235 907.364 181.526 907.889 182.448C908.422 183.371 909.158 183.832 910.098 183.832C911.079 183.832 911.837 183.383 912.37 182.486C912.903 181.589 913.17 180.311 913.17 178.652C913.17 177.002 912.899 175.715 912.357 174.793C911.824 173.87 911.079 173.409 910.123 173.409ZM910.225 172.025C912.222 172.025 913.809 172.631 914.985 173.841C916.162 175.043 916.75 176.672 916.75 178.729C916.75 180.675 916.136 182.241 914.909 183.426C913.682 184.611 912.053 185.203 910.021 185.203C908.066 185.203 906.488 184.606 905.286 183.413C904.093 182.211 903.496 180.633 903.496 178.678C903.496 176.672 904.11 175.064 905.337 173.854C906.564 172.635 908.193 172.025 910.225 172.025Z" fill="black"/>
</svg>
