<svg width="1846" height="422" viewBox="0 0 1846 422" fill="none" xmlns="http://www.w3.org/2000/svg">
<path d="M40.0214 79.8003C37.7477 83.9472 36.0425 87.7598 34.9055 91.2378C33.8355 94.7159 33.3004 97.96 33.3004 100.97C33.3004 109.063 35.8417 115.953 40.9243 121.638C46.0737 127.257 52.293 130.066 59.5824 130.066C65.4675 130.066 70.4162 128.293 74.4287 124.748C78.5081 121.203 80.5477 116.889 80.5477 111.806C80.5477 106.455 77.8058 101.538 72.3221 97.057C66.9051 92.5087 56.1383 86.7565 40.0214 79.8003ZM82.9553 67.0584C94.3241 71.3391 102.416 76.2887 107.231 81.9072C112.046 87.4589 114.453 94.6156 114.453 103.378C114.453 116.22 109.271 126.287 98.905 133.577C88.6062 140.868 74.3284 144.513 56.0714 144.513C39.2858 144.513 25.8441 140.835 15.7458 133.477C5.6477 126.119 0.598633 116.421 0.598633 104.381C0.598633 96.4885 3.00614 90.0339 7.82113 85.0174C12.6361 79.934 19.7583 76.389 29.1877 74.3824C21.3633 70.7704 15.5452 66.289 11.7333 60.9383C7.98833 55.5872 6.11582 49.2663 6.11582 41.9757C6.11582 29.2003 11.0646 19.1339 20.9621 11.7763C30.8597 4.35188 44.4017 0.639648 61.5887 0.639648C76.1005 0.639648 87.6698 4.01744 96.2968 10.773C104.924 17.4617 109.237 26.4246 109.237 37.6615C109.237 44.0826 106.997 49.8014 102.516 54.8179C98.1024 59.7677 91.582 63.8476 82.9553 67.0584ZM71.921 61.4398C73.9272 58.1623 75.3984 54.9518 76.3346 51.808C77.3377 48.6645 77.8394 45.4539 77.8394 42.1765C77.8394 34.0162 75.9668 27.4946 72.2218 22.612C68.4769 17.7292 63.4946 15.2879 57.2753 15.2879C52.5939 15.2879 48.7486 16.9266 45.7393 20.2041C42.7299 23.4147 41.2251 27.595 41.2251 32.7453C41.2251 38.297 43.5658 43.2801 48.2472 47.6945C52.9284 52.1092 60.8197 56.6909 71.921 61.4398Z" fill="#B10007"/>
<path d="M144.146 3.54932H235.329V30.0364H164.61V58.6306C170.094 56.6909 175.343 55.2528 180.359 54.3165C185.374 53.3132 190.189 52.8114 194.804 52.8114C209.717 52.8114 221.722 56.624 230.816 64.2492C239.977 71.8743 244.558 81.9073 244.558 94.3481C244.558 109.465 238.74 121.504 227.105 130.467C215.468 139.43 199.719 143.911 179.857 143.911C166.415 143.911 155.515 141.37 147.155 136.286C138.796 131.136 134.616 124.615 134.616 116.722C134.616 111.304 136.455 106.823 140.133 103.278C143.812 99.6658 148.493 97.8598 154.177 97.8598C155.983 97.8598 157.922 98.0604 159.995 98.4619C162.068 98.8631 164.376 99.4652 166.917 100.268L173.036 129.063C173.237 129.063 173.571 129.096 174.039 129.163C175.978 129.364 177.45 129.464 178.453 129.464C187.214 129.464 194.403 126.755 200.02 121.337C205.638 115.919 208.446 108.963 208.446 100.468C208.446 92.2412 205.203 85.586 198.716 80.5026C192.229 75.3524 183.669 72.7773 173.036 72.7773C168.622 72.7773 164.008 73.2119 159.193 74.0815C154.378 74.8842 149.362 76.0881 144.146 77.6935V3.54932Z" fill="#B10007"/>
<path d="M389.31 14.3849C382.422 14.3849 377.306 19.1339 373.962 28.6319C370.686 38.0628 369.047 52.5774 369.047 72.1752C369.047 92.4418 370.652 107.19 373.862 116.421C377.138 125.651 382.287 130.266 389.31 130.266C396.465 130.266 401.683 125.651 404.959 116.421C408.235 107.19 409.874 92.4418 409.874 72.1752C409.874 52.1759 408.202 37.5613 404.859 28.331C401.581 19.0336 396.399 14.3849 389.31 14.3849ZM389.109 1.04102C407.166 1.04102 421.409 7.39527 431.843 20.1038C442.276 32.8123 447.492 50.2363 447.492 72.3758C447.492 94.5154 442.276 111.973 431.843 124.748C421.409 137.524 407.166 143.911 389.109 143.911C371.32 143.911 357.277 137.557 346.978 124.849C336.746 112.073 331.63 94.5823 331.63 72.3758C331.63 50.2363 336.746 32.8123 346.978 20.1038C357.21 7.39527 371.253 1.04102 389.109 1.04102Z" fill="#B10007"/>
<path d="M521.721 14.3849C514.834 14.3849 509.717 19.1339 506.375 28.6319C503.097 38.0628 501.46 52.5774 501.46 72.1752C501.46 92.4418 503.064 107.19 506.274 116.421C509.552 125.651 514.701 130.266 521.721 130.266C528.879 130.266 534.094 125.651 537.37 116.421C540.648 107.19 542.285 92.4418 542.285 72.1752C542.285 52.1759 540.615 37.5613 537.271 28.331C533.995 19.0336 528.81 14.3849 521.721 14.3849ZM521.523 1.04102C539.577 1.04102 553.823 7.39527 564.254 20.1038C574.687 32.8123 579.903 50.2363 579.903 72.3758C579.903 94.5154 574.687 111.973 564.254 124.748C553.823 137.524 539.577 143.911 521.523 143.911C503.733 143.911 489.688 137.557 479.39 124.849C469.157 112.073 464.043 94.5823 464.043 72.3758C464.043 50.2363 469.157 32.8123 479.39 20.1038C489.622 7.39527 503.667 1.04102 521.523 1.04102Z" fill="#B10007"/>
<path d="M654.135 14.3849C647.247 14.3849 642.131 19.1339 638.787 28.6319C635.511 38.0628 633.872 52.5774 633.872 72.1752C633.872 92.4418 635.478 107.19 638.687 116.421C641.963 125.651 647.113 130.266 654.135 130.266C661.29 130.266 666.506 125.651 669.784 116.421C673.06 107.19 674.699 92.4418 674.699 72.1752C674.699 52.1759 673.027 37.5613 669.682 28.331C666.406 19.0336 661.224 14.3849 654.135 14.3849ZM653.934 1.04102C671.991 1.04102 686.235 7.39527 696.668 20.1038C707.099 32.8123 712.317 50.2363 712.317 72.3758C712.317 94.5154 707.099 111.973 696.668 124.748C686.235 137.524 671.991 143.911 653.934 143.911C636.145 143.911 622.102 137.557 611.803 124.849C601.571 112.073 596.455 94.5823 596.455 72.3758C596.455 50.2363 601.571 32.8123 611.803 20.1038C622.036 7.39527 636.079 1.04102 653.934 1.04102Z" fill="#B10007"/>
<path d="M839.745 261.105H862.502V393.907L864.985 397.252L889.254 398.331V410.953H795.628V398.114L821.191 396.822L823.888 393.046V290.124L820.977 287.643L789.372 291.852V278.582L839.745 261.105Z" fill="#B10007"/>
<path d="M978.78 274.375C971.373 274.375 965.872 279.481 962.276 289.693C958.753 299.834 956.992 315.442 956.992 336.515C956.992 358.307 958.717 374.166 962.17 384.091C965.693 394.015 971.229 398.978 978.78 398.978C986.474 398.978 992.082 394.015 995.606 384.091C999.129 374.166 1000.89 358.307 1000.89 336.515C1000.89 315.011 999.094 299.295 995.5 289.37C991.976 279.373 986.403 274.375 978.78 274.375ZM978.565 260.025C997.981 260.025 1013.3 266.859 1024.51 280.524C1035.73 294.189 1041.34 312.925 1041.34 336.729C1041.34 360.536 1035.73 379.307 1024.51 393.046C1013.3 406.781 997.981 413.651 978.565 413.651C959.437 413.651 944.336 406.817 933.262 393.152C922.259 379.416 916.759 360.609 916.759 336.729C916.759 312.925 922.259 294.189 933.262 280.524C944.263 266.859 959.364 260.025 978.565 260.025Z" fill="#B10007"/>
<path d="M1215.32 332.739C1210.72 332.739 1207.23 335.651 1204.86 341.478C1202.56 347.302 1201.41 355.861 1201.41 367.153C1201.41 378.516 1202.56 387.111 1204.86 392.937C1207.23 398.761 1210.72 401.675 1215.32 401.675C1220.07 401.675 1223.63 398.799 1226 393.046C1228.45 387.29 1229.67 378.66 1229.67 367.153C1229.67 355.934 1228.45 347.41 1226 341.586C1223.56 335.687 1220 332.739 1215.32 332.739ZM1216.19 320.978C1228.99 320.978 1239.13 325.15 1246.6 333.493C1254.15 341.765 1257.93 352.984 1257.93 367.153C1257.93 381.466 1254.19 392.794 1246.71 401.136C1239.23 409.479 1229.06 413.651 1216.19 413.651C1203.24 413.651 1193.03 409.515 1185.55 401.242C1178.15 392.9 1174.44 381.537 1174.44 367.153C1174.44 352.984 1178.18 341.765 1185.66 333.493C1193.21 325.15 1203.39 320.978 1216.19 320.978ZM1100.67 271.786C1096.06 271.786 1092.58 274.698 1090.2 280.524C1087.9 286.35 1086.75 294.907 1086.75 306.2C1086.75 317.563 1087.9 326.157 1090.2 331.984C1092.58 337.81 1096.06 340.722 1100.67 340.722C1105.48 340.722 1109.11 337.81 1111.56 331.984C1114 326.157 1115.23 317.563 1115.23 306.2C1115.23 295.051 1113.97 286.529 1111.45 280.632C1109.01 274.733 1105.41 271.786 1100.67 271.786ZM1196.12 262.723H1214.03L1119.43 410.953H1101.74L1196.12 262.723ZM1101.53 260.025C1114.4 260.025 1124.61 264.196 1132.16 272.541C1139.71 280.811 1143.49 292.031 1143.49 306.2C1143.49 320.583 1139.71 331.911 1132.16 340.183C1124.68 348.453 1114.47 352.589 1101.53 352.589C1088.66 352.589 1078.48 348.453 1071 340.183C1063.52 331.911 1059.78 320.583 1059.78 306.2C1059.78 291.96 1063.52 280.703 1071 272.433C1078.55 264.161 1088.73 260.025 1101.53 260.025Z" fill="#B10007"/>
<path d="M776.207 19.6289L776.234 34.2305C776.471 34.2487 776.727 34.2669 777 34.2852C777.292 34.2852 777.702 34.2852 778.23 34.2852C781.257 34.2852 783.49 33.6745 784.93 32.4531C786.37 31.2318 787.09 29.3451 787.09 26.793C787.09 24.4596 786.379 22.6823 784.957 21.4609C783.535 20.2396 781.484 19.6289 778.805 19.6289H776.207ZM764.723 16.4297H781.758C786.06 16.4297 789.323 17.2409 791.547 18.8633C793.789 20.4857 794.91 22.8646 794.91 26C794.91 28.5703 794.099 30.6667 792.477 32.2891C790.854 33.8932 788.457 34.987 785.285 35.5703C786.671 35.8984 787.837 36.3451 788.785 36.9102C789.751 37.457 790.544 38.168 791.164 39.043C791.948 40.1732 792.732 42.0326 793.516 44.6211C793.898 45.8424 794.199 46.7448 794.418 47.3281C794.983 48.8047 795.73 49.8346 796.66 50.418C797.608 50.9831 799.066 51.2656 801.035 51.2656H801.746V53.9453C800.707 54.0911 799.714 54.2005 798.766 54.2734C797.836 54.3464 796.961 54.3828 796.141 54.3828C794.992 54.3828 793.908 54.237 792.887 53.9453C791.884 53.6354 791.027 53.207 790.316 52.6602C788.621 51.3477 787.29 49.1875 786.324 46.1797C786.197 45.7604 786.096 45.4323 786.023 45.1953C784.966 42.0052 783.827 39.9271 782.605 38.9609C781.384 37.9766 779.57 37.4844 777.164 37.4844H776.207V50.0898L777.109 50.9648L780.527 51.2656V54H764.723V51.2656L768.031 50.9648L768.934 50.0898V20.2305L768.031 19.4375L764.723 19.1641V16.4297Z" fill="black"/>
<path d="M807.734 26.0547H810.414V43.418C810.414 45.6419 810.824 47.2461 811.645 48.2305C812.483 49.1966 813.85 49.6797 815.746 49.6797C816.384 49.6797 817.086 49.6159 817.852 49.4883C818.635 49.3424 819.538 49.1146 820.559 48.8047V30.9219H816.922V28.6797L824.879 26.0547H827.449V50.418L828.215 51.2656L831.141 51.4844V54H820.559V50.9102C818.608 52.1862 816.885 53.1068 815.391 53.6719C813.914 54.2188 812.501 54.4922 811.152 54.4922C808.564 54.4922 806.632 53.7083 805.355 52.1406C804.098 50.5729 803.469 48.1667 803.469 44.9219V30.9219H799.832V28.6797L807.734 26.0547Z" fill="black"/>
<path d="M854.301 27.3945V34.8594H850.938L850.391 30.6484L849.707 30.0195C849.087 29.7279 848.467 29.5091 847.848 29.3633C847.228 29.2174 846.617 29.1445 846.016 29.1445C844.667 29.1445 843.618 29.4453 842.871 30.0469C842.124 30.6302 841.75 31.4505 841.75 32.5078C841.75 33.3828 842.042 34.1393 842.625 34.7773C843.208 35.4154 844.658 36.2995 846.973 37.4297L847.082 37.4844C852.46 40.0729 855.148 42.707 855.148 45.3867C855.148 48.2487 854.128 50.5091 852.086 52.168C850.062 53.8086 847.273 54.6289 843.719 54.6289C842.333 54.6289 840.866 54.5104 839.316 54.2734C837.785 54.0365 836.172 53.681 834.477 53.207V44.9219H837.84L838.496 49.7344L839.07 50.3633C839.799 50.7461 840.556 51.0378 841.34 51.2383C842.124 51.4388 842.935 51.5391 843.773 51.5391C845.25 51.5391 846.408 51.1836 847.246 50.4727C848.103 49.7435 848.531 48.75 848.531 47.4922C848.531 45.9062 846.918 44.3841 843.691 42.9258C842.598 42.4336 841.75 42.0326 841.148 41.7227C838.833 40.5742 837.202 39.444 836.254 38.332C835.324 37.2018 834.859 35.8711 834.859 34.3398C834.859 31.8424 835.853 29.8281 837.84 28.2969C839.845 26.7656 842.516 26 845.852 26C847.273 26 848.686 26.1185 850.09 26.3555C851.493 26.5742 852.897 26.9206 854.301 27.3945Z" fill="black"/>
<path d="M879.348 27.3945V34.8594H875.984L875.438 30.6484L874.754 30.0195C874.134 29.7279 873.514 29.5091 872.895 29.3633C872.275 29.2174 871.664 29.1445 871.062 29.1445C869.714 29.1445 868.665 29.4453 867.918 30.0469C867.171 30.6302 866.797 31.4505 866.797 32.5078C866.797 33.3828 867.089 34.1393 867.672 34.7773C868.255 35.4154 869.704 36.2995 872.02 37.4297L872.129 37.4844C877.507 40.0729 880.195 42.707 880.195 45.3867C880.195 48.2487 879.174 50.5091 877.133 52.168C875.109 53.8086 872.32 54.6289 868.766 54.6289C867.38 54.6289 865.913 54.5104 864.363 54.2734C862.832 54.0365 861.219 53.681 859.523 53.207V44.9219H862.887L863.543 49.7344L864.117 50.3633C864.846 50.7461 865.603 51.0378 866.387 51.2383C867.171 51.4388 867.982 51.5391 868.82 51.5391C870.297 51.5391 871.454 51.1836 872.293 50.4727C873.15 49.7435 873.578 48.75 873.578 47.4922C873.578 45.9062 871.965 44.3841 868.738 42.9258C867.645 42.4336 866.797 42.0326 866.195 41.7227C863.88 40.5742 862.249 39.444 861.301 38.332C860.371 37.2018 859.906 35.8711 859.906 34.3398C859.906 31.8424 860.9 29.8281 862.887 28.2969C864.892 26.7656 867.562 26 870.898 26C872.32 26 873.733 26.1185 875.137 26.3555C876.54 26.5742 877.944 26.9206 879.348 27.3945Z" fill="black"/>
<path d="M891.953 26.2188H894.66V50.418L895.48 51.2656L898.625 51.4844V54H883.941V51.4844L886.977 51.2656L887.77 50.418V31.0859H884.078V28.8438L891.953 26.2188ZM891.352 13.4492C892.573 13.4492 893.576 13.8411 894.359 14.625C895.143 15.3906 895.535 16.3659 895.535 17.5508C895.535 18.7904 895.143 19.8112 894.359 20.6133C893.594 21.3971 892.609 21.7891 891.406 21.7891C890.24 21.7891 889.264 21.3971 888.48 20.6133C887.697 19.8294 887.305 18.8451 887.305 17.6602C887.305 16.457 887.688 15.4544 888.453 14.6523C889.237 13.8503 890.203 13.4492 891.352 13.4492Z" fill="black"/>
<path d="M918.586 48.5039V39.3711C914.904 40.1914 912.388 41.0846 911.039 42.0508C909.69 43.0169 909.016 44.3294 909.016 45.9883C909.016 47.2826 909.389 48.3125 910.137 49.0781C910.884 49.8255 911.896 50.1992 913.172 50.1992C913.883 50.1992 914.685 50.0625 915.578 49.7891C916.49 49.4974 917.492 49.069 918.586 48.5039ZM918.586 50.8008C916.69 52.0951 914.967 53.0339 913.418 53.6172C911.868 54.2005 910.383 54.4922 908.961 54.4922C906.81 54.4922 905.051 53.8177 903.684 52.4688C902.316 51.1016 901.633 49.3516 901.633 47.2188C901.633 44.5938 902.635 42.5703 904.641 41.1484C906.646 39.7266 911.322 38.1862 918.668 36.5273V34.8594C918.668 32.8359 918.24 31.3594 917.383 30.4297C916.526 29.5 915.177 29.0352 913.336 29.0352C912.935 29.0352 912.516 29.0625 912.078 29.1172C911.641 29.1719 911.167 29.2539 910.656 29.3633V34.6133H905.488C904.595 34.6133 903.939 34.4492 903.52 34.1211C903.118 33.793 902.918 33.2734 902.918 32.5625C902.918 30.8125 904.094 29.2904 906.445 27.9961C908.797 26.7018 911.686 26.0547 915.113 26.0547C918.96 26.0547 921.667 26.793 923.234 28.2695C924.802 29.7461 925.586 32.3164 925.586 35.9805V50.4727L926.324 51.2656L929.305 51.5391V54H919.324L918.586 50.8008Z" fill="black"/>
<path d="M931.574 54V51.4844L934.445 51.2656L935.238 50.418V31.0859H931.41V28.8438L939.477 26.2188H942.184V29.5273C944.316 28.3424 946.158 27.4766 947.707 26.9297C949.257 26.3828 950.605 26.1094 951.754 26.1094C954.306 26.1094 956.211 26.875 957.469 28.4062C958.727 29.9375 959.355 32.2708 959.355 35.4062V50.418L960.094 51.2656L963.047 51.4844V54H949.348V51.4844L951.754 51.2656L952.52 50.418V37.0195C952.52 34.9414 952.118 33.4193 951.316 32.4531C950.514 31.4688 949.238 30.9766 947.488 30.9766C946.814 30.9766 946.03 31.0586 945.137 31.2227C944.262 31.3867 943.277 31.6237 942.184 31.9336V50.418L942.949 51.2656L945.41 51.4844V54H931.574Z" fill="black"/>
<path d="M996.406 29.0352C994.365 29.0352 992.77 30.0104 991.621 31.9609C990.473 33.9115 989.898 36.6458 989.898 40.1641C989.898 43.737 990.464 46.5169 991.594 48.5039C992.742 50.4909 994.328 51.4844 996.352 51.4844C998.466 51.4844 1000.1 50.5182 1001.25 48.5859C1002.39 46.6536 1002.97 43.901 1002.97 40.3281C1002.97 36.7734 1002.39 34.0026 1001.22 32.0156C1000.07 30.0286 998.466 29.0352 996.406 29.0352ZM996.625 26.0547C1000.93 26.0547 1004.35 27.3581 1006.88 29.9648C1009.41 32.5534 1010.68 36.0625 1010.68 40.4922C1010.68 44.6849 1009.36 48.0573 1006.71 50.6094C1004.07 53.1615 1000.56 54.4375 996.188 54.4375C991.977 54.4375 988.577 53.1523 985.988 50.582C983.418 47.9935 982.133 44.5938 982.133 40.3828C982.133 36.0625 983.454 32.599 986.098 29.9922C988.741 27.3672 992.25 26.0547 996.625 26.0547Z" fill="black"/>
<path d="M1013.99 54V51.4844L1016.97 51.2656L1017.76 50.418V31.0859H1013.71V28.8438L1021.95 26.2188H1024.65L1024.41 31.9336C1025.37 30.9128 1026.4 29.9284 1027.5 28.9805C1028.59 28.0143 1029.74 27.1029 1030.94 26.2461C1031.25 26.1914 1031.5 26.1549 1031.68 26.1367C1031.88 26.1185 1032.05 26.1094 1032.2 26.1094C1032.8 26.1094 1033.4 26.1914 1034 26.3555C1034.62 26.5013 1035.25 26.7383 1035.89 27.0664L1035.18 34.8047H1032.25C1031.83 34.112 1031.32 33.6016 1030.72 33.2734C1030.14 32.9453 1029.44 32.7812 1028.62 32.7812C1028.14 32.7812 1027.57 32.918 1026.89 33.1914C1026.24 33.4466 1025.49 33.8294 1024.65 34.3398V50.418L1025.47 51.2656L1029.46 51.4844V54H1013.99Z" fill="black"/>
<path d="M1047.87 50.6367C1048.47 50.7643 1049.06 50.8646 1049.64 50.9375C1050.25 50.9922 1050.85 51.0195 1051.45 51.0195C1053.96 51.0195 1055.96 50.0443 1057.44 48.0938C1058.93 46.1432 1059.68 43.5182 1059.68 40.2188C1059.68 37.2839 1059.02 34.9961 1057.71 33.3555C1056.42 31.6966 1054.61 30.8672 1052.3 30.8672C1051.7 30.8672 1051.03 30.9583 1050.3 31.1406C1049.59 31.3047 1048.78 31.569 1047.87 31.9336V50.6367ZM1037.23 66.2773V63.6797L1040.27 63.4062L1041.03 62.5586V31.0859H1037.23V28.8438L1045.35 26.2188H1047.87V29.582C1049.64 28.3607 1051.23 27.4674 1052.65 26.9023C1054.07 26.3372 1055.43 26.0547 1056.73 26.0547C1059.77 26.0547 1062.3 27.3034 1064.3 29.8008C1066.31 32.2799 1067.31 35.4336 1067.31 39.2617C1067.31 43.7461 1065.97 47.3281 1063.29 50.0078C1060.61 52.6693 1057 54 1052.46 54C1051.7 54 1050.93 53.9818 1050.16 53.9453C1049.42 53.8906 1048.66 53.8177 1047.89 53.7266L1047.87 62.668L1048.71 63.4609L1052.19 63.6797V66.2773H1037.23Z" fill="black"/>
<path d="M1078.22 12.6289H1080.9V29.5273C1083.14 28.306 1085.01 27.431 1086.5 26.9023C1088.02 26.3737 1089.34 26.1094 1090.47 26.1094C1093.06 26.1094 1094.98 26.8841 1096.24 28.4336C1097.51 29.9648 1098.15 32.2891 1098.15 35.4062V50.418L1098.89 51.2656L1101.84 51.4844V54H1088.12V51.4844L1090.52 51.2656L1091.32 50.418V37.0195C1091.32 34.9414 1090.91 33.4193 1090.09 32.4531C1089.28 31.4688 1088.02 30.9766 1086.29 30.9766C1085.57 30.9766 1084.77 31.0586 1083.88 31.2227C1083 31.3867 1082.01 31.6237 1080.9 31.9336V50.418L1081.75 51.2656L1084.21 51.4844V54H1070.37V51.4844L1073.24 51.2656L1074.01 50.418V17.4414H1069.93V15.2539L1078.22 12.6289Z" fill="black"/>
<path d="M1121.7 48.5039V39.3711C1118.01 40.1914 1115.5 41.0846 1114.15 42.0508C1112.8 43.0169 1112.12 44.3294 1112.12 45.9883C1112.12 47.2826 1112.5 48.3125 1113.25 49.0781C1113.99 49.8255 1115.01 50.1992 1116.28 50.1992C1116.99 50.1992 1117.79 50.0625 1118.69 49.7891C1119.6 49.4974 1120.6 49.069 1121.7 48.5039ZM1121.7 50.8008C1119.8 52.0951 1118.08 53.0339 1116.53 53.6172C1114.98 54.2005 1113.49 54.4922 1112.07 54.4922C1109.92 54.4922 1108.16 53.8177 1106.79 52.4688C1105.43 51.1016 1104.74 49.3516 1104.74 47.2188C1104.74 44.5938 1105.74 42.5703 1107.75 41.1484C1109.76 39.7266 1114.43 38.1862 1121.78 36.5273V34.8594C1121.78 32.8359 1121.35 31.3594 1120.49 30.4297C1119.64 29.5 1118.29 29.0352 1116.45 29.0352C1116.04 29.0352 1115.62 29.0625 1115.19 29.1172C1114.75 29.1719 1114.28 29.2539 1113.77 29.3633V34.6133H1108.6C1107.7 34.6133 1107.05 34.4492 1106.63 34.1211C1106.23 33.793 1106.03 33.2734 1106.03 32.5625C1106.03 30.8125 1107.2 29.2904 1109.55 27.9961C1111.91 26.7018 1114.8 26.0547 1118.22 26.0547C1122.07 26.0547 1124.78 26.793 1126.34 28.2695C1127.91 29.7461 1128.7 32.3164 1128.7 35.9805V50.4727L1129.43 51.2656L1132.41 51.5391V54H1122.43L1121.7 50.8008Z" fill="black"/>
<path d="M1134.68 54V51.4844L1137.55 51.2656L1138.35 50.418V31.0859H1134.52V28.8438L1142.59 26.2188H1145.29V29.5273C1147.43 28.3424 1149.27 27.4766 1150.82 26.9297C1152.37 26.3828 1153.71 26.1094 1154.86 26.1094C1157.42 26.1094 1159.32 26.875 1160.58 28.4062C1161.84 29.9375 1162.46 32.2708 1162.46 35.4062V50.418L1163.2 51.2656L1166.16 51.4844V54H1152.46V51.4844L1154.86 51.2656L1155.63 50.418V37.0195C1155.63 34.9414 1155.23 33.4193 1154.43 32.4531C1153.62 31.4688 1152.35 30.9766 1150.6 30.9766C1149.92 30.9766 1149.14 31.0586 1148.25 31.2227C1147.37 31.3867 1146.39 31.6237 1145.29 31.9336V50.418L1146.06 51.2656L1148.52 51.4844V54H1134.68Z" fill="black"/>
<path d="M1188.99 27.3945V34.8594H1185.62L1185.08 30.6484L1184.39 30.0195C1183.77 29.7279 1183.15 29.5091 1182.54 29.3633C1181.92 29.2174 1181.3 29.1445 1180.7 29.1445C1179.35 29.1445 1178.31 29.4453 1177.56 30.0469C1176.81 30.6302 1176.44 31.4505 1176.44 32.5078C1176.44 33.3828 1176.73 34.1393 1177.31 34.7773C1177.9 35.4154 1179.35 36.2995 1181.66 37.4297L1181.77 37.4844C1187.15 40.0729 1189.84 42.707 1189.84 45.3867C1189.84 48.2487 1188.82 50.5091 1186.77 52.168C1184.75 53.8086 1181.96 54.6289 1178.41 54.6289C1177.02 54.6289 1175.55 54.5104 1174 54.2734C1172.47 54.0365 1170.86 53.681 1169.16 53.207V44.9219H1172.53L1173.18 49.7344L1173.76 50.3633C1174.49 50.7461 1175.24 51.0378 1176.03 51.2383C1176.81 51.4388 1177.62 51.5391 1178.46 51.5391C1179.94 51.5391 1181.1 51.1836 1181.93 50.4727C1182.79 49.7435 1183.22 48.75 1183.22 47.4922C1183.22 45.9062 1181.61 44.3841 1178.38 42.9258C1177.29 42.4336 1176.44 42.0326 1175.84 41.7227C1173.52 40.5742 1171.89 39.444 1170.94 38.332C1170.01 37.2018 1169.55 35.8711 1169.55 34.3398C1169.55 31.8424 1170.54 29.8281 1172.53 28.2969C1174.53 26.7656 1177.2 26 1180.54 26C1181.96 26 1183.37 26.1185 1184.78 26.3555C1186.18 26.5742 1187.58 26.9206 1188.99 27.3945Z" fill="black"/>
<path d="M1230 48.668V29.9648C1229.17 29.6914 1228.41 29.4909 1227.73 29.3633C1227.06 29.2174 1226.43 29.1445 1225.85 29.1445C1223.4 29.1445 1221.45 30.1107 1219.97 32.043C1218.51 33.9753 1217.78 36.5729 1217.78 39.8359C1217.78 42.9349 1218.45 45.3594 1219.78 47.1094C1221.11 48.8594 1222.95 49.7344 1225.3 49.7344C1225.92 49.7344 1226.61 49.6523 1227.38 49.4883C1228.16 49.306 1229.04 49.0326 1230 48.668ZM1230 17.4961H1225.9V15.2539L1234.24 12.6289H1236.84V50.418L1237.61 51.3203L1240.48 51.5391V54H1230V50.8555C1228.29 52.1133 1226.72 53.0339 1225.3 53.6172C1223.88 54.2005 1222.49 54.4922 1221.14 54.4922C1217.97 54.4922 1215.37 53.2435 1213.32 50.7461C1211.3 48.2305 1210.29 44.9857 1210.29 41.0117C1210.29 36.5456 1211.62 32.9271 1214.28 30.1562C1216.96 27.3854 1220.44 26 1224.73 26C1225.53 26 1226.37 26.0456 1227.24 26.1367C1228.12 26.2279 1229.04 26.3646 1230 26.5469V17.4961Z" fill="black"/>
<path d="M1257.98 29.0352C1255.93 29.0352 1254.34 30.0104 1253.19 31.9609C1252.04 33.9115 1251.47 36.6458 1251.47 40.1641C1251.47 43.737 1252.03 46.5169 1253.16 48.5039C1254.31 50.4909 1255.9 51.4844 1257.92 51.4844C1260.04 51.4844 1261.67 50.5182 1262.82 48.5859C1263.96 46.6536 1264.54 43.901 1264.54 40.3281C1264.54 36.7734 1263.96 34.0026 1262.79 32.0156C1261.64 30.0286 1260.04 29.0352 1257.98 29.0352ZM1258.2 26.0547C1262.5 26.0547 1265.92 27.3581 1268.45 29.9648C1270.98 32.5534 1272.25 36.0625 1272.25 40.4922C1272.25 44.6849 1270.93 48.0573 1268.29 50.6094C1265.64 53.1615 1262.13 54.4375 1257.76 54.4375C1253.55 54.4375 1250.15 53.1523 1247.56 50.582C1244.99 47.9935 1243.7 44.5938 1243.7 40.3828C1243.7 36.0625 1245.02 32.599 1247.67 29.9922C1250.31 27.3672 1253.82 26.0547 1258.2 26.0547Z" fill="black"/>
<path d="M1291.96 54V51.4844L1294.84 51.2656L1295.63 50.418V31.0859H1291.8V28.8438L1299.87 26.2188H1302.57V29.5273C1304.71 28.3424 1306.55 27.4766 1308.1 26.9297C1309.65 26.3828 1311 26.1094 1312.14 26.1094C1314.7 26.1094 1316.6 26.875 1317.86 28.4062C1319.12 29.9375 1319.75 32.2708 1319.75 35.4062V50.418L1320.48 51.2656L1323.44 51.4844V54H1309.74V51.4844L1312.14 51.2656L1312.91 50.418V37.0195C1312.91 34.9414 1312.51 33.4193 1311.71 32.4531C1310.9 31.4688 1309.63 30.9766 1307.88 30.9766C1307.2 30.9766 1306.42 31.0586 1305.53 31.2227C1304.65 31.3867 1303.67 31.6237 1302.57 31.9336V50.418L1303.34 51.2656L1305.8 51.4844V54H1291.96Z" fill="black"/>
<path d="M1340.5 29.0352C1338.46 29.0352 1336.86 30.0104 1335.71 31.9609C1334.57 33.9115 1333.99 36.6458 1333.99 40.1641C1333.99 43.737 1334.56 46.5169 1335.69 48.5039C1336.84 50.4909 1338.42 51.4844 1340.45 51.4844C1342.56 51.4844 1344.19 50.5182 1345.34 48.5859C1346.49 46.6536 1347.06 43.901 1347.06 40.3281C1347.06 36.7734 1346.48 34.0026 1345.31 32.0156C1344.16 30.0286 1342.56 29.0352 1340.5 29.0352ZM1340.72 26.0547C1345.02 26.0547 1348.44 27.3581 1350.97 29.9648C1353.51 32.5534 1354.77 36.0625 1354.77 40.4922C1354.77 44.6849 1353.45 48.0573 1350.81 50.6094C1348.17 53.1615 1344.66 54.4375 1340.28 54.4375C1336.07 54.4375 1332.67 53.1523 1330.08 50.582C1327.51 47.9935 1326.23 44.5938 1326.23 40.3828C1326.23 36.0625 1327.55 32.599 1330.19 29.9922C1332.83 27.3672 1336.34 26.0547 1340.72 26.0547Z" fill="black"/>
<path d="M1361.17 30.8125H1357.54V28.6797L1361.66 26.3281L1364.59 20.5039H1368.12V27.4492H1376.4V30.8125H1368.12V44.7578C1368.12 46.8542 1368.45 48.2852 1369.13 49.0508C1369.8 49.8164 1371.02 50.1992 1372.77 50.1992C1373.46 50.1992 1374.1 50.1719 1374.68 50.1172C1375.28 50.0443 1375.86 49.944 1376.4 49.8164V52.4961C1374.8 53.0794 1373.27 53.526 1371.81 53.8359C1370.37 54.1276 1369.05 54.2734 1367.84 54.2734C1366.86 54.2734 1365.98 54.1732 1365.22 53.9727C1364.47 53.7721 1363.8 53.4622 1363.2 53.043C1362.45 52.5508 1361.92 51.9401 1361.61 51.2109C1361.32 50.4635 1361.17 49.0964 1361.17 47.1094V30.8125Z" fill="black"/>
<path d="M772.188 102.629H774.867V119.527C777.109 118.306 778.978 117.431 780.473 116.902C781.986 116.374 783.307 116.109 784.438 116.109C787.026 116.109 788.949 116.884 790.207 118.434C791.483 119.965 792.121 122.289 792.121 125.406V140.418L792.859 141.266L795.812 141.484V144H782.086V141.484L784.492 141.266L785.285 140.418V127.02C785.285 124.941 784.875 123.419 784.055 122.453C783.253 121.469 781.986 120.977 780.254 120.977C779.543 120.977 778.741 121.059 777.848 121.223C776.973 121.387 775.979 121.624 774.867 121.934V140.418L775.715 141.266L778.176 141.484V144H764.34V141.484L767.211 141.266L767.977 140.418V107.441H763.902V105.254L772.188 102.629Z" fill="black"/>
<path d="M815.664 138.504V129.371C811.982 130.191 809.466 131.085 808.117 132.051C806.768 133.017 806.094 134.329 806.094 135.988C806.094 137.283 806.467 138.312 807.215 139.078C807.962 139.826 808.974 140.199 810.25 140.199C810.961 140.199 811.763 140.062 812.656 139.789C813.568 139.497 814.57 139.069 815.664 138.504ZM815.664 140.801C813.768 142.095 812.046 143.034 810.496 143.617C808.947 144.201 807.461 144.492 806.039 144.492C803.888 144.492 802.129 143.818 800.762 142.469C799.395 141.102 798.711 139.352 798.711 137.219C798.711 134.594 799.714 132.57 801.719 131.148C803.724 129.727 808.4 128.186 815.746 126.527V124.859C815.746 122.836 815.318 121.359 814.461 120.43C813.604 119.5 812.255 119.035 810.414 119.035C810.013 119.035 809.594 119.062 809.156 119.117C808.719 119.172 808.245 119.254 807.734 119.363V124.613H802.566C801.673 124.613 801.017 124.449 800.598 124.121C800.197 123.793 799.996 123.273 799.996 122.562C799.996 120.812 801.172 119.29 803.523 117.996C805.875 116.702 808.764 116.055 812.191 116.055C816.038 116.055 818.745 116.793 820.312 118.27C821.88 119.746 822.664 122.316 822.664 125.98V140.473L823.402 141.266L826.383 141.539V144H816.402L815.664 140.801Z" fill="black"/>
<path d="M826.602 116.738H840.82V119.309L837.895 119.582L837.293 120.32L843.117 136.672L849.488 120.375L849.051 119.582L846.207 119.309V116.738H856.844V119.309L853.59 119.691L843.965 144H838.906L829.965 119.637L826.602 119.309V116.738Z" fill="black"/>
<path d="M875.902 126.746V126.145C875.902 123.866 875.483 122.125 874.645 120.922C873.806 119.701 872.603 119.09 871.035 119.09C869.322 119.09 867.945 119.773 866.906 121.141C865.867 122.49 865.302 124.358 865.211 126.746H875.902ZM883.258 137.055V141.211C881.344 142.305 879.411 143.125 877.461 143.672C875.51 144.219 873.56 144.492 871.609 144.492C867.435 144.492 864.081 143.207 861.547 140.637C859.031 138.066 857.773 134.667 857.773 130.438C857.773 126.19 859.059 122.727 861.629 120.047C864.217 117.349 867.544 116 871.609 116C875.292 116 878.154 117.112 880.195 119.336C882.237 121.542 883.258 124.65 883.258 128.66V129.727H864.938V129.891C864.938 133.081 865.74 135.587 867.344 137.41C868.948 139.233 871.154 140.145 873.961 140.145C875.438 140.145 876.941 139.889 878.473 139.379C880.004 138.868 881.599 138.094 883.258 137.055Z" fill="black"/>
<path d="M920.555 138.504V129.371C916.872 130.191 914.357 131.085 913.008 132.051C911.659 133.017 910.984 134.329 910.984 135.988C910.984 137.283 911.358 138.312 912.105 139.078C912.853 139.826 913.865 140.199 915.141 140.199C915.852 140.199 916.654 140.062 917.547 139.789C918.458 139.497 919.461 139.069 920.555 138.504ZM920.555 140.801C918.659 142.095 916.936 143.034 915.387 143.617C913.837 144.201 912.352 144.492 910.93 144.492C908.779 144.492 907.02 143.818 905.652 142.469C904.285 141.102 903.602 139.352 903.602 137.219C903.602 134.594 904.604 132.57 906.609 131.148C908.615 129.727 913.29 128.186 920.637 126.527V124.859C920.637 122.836 920.208 121.359 919.352 120.43C918.495 119.5 917.146 119.035 915.305 119.035C914.904 119.035 914.484 119.062 914.047 119.117C913.609 119.172 913.135 119.254 912.625 119.363V124.613H907.457C906.564 124.613 905.908 124.449 905.488 124.121C905.087 123.793 904.887 123.273 904.887 122.562C904.887 120.812 906.062 119.29 908.414 117.996C910.766 116.702 913.655 116.055 917.082 116.055C920.928 116.055 923.635 116.793 925.203 118.27C926.771 119.746 927.555 122.316 927.555 125.98V140.473L928.293 141.266L931.273 141.539V144H921.293L920.555 140.801Z" fill="black"/>
<path d="M960.039 140.637C960.641 140.764 961.233 140.865 961.816 140.938C962.418 140.992 963.02 141.02 963.621 141.02C966.137 141.02 968.133 140.044 969.609 138.094C971.104 136.143 971.852 133.518 971.852 130.219C971.852 127.284 971.195 124.996 969.883 123.355C968.589 121.697 966.784 120.867 964.469 120.867C963.867 120.867 963.202 120.958 962.473 121.141C961.762 121.305 960.951 121.569 960.039 121.934V140.637ZM949.402 156.277V153.68L952.438 153.406L953.203 152.559V121.086H949.402V118.844L957.523 116.219H960.039V119.582C961.807 118.361 963.402 117.467 964.824 116.902C966.246 116.337 967.604 116.055 968.898 116.055C971.943 116.055 974.467 117.303 976.473 119.801C978.478 122.28 979.48 125.434 979.48 129.262C979.48 133.746 978.141 137.328 975.461 140.008C972.781 142.669 969.172 144 964.633 144C963.867 144 963.102 143.982 962.336 143.945C961.589 143.891 960.832 143.818 960.066 143.727L960.039 152.668L960.887 153.461L964.359 153.68V156.277H949.402Z" fill="black"/>
<path d="M982.488 144V141.539L985.742 141.211L986.535 140.418V107.496H982.488V105.254L990.938 102.629H993.398V140.309L994.246 141.211L997.5 141.539V144H982.488Z" fill="black"/>
<path d="M1017.46 138.504V129.371C1013.78 130.191 1011.26 131.085 1009.91 132.051C1008.57 133.017 1007.89 134.329 1007.89 135.988C1007.89 137.283 1008.26 138.312 1009.01 139.078C1009.76 139.826 1010.77 140.199 1012.05 140.199C1012.76 140.199 1013.56 140.062 1014.45 139.789C1015.36 139.497 1016.37 139.069 1017.46 138.504ZM1017.46 140.801C1015.57 142.095 1013.84 143.034 1012.29 143.617C1010.74 144.201 1009.26 144.492 1007.84 144.492C1005.68 144.492 1003.93 143.818 1002.56 142.469C1001.19 141.102 1000.51 139.352 1000.51 137.219C1000.51 134.594 1001.51 132.57 1003.52 131.148C1005.52 129.727 1010.2 128.186 1017.54 126.527V124.859C1017.54 122.836 1017.11 121.359 1016.26 120.43C1015.4 119.5 1014.05 119.035 1012.21 119.035C1011.81 119.035 1011.39 119.062 1010.95 119.117C1010.52 119.172 1010.04 119.254 1009.53 119.363V124.613H1004.36C1003.47 124.613 1002.81 124.449 1002.39 124.121C1001.99 123.793 1001.79 123.273 1001.79 122.562C1001.79 120.812 1002.97 119.29 1005.32 117.996C1007.67 116.702 1010.56 116.055 1013.99 116.055C1017.83 116.055 1020.54 116.793 1022.11 118.27C1023.68 119.746 1024.46 122.316 1024.46 125.98V140.473L1025.2 141.266L1028.18 141.539V144H1018.2L1017.46 140.801Z" fill="black"/>
<path d="M1054.7 141.484C1052.86 142.487 1051.08 143.234 1049.34 143.727C1047.61 144.201 1045.87 144.438 1044.12 144.438C1040.11 144.438 1036.87 143.171 1034.39 140.637C1031.93 138.103 1030.7 134.785 1030.7 130.684C1030.7 126.436 1032.04 122.954 1034.74 120.238C1037.46 117.522 1040.92 116.164 1045.13 116.164C1047.89 116.164 1050.11 116.738 1051.8 117.887C1053.52 119.017 1054.38 120.475 1054.38 122.262C1054.38 123.374 1053.99 124.294 1053.23 125.023C1052.48 125.734 1051.52 126.09 1050.36 126.09C1049.72 126.09 1049.12 126.008 1048.58 125.844C1048.05 125.661 1047.54 125.388 1047.05 125.023V119.09C1046.74 119.017 1046.46 118.971 1046.23 118.953C1046.01 118.917 1045.81 118.898 1045.62 118.898C1043.55 118.898 1041.81 119.883 1040.4 121.852C1039 123.802 1038.3 126.29 1038.3 129.316C1038.3 132.634 1039.07 135.25 1040.62 137.164C1042.17 139.078 1044.28 140.035 1046.94 140.035C1048.14 140.035 1049.4 139.826 1050.71 139.406C1052.02 138.969 1053.35 138.331 1054.7 137.492V141.484Z" fill="black"/>
<path d="M1075.62 126.746V126.145C1075.62 123.866 1075.2 122.125 1074.36 120.922C1073.52 119.701 1072.32 119.09 1070.75 119.09C1069.04 119.09 1067.66 119.773 1066.62 121.141C1065.59 122.49 1065.02 124.358 1064.93 126.746H1075.62ZM1082.98 137.055V141.211C1081.06 142.305 1079.13 143.125 1077.18 143.672C1075.23 144.219 1073.28 144.492 1071.33 144.492C1067.15 144.492 1063.8 143.207 1061.27 140.637C1058.75 138.066 1057.49 134.667 1057.49 130.438C1057.49 126.19 1058.78 122.727 1061.35 120.047C1063.94 117.349 1067.26 116 1071.33 116C1075.01 116 1077.87 117.112 1079.91 119.336C1081.96 121.542 1082.98 124.65 1082.98 128.66V129.727H1064.66V129.891C1064.66 133.081 1065.46 135.587 1067.06 137.41C1068.67 139.233 1070.87 140.145 1073.68 140.145C1075.16 140.145 1076.66 139.889 1078.19 139.379C1079.72 138.868 1081.32 138.094 1082.98 137.055Z" fill="black"/>
<path d="M1105.78 120.812H1102.14V118.68L1106.27 116.328L1109.2 110.504H1112.73V117.449H1121.01V120.812H1112.73V134.758C1112.73 136.854 1113.06 138.285 1113.74 139.051C1114.41 139.816 1115.62 140.199 1117.38 140.199C1118.07 140.199 1118.71 140.172 1119.29 140.117C1119.89 140.044 1120.46 139.944 1121.01 139.816V142.496C1119.41 143.079 1117.88 143.526 1116.42 143.836C1114.98 144.128 1113.66 144.273 1112.45 144.273C1111.47 144.273 1110.59 144.173 1109.83 143.973C1109.08 143.772 1108.41 143.462 1107.8 143.043C1107.06 142.551 1106.53 141.94 1106.22 141.211C1105.93 140.464 1105.78 139.096 1105.78 137.109V120.812Z" fill="black"/>
<path d="M1137.5 119.035C1135.46 119.035 1133.86 120.01 1132.71 121.961C1131.57 123.911 1130.99 126.646 1130.99 130.164C1130.99 133.737 1131.56 136.517 1132.69 138.504C1133.84 140.491 1135.42 141.484 1137.45 141.484C1139.56 141.484 1141.19 140.518 1142.34 138.586C1143.49 136.654 1144.06 133.901 1144.06 130.328C1144.06 126.773 1143.48 124.003 1142.31 122.016C1141.16 120.029 1139.56 119.035 1137.5 119.035ZM1137.72 116.055C1142.02 116.055 1145.44 117.358 1147.97 119.965C1150.51 122.553 1151.77 126.062 1151.77 130.492C1151.77 134.685 1150.45 138.057 1147.81 140.609C1145.17 143.161 1141.66 144.438 1137.28 144.438C1133.07 144.438 1129.67 143.152 1127.08 140.582C1124.51 137.993 1123.23 134.594 1123.23 130.383C1123.23 126.062 1124.55 122.599 1127.19 119.992C1129.83 117.367 1133.34 116.055 1137.72 116.055Z" fill="black"/>
<path d="M1171.05 144V141.539L1174.3 141.211L1175.1 140.418V107.496H1171.05V105.254L1179.5 102.629H1181.96V140.309L1182.81 141.211L1186.06 141.539V144H1171.05Z" fill="black"/>
<path d="M1196.51 116.219H1199.21V140.418L1200.04 141.266L1203.18 141.484V144H1188.5V141.484L1191.53 141.266L1192.32 140.418V121.086H1188.63V118.844L1196.51 116.219ZM1195.91 103.449C1197.13 103.449 1198.13 103.841 1198.91 104.625C1199.7 105.391 1200.09 106.366 1200.09 107.551C1200.09 108.79 1199.7 109.811 1198.91 110.613C1198.15 111.397 1197.16 111.789 1195.96 111.789C1194.79 111.789 1193.82 111.397 1193.04 110.613C1192.25 109.829 1191.86 108.845 1191.86 107.66C1191.86 106.457 1192.24 105.454 1193.01 104.652C1193.79 103.85 1194.76 103.449 1195.91 103.449Z" fill="black"/>
<path d="M1203.62 116.738H1217.84V119.309L1214.91 119.582L1214.31 120.32L1220.13 136.672L1226.5 120.375L1226.07 119.582L1223.22 119.309V116.738H1233.86V119.309L1230.61 119.691L1220.98 144H1215.92L1206.98 119.637L1203.62 119.309V116.738Z" fill="black"/>
<path d="M1252.92 126.746V126.145C1252.92 123.866 1252.5 122.125 1251.66 120.922C1250.82 119.701 1249.62 119.09 1248.05 119.09C1246.34 119.09 1244.96 119.773 1243.92 121.141C1242.88 122.49 1242.32 124.358 1242.23 126.746H1252.92ZM1260.27 137.055V141.211C1258.36 142.305 1256.43 143.125 1254.48 143.672C1252.53 144.219 1250.58 144.492 1248.62 144.492C1244.45 144.492 1241.1 143.207 1238.56 140.637C1236.05 138.066 1234.79 134.667 1234.79 130.438C1234.79 126.19 1236.07 122.727 1238.64 120.047C1241.23 117.349 1244.56 116 1248.62 116C1252.31 116 1255.17 117.112 1257.21 119.336C1259.25 121.542 1260.27 124.65 1260.27 128.66V129.727H1241.95V129.891C1241.95 133.081 1242.76 135.587 1244.36 137.41C1245.96 139.233 1248.17 140.145 1250.98 140.145C1252.45 140.145 1253.96 139.889 1255.49 139.379C1257.02 138.868 1258.61 138.094 1260.27 137.055Z" fill="black"/>
<path d="M1324.35 294.035C1322.31 294.035 1320.71 295.01 1319.57 296.961C1318.42 298.911 1317.84 301.646 1317.84 305.164C1317.84 308.737 1318.41 311.517 1319.54 313.504C1320.69 315.491 1322.27 316.484 1324.3 316.484C1326.41 316.484 1328.04 315.518 1329.19 313.586C1330.34 311.654 1330.91 308.901 1330.91 305.328C1330.91 301.773 1330.33 299.003 1329.16 297.016C1328.02 295.029 1326.41 294.035 1324.35 294.035ZM1324.57 291.055C1328.87 291.055 1332.29 292.358 1334.82 294.965C1337.36 297.553 1338.62 301.062 1338.62 305.492C1338.62 309.685 1337.3 313.057 1334.66 315.609C1332.02 318.161 1328.51 319.438 1324.13 319.438C1319.92 319.438 1316.52 318.152 1313.93 315.582C1311.36 312.993 1310.08 309.594 1310.08 305.383C1310.08 301.062 1311.4 297.599 1314.04 294.992C1316.69 292.367 1320.2 291.055 1324.57 291.055Z" fill="black"/>
<path d="M1342.04 319V316.43L1344.86 316.156L1345.65 315.254V295.812H1342.04V293.68L1345.65 292.012C1345.65 289.296 1346.12 286.926 1347.05 284.902C1347.99 282.879 1349.43 281.156 1351.34 279.734C1352.36 278.987 1353.45 278.413 1354.59 278.012C1355.76 277.592 1356.94 277.383 1358.12 277.383C1359.73 277.383 1361 277.757 1361.95 278.504C1362.92 279.251 1363.4 280.245 1363.4 281.484C1363.4 282.25 1363.12 282.934 1362.55 283.535C1362 284.118 1361.2 284.592 1360.14 284.957L1354.7 280.145C1353.97 280.892 1353.43 281.977 1353.06 283.398C1352.7 284.82 1352.52 286.57 1352.52 288.648V289.086V292.449H1360.14V295.812H1352.52V315.309L1353.42 316.156L1357.16 316.43V319H1342.04Z" fill="black"/>
<path d="M1394.9 313.504V304.371C1391.22 305.191 1388.7 306.085 1387.35 307.051C1386 308.017 1385.33 309.329 1385.33 310.988C1385.33 312.283 1385.7 313.312 1386.45 314.078C1387.2 314.826 1388.21 315.199 1389.48 315.199C1390.2 315.199 1391 315.062 1391.89 314.789C1392.8 314.497 1393.8 314.069 1394.9 313.504ZM1394.9 315.801C1393 317.095 1391.28 318.034 1389.73 318.617C1388.18 319.201 1386.7 319.492 1385.27 319.492C1383.12 319.492 1381.36 318.818 1380 317.469C1378.63 316.102 1377.95 314.352 1377.95 312.219C1377.95 309.594 1378.95 307.57 1380.95 306.148C1382.96 304.727 1387.63 303.186 1394.98 301.527V299.859C1394.98 297.836 1394.55 296.359 1393.7 295.43C1392.84 294.5 1391.49 294.035 1389.65 294.035C1389.25 294.035 1388.83 294.062 1388.39 294.117C1387.95 294.172 1387.48 294.254 1386.97 294.363V299.613H1381.8C1380.91 299.613 1380.25 299.449 1379.83 299.121C1379.43 298.793 1379.23 298.273 1379.23 297.562C1379.23 295.812 1380.41 294.29 1382.76 292.996C1385.11 291.702 1388 291.055 1391.43 291.055C1395.27 291.055 1397.98 291.793 1399.55 293.27C1401.11 294.746 1401.9 297.316 1401.9 300.98V315.473L1402.64 316.266L1405.62 316.539V319H1395.64L1394.9 315.801Z" fill="black"/>
<path d="M1407.45 319V316.539L1410.7 316.211L1411.5 315.418V282.496H1407.45V280.254L1415.9 277.629H1418.36V315.309L1419.21 316.211L1422.46 316.539V319H1407.45Z" fill="black"/>
<path d="M1424.51 319V316.539L1427.77 316.211L1428.56 315.418V282.496H1424.51V280.254L1432.96 277.629H1435.42V315.309L1436.27 316.211L1439.52 316.539V319H1424.51Z" fill="black"/>
<path d="M1472.94 294.035C1470.9 294.035 1469.3 295.01 1468.15 296.961C1467 298.911 1466.43 301.646 1466.43 305.164C1466.43 308.737 1466.99 311.517 1468.12 313.504C1469.27 315.491 1470.86 316.484 1472.88 316.484C1475 316.484 1476.63 315.518 1477.78 313.586C1478.93 311.654 1479.5 308.901 1479.5 305.328C1479.5 301.773 1478.92 299.003 1477.75 297.016C1476.6 295.029 1475 294.035 1472.94 294.035ZM1473.16 291.055C1477.46 291.055 1480.88 292.358 1483.41 294.965C1485.94 297.553 1487.21 301.062 1487.21 305.492C1487.21 309.685 1485.89 313.057 1483.25 315.609C1480.6 318.161 1477.09 319.438 1472.72 319.438C1468.51 319.438 1465.11 318.152 1462.52 315.582C1459.95 312.993 1458.66 309.594 1458.66 305.383C1458.66 301.062 1459.99 297.599 1462.63 294.992C1465.27 292.367 1468.78 291.055 1473.16 291.055Z" fill="black"/>
<path d="M1490.52 319V316.484L1493.5 316.266L1494.29 315.418V296.086H1490.25V293.844L1498.48 291.219H1501.18L1500.94 296.934C1501.9 295.913 1502.93 294.928 1504.03 293.98C1505.12 293.014 1506.27 292.103 1507.47 291.246C1507.78 291.191 1508.03 291.155 1508.21 291.137C1508.41 291.118 1508.58 291.109 1508.73 291.109C1509.33 291.109 1509.93 291.191 1510.54 291.355C1511.15 291.501 1511.78 291.738 1512.42 292.066L1511.71 299.805H1508.79C1508.37 299.112 1507.86 298.602 1507.25 298.273C1506.67 297.945 1505.97 297.781 1505.15 297.781C1504.67 297.781 1504.1 297.918 1503.43 298.191C1502.77 298.447 1502.02 298.829 1501.18 299.34V315.418L1502 316.266L1506 316.484V319H1490.52Z" fill="black"/>
<path d="M1524.4 315.637C1525 315.764 1525.59 315.865 1526.18 315.938C1526.78 315.992 1527.38 316.02 1527.98 316.02C1530.5 316.02 1532.49 315.044 1533.97 313.094C1535.46 311.143 1536.21 308.518 1536.21 305.219C1536.21 302.284 1535.55 299.996 1534.24 298.355C1532.95 296.697 1531.14 295.867 1528.83 295.867C1528.23 295.867 1527.56 295.958 1526.83 296.141C1526.12 296.305 1525.31 296.569 1524.4 296.934V315.637ZM1513.76 331.277V328.68L1516.8 328.406L1517.56 327.559V296.086H1513.76V293.844L1521.88 291.219H1524.4V294.582C1526.17 293.361 1527.76 292.467 1529.18 291.902C1530.61 291.337 1531.96 291.055 1533.26 291.055C1536.3 291.055 1538.83 292.303 1540.83 294.801C1542.84 297.28 1543.84 300.434 1543.84 304.262C1543.84 308.746 1542.5 312.328 1539.82 315.008C1537.14 317.669 1533.53 319 1528.99 319C1528.23 319 1527.46 318.982 1526.7 318.945C1525.95 318.891 1525.19 318.818 1524.43 318.727L1524.4 327.668L1525.25 328.461L1528.72 328.68V331.277H1513.76Z" fill="black"/>
<path d="M1554.75 277.629H1557.43V294.527C1559.67 293.306 1561.54 292.431 1563.04 291.902C1564.55 291.374 1565.87 291.109 1567 291.109C1569.59 291.109 1571.51 291.884 1572.77 293.434C1574.05 294.965 1574.68 297.289 1574.68 300.406V315.418L1575.42 316.266L1578.38 316.484V319H1564.65V316.484L1567.05 316.266L1567.85 315.418V302.02C1567.85 299.941 1567.44 298.419 1566.62 297.453C1565.82 296.469 1564.55 295.977 1562.82 295.977C1562.11 295.977 1561.3 296.059 1560.41 296.223C1559.54 296.387 1558.54 296.624 1557.43 296.934V315.418L1558.28 316.266L1560.74 316.484V319H1546.9V316.484L1549.77 316.266L1550.54 315.418V282.441H1546.46V280.254L1554.75 277.629Z" fill="black"/>
<path d="M1598.23 313.504V304.371C1594.54 305.191 1592.03 306.085 1590.68 307.051C1589.33 308.017 1588.66 309.329 1588.66 310.988C1588.66 312.283 1589.03 313.312 1589.78 314.078C1590.52 314.826 1591.54 315.199 1592.81 315.199C1593.52 315.199 1594.33 315.062 1595.22 314.789C1596.13 314.497 1597.13 314.069 1598.23 313.504ZM1598.23 315.801C1596.33 317.095 1594.61 318.034 1593.06 318.617C1591.51 319.201 1590.02 319.492 1588.6 319.492C1586.45 319.492 1584.69 318.818 1583.32 317.469C1581.96 316.102 1581.27 314.352 1581.27 312.219C1581.27 309.594 1582.28 307.57 1584.28 306.148C1586.29 304.727 1590.96 303.186 1598.31 301.527V299.859C1598.31 297.836 1597.88 296.359 1597.02 295.43C1596.17 294.5 1594.82 294.035 1592.98 294.035C1592.58 294.035 1592.16 294.062 1591.72 294.117C1591.28 294.172 1590.81 294.254 1590.3 294.363V299.613H1585.13C1584.24 299.613 1583.58 299.449 1583.16 299.121C1582.76 298.793 1582.56 298.273 1582.56 297.562C1582.56 295.812 1583.73 294.29 1586.09 292.996C1588.44 291.702 1591.33 291.055 1594.75 291.055C1598.6 291.055 1601.31 291.793 1602.88 293.27C1604.44 294.746 1605.23 297.316 1605.23 300.98V315.473L1605.96 316.266L1608.95 316.539V319H1598.96L1598.23 315.801Z" fill="black"/>
<path d="M1611.21 319V316.484L1614.09 316.266L1614.88 315.418V296.086H1611.05V293.844L1619.12 291.219H1621.82V294.527C1623.96 293.342 1625.8 292.477 1627.35 291.93C1628.9 291.383 1630.25 291.109 1631.39 291.109C1633.95 291.109 1635.85 291.875 1637.11 293.406C1638.37 294.938 1639 297.271 1639 300.406V315.418L1639.73 316.266L1642.69 316.484V319H1628.99V316.484L1631.39 316.266L1632.16 315.418V302.02C1632.16 299.941 1631.76 298.419 1630.96 297.453C1630.15 296.469 1628.88 295.977 1627.13 295.977C1626.45 295.977 1625.67 296.059 1624.78 296.223C1623.9 296.387 1622.92 296.624 1621.82 296.934V315.418L1622.59 316.266L1625.05 316.484V319H1611.21Z" fill="black"/>
<path d="M1665.52 292.395V299.859H1662.16L1661.61 295.648L1660.93 295.02C1660.31 294.728 1659.69 294.509 1659.07 294.363C1658.45 294.217 1657.84 294.145 1657.23 294.145C1655.89 294.145 1654.84 294.445 1654.09 295.047C1653.34 295.63 1652.97 296.451 1652.97 297.508C1652.97 298.383 1653.26 299.139 1653.84 299.777C1654.43 300.415 1655.88 301.299 1658.19 302.43L1658.3 302.484C1663.68 305.073 1666.37 307.707 1666.37 310.387C1666.37 313.249 1665.35 315.509 1663.3 317.168C1661.28 318.809 1658.49 319.629 1654.94 319.629C1653.55 319.629 1652.08 319.51 1650.54 319.273C1649 319.036 1647.39 318.681 1645.7 318.207V309.922H1649.06L1649.71 314.734L1650.29 315.363C1651.02 315.746 1651.77 316.038 1652.56 316.238C1653.34 316.439 1654.15 316.539 1654.99 316.539C1656.47 316.539 1657.63 316.184 1658.46 315.473C1659.32 314.743 1659.75 313.75 1659.75 312.492C1659.75 310.906 1658.14 309.384 1654.91 307.926C1653.82 307.434 1652.97 307.033 1652.37 306.723C1650.05 305.574 1648.42 304.444 1647.47 303.332C1646.54 302.202 1646.08 300.871 1646.08 299.34C1646.08 296.842 1647.07 294.828 1649.06 293.297C1651.06 291.766 1653.73 291 1657.07 291C1658.49 291 1659.9 291.118 1661.31 291.355C1662.71 291.574 1664.12 291.921 1665.52 292.395Z" fill="black"/>
<path d="M1309.72 409V406.43L1312.54 406.156L1313.33 405.254V385.812H1309.72V383.68L1313.33 382.012C1313.33 379.296 1313.8 376.926 1314.73 374.902C1315.67 372.879 1317.11 371.156 1319.02 369.734C1320.04 368.987 1321.12 368.413 1322.27 368.012C1323.44 367.592 1324.62 367.383 1325.8 367.383C1327.4 367.383 1328.68 367.757 1329.63 368.504C1330.6 369.251 1331.08 370.245 1331.08 371.484C1331.08 372.25 1330.8 372.934 1330.23 373.535C1329.68 374.118 1328.88 374.592 1327.82 374.957L1322.38 370.145C1321.65 370.892 1321.11 371.977 1320.74 373.398C1320.38 374.82 1320.2 376.57 1320.2 378.648V379.086V382.449H1327.82V385.812H1320.2V405.309L1321.1 406.156L1324.84 406.43V409H1309.72Z" fill="black"/>
<path d="M1336.77 381.219H1339.47V405.418L1340.29 406.266L1343.44 406.484V409H1328.75V406.484L1331.79 406.266L1332.58 405.418V386.086H1328.89V383.844L1336.77 381.219ZM1336.16 368.449C1337.39 368.449 1338.39 368.841 1339.17 369.625C1339.96 370.391 1340.35 371.366 1340.35 372.551C1340.35 373.79 1339.96 374.811 1339.17 375.613C1338.41 376.397 1337.42 376.789 1336.22 376.789C1335.05 376.789 1334.08 376.397 1333.29 375.613C1332.51 374.829 1332.12 373.845 1332.12 372.66C1332.12 371.457 1332.5 370.454 1333.27 369.652C1334.05 368.85 1335.02 368.449 1336.16 368.449Z" fill="black"/>
<path d="M1348.91 385.812H1345.27V383.68L1349.4 381.328L1352.32 375.504H1355.85V382.449H1364.14V385.812H1355.85V399.758C1355.85 401.854 1356.19 403.285 1356.86 404.051C1357.54 404.816 1358.75 405.199 1360.5 405.199C1361.19 405.199 1361.83 405.172 1362.41 405.117C1363.02 405.044 1363.59 404.944 1364.14 404.816V407.496C1362.53 408.079 1361 408.526 1359.54 408.836C1358.1 409.128 1356.78 409.273 1355.58 409.273C1354.59 409.273 1353.72 409.173 1352.95 408.973C1352.21 408.772 1351.53 408.462 1350.93 408.043C1350.18 407.551 1349.65 406.94 1349.34 406.211C1349.05 405.464 1348.91 404.096 1348.91 402.109V385.812Z" fill="black"/>
<path d="M1390.25 381.219H1392.96V405.418L1393.78 406.266L1396.92 406.484V409H1382.24V406.484L1385.27 406.266L1386.07 405.418V386.086H1382.38V383.844L1390.25 381.219ZM1389.65 368.449C1390.87 368.449 1391.87 368.841 1392.66 369.625C1393.44 370.391 1393.83 371.366 1393.83 372.551C1393.83 373.79 1393.44 374.811 1392.66 375.613C1391.89 376.397 1390.91 376.789 1389.7 376.789C1388.54 376.789 1387.56 376.397 1386.78 375.613C1385.99 374.829 1385.6 373.845 1385.6 372.66C1385.6 371.457 1385.98 370.454 1386.75 369.652C1387.53 368.85 1388.5 368.449 1389.65 368.449Z" fill="black"/>
<path d="M1399.41 409V406.484L1402.28 406.266L1403.07 405.418V386.086H1399.25V383.844L1407.31 381.219H1410.02V384.527C1412.15 383.342 1413.99 382.477 1415.54 381.93C1417.09 381.383 1418.44 381.109 1419.59 381.109C1422.14 381.109 1424.05 381.875 1425.3 383.406C1426.56 384.938 1427.19 387.271 1427.19 390.406V405.418L1427.93 406.266L1430.88 406.484V409H1417.18V406.484L1419.59 406.266L1420.36 405.418V392.02C1420.36 389.941 1419.95 388.419 1419.15 387.453C1418.35 386.469 1417.07 385.977 1415.32 385.977C1414.65 385.977 1413.87 386.059 1412.97 386.223C1412.1 386.387 1411.11 386.624 1410.02 386.934V405.418L1410.79 406.266L1413.25 406.484V409H1399.41Z" fill="black"/>
<path d="M1461.1 374.629L1461.12 389.23C1461.36 389.249 1461.62 389.267 1461.89 389.285C1462.18 389.285 1462.59 389.285 1463.12 389.285C1466.15 389.285 1468.38 388.674 1469.82 387.453C1471.26 386.232 1471.98 384.345 1471.98 381.793C1471.98 379.46 1471.27 377.682 1469.85 376.461C1468.43 375.24 1466.38 374.629 1463.7 374.629H1461.1ZM1449.61 371.43H1466.65C1470.95 371.43 1474.21 372.241 1476.44 373.863C1478.68 375.486 1479.8 377.865 1479.8 381C1479.8 383.57 1478.99 385.667 1477.37 387.289C1475.74 388.893 1473.35 389.987 1470.18 390.57C1471.56 390.898 1472.73 391.345 1473.68 391.91C1474.64 392.457 1475.43 393.168 1476.05 394.043C1476.84 395.173 1477.62 397.033 1478.41 399.621C1478.79 400.842 1479.09 401.745 1479.31 402.328C1479.87 403.805 1480.62 404.835 1481.55 405.418C1482.5 405.983 1483.96 406.266 1485.93 406.266H1486.64V408.945C1485.6 409.091 1484.6 409.201 1483.66 409.273C1482.73 409.346 1481.85 409.383 1481.03 409.383C1479.88 409.383 1478.8 409.237 1477.78 408.945C1476.77 408.635 1475.92 408.207 1475.21 407.66C1473.51 406.348 1472.18 404.188 1471.21 401.18C1471.09 400.76 1470.99 400.432 1470.91 400.195C1469.86 397.005 1468.72 394.927 1467.5 393.961C1466.27 392.977 1464.46 392.484 1462.05 392.484H1461.1V405.09L1462 405.965L1465.42 406.266V409H1449.61V406.266L1452.92 405.965L1453.82 405.09V375.23L1452.92 374.438L1449.61 374.164V371.43Z" fill="black"/>
<path d="M1492.62 381.055H1495.3V398.418C1495.3 400.642 1495.71 402.246 1496.54 403.23C1497.37 404.197 1498.74 404.68 1500.64 404.68C1501.27 404.68 1501.98 404.616 1502.74 404.488C1503.53 404.342 1504.43 404.115 1505.45 403.805V385.922H1501.81V383.68L1509.77 381.055H1512.34V405.418L1513.11 406.266L1516.03 406.484V409H1505.45V405.91C1503.5 407.186 1501.78 408.107 1500.28 408.672C1498.8 409.219 1497.39 409.492 1496.04 409.492C1493.45 409.492 1491.52 408.708 1490.25 407.141C1488.99 405.573 1488.36 403.167 1488.36 399.922V385.922H1484.72V383.68L1492.62 381.055Z" fill="black"/>
<path d="M1539.19 382.395V389.859H1535.83L1535.28 385.648L1534.6 385.02C1533.98 384.728 1533.36 384.509 1532.74 384.363C1532.12 384.217 1531.51 384.145 1530.91 384.145C1529.56 384.145 1528.51 384.445 1527.76 385.047C1527.01 385.63 1526.64 386.451 1526.64 387.508C1526.64 388.383 1526.93 389.139 1527.52 389.777C1528.1 390.415 1529.55 391.299 1531.86 392.43L1531.97 392.484C1537.35 395.073 1540.04 397.707 1540.04 400.387C1540.04 403.249 1539.02 405.509 1536.98 407.168C1534.95 408.809 1532.16 409.629 1528.61 409.629C1527.22 409.629 1525.76 409.51 1524.21 409.273C1522.68 409.036 1521.06 408.681 1519.37 408.207V399.922H1522.73L1523.39 404.734L1523.96 405.363C1524.69 405.746 1525.45 406.038 1526.23 406.238C1527.01 406.439 1527.83 406.539 1528.66 406.539C1530.14 406.539 1531.3 406.184 1532.14 405.473C1532.99 404.743 1533.42 403.75 1533.42 402.492C1533.42 400.906 1531.81 399.384 1528.58 397.926C1527.49 397.434 1526.64 397.033 1526.04 396.723C1523.72 395.574 1522.09 394.444 1521.14 393.332C1520.21 392.202 1519.75 390.871 1519.75 389.34C1519.75 386.842 1520.74 384.828 1522.73 383.297C1524.74 381.766 1527.41 381 1530.74 381C1532.16 381 1533.58 381.118 1534.98 381.355C1536.38 381.574 1537.79 381.921 1539.19 382.395Z" fill="black"/>
<path d="M1564.24 382.395V389.859H1560.88L1560.33 385.648L1559.64 385.02C1559.02 384.728 1558.4 384.509 1557.79 384.363C1557.17 384.217 1556.55 384.145 1555.95 384.145C1554.6 384.145 1553.56 384.445 1552.81 385.047C1552.06 385.63 1551.69 386.451 1551.69 387.508C1551.69 388.383 1551.98 389.139 1552.56 389.777C1553.15 390.415 1554.6 391.299 1556.91 392.43L1557.02 392.484C1562.4 395.073 1565.09 397.707 1565.09 400.387C1565.09 403.249 1564.07 405.509 1562.02 407.168C1560 408.809 1557.21 409.629 1553.66 409.629C1552.27 409.629 1550.8 409.51 1549.25 409.273C1547.72 409.036 1546.11 408.681 1544.41 408.207V399.922H1547.78L1548.43 404.734L1549.01 405.363C1549.74 405.746 1550.49 406.038 1551.28 406.238C1552.06 406.439 1552.87 406.539 1553.71 406.539C1555.19 406.539 1556.35 406.184 1557.18 405.473C1558.04 404.743 1558.47 403.75 1558.47 402.492C1558.47 400.906 1556.86 399.384 1553.63 397.926C1552.54 397.434 1551.69 397.033 1551.09 396.723C1548.77 395.574 1547.14 394.444 1546.19 393.332C1545.26 392.202 1544.8 390.871 1544.8 389.34C1544.8 386.842 1545.79 384.828 1547.78 383.297C1549.78 381.766 1552.45 381 1555.79 381C1557.21 381 1558.62 381.118 1560.03 381.355C1561.43 381.574 1562.83 381.921 1564.24 382.395Z" fill="black"/>
<path d="M1576.84 381.219H1579.55V405.418L1580.37 406.266L1583.52 406.484V409H1568.83V406.484L1571.87 406.266L1572.66 405.418V386.086H1568.97V383.844L1576.84 381.219ZM1576.24 368.449C1577.46 368.449 1578.47 368.841 1579.25 369.625C1580.03 370.391 1580.43 371.366 1580.43 372.551C1580.43 373.79 1580.03 374.811 1579.25 375.613C1578.48 376.397 1577.5 376.789 1576.3 376.789C1575.13 376.789 1574.15 376.397 1573.37 375.613C1572.59 374.829 1572.2 373.845 1572.2 372.66C1572.2 371.457 1572.58 370.454 1573.34 369.652C1574.13 368.85 1575.09 368.449 1576.24 368.449Z" fill="black"/>
<path d="M1603.48 403.504V394.371C1599.79 395.191 1597.28 396.085 1595.93 397.051C1594.58 398.017 1593.91 399.329 1593.91 400.988C1593.91 402.283 1594.28 403.312 1595.03 404.078C1595.77 404.826 1596.79 405.199 1598.06 405.199C1598.77 405.199 1599.58 405.062 1600.47 404.789C1601.38 404.497 1602.38 404.069 1603.48 403.504ZM1603.48 405.801C1601.58 407.095 1599.86 408.034 1598.31 408.617C1596.76 409.201 1595.27 409.492 1593.85 409.492C1591.7 409.492 1589.94 408.818 1588.57 407.469C1587.21 406.102 1586.52 404.352 1586.52 402.219C1586.52 399.594 1587.53 397.57 1589.53 396.148C1591.54 394.727 1596.21 393.186 1603.56 391.527V389.859C1603.56 387.836 1603.13 386.359 1602.27 385.43C1601.42 384.5 1600.07 384.035 1598.23 384.035C1597.83 384.035 1597.41 384.062 1596.97 384.117C1596.53 384.172 1596.06 384.254 1595.55 384.363V389.613H1590.38C1589.49 389.613 1588.83 389.449 1588.41 389.121C1588.01 388.793 1587.81 388.273 1587.81 387.562C1587.81 385.812 1588.98 384.29 1591.34 382.996C1593.69 381.702 1596.58 381.055 1600 381.055C1603.85 381.055 1606.56 381.793 1608.12 383.27C1609.69 384.746 1610.48 387.316 1610.48 390.98V405.473L1611.21 406.266L1614.2 406.539V409H1604.21L1603.48 405.801Z" fill="black"/>
<path d="M1616.46 409V406.484L1619.34 406.266L1620.13 405.418V386.086H1616.3V383.844L1624.37 381.219H1627.07V384.527C1629.21 383.342 1631.05 382.477 1632.6 381.93C1634.15 381.383 1635.5 381.109 1636.64 381.109C1639.2 381.109 1641.1 381.875 1642.36 383.406C1643.62 384.938 1644.25 387.271 1644.25 390.406V405.418L1644.98 406.266L1647.94 406.484V409H1634.24V406.484L1636.64 406.266L1637.41 405.418V392.02C1637.41 389.941 1637.01 388.419 1636.21 387.453C1635.4 386.469 1634.13 385.977 1632.38 385.977C1631.7 385.977 1630.92 386.059 1630.03 386.223C1629.15 386.387 1628.17 386.624 1627.07 386.934V405.418L1627.84 406.266L1630.3 406.484V409H1616.46Z" fill="black"/>
<path d="M1687.07 382.395V389.859H1683.7L1683.16 385.648L1682.47 385.02C1681.85 384.728 1681.23 384.509 1680.61 384.363C1679.99 384.217 1679.38 384.145 1678.78 384.145C1677.43 384.145 1676.38 384.445 1675.64 385.047C1674.89 385.63 1674.52 386.451 1674.52 387.508C1674.52 388.383 1674.81 389.139 1675.39 389.777C1675.97 390.415 1677.42 391.299 1679.74 392.43L1679.85 392.484C1685.23 395.073 1687.91 397.707 1687.91 400.387C1687.91 403.249 1686.89 405.509 1684.85 407.168C1682.83 408.809 1680.04 409.629 1676.48 409.629C1675.1 409.629 1673.63 409.51 1672.08 409.273C1670.55 409.036 1668.94 408.681 1667.24 408.207V399.922H1670.61L1671.26 404.734L1671.84 405.363C1672.57 405.746 1673.32 406.038 1674.11 406.238C1674.89 406.439 1675.7 406.539 1676.54 406.539C1678.02 406.539 1679.17 406.184 1680.01 405.473C1680.87 404.743 1681.3 403.75 1681.3 402.492C1681.3 400.906 1679.68 399.384 1676.46 397.926C1675.36 397.434 1674.52 397.033 1673.91 396.723C1671.6 395.574 1669.97 394.444 1669.02 393.332C1668.09 392.202 1667.62 390.871 1667.62 389.34C1667.62 386.842 1668.62 384.828 1670.61 383.297C1672.61 381.766 1675.28 381 1678.62 381C1680.04 381 1681.45 381.118 1682.86 381.355C1684.26 381.574 1685.66 381.921 1687.07 382.395Z" fill="black"/>
<path d="M1706.34 384.035C1704.3 384.035 1702.71 385.01 1701.56 386.961C1700.41 388.911 1699.84 391.646 1699.84 395.164C1699.84 398.737 1700.4 401.517 1701.53 403.504C1702.68 405.491 1704.27 406.484 1706.29 406.484C1708.4 406.484 1710.04 405.518 1711.18 403.586C1712.33 401.654 1712.91 398.901 1712.91 395.328C1712.91 391.773 1712.32 389.003 1711.16 387.016C1710.01 385.029 1708.4 384.035 1706.34 384.035ZM1706.56 381.055C1710.86 381.055 1714.28 382.358 1716.82 384.965C1719.35 387.553 1720.62 391.062 1720.62 395.492C1720.62 399.685 1719.3 403.057 1716.65 405.609C1714.01 408.161 1710.5 409.438 1706.12 409.438C1701.91 409.438 1698.51 408.152 1695.93 405.582C1693.36 402.993 1692.07 399.594 1692.07 395.383C1692.07 391.062 1693.39 387.599 1696.04 384.992C1698.68 382.367 1702.19 381.055 1706.56 381.055Z" fill="black"/>
<path d="M1748.29 406.484C1746.45 407.487 1744.66 408.234 1742.93 408.727C1741.2 409.201 1739.46 409.438 1737.71 409.438C1733.7 409.438 1730.45 408.171 1727.97 405.637C1725.51 403.103 1724.28 399.785 1724.28 395.684C1724.28 391.436 1725.63 387.954 1728.33 385.238C1731.04 382.522 1734.51 381.164 1738.72 381.164C1741.47 381.164 1743.7 381.738 1745.39 382.887C1747.1 384.017 1747.96 385.475 1747.96 387.262C1747.96 388.374 1747.58 389.294 1746.81 390.023C1746.07 390.734 1745.11 391.09 1743.94 391.09C1743.3 391.09 1742.71 391.008 1742.16 390.844C1741.64 390.661 1741.12 390.388 1740.63 390.023V384.09C1740.32 384.017 1740.05 383.971 1739.81 383.953C1739.59 383.917 1739.39 383.898 1739.21 383.898C1737.13 383.898 1735.39 384.883 1733.99 386.852C1732.58 388.802 1731.88 391.29 1731.88 394.316C1731.88 397.634 1732.66 400.25 1734.21 402.164C1735.76 404.078 1737.86 405.035 1740.52 405.035C1741.73 405.035 1742.98 404.826 1744.3 404.406C1745.61 403.969 1746.94 403.331 1748.29 402.492V406.484Z" fill="black"/>
<path d="M1758.68 381.219H1761.39V405.418L1762.21 406.266L1765.35 406.484V409H1750.67V406.484L1753.7 406.266L1754.5 405.418V386.086H1750.8V383.844L1758.68 381.219ZM1758.08 368.449C1759.3 368.449 1760.3 368.841 1761.09 369.625C1761.87 370.391 1762.26 371.366 1762.26 372.551C1762.26 373.79 1761.87 374.811 1761.09 375.613C1760.32 376.397 1759.34 376.789 1758.13 376.789C1756.97 376.789 1755.99 376.397 1755.21 375.613C1754.42 374.829 1754.03 373.845 1754.03 372.66C1754.03 371.457 1754.41 370.454 1755.18 369.652C1755.96 368.85 1756.93 368.449 1758.08 368.449Z" fill="black"/>
<path d="M1786.32 391.746V391.145C1786.32 388.866 1785.9 387.125 1785.07 385.922C1784.23 384.701 1783.02 384.09 1781.46 384.09C1779.74 384.09 1778.37 384.773 1777.33 386.141C1776.29 387.49 1775.72 389.358 1775.63 391.746H1786.32ZM1793.68 402.055V406.211C1791.77 407.305 1789.83 408.125 1787.88 408.672C1785.93 409.219 1783.98 409.492 1782.03 409.492C1777.86 409.492 1774.5 408.207 1771.97 405.637C1769.45 403.066 1768.2 399.667 1768.2 395.438C1768.2 391.19 1769.48 387.727 1772.05 385.047C1774.64 382.349 1777.97 381 1782.03 381C1785.71 381 1788.58 382.112 1790.62 384.336C1792.66 386.542 1793.68 389.65 1793.68 393.66V394.727H1775.36V394.891C1775.36 398.081 1776.16 400.587 1777.77 402.41C1779.37 404.233 1781.58 405.145 1784.38 405.145C1785.86 405.145 1787.36 404.889 1788.89 404.379C1790.43 403.868 1792.02 403.094 1793.68 402.055Z" fill="black"/>
<path d="M1800.19 385.812H1796.55V383.68L1800.68 381.328L1803.61 375.504H1807.13V382.449H1815.42V385.812H1807.13V399.758C1807.13 401.854 1807.47 403.285 1808.14 404.051C1808.82 404.816 1810.03 405.199 1811.78 405.199C1812.47 405.199 1813.11 405.172 1813.7 405.117C1814.3 405.044 1814.87 404.944 1815.42 404.816V407.496C1813.81 408.079 1812.28 408.526 1810.82 408.836C1809.38 409.128 1808.06 409.273 1806.86 409.273C1805.88 409.273 1805 409.173 1804.23 408.973C1803.49 408.772 1802.81 408.462 1802.21 408.043C1801.46 407.551 1800.93 406.94 1800.62 406.211C1800.33 405.464 1800.19 404.096 1800.19 402.109V385.812Z" fill="black"/>
<path d="M1815.34 381.793H1829.55V384.199L1826.71 384.527L1826.14 385.32L1832.18 401.152L1838.28 385.375L1837.79 384.527L1834.83 384.199V381.793H1845.58V384.199L1842.54 384.691L1831.74 410.969C1830.41 414.177 1828.82 416.693 1826.96 418.516C1825.1 420.357 1823.22 421.277 1821.32 421.277C1820.01 421.277 1818.88 420.858 1817.93 420.02C1816.99 419.199 1816.51 418.233 1816.51 417.121C1816.51 416.319 1816.76 415.572 1817.25 414.879C1817.76 414.204 1818.48 413.63 1819.41 413.156L1824.28 416.492C1825.04 415.891 1825.79 415.007 1826.52 413.84C1827.27 412.691 1827.98 411.306 1828.65 409.684L1818.7 384.691L1815.34 384.199V381.793Z" fill="black"/>
</svg>
